G04 Layer_Color=16711935*
%FSLAX25Y25*%
%MOIN*%
G70*
G01*
G75*
G04:AMPARAMS|DCode=70|XSize=27.62mil|YSize=29.59mil|CornerRadius=4.95mil|HoleSize=0mil|Usage=FLASHONLY|Rotation=270.000|XOffset=0mil|YOffset=0mil|HoleType=Round|Shape=RoundedRectangle|*
%AMROUNDEDRECTD70*
21,1,0.02762,0.01968,0,0,270.0*
21,1,0.01772,0.02959,0,0,270.0*
1,1,0.00991,-0.00984,-0.00886*
1,1,0.00991,-0.00984,0.00886*
1,1,0.00991,0.00984,0.00886*
1,1,0.00991,0.00984,-0.00886*
%
%ADD70ROUNDEDRECTD70*%
%ADD82C,0.06706*%
G04:AMPARAMS|DCode=83|XSize=27.62mil|YSize=29.59mil|CornerRadius=4.95mil|HoleSize=0mil|Usage=FLASHONLY|Rotation=180.000|XOffset=0mil|YOffset=0mil|HoleType=Round|Shape=RoundedRectangle|*
%AMROUNDEDRECTD83*
21,1,0.02762,0.01968,0,0,180.0*
21,1,0.01772,0.02959,0,0,180.0*
1,1,0.00991,-0.00886,0.00984*
1,1,0.00991,0.00886,0.00984*
1,1,0.00991,0.00886,-0.00984*
1,1,0.00991,-0.00886,-0.00984*
%
%ADD83ROUNDEDRECTD83*%
%ADD84R,0.05524X0.07887*%
%ADD85R,0.03162X0.06902*%
G04:AMPARAMS|DCode=86|XSize=67.06mil|YSize=145.79mil|CornerRadius=11.38mil|HoleSize=0mil|Usage=FLASHONLY|Rotation=90.000|XOffset=0mil|YOffset=0mil|HoleType=Round|Shape=RoundedRectangle|*
%AMROUNDEDRECTD86*
21,1,0.06706,0.12303,0,0,90.0*
21,1,0.04429,0.14579,0,0,90.0*
1,1,0.02276,0.06152,0.02215*
1,1,0.02276,0.06152,-0.02215*
1,1,0.02276,-0.06152,-0.02215*
1,1,0.02276,-0.06152,0.02215*
%
%ADD86ROUNDEDRECTD86*%
G04:AMPARAMS|DCode=89|XSize=165.48mil|YSize=244.22mil|CornerRadius=43.37mil|HoleSize=0mil|Usage=FLASHONLY|Rotation=270.000|XOffset=0mil|YOffset=0mil|HoleType=Round|Shape=RoundedRectangle|*
%AMROUNDEDRECTD89*
21,1,0.16548,0.15748,0,0,270.0*
21,1,0.07874,0.24422,0,0,270.0*
1,1,0.08674,-0.07874,-0.03937*
1,1,0.08674,-0.07874,0.03937*
1,1,0.08674,0.07874,0.03937*
1,1,0.08674,0.07874,-0.03937*
%
%ADD89ROUNDEDRECTD89*%
%ADD90C,0.12611*%
%ADD91O,0.10642X0.20485*%
%ADD92C,0.03556*%
%ADD93O,0.07887X0.05524*%
%ADD94O,0.08674X0.05524*%
%ADD95C,0.15761*%
%ADD96R,0.08674X0.14579*%
%ADD97O,0.06776X0.03162*%
%ADD98O,0.06776X0.03162*%
%ADD99R,0.03162X0.04737*%
%ADD100R,0.11430X0.05524*%
%ADD101R,0.08674X0.05524*%
%ADD102R,0.05524X0.08674*%
%ADD103R,0.07887X0.05524*%
%ADD104R,0.06902X0.03162*%
%ADD105O,0.03950X0.08674*%
%ADD106O,0.08674X0.03950*%
%ADD107R,0.04461X0.04658*%
%ADD108R,0.04737X0.04737*%
%ADD109R,0.06587X0.05367*%
%ADD110R,0.08280X0.05524*%
%ADD111C,0.05524*%
%ADD112R,0.11036X0.02375*%
D70*
X249917Y-170155D02*
D03*
Y-174486D02*
D03*
X245973Y-170155D02*
D03*
Y-174486D02*
D03*
X242029Y-170155D02*
D03*
Y-174486D02*
D03*
X34529Y-170155D02*
D03*
Y-174486D02*
D03*
X30617Y-170155D02*
D03*
Y-174486D02*
D03*
X26616Y-170155D02*
D03*
Y-174486D02*
D03*
X171489Y-5865D02*
D03*
Y-1535D02*
D03*
X249129Y-15251D02*
D03*
Y-10921D02*
D03*
X249062Y-5786D02*
D03*
Y-1455D02*
D03*
X254929Y-163255D02*
D03*
Y-167586D02*
D03*
X39029Y-163255D02*
D03*
Y-167586D02*
D03*
X253196Y-5786D02*
D03*
Y-1455D02*
D03*
X176329Y-1586D02*
D03*
Y2745D02*
D03*
X176329Y-5655D02*
D03*
Y-9986D02*
D03*
X196716Y-1589D02*
D03*
Y2742D02*
D03*
X196689Y-5335D02*
D03*
Y-9665D02*
D03*
D82*
X261000Y-14611D02*
D03*
D83*
X240454Y-42500D02*
D03*
X236124D02*
D03*
X240454Y-46600D02*
D03*
X236124D02*
D03*
X236124Y-54800D02*
D03*
X240454D02*
D03*
X236124Y-58900D02*
D03*
X240454D02*
D03*
X236124Y-63000D02*
D03*
X240454D02*
D03*
X235924Y-38300D02*
D03*
X240254D02*
D03*
X236124Y-50700D02*
D03*
X240454D02*
D03*
X177335Y-85400D02*
D03*
X181665D02*
D03*
X195535D02*
D03*
X199865D02*
D03*
X35735D02*
D03*
X40065D02*
D03*
X53835D02*
D03*
X58165D02*
D03*
X30224Y-12900D02*
D03*
X34554D02*
D03*
X1844Y-18852D02*
D03*
X-2487D02*
D03*
X182135Y-77800D02*
D03*
X186465D02*
D03*
X191735D02*
D03*
X196065D02*
D03*
X40135D02*
D03*
X44465D02*
D03*
X50135D02*
D03*
X54465D02*
D03*
X131924Y-83800D02*
D03*
X136254D02*
D03*
X253294Y2880D02*
D03*
X248964D02*
D03*
X215635Y-64900D02*
D03*
X219965D02*
D03*
X241965Y-19700D02*
D03*
X237635D02*
D03*
X215635Y-69900D02*
D03*
X219965D02*
D03*
D84*
X66536Y7222D02*
D03*
X52363D02*
D03*
X75324Y7035D02*
D03*
X101309D02*
D03*
X111363D02*
D03*
X137347D02*
D03*
X162516Y7222D02*
D03*
X148343D02*
D03*
D85*
X57481Y-8034D02*
D03*
X61418D02*
D03*
X96191Y-7335D02*
D03*
X92254D02*
D03*
X88317D02*
D03*
X84380D02*
D03*
X80443D02*
D03*
X132229D02*
D03*
X128292D02*
D03*
X124355D02*
D03*
X120418D02*
D03*
X116481D02*
D03*
X153461Y-8034D02*
D03*
X157398D02*
D03*
D86*
X271017Y-121989D02*
D03*
Y-111989D02*
D03*
Y-101989D02*
D03*
D89*
X4349Y-133148D02*
D03*
Y-113463D02*
D03*
D90*
X220864Y-186706D02*
D03*
X169683D02*
D03*
X102753D02*
D03*
X51572D02*
D03*
D91*
X195273Y-167020D02*
D03*
X181494D02*
D03*
X209053D02*
D03*
X77163D02*
D03*
X63384D02*
D03*
X90943D02*
D03*
D92*
X13942Y-39195D02*
D03*
Y-61951D02*
D03*
D93*
X-428Y-33566D02*
D03*
X-429Y-67581D02*
D03*
D94*
X16028Y-67581D02*
D03*
X16028Y-33566D02*
D03*
D95*
X267717Y0D02*
D03*
X0Y-169323D02*
D03*
Y0D02*
D03*
X267717Y-169323D02*
D03*
D96*
X70180Y-129589D02*
D03*
X90653D02*
D03*
X178853D02*
D03*
X158380D02*
D03*
X193380D02*
D03*
X213853D02*
D03*
X34480D02*
D03*
X54953D02*
D03*
D97*
X21742Y-6638D02*
D03*
Y-1638D02*
D03*
Y3362D02*
D03*
Y8362D02*
D03*
D98*
X43316Y-6638D02*
D03*
Y-1638D02*
D03*
Y3362D02*
D03*
Y8362D02*
D03*
D99*
X189169Y-8932D02*
D03*
X185429D02*
D03*
X181689D02*
D03*
Y2091D02*
D03*
X189169D02*
D03*
X211169Y-8932D02*
D03*
X207429D02*
D03*
X203689D02*
D03*
Y2091D02*
D03*
X211169D02*
D03*
X236160Y-2988D02*
D03*
X239900D02*
D03*
X243640D02*
D03*
Y-14012D02*
D03*
X236160D02*
D03*
D100*
X94379Y-81753D02*
D03*
Y-94352D02*
D03*
X226929Y-9620D02*
D03*
Y2978D02*
D03*
D101*
X33016Y-59747D02*
D03*
Y-42031D02*
D03*
D102*
X125431Y-75300D02*
D03*
X143147D02*
D03*
D103*
X-7591Y-63544D02*
D03*
Y-37560D02*
D03*
D104*
X6779Y-42678D02*
D03*
Y-46615D02*
D03*
Y-50552D02*
D03*
Y-54489D02*
D03*
Y-58426D02*
D03*
D105*
X255439Y-104006D02*
D03*
X260164D02*
D03*
D106*
X270989Y-94624D02*
D03*
Y-89900D02*
D03*
D107*
X7347Y-19052D02*
D03*
X13410D02*
D03*
D108*
X235205Y3080D02*
D03*
X244654D02*
D03*
D109*
X34400Y-106992D02*
D03*
Y-114000D02*
D03*
X245289Y-106992D02*
D03*
Y-114000D02*
D03*
D110*
X51289Y-103501D02*
D03*
Y-116099D02*
D03*
X70937Y-103501D02*
D03*
Y-116099D02*
D03*
X90585Y-103501D02*
D03*
Y-116099D02*
D03*
X110233Y-103501D02*
D03*
Y-116099D02*
D03*
X129882Y-103501D02*
D03*
Y-116099D02*
D03*
X149564Y-103126D02*
D03*
Y-115725D02*
D03*
X169246Y-103126D02*
D03*
Y-115725D02*
D03*
X188929Y-103126D02*
D03*
Y-115725D02*
D03*
X208611Y-103126D02*
D03*
Y-115725D02*
D03*
X228294Y-103126D02*
D03*
Y-115725D02*
D03*
D111*
X266489Y-71600D02*
D03*
X273389D02*
D03*
D112*
X256789Y-35221D02*
D03*
Y-37976D02*
D03*
Y-40732D02*
D03*
Y-43488D02*
D03*
Y-46244D02*
D03*
Y-49000D02*
D03*
Y-51756D02*
D03*
Y-54512D02*
D03*
Y-57268D02*
D03*
Y-60024D02*
D03*
Y-62779D02*
D03*
Y-65535D02*
D03*
Y-68291D02*
D03*
M02*
