G04 Layer_Physical_Order=2*
G04 Layer_Color=36540*
%FSLAX25Y25*%
%MOIN*%
G70*
G01*
G75*
%ADD31C,0.01000*%
%ADD34C,0.03000*%
G04:AMPARAMS|DCode=36|XSize=157.48mil|YSize=236.22mil|CornerRadius=39.37mil|HoleSize=0mil|Usage=FLASHONLY|Rotation=270.000|XOffset=0mil|YOffset=0mil|HoleType=Round|Shape=RoundedRectangle|*
%AMROUNDEDRECTD36*
21,1,0.15748,0.15748,0,0,270.0*
21,1,0.07874,0.23622,0,0,270.0*
1,1,0.07874,-0.07874,-0.03937*
1,1,0.07874,-0.07874,0.03937*
1,1,0.07874,0.07874,0.03937*
1,1,0.07874,0.07874,-0.03937*
%
%ADD36ROUNDEDRECTD36*%
%ADD37C,0.11811*%
%ADD38O,0.09842X0.19685*%
%ADD39C,0.02756*%
%ADD40O,0.07087X0.04724*%
%ADD41O,0.07874X0.04724*%
%ADD42C,0.14961*%
%ADD43C,0.02000*%
%ADD44C,0.01968*%
G36*
X68747Y20100D02*
X66673D01*
X62511Y26853D01*
Y20100D01*
X60601D01*
Y30349D01*
X62600D01*
X66836Y23447D01*
Y30349D01*
X68747D01*
Y20100D01*
D02*
G37*
G36*
X54484Y30526D02*
X54647Y30511D01*
X54840Y30497D01*
X55047Y30482D01*
X55269Y30437D01*
X55743Y30349D01*
X56232Y30200D01*
X56484Y30112D01*
X56721Y30008D01*
X56943Y29889D01*
X57150Y29741D01*
X57165Y29726D01*
X57195Y29712D01*
X57254Y29652D01*
X57328Y29593D01*
X57417Y29519D01*
X57506Y29416D01*
X57609Y29297D01*
X57728Y29164D01*
X57846Y29016D01*
X57965Y28853D01*
X58083Y28675D01*
X58187Y28468D01*
X58305Y28260D01*
X58394Y28038D01*
X58483Y27786D01*
X58542Y27535D01*
X56484Y27150D01*
Y27164D01*
X56469Y27179D01*
X56439Y27268D01*
X56380Y27401D01*
X56291Y27579D01*
X56188Y27772D01*
X56040Y27964D01*
X55862Y28157D01*
X55654Y28334D01*
X55625Y28349D01*
X55551Y28408D01*
X55418Y28482D01*
X55255Y28556D01*
X55032Y28645D01*
X54781Y28705D01*
X54499Y28764D01*
X54173Y28779D01*
X54040D01*
X53951Y28764D01*
X53833Y28749D01*
X53699Y28734D01*
X53551Y28705D01*
X53389Y28675D01*
X53048Y28571D01*
X52870Y28497D01*
X52692Y28408D01*
X52515Y28305D01*
X52337Y28201D01*
X52174Y28053D01*
X52011Y27905D01*
X51996Y27890D01*
X51982Y27860D01*
X51937Y27816D01*
X51893Y27742D01*
X51833Y27653D01*
X51759Y27549D01*
X51685Y27416D01*
X51626Y27268D01*
X51552Y27090D01*
X51478Y26898D01*
X51404Y26690D01*
X51345Y26468D01*
X51300Y26217D01*
X51256Y25935D01*
X51241Y25654D01*
X51226Y25343D01*
Y25328D01*
Y25269D01*
Y25165D01*
X51241Y25047D01*
X51256Y24884D01*
X51271Y24721D01*
X51300Y24513D01*
X51330Y24306D01*
X51419Y23862D01*
X51567Y23403D01*
X51656Y23180D01*
X51759Y22973D01*
X51893Y22766D01*
X52026Y22588D01*
X52041Y22573D01*
X52070Y22544D01*
X52115Y22499D01*
X52174Y22440D01*
X52263Y22381D01*
X52352Y22292D01*
X52470Y22218D01*
X52604Y22129D01*
X52752Y22040D01*
X52900Y21966D01*
X53270Y21818D01*
X53477Y21759D01*
X53685Y21714D01*
X53922Y21685D01*
X54159Y21670D01*
X54277D01*
X54396Y21685D01*
X54573Y21700D01*
X54766Y21729D01*
X54988Y21774D01*
X55225Y21833D01*
X55462Y21922D01*
X55477D01*
X55492Y21936D01*
X55566Y21966D01*
X55699Y22025D01*
X55847Y22099D01*
X56025Y22188D01*
X56217Y22292D01*
X56410Y22410D01*
X56587Y22544D01*
Y23862D01*
X54218D01*
Y25594D01*
X58676D01*
Y21477D01*
X58646Y21448D01*
X58602Y21418D01*
X58557Y21374D01*
X58483Y21314D01*
X58409Y21255D01*
X58202Y21107D01*
X57920Y20944D01*
X57595Y20752D01*
X57224Y20559D01*
X56780Y20381D01*
X56765D01*
X56721Y20367D01*
X56661Y20337D01*
X56573Y20307D01*
X56454Y20278D01*
X56321Y20233D01*
X56173Y20189D01*
X56010Y20144D01*
X55640Y20056D01*
X55210Y19982D01*
X54766Y19922D01*
X54292Y19907D01*
X54129D01*
X54025Y19922D01*
X53877D01*
X53714Y19937D01*
X53537Y19967D01*
X53329Y19996D01*
X52900Y20070D01*
X52426Y20189D01*
X51937Y20352D01*
X51715Y20455D01*
X51478Y20574D01*
X51463Y20589D01*
X51434Y20604D01*
X51359Y20648D01*
X51285Y20707D01*
X51182Y20766D01*
X51078Y20855D01*
X50945Y20959D01*
X50812Y21078D01*
X50515Y21344D01*
X50219Y21685D01*
X49938Y22070D01*
X49686Y22514D01*
Y22529D01*
X49656Y22573D01*
X49627Y22647D01*
X49597Y22736D01*
X49553Y22855D01*
X49494Y22988D01*
X49449Y23151D01*
X49390Y23329D01*
X49331Y23521D01*
X49286Y23743D01*
X49183Y24202D01*
X49123Y24706D01*
X49094Y25254D01*
Y25269D01*
Y25328D01*
Y25417D01*
X49108Y25521D01*
Y25669D01*
X49123Y25831D01*
X49153Y26009D01*
X49183Y26217D01*
X49257Y26646D01*
X49375Y27135D01*
X49538Y27624D01*
X49642Y27860D01*
X49760Y28097D01*
X49775Y28112D01*
X49790Y28157D01*
X49834Y28216D01*
X49878Y28305D01*
X49953Y28408D01*
X50041Y28527D01*
X50145Y28660D01*
X50249Y28808D01*
X50382Y28956D01*
X50530Y29119D01*
X50693Y29282D01*
X50871Y29445D01*
X51063Y29593D01*
X51256Y29756D01*
X51715Y30023D01*
X51730D01*
X51759Y30052D01*
X51819Y30067D01*
X51893Y30112D01*
X51996Y30141D01*
X52100Y30186D01*
X52248Y30230D01*
X52396Y30289D01*
X52559Y30334D01*
X52752Y30378D01*
X52959Y30423D01*
X53166Y30467D01*
X53640Y30526D01*
X54173Y30541D01*
X54351D01*
X54484Y30526D01*
D02*
G37*
G36*
X278817Y-169316D02*
X278813Y-169321D01*
X278813Y-169321D01*
X278813Y-169321D01*
X278678Y-171028D01*
X278272Y-172721D01*
X277605Y-174330D01*
X276695Y-175815D01*
X275564Y-177139D01*
X274240Y-178270D01*
X272755Y-179180D01*
X271146Y-179847D01*
X269453Y-180253D01*
X267717Y-180390D01*
Y-180392D01*
X228738D01*
X228466Y-180446D01*
X228235Y-180600D01*
X228081Y-180831D01*
X228027Y-181102D01*
Y-186706D01*
X228025D01*
X227888Y-188103D01*
X227480Y-189446D01*
X226818Y-190684D01*
X225928Y-191770D01*
X224843Y-192660D01*
X223604Y-193322D01*
X222261Y-193730D01*
X220864Y-193867D01*
Y-193869D01*
X169683D01*
Y-193867D01*
X168286Y-193730D01*
X166942Y-193322D01*
X165704Y-192660D01*
X164619Y-191770D01*
X163728Y-190684D01*
X163066Y-189446D01*
X162659Y-188103D01*
X162521Y-186706D01*
X162519D01*
Y-181102D01*
X162465Y-180831D01*
X162311Y-180600D01*
X162081Y-180446D01*
X161809Y-180392D01*
X161793Y-180395D01*
X110628D01*
X110356Y-180449D01*
X110125Y-180603D01*
X109971Y-180834D01*
X109917Y-181105D01*
Y-186706D01*
X109915D01*
X109778Y-188103D01*
X109370Y-189446D01*
X108708Y-190684D01*
X107818Y-191770D01*
X106732Y-192660D01*
X105494Y-193322D01*
X104151Y-193730D01*
X102753Y-193867D01*
Y-193869D01*
X51572D01*
Y-193867D01*
X50175Y-193730D01*
X48832Y-193322D01*
X47594Y-192660D01*
X46508Y-191770D01*
X45618Y-190684D01*
X44956Y-189446D01*
X44548Y-188103D01*
X44411Y-186706D01*
X44409D01*
Y-181102D01*
X44355Y-180831D01*
X44201Y-180600D01*
X43970Y-180446D01*
X43698Y-180392D01*
X-0D01*
Y-180390D01*
X-1736Y-180253D01*
X-3430Y-179847D01*
X-5039Y-179180D01*
X-6523Y-178270D01*
X-7848Y-177139D01*
X-8979Y-175815D01*
X-9889Y-174330D01*
X-10555Y-172721D01*
X-10962Y-171028D01*
X-11098Y-169291D01*
X-11101D01*
Y-93152D01*
X16831D01*
X16871Y-93200D01*
X16987Y-93785D01*
X17319Y-94281D01*
X17815Y-94613D01*
X18400Y-94729D01*
X18985Y-94613D01*
X19481Y-94281D01*
X19813Y-93785D01*
X19929Y-93200D01*
X19969Y-93152D01*
X278817D01*
Y-169316D01*
D02*
G37*
G36*
X44680Y30393D02*
X44813Y30378D01*
X44962Y30363D01*
X45125Y30334D01*
X45302Y30304D01*
X45687Y30200D01*
X46072Y30052D01*
X46280Y29963D01*
X46457Y29860D01*
X46650Y29726D01*
X46813Y29578D01*
X46828Y29564D01*
X46857Y29549D01*
X46887Y29489D01*
X46946Y29430D01*
X47020Y29356D01*
X47094Y29253D01*
X47168Y29149D01*
X47257Y29016D01*
X47405Y28719D01*
X47553Y28379D01*
X47613Y28186D01*
X47642Y27979D01*
X47672Y27757D01*
X47687Y27535D01*
Y27505D01*
Y27416D01*
X47672Y27283D01*
X47657Y27120D01*
X47627Y26913D01*
X47583Y26690D01*
X47524Y26454D01*
X47435Y26217D01*
X47420Y26187D01*
X47390Y26113D01*
X47331Y25980D01*
X47242Y25817D01*
X47139Y25624D01*
X47005Y25402D01*
X46843Y25165D01*
X46650Y24913D01*
X46635Y24898D01*
X46576Y24824D01*
X46487Y24721D01*
X46354Y24573D01*
X46176Y24395D01*
X45954Y24158D01*
X45687Y23906D01*
X45362Y23595D01*
X45347Y23580D01*
X45317Y23565D01*
X45273Y23521D01*
X45213Y23462D01*
X45050Y23314D01*
X44858Y23136D01*
X44665Y22943D01*
X44473Y22751D01*
X44295Y22588D01*
X44236Y22514D01*
X44177Y22455D01*
X44162Y22440D01*
X44132Y22410D01*
X44088Y22351D01*
X44029Y22277D01*
X43895Y22114D01*
X43777Y21922D01*
X47687D01*
Y20100D01*
X40800D01*
Y20115D01*
Y20144D01*
X40815Y20204D01*
X40830Y20278D01*
X40844Y20367D01*
X40859Y20470D01*
X40918Y20737D01*
X41007Y21033D01*
X41126Y21359D01*
X41274Y21714D01*
X41466Y22055D01*
Y22070D01*
X41496Y22099D01*
X41526Y22159D01*
X41585Y22218D01*
X41644Y22321D01*
X41733Y22425D01*
X41837Y22558D01*
X41955Y22707D01*
X42088Y22884D01*
X42251Y23062D01*
X42429Y23269D01*
X42636Y23492D01*
X42859Y23714D01*
X43110Y23965D01*
X43377Y24232D01*
X43673Y24513D01*
X43688Y24528D01*
X43732Y24573D01*
X43792Y24632D01*
X43881Y24721D01*
X43999Y24810D01*
X44117Y24928D01*
X44384Y25195D01*
X44651Y25476D01*
X44917Y25757D01*
X45036Y25876D01*
X45154Y26009D01*
X45243Y26113D01*
X45302Y26202D01*
X45317Y26231D01*
X45362Y26305D01*
X45436Y26424D01*
X45510Y26587D01*
X45584Y26765D01*
X45658Y26972D01*
X45702Y27179D01*
X45717Y27401D01*
Y27416D01*
Y27431D01*
Y27505D01*
X45702Y27638D01*
X45673Y27786D01*
X45628Y27949D01*
X45569Y28112D01*
X45480Y28275D01*
X45362Y28423D01*
X45347Y28438D01*
X45302Y28482D01*
X45213Y28542D01*
X45110Y28601D01*
X44962Y28660D01*
X44799Y28719D01*
X44606Y28764D01*
X44384Y28779D01*
X44280D01*
X44162Y28764D01*
X44029Y28734D01*
X43866Y28690D01*
X43703Y28616D01*
X43540Y28527D01*
X43392Y28408D01*
X43377Y28394D01*
X43332Y28334D01*
X43273Y28245D01*
X43214Y28112D01*
X43140Y27949D01*
X43081Y27727D01*
X43022Y27475D01*
X42992Y27179D01*
X41037Y27372D01*
Y27387D01*
X41052Y27446D01*
Y27520D01*
X41081Y27638D01*
X41096Y27772D01*
X41141Y27920D01*
X41185Y28083D01*
X41230Y28275D01*
X41378Y28645D01*
X41555Y29030D01*
X41674Y29223D01*
X41807Y29401D01*
X41955Y29549D01*
X42118Y29697D01*
X42133Y29712D01*
X42162Y29726D01*
X42207Y29756D01*
X42281Y29815D01*
X42370Y29860D01*
X42488Y29919D01*
X42607Y29993D01*
X42755Y30052D01*
X42918Y30126D01*
X43095Y30186D01*
X43481Y30304D01*
X43940Y30378D01*
X44177Y30393D01*
X44428Y30408D01*
X44576D01*
X44680Y30393D01*
D02*
G37*
G36*
X75144Y30334D02*
X75426Y30319D01*
X75737Y30304D01*
X76063Y30260D01*
X76374Y30215D01*
X76655Y30141D01*
X76670D01*
X76699Y30126D01*
X76744Y30112D01*
X76803Y30097D01*
X76981Y30023D01*
X77188Y29919D01*
X77425Y29786D01*
X77692Y29623D01*
X77943Y29430D01*
X78195Y29193D01*
X78210D01*
X78225Y29164D01*
X78299Y29075D01*
X78417Y28927D01*
X78551Y28734D01*
X78714Y28497D01*
X78877Y28216D01*
X79039Y27890D01*
X79173Y27535D01*
Y27520D01*
X79188Y27490D01*
X79202Y27431D01*
X79232Y27357D01*
X79247Y27268D01*
X79276Y27150D01*
X79306Y27016D01*
X79350Y26868D01*
X79380Y26705D01*
X79410Y26513D01*
X79439Y26320D01*
X79454Y26098D01*
X79498Y25639D01*
X79513Y25121D01*
Y25106D01*
Y25061D01*
Y25002D01*
Y24913D01*
X79498Y24795D01*
Y24676D01*
X79484Y24528D01*
X79469Y24365D01*
X79439Y24025D01*
X79380Y23669D01*
X79291Y23299D01*
X79188Y22943D01*
Y22929D01*
X79173Y22899D01*
X79143Y22840D01*
X79114Y22751D01*
X79084Y22662D01*
X79025Y22558D01*
X78906Y22292D01*
X78758Y22011D01*
X78566Y21700D01*
X78343Y21403D01*
X78092Y21122D01*
X78062Y21092D01*
X77988Y21033D01*
X77869Y20944D01*
X77706Y20826D01*
X77499Y20692D01*
X77262Y20559D01*
X76966Y20426D01*
X76640Y20307D01*
X76625D01*
X76611Y20292D01*
X76566D01*
X76522Y20278D01*
X76359Y20248D01*
X76152Y20204D01*
X75900Y20159D01*
X75589Y20130D01*
X75218Y20115D01*
X74819Y20100D01*
X70938D01*
Y30349D01*
X75026D01*
X75144Y30334D01*
D02*
G37*
G36*
X267717Y11098D02*
X269453Y10962D01*
X271146Y10555D01*
X272755Y9889D01*
X274240Y8979D01*
X275564Y7848D01*
X276695Y6523D01*
X277605Y5039D01*
X278272Y3430D01*
X278678Y1736D01*
X278815Y0D01*
X278817D01*
Y-90505D01*
X266508D01*
X266097Y-90005D01*
X266118Y-89900D01*
X266002Y-89315D01*
X265670Y-88819D01*
X265174Y-88487D01*
X264589Y-88371D01*
X264004Y-88487D01*
X263508Y-88819D01*
X263176Y-89315D01*
X263060Y-89900D01*
X263081Y-90005D01*
X262670Y-90505D01*
X20068D01*
X19829Y-90005D01*
X19929Y-89500D01*
X19813Y-88915D01*
X19481Y-88419D01*
X18985Y-88087D01*
X18400Y-87971D01*
X17815Y-88087D01*
X17319Y-88419D01*
X16987Y-88915D01*
X16871Y-89500D01*
X16971Y-90005D01*
X16732Y-90505D01*
X-11101D01*
Y-0D01*
X-11098D01*
X-10962Y1736D01*
X-10555Y3430D01*
X-9889Y5039D01*
X-8979Y6523D01*
X-7848Y7848D01*
X-6523Y8979D01*
X-5039Y9889D01*
X-3430Y10555D01*
X-1736Y10962D01*
X-0Y11098D01*
Y11101D01*
X267717D01*
Y11098D01*
D02*
G37*
%LPC*%
G36*
X267589Y-103176D02*
X267010Y-103291D01*
X266519Y-103619D01*
X266191Y-104110D01*
X266076Y-104689D01*
X266191Y-105268D01*
X266519Y-105759D01*
X267010Y-106087D01*
X267589Y-106202D01*
X268168Y-106087D01*
X268659Y-105759D01*
X268987Y-105268D01*
X269102Y-104689D01*
X268987Y-104110D01*
X268659Y-103619D01*
X268168Y-103291D01*
X267589Y-103176D01*
D02*
G37*
G36*
X274089Y-107787D02*
X273510Y-107902D01*
X273019Y-108230D01*
X272691Y-108721D01*
X272576Y-109300D01*
X272691Y-109879D01*
X273019Y-110370D01*
X273510Y-110698D01*
X274089Y-110813D01*
X274668Y-110698D01*
X275159Y-110370D01*
X275487Y-109879D01*
X275602Y-109300D01*
X275487Y-108721D01*
X275159Y-108230D01*
X274668Y-107902D01*
X274089Y-107787D01*
D02*
G37*
G36*
X267589D02*
X267010Y-107902D01*
X266519Y-108230D01*
X266191Y-108721D01*
X266076Y-109300D01*
X266191Y-109879D01*
X266519Y-110370D01*
X267010Y-110698D01*
X267589Y-110813D01*
X268168Y-110698D01*
X268659Y-110370D01*
X268987Y-109879D01*
X269102Y-109300D01*
X268987Y-108721D01*
X268659Y-108230D01*
X268168Y-107902D01*
X267589Y-107787D01*
D02*
G37*
G36*
X274089Y-97787D02*
X273510Y-97902D01*
X273019Y-98230D01*
X272691Y-98721D01*
X272576Y-99300D01*
X272691Y-99879D01*
X273019Y-100370D01*
X273510Y-100698D01*
X274089Y-100813D01*
X274668Y-100698D01*
X275159Y-100370D01*
X275487Y-99879D01*
X275602Y-99300D01*
X275487Y-98721D01*
X275159Y-98230D01*
X274668Y-97902D01*
X274089Y-97787D01*
D02*
G37*
G36*
X267589D02*
X267010Y-97902D01*
X266519Y-98230D01*
X266191Y-98721D01*
X266076Y-99300D01*
X266191Y-99879D01*
X266519Y-100370D01*
X267010Y-100698D01*
X267589Y-100813D01*
X268168Y-100698D01*
X268659Y-100370D01*
X268987Y-99879D01*
X269102Y-99300D01*
X268987Y-98721D01*
X268659Y-98230D01*
X268168Y-97902D01*
X267589Y-97787D01*
D02*
G37*
G36*
X274089Y-103176D02*
X273510Y-103291D01*
X273019Y-103619D01*
X272691Y-104110D01*
X272576Y-104689D01*
X272691Y-105268D01*
X273019Y-105759D01*
X273510Y-106087D01*
X274089Y-106202D01*
X274668Y-106087D01*
X275159Y-105759D01*
X275487Y-105268D01*
X275602Y-104689D01*
X275487Y-104110D01*
X275159Y-103619D01*
X274668Y-103291D01*
X274089Y-103176D01*
D02*
G37*
G36*
Y-113176D02*
X273510Y-113291D01*
X273019Y-113619D01*
X272691Y-114110D01*
X272576Y-114689D01*
X272691Y-115268D01*
X273019Y-115759D01*
X273510Y-116087D01*
X274089Y-116202D01*
X274668Y-116087D01*
X275159Y-115759D01*
X275487Y-115268D01*
X275602Y-114689D01*
X275487Y-114110D01*
X275159Y-113619D01*
X274668Y-113291D01*
X274089Y-113176D01*
D02*
G37*
G36*
X101267Y-122694D02*
X100682Y-122810D01*
X100185Y-123141D01*
X99998D01*
X99502Y-122810D01*
X98917Y-122694D01*
X98332Y-122810D01*
X97835Y-123141D01*
X97648D01*
X97152Y-122810D01*
X96567Y-122694D01*
X95982Y-122810D01*
X95485Y-123141D01*
X95154Y-123638D01*
X95037Y-124223D01*
X95154Y-124808D01*
X95464Y-125273D01*
X95154Y-125738D01*
X95037Y-126323D01*
X95154Y-126908D01*
X95464Y-127373D01*
X95154Y-127838D01*
X95037Y-128423D01*
X95154Y-129008D01*
X95464Y-129473D01*
X95154Y-129938D01*
X95037Y-130523D01*
X95154Y-131108D01*
X95464Y-131573D01*
X95154Y-132038D01*
X95037Y-132623D01*
X95154Y-133208D01*
X95464Y-133673D01*
X95154Y-134138D01*
X95037Y-134723D01*
X95154Y-135308D01*
X95485Y-135804D01*
X95982Y-136136D01*
X96567Y-136252D01*
X97152Y-136136D01*
X97648Y-135804D01*
X97835D01*
X98332Y-136136D01*
X98917Y-136252D01*
X99502Y-136136D01*
X99998Y-135804D01*
X100185D01*
X100682Y-136136D01*
X101267Y-136252D01*
X101852Y-136136D01*
X102348Y-135804D01*
X102680Y-135308D01*
X102796Y-134723D01*
X102680Y-134138D01*
X102369Y-133673D01*
X102680Y-133208D01*
X102796Y-132623D01*
X102680Y-132038D01*
X102369Y-131573D01*
X102680Y-131108D01*
X102796Y-130523D01*
X102680Y-129938D01*
X102369Y-129473D01*
X102680Y-129008D01*
X102796Y-128423D01*
X102680Y-127838D01*
X102369Y-127373D01*
X102680Y-126908D01*
X102796Y-126323D01*
X102680Y-125738D01*
X102369Y-125273D01*
X102680Y-124808D01*
X102796Y-124223D01*
X102680Y-123638D01*
X102348Y-123141D01*
X101852Y-122810D01*
X101267Y-122694D01*
D02*
G37*
G36*
X155540D02*
X154955Y-122810D01*
X154458Y-123141D01*
X154271D01*
X153775Y-122810D01*
X153190Y-122694D01*
X152604Y-122810D01*
X152108Y-123141D01*
X151921D01*
X151425Y-122810D01*
X150840Y-122694D01*
X150254Y-122810D01*
X149758Y-123141D01*
X149427Y-123638D01*
X149310Y-124223D01*
X149427Y-124808D01*
X149737Y-125273D01*
X149427Y-125738D01*
X149310Y-126323D01*
X149427Y-126908D01*
X149737Y-127373D01*
X149427Y-127838D01*
X149310Y-128423D01*
X149427Y-129008D01*
X149737Y-129473D01*
X149427Y-129938D01*
X149310Y-130523D01*
X149427Y-131108D01*
X149737Y-131573D01*
X149427Y-132038D01*
X149310Y-132623D01*
X149427Y-133208D01*
X149737Y-133673D01*
X149427Y-134138D01*
X149310Y-134723D01*
X149427Y-135308D01*
X149758Y-135804D01*
X150254Y-136136D01*
X150840Y-136252D01*
X151425Y-136136D01*
X151921Y-135804D01*
X152108D01*
X152604Y-136136D01*
X153190Y-136252D01*
X153775Y-136136D01*
X154271Y-135804D01*
X154458D01*
X154955Y-136136D01*
X155540Y-136252D01*
X156125Y-136136D01*
X156621Y-135804D01*
X156953Y-135308D01*
X157069Y-134723D01*
X156953Y-134138D01*
X156642Y-133673D01*
X156953Y-133208D01*
X157069Y-132623D01*
X156953Y-132038D01*
X156642Y-131573D01*
X156953Y-131108D01*
X157069Y-130523D01*
X156953Y-129938D01*
X156642Y-129473D01*
X156953Y-129008D01*
X157069Y-128423D01*
X156953Y-127838D01*
X156642Y-127373D01*
X156953Y-126908D01*
X157069Y-126323D01*
X156953Y-125738D01*
X156642Y-125273D01*
X156953Y-124808D01*
X157069Y-124223D01*
X156953Y-123638D01*
X156621Y-123141D01*
X156125Y-122810D01*
X155540Y-122694D01*
D02*
G37*
G36*
X31186D02*
X30601Y-122810D01*
X30105Y-123141D01*
X29917D01*
X29421Y-122810D01*
X28836Y-122694D01*
X28251Y-122810D01*
X27755Y-123141D01*
X27567D01*
X27071Y-122810D01*
X26486Y-122694D01*
X25901Y-122810D01*
X25405Y-123141D01*
X25073Y-123638D01*
X24957Y-124223D01*
X25073Y-124808D01*
X25384Y-125273D01*
X25073Y-125738D01*
X24957Y-126323D01*
X25073Y-126908D01*
X25384Y-127373D01*
X25073Y-127838D01*
X24957Y-128423D01*
X25073Y-129008D01*
X25384Y-129473D01*
X25073Y-129938D01*
X24957Y-130523D01*
X25073Y-131108D01*
X25384Y-131573D01*
X25073Y-132038D01*
X24957Y-132623D01*
X25073Y-133208D01*
X25384Y-133673D01*
X25073Y-134138D01*
X24957Y-134723D01*
X25073Y-135308D01*
X25405Y-135804D01*
X25901Y-136136D01*
X26486Y-136252D01*
X27071Y-136136D01*
X27567Y-135804D01*
X27755D01*
X28251Y-136136D01*
X28836Y-136252D01*
X29421Y-136136D01*
X29917Y-135804D01*
X30105D01*
X30601Y-136136D01*
X31186Y-136252D01*
X31771Y-136136D01*
X32268Y-135804D01*
X32599Y-135308D01*
X32715Y-134723D01*
X32599Y-134138D01*
X32289Y-133673D01*
X32599Y-133208D01*
X32715Y-132623D01*
X32599Y-132038D01*
X32289Y-131573D01*
X32599Y-131108D01*
X32715Y-130523D01*
X32599Y-129938D01*
X32289Y-129473D01*
X32599Y-129008D01*
X32715Y-128423D01*
X32599Y-127838D01*
X32289Y-127373D01*
X32599Y-126908D01*
X32715Y-126323D01*
X32599Y-125738D01*
X32289Y-125273D01*
X32599Y-124808D01*
X32715Y-124223D01*
X32599Y-123638D01*
X32268Y-123141D01*
X31771Y-122810D01*
X31186Y-122694D01*
D02*
G37*
G36*
X66227D02*
X65641Y-122810D01*
X65145Y-123141D01*
X64958D01*
X64462Y-122810D01*
X63876Y-122694D01*
X63291Y-122810D01*
X62795Y-123141D01*
X62608D01*
X62112Y-122810D01*
X61527Y-122694D01*
X60941Y-122810D01*
X60445Y-123141D01*
X60114Y-123638D01*
X59997Y-124223D01*
X60114Y-124808D01*
X60424Y-125273D01*
X60114Y-125738D01*
X59997Y-126323D01*
X60114Y-126908D01*
X60424Y-127373D01*
X60114Y-127838D01*
X59997Y-128423D01*
X60114Y-129008D01*
X60424Y-129473D01*
X60114Y-129938D01*
X59997Y-130523D01*
X60114Y-131108D01*
X60424Y-131573D01*
X60114Y-132038D01*
X59997Y-132623D01*
X60114Y-133208D01*
X60424Y-133673D01*
X60114Y-134138D01*
X59997Y-134723D01*
X60114Y-135308D01*
X60445Y-135804D01*
X60941Y-136136D01*
X61527Y-136252D01*
X62112Y-136136D01*
X62608Y-135804D01*
X62795D01*
X63291Y-136136D01*
X63876Y-136252D01*
X64462Y-136136D01*
X64958Y-135804D01*
X65145D01*
X65641Y-136136D01*
X66227Y-136252D01*
X66812Y-136136D01*
X67308Y-135804D01*
X67639Y-135308D01*
X67756Y-134723D01*
X67639Y-134138D01*
X67329Y-133673D01*
X67639Y-133208D01*
X67756Y-132623D01*
X67639Y-132038D01*
X67329Y-131573D01*
X67639Y-131108D01*
X67756Y-130523D01*
X67639Y-129938D01*
X67329Y-129473D01*
X67639Y-129008D01*
X67756Y-128423D01*
X67639Y-127838D01*
X67329Y-127373D01*
X67639Y-126908D01*
X67756Y-126323D01*
X67639Y-125738D01*
X67329Y-125273D01*
X67639Y-124808D01*
X67756Y-124223D01*
X67639Y-123638D01*
X67308Y-123141D01*
X66812Y-122810D01*
X66227Y-122694D01*
D02*
G37*
G36*
X252078Y-116023D02*
X251493Y-116139D01*
X250996Y-116471D01*
X250665Y-116967D01*
X250549Y-117552D01*
X250665Y-118137D01*
X250996Y-118633D01*
X251493Y-118965D01*
X252078Y-119081D01*
X252663Y-118965D01*
X253159Y-118633D01*
X253491Y-118137D01*
X253607Y-117552D01*
X253491Y-116967D01*
X253159Y-116471D01*
X252663Y-116139D01*
X252078Y-116023D01*
D02*
G37*
G36*
X267589Y-113176D02*
X267010Y-113291D01*
X266519Y-113619D01*
X266191Y-114110D01*
X266076Y-114689D01*
X266191Y-115268D01*
X266519Y-115759D01*
X267010Y-116087D01*
X267589Y-116202D01*
X268168Y-116087D01*
X268659Y-115759D01*
X268987Y-115268D01*
X269102Y-114689D01*
X268987Y-114110D01*
X268659Y-113619D01*
X268168Y-113291D01*
X267589Y-113176D01*
D02*
G37*
G36*
X190099Y-122694D02*
X189514Y-122810D01*
X189018Y-123141D01*
X188831D01*
X188335Y-122810D01*
X187749Y-122694D01*
X187164Y-122810D01*
X186668Y-123141D01*
X186481D01*
X185985Y-122810D01*
X185399Y-122694D01*
X184814Y-122810D01*
X184318Y-123141D01*
X183986Y-123638D01*
X183870Y-124223D01*
X183986Y-124808D01*
X184297Y-125273D01*
X183986Y-125738D01*
X183870Y-126323D01*
X183986Y-126908D01*
X184297Y-127373D01*
X183986Y-127838D01*
X183870Y-128423D01*
X183986Y-129008D01*
X184297Y-129473D01*
X183986Y-129938D01*
X183870Y-130523D01*
X183986Y-131108D01*
X184297Y-131573D01*
X183986Y-132038D01*
X183870Y-132623D01*
X183986Y-133208D01*
X184297Y-133673D01*
X183986Y-134138D01*
X183870Y-134723D01*
X183986Y-135308D01*
X184318Y-135804D01*
X184814Y-136136D01*
X185399Y-136252D01*
X185985Y-136136D01*
X186481Y-135804D01*
X186668D01*
X187164Y-136136D01*
X187749Y-136252D01*
X188335Y-136136D01*
X188831Y-135804D01*
X189018D01*
X189514Y-136136D01*
X190099Y-136252D01*
X190684Y-136136D01*
X191181Y-135804D01*
X191512Y-135308D01*
X191629Y-134723D01*
X191512Y-134138D01*
X191202Y-133673D01*
X191512Y-133208D01*
X191629Y-132623D01*
X191512Y-132038D01*
X191202Y-131573D01*
X191512Y-131108D01*
X191629Y-130523D01*
X191512Y-129938D01*
X191202Y-129473D01*
X191512Y-129008D01*
X191629Y-128423D01*
X191512Y-127838D01*
X191202Y-127373D01*
X191512Y-126908D01*
X191629Y-126323D01*
X191512Y-125738D01*
X191202Y-125273D01*
X191512Y-124808D01*
X191629Y-124223D01*
X191512Y-123638D01*
X191181Y-123141D01*
X190684Y-122810D01*
X190099Y-122694D01*
D02*
G37*
G36*
X224817Y-122676D02*
X224232Y-122793D01*
X223735Y-123124D01*
X223548D01*
X223052Y-122793D01*
X222467Y-122676D01*
X221882Y-122793D01*
X221385Y-123124D01*
X221198D01*
X220702Y-122793D01*
X220117Y-122676D01*
X219532Y-122793D01*
X219035Y-123124D01*
X218704Y-123620D01*
X218587Y-124206D01*
X218704Y-124791D01*
X219014Y-125256D01*
X218704Y-125720D01*
X218587Y-126305D01*
X218704Y-126891D01*
X219014Y-127356D01*
X218704Y-127820D01*
X218587Y-128405D01*
X218704Y-128991D01*
X219014Y-129455D01*
X218704Y-129920D01*
X218587Y-130506D01*
X218704Y-131091D01*
X219014Y-131555D01*
X218704Y-132020D01*
X218587Y-132606D01*
X218704Y-133191D01*
X219014Y-133656D01*
X218704Y-134120D01*
X218587Y-134705D01*
X218704Y-135291D01*
X219035Y-135787D01*
X219532Y-136118D01*
X220117Y-136235D01*
X220702Y-136118D01*
X221198Y-135787D01*
X221385D01*
X221882Y-136118D01*
X222467Y-136235D01*
X223052Y-136118D01*
X223548Y-135787D01*
X223735D01*
X224232Y-136118D01*
X224817Y-136235D01*
X225402Y-136118D01*
X225898Y-135787D01*
X226230Y-135291D01*
X226346Y-134705D01*
X226230Y-134120D01*
X225919Y-133656D01*
X226230Y-133191D01*
X226346Y-132606D01*
X226230Y-132020D01*
X225919Y-131555D01*
X226230Y-131091D01*
X226346Y-130506D01*
X226230Y-129920D01*
X225919Y-129455D01*
X226230Y-128991D01*
X226346Y-128405D01*
X226230Y-127820D01*
X225919Y-127356D01*
X226230Y-126891D01*
X226346Y-126305D01*
X226230Y-125720D01*
X225919Y-125256D01*
X226230Y-124791D01*
X226346Y-124206D01*
X226230Y-123620D01*
X225898Y-123124D01*
X225402Y-122793D01*
X224817Y-122676D01*
D02*
G37*
G36*
X0Y-161304D02*
X-1564Y-161458D01*
X-3069Y-161914D01*
X-4455Y-162655D01*
X-5670Y-163653D01*
X-6667Y-164868D01*
X-7408Y-166254D01*
X-7865Y-167758D01*
X-8019Y-169323D01*
X-7865Y-170887D01*
X-7408Y-172392D01*
X-6667Y-173778D01*
X-5670Y-174993D01*
X-4455Y-175990D01*
X-3069Y-176731D01*
X-1564Y-177188D01*
X0Y-177342D01*
X1564Y-177188D01*
X3069Y-176731D01*
X4455Y-175990D01*
X5670Y-174993D01*
X6667Y-173778D01*
X7408Y-172392D01*
X7865Y-170887D01*
X8019Y-169323D01*
X7865Y-167758D01*
X7408Y-166254D01*
X6667Y-164868D01*
X5670Y-163653D01*
X4455Y-162655D01*
X3069Y-161914D01*
X1564Y-161458D01*
X0Y-161304D01*
D02*
G37*
G36*
X267717D02*
X266152Y-161458D01*
X264648Y-161914D01*
X263262Y-162655D01*
X262046Y-163653D01*
X261049Y-164868D01*
X260308Y-166254D01*
X259852Y-167758D01*
X259698Y-169323D01*
X259852Y-170887D01*
X260308Y-172392D01*
X261049Y-173778D01*
X262046Y-174993D01*
X263262Y-175990D01*
X264648Y-176731D01*
X266152Y-177188D01*
X267717Y-177342D01*
X269281Y-177188D01*
X270785Y-176731D01*
X272172Y-175990D01*
X273387Y-174993D01*
X274384Y-173778D01*
X275125Y-172392D01*
X275581Y-170887D01*
X275735Y-169323D01*
X275581Y-167758D01*
X275125Y-166254D01*
X274384Y-164868D01*
X273387Y-163653D01*
X272172Y-162655D01*
X270785Y-161914D01*
X269281Y-161458D01*
X267717Y-161304D01*
D02*
G37*
G36*
X195273Y-156631D02*
X193858Y-156817D01*
X192539Y-157364D01*
X191407Y-158233D01*
X190538Y-159365D01*
X189991Y-160684D01*
X189805Y-162099D01*
Y-171942D01*
X189991Y-173357D01*
X190538Y-174676D01*
X191407Y-175808D01*
X192539Y-176677D01*
X193858Y-177224D01*
X195273Y-177410D01*
X196688Y-177224D01*
X198007Y-176677D01*
X199140Y-175808D01*
X200009Y-174676D01*
X200555Y-173357D01*
X200741Y-171942D01*
Y-162099D01*
X200555Y-160684D01*
X200009Y-159365D01*
X199140Y-158233D01*
X198007Y-157364D01*
X196688Y-156817D01*
X195273Y-156631D01*
D02*
G37*
G36*
X209053D02*
X207638Y-156817D01*
X206319Y-157364D01*
X205186Y-158233D01*
X204317Y-159365D01*
X203771Y-160684D01*
X203585Y-162099D01*
Y-171942D01*
X203771Y-173357D01*
X204317Y-174676D01*
X205186Y-175808D01*
X206319Y-176677D01*
X207638Y-177224D01*
X209053Y-177410D01*
X210468Y-177224D01*
X211787Y-176677D01*
X212919Y-175808D01*
X213788Y-174676D01*
X214335Y-173357D01*
X214521Y-171942D01*
Y-162099D01*
X214335Y-160684D01*
X213788Y-159365D01*
X212919Y-158233D01*
X211787Y-157364D01*
X210468Y-156817D01*
X209053Y-156631D01*
D02*
G37*
G36*
X234150Y-167732D02*
X233565Y-167849D01*
X233069Y-168180D01*
X232737Y-168676D01*
X232621Y-169262D01*
X232737Y-169847D01*
X233069Y-170343D01*
X233565Y-170674D01*
X234150Y-170791D01*
X234736Y-170674D01*
X235232Y-170343D01*
X235563Y-169847D01*
X235680Y-169262D01*
X235563Y-168676D01*
X235232Y-168180D01*
X234736Y-167849D01*
X234150Y-167732D01*
D02*
G37*
G36*
X132399Y-167207D02*
X131820Y-167322D01*
X131329Y-167650D01*
X131001Y-168141D01*
X130886Y-168720D01*
X131001Y-169300D01*
X131329Y-169791D01*
X131820Y-170119D01*
X132399Y-170234D01*
X132978Y-170119D01*
X133469Y-169791D01*
X133797Y-169300D01*
X133913Y-168720D01*
X133797Y-168141D01*
X133469Y-167650D01*
X132978Y-167322D01*
X132399Y-167207D01*
D02*
G37*
G36*
Y-171707D02*
X131820Y-171822D01*
X131329Y-172150D01*
X131001Y-172641D01*
X130886Y-173221D01*
X131001Y-173800D01*
X131329Y-174291D01*
X131820Y-174619D01*
X132399Y-174734D01*
X132978Y-174619D01*
X133469Y-174291D01*
X133797Y-173800D01*
X133913Y-173221D01*
X133797Y-172641D01*
X133469Y-172150D01*
X132978Y-171822D01*
X132399Y-171707D01*
D02*
G37*
G36*
X138899D02*
X138320Y-171822D01*
X137829Y-172150D01*
X137501Y-172641D01*
X137386Y-173221D01*
X137501Y-173800D01*
X137829Y-174291D01*
X138320Y-174619D01*
X138899Y-174734D01*
X139478Y-174619D01*
X139969Y-174291D01*
X140297Y-173800D01*
X140412Y-173221D01*
X140297Y-172641D01*
X139969Y-172150D01*
X139478Y-171822D01*
X138899Y-171707D01*
D02*
G37*
G36*
X181494Y-156631D02*
X180078Y-156817D01*
X178760Y-157364D01*
X177627Y-158233D01*
X176758Y-159365D01*
X176212Y-160684D01*
X176026Y-162099D01*
Y-171942D01*
X176212Y-173357D01*
X176758Y-174676D01*
X177627Y-175808D01*
X178760Y-176677D01*
X180078Y-177224D01*
X181494Y-177410D01*
X182909Y-177224D01*
X184228Y-176677D01*
X185360Y-175808D01*
X186229Y-174676D01*
X186775Y-173357D01*
X186962Y-171942D01*
Y-162099D01*
X186775Y-160684D01*
X186229Y-159365D01*
X185360Y-158233D01*
X184228Y-157364D01*
X182909Y-156817D01*
X181494Y-156631D01*
D02*
G37*
G36*
X102641Y-180270D02*
X101388Y-180416D01*
X100187Y-180803D01*
X99085Y-181417D01*
X98124Y-182234D01*
X97340Y-183223D01*
X96765Y-184346D01*
X96420Y-185560D01*
X96318Y-186818D01*
X96464Y-188071D01*
X96851Y-189272D01*
X97465Y-190374D01*
X98282Y-191335D01*
X99272Y-192119D01*
X100395Y-192694D01*
X101608Y-193039D01*
X102866Y-193141D01*
X104119Y-192996D01*
X105320Y-192608D01*
X106422Y-191994D01*
X107384Y-191177D01*
X108167Y-190188D01*
X108742Y-189065D01*
X109087Y-187851D01*
X109189Y-186593D01*
X109044Y-185340D01*
X108656Y-184139D01*
X108042Y-183037D01*
X107225Y-182076D01*
X106236Y-181292D01*
X105113Y-180717D01*
X103899Y-180372D01*
X102641Y-180270D01*
D02*
G37*
G36*
X169570D02*
X168317Y-180416D01*
X167116Y-180803D01*
X166014Y-181417D01*
X165053Y-182234D01*
X164269Y-183223D01*
X163694Y-184346D01*
X163349Y-185560D01*
X163247Y-186818D01*
X163393Y-188071D01*
X163780Y-189272D01*
X164394Y-190374D01*
X165211Y-191335D01*
X166201Y-192119D01*
X167324Y-192694D01*
X168537Y-193039D01*
X169795Y-193141D01*
X171048Y-192996D01*
X172249Y-192608D01*
X173352Y-191994D01*
X174313Y-191177D01*
X175096Y-190188D01*
X175671Y-189065D01*
X176016Y-187851D01*
X176118Y-186593D01*
X175973Y-185340D01*
X175585Y-184139D01*
X174971Y-183037D01*
X174154Y-182076D01*
X173165Y-181292D01*
X172042Y-180717D01*
X170828Y-180372D01*
X169570Y-180270D01*
D02*
G37*
G36*
X51460D02*
X50207Y-180416D01*
X49006Y-180803D01*
X47904Y-181417D01*
X46942Y-182234D01*
X46159Y-183223D01*
X45584Y-184346D01*
X45239Y-185560D01*
X45137Y-186818D01*
X45283Y-188071D01*
X45670Y-189272D01*
X46284Y-190374D01*
X47101Y-191335D01*
X48090Y-192119D01*
X49213Y-192694D01*
X50427Y-193039D01*
X51685Y-193141D01*
X52938Y-192996D01*
X54139Y-192608D01*
X55241Y-191994D01*
X56203Y-191177D01*
X56986Y-190188D01*
X57561Y-189065D01*
X57906Y-187851D01*
X58008Y-186593D01*
X57862Y-185340D01*
X57475Y-184139D01*
X56861Y-183037D01*
X56044Y-182076D01*
X55054Y-181292D01*
X53931Y-180717D01*
X52718Y-180372D01*
X51460Y-180270D01*
D02*
G37*
G36*
X77163Y-156631D02*
X75748Y-156817D01*
X74429Y-157364D01*
X73296Y-158233D01*
X72427Y-159365D01*
X71881Y-160684D01*
X71695Y-162099D01*
Y-171942D01*
X71881Y-173357D01*
X72427Y-174676D01*
X73296Y-175808D01*
X74429Y-176677D01*
X75748Y-177224D01*
X77163Y-177410D01*
X78578Y-177224D01*
X79897Y-176677D01*
X81029Y-175808D01*
X81898Y-174676D01*
X82445Y-173357D01*
X82631Y-171942D01*
Y-162099D01*
X82445Y-160684D01*
X81898Y-159365D01*
X81029Y-158233D01*
X79897Y-157364D01*
X78578Y-156817D01*
X77163Y-156631D01*
D02*
G37*
G36*
X90943D02*
X89527Y-156817D01*
X88209Y-157364D01*
X87076Y-158233D01*
X86207Y-159365D01*
X85661Y-160684D01*
X85474Y-162099D01*
Y-171942D01*
X85661Y-173357D01*
X86207Y-174676D01*
X87076Y-175808D01*
X88209Y-176677D01*
X89527Y-177224D01*
X90943Y-177410D01*
X92358Y-177224D01*
X93677Y-176677D01*
X94809Y-175808D01*
X95678Y-174676D01*
X96224Y-173357D01*
X96411Y-171942D01*
Y-162099D01*
X96224Y-160684D01*
X95678Y-159365D01*
X94809Y-158233D01*
X93677Y-157364D01*
X92358Y-156817D01*
X90943Y-156631D01*
D02*
G37*
G36*
X220751Y-180270D02*
X219498Y-180416D01*
X218297Y-180803D01*
X217195Y-181417D01*
X216234Y-182234D01*
X215450Y-183223D01*
X214875Y-184346D01*
X214530Y-185560D01*
X214428Y-186818D01*
X214574Y-188071D01*
X214961Y-189272D01*
X215575Y-190374D01*
X216393Y-191335D01*
X217382Y-192119D01*
X218505Y-192694D01*
X219718Y-193039D01*
X220976Y-193141D01*
X222229Y-192996D01*
X223430Y-192608D01*
X224533Y-191994D01*
X225494Y-191177D01*
X226277Y-190188D01*
X226852Y-189065D01*
X227198Y-187851D01*
X227299Y-186593D01*
X227154Y-185340D01*
X226766Y-184139D01*
X226152Y-183037D01*
X225335Y-182076D01*
X224346Y-181292D01*
X223223Y-180717D01*
X222009Y-180372D01*
X220751Y-180270D01*
D02*
G37*
G36*
X63384Y-156631D02*
X61968Y-156817D01*
X60649Y-157364D01*
X59517Y-158233D01*
X58648Y-159365D01*
X58102Y-160684D01*
X57915Y-162099D01*
Y-171942D01*
X58102Y-173357D01*
X58648Y-174676D01*
X59517Y-175808D01*
X60649Y-176677D01*
X61968Y-177224D01*
X63384Y-177410D01*
X64799Y-177224D01*
X66118Y-176677D01*
X67250Y-175808D01*
X68119Y-174676D01*
X68665Y-173357D01*
X68852Y-171942D01*
Y-162099D01*
X68665Y-160684D01*
X68119Y-159365D01*
X67250Y-158233D01*
X66118Y-157364D01*
X64799Y-156817D01*
X63384Y-156631D01*
D02*
G37*
G36*
X12223Y-124736D02*
X-3525D01*
X-4684Y-124888D01*
X-5763Y-125335D01*
X-6690Y-126047D01*
X-7401Y-126973D01*
X-7848Y-128053D01*
X-8000Y-129211D01*
Y-137085D01*
X-7848Y-138243D01*
X-7401Y-139323D01*
X-6690Y-140250D01*
X-5763Y-140961D01*
X-4684Y-141408D01*
X-4113Y-141483D01*
X-3991Y-142003D01*
X-4103Y-142078D01*
X-4434Y-142574D01*
X-4551Y-143159D01*
X-4434Y-143744D01*
X-4103Y-144240D01*
X-3607Y-144572D01*
X-3021Y-144688D01*
X-2436Y-144572D01*
X-1940Y-144240D01*
X-1608Y-143744D01*
X-1492Y-143159D01*
X-1608Y-142574D01*
X-1940Y-142078D01*
X-1966Y-142060D01*
X-1814Y-141560D01*
X-629D01*
X-477Y-142060D01*
X-503Y-142078D01*
X-834Y-142574D01*
X-951Y-143159D01*
X-834Y-143744D01*
X-503Y-144240D01*
X-7Y-144572D01*
X579Y-144688D01*
X1164Y-144572D01*
X1660Y-144240D01*
X1992Y-143744D01*
X2108Y-143159D01*
X1992Y-142574D01*
X1660Y-142078D01*
X1634Y-142060D01*
X1786Y-141560D01*
X3272D01*
X3423Y-142060D01*
X3397Y-142078D01*
X3066Y-142574D01*
X2949Y-143159D01*
X3066Y-143744D01*
X3397Y-144240D01*
X3893Y-144572D01*
X4479Y-144688D01*
X5064Y-144572D01*
X5560Y-144240D01*
X5892Y-143744D01*
X6008Y-143159D01*
X5892Y-142574D01*
X5560Y-142078D01*
X5534Y-142060D01*
X5686Y-141560D01*
X7171D01*
X7323Y-142060D01*
X7297Y-142078D01*
X6966Y-142574D01*
X6849Y-143159D01*
X6966Y-143744D01*
X7297Y-144240D01*
X7793Y-144572D01*
X8379Y-144688D01*
X8964Y-144572D01*
X9460Y-144240D01*
X9792Y-143744D01*
X9908Y-143159D01*
X9792Y-142574D01*
X9460Y-142078D01*
X9434Y-142060D01*
X9586Y-141560D01*
X10772D01*
X10923Y-142060D01*
X10897Y-142078D01*
X10566Y-142574D01*
X10449Y-143159D01*
X10566Y-143744D01*
X10897Y-144240D01*
X11393Y-144572D01*
X11979Y-144688D01*
X12564Y-144572D01*
X13060Y-144240D01*
X13392Y-143744D01*
X13508Y-143159D01*
X13392Y-142574D01*
X13060Y-142078D01*
X12906Y-141975D01*
X13027Y-141454D01*
X13381Y-141408D01*
X14460Y-140961D01*
X15387Y-140250D01*
X16098Y-139323D01*
X16546Y-138243D01*
X16698Y-137085D01*
Y-129211D01*
X16546Y-128053D01*
X16098Y-126973D01*
X15387Y-126047D01*
X14460Y-125335D01*
X13381Y-124888D01*
X12223Y-124736D01*
D02*
G37*
G36*
X45964Y-143676D02*
X45379Y-143793D01*
X44882Y-144124D01*
X44814Y-144227D01*
X44314D01*
X44245Y-144124D01*
X43749Y-143793D01*
X43164Y-143676D01*
X42579Y-143793D01*
X42082Y-144124D01*
X41751Y-144620D01*
X41634Y-145205D01*
X41751Y-145791D01*
X42082Y-146287D01*
X42579Y-146618D01*
X43164Y-146735D01*
X43749Y-146618D01*
X44245Y-146287D01*
X44314Y-146184D01*
X44814D01*
X44882Y-146287D01*
X45379Y-146618D01*
X45964Y-146735D01*
X46549Y-146618D01*
X47045Y-146287D01*
X47377Y-145791D01*
X47493Y-145205D01*
X47377Y-144620D01*
X47045Y-144124D01*
X46549Y-143793D01*
X45964Y-143676D01*
D02*
G37*
G36*
X238087Y-155237D02*
X237502Y-155353D01*
X237006Y-155685D01*
X236674Y-156181D01*
X236558Y-156766D01*
X236674Y-157351D01*
X237006Y-157848D01*
X237502Y-158179D01*
X238087Y-158296D01*
X238673Y-158179D01*
X239169Y-157848D01*
X239500Y-157351D01*
X239617Y-156766D01*
X239500Y-156181D01*
X239169Y-155685D01*
X238673Y-155353D01*
X238087Y-155237D01*
D02*
G37*
G36*
X250689Y-152471D02*
X250104Y-152587D01*
X249607Y-152919D01*
X249276Y-153415D01*
X249160Y-154000D01*
X249276Y-154585D01*
X249607Y-155081D01*
X250104Y-155413D01*
X250689Y-155529D01*
X251274Y-155413D01*
X251770Y-155081D01*
X252102Y-154585D01*
X252218Y-154000D01*
X252102Y-153415D01*
X251770Y-152919D01*
X251274Y-152587D01*
X250689Y-152471D01*
D02*
G37*
G36*
X205189Y-143676D02*
X204604Y-143793D01*
X204221Y-144048D01*
X203889Y-144094D01*
X203557Y-144048D01*
X203174Y-143793D01*
X202589Y-143676D01*
X202004Y-143793D01*
X201507Y-144124D01*
X201176Y-144620D01*
X201060Y-145205D01*
X201176Y-145791D01*
X201507Y-146287D01*
X202004Y-146618D01*
X202589Y-146735D01*
X203174Y-146618D01*
X203557Y-146363D01*
X203889Y-146317D01*
X204221Y-146363D01*
X204604Y-146618D01*
X205189Y-146735D01*
X205774Y-146618D01*
X206270Y-146287D01*
X206602Y-145791D01*
X206718Y-145205D01*
X206602Y-144620D01*
X206270Y-144124D01*
X205774Y-143793D01*
X205189Y-143676D01*
D02*
G37*
G36*
X252078Y-120460D02*
X251493Y-120576D01*
X250996Y-120907D01*
X250665Y-121404D01*
X250549Y-121989D01*
X250665Y-122574D01*
X250996Y-123070D01*
X251493Y-123402D01*
X252078Y-123518D01*
X252663Y-123402D01*
X253159Y-123070D01*
X253491Y-122574D01*
X253607Y-121989D01*
X253491Y-121404D01*
X253159Y-120907D01*
X252663Y-120576D01*
X252078Y-120460D01*
D02*
G37*
G36*
X81679Y-143676D02*
X81093Y-143793D01*
X80597Y-144124D01*
X80529Y-144227D01*
X80029D01*
X79960Y-144124D01*
X79464Y-143793D01*
X78879Y-143676D01*
X78293Y-143793D01*
X77797Y-144124D01*
X77466Y-144620D01*
X77349Y-145205D01*
X77466Y-145791D01*
X77797Y-146287D01*
X78293Y-146618D01*
X78879Y-146735D01*
X79464Y-146618D01*
X79960Y-146287D01*
X80029Y-146184D01*
X80529D01*
X80597Y-146287D01*
X81093Y-146618D01*
X81679Y-146735D01*
X82264Y-146618D01*
X82760Y-146287D01*
X83092Y-145791D01*
X83208Y-145205D01*
X83092Y-144620D01*
X82760Y-144124D01*
X82264Y-143793D01*
X81679Y-143676D01*
D02*
G37*
G36*
X170189D02*
X169604Y-143793D01*
X169221Y-144048D01*
X168889Y-144094D01*
X168557Y-144048D01*
X168174Y-143793D01*
X167589Y-143676D01*
X167004Y-143793D01*
X166507Y-144124D01*
X166176Y-144620D01*
X166060Y-145205D01*
X166176Y-145791D01*
X166507Y-146287D01*
X167004Y-146618D01*
X167589Y-146735D01*
X168174Y-146618D01*
X168557Y-146363D01*
X168889Y-146317D01*
X169221Y-146363D01*
X169604Y-146618D01*
X170189Y-146735D01*
X170774Y-146618D01*
X171270Y-146287D01*
X171602Y-145791D01*
X171718Y-145205D01*
X171602Y-144620D01*
X171270Y-144124D01*
X170774Y-143793D01*
X170189Y-143676D01*
D02*
G37*
G36*
X22692Y-155237D02*
X22107Y-155353D01*
X21611Y-155685D01*
X21279Y-156181D01*
X21163Y-156766D01*
X21279Y-157351D01*
X21611Y-157848D01*
X22107Y-158179D01*
X22692Y-158296D01*
X23277Y-158179D01*
X23774Y-157848D01*
X24105Y-157351D01*
X24221Y-156766D01*
X24105Y-156181D01*
X23774Y-155685D01*
X23277Y-155353D01*
X22692Y-155237D01*
D02*
G37*
G36*
X245966Y-165960D02*
X245381Y-166076D01*
X244885Y-166408D01*
X244553Y-166904D01*
X244437Y-167489D01*
X244553Y-168074D01*
X244885Y-168570D01*
X245381Y-168902D01*
X245966Y-169018D01*
X246551Y-168902D01*
X247048Y-168570D01*
X247379Y-168074D01*
X247496Y-167489D01*
X247379Y-166904D01*
X247048Y-166408D01*
X246551Y-166076D01*
X245966Y-165960D01*
D02*
G37*
G36*
X249903D02*
X249318Y-166076D01*
X248822Y-166408D01*
X248490Y-166904D01*
X248374Y-167489D01*
X248490Y-168074D01*
X248822Y-168570D01*
X249318Y-168902D01*
X249903Y-169018D01*
X250488Y-168902D01*
X250985Y-168570D01*
X251316Y-168074D01*
X251432Y-167489D01*
X251316Y-166904D01*
X250985Y-166408D01*
X250488Y-166076D01*
X249903Y-165960D01*
D02*
G37*
G36*
X138899Y-167207D02*
X138320Y-167322D01*
X137829Y-167650D01*
X137501Y-168141D01*
X137386Y-168720D01*
X137501Y-169300D01*
X137829Y-169791D01*
X138320Y-170119D01*
X138899Y-170234D01*
X139478Y-170119D01*
X139969Y-169791D01*
X140297Y-169300D01*
X140412Y-168720D01*
X140297Y-168141D01*
X139969Y-167650D01*
X139478Y-167322D01*
X138899Y-167207D01*
D02*
G37*
G36*
X242029Y-165960D02*
X241444Y-166076D01*
X240948Y-166408D01*
X240616Y-166904D01*
X240500Y-167489D01*
X240616Y-168074D01*
X240948Y-168570D01*
X241444Y-168902D01*
X242029Y-169018D01*
X242614Y-168902D01*
X243111Y-168570D01*
X243442Y-168074D01*
X243559Y-167489D01*
X243442Y-166904D01*
X243111Y-166408D01*
X242614Y-166076D01*
X242029Y-165960D01*
D02*
G37*
G36*
X34503Y-165860D02*
X33918Y-165976D01*
X33422Y-166307D01*
X33090Y-166804D01*
X32974Y-167389D01*
X33090Y-167974D01*
X33422Y-168470D01*
X33918Y-168802D01*
X34503Y-168918D01*
X35088Y-168802D01*
X35585Y-168470D01*
X35916Y-167974D01*
X36033Y-167389D01*
X35916Y-166804D01*
X35585Y-166307D01*
X35088Y-165976D01*
X34503Y-165860D01*
D02*
G37*
G36*
X18755Y-155237D02*
X18170Y-155353D01*
X17674Y-155685D01*
X17342Y-156181D01*
X17226Y-156766D01*
X17342Y-157351D01*
X17674Y-157848D01*
X18170Y-158179D01*
X18755Y-158296D01*
X19340Y-158179D01*
X19837Y-157848D01*
X20168Y-157351D01*
X20285Y-156766D01*
X20168Y-156181D01*
X19837Y-155685D01*
X19340Y-155353D01*
X18755Y-155237D01*
D02*
G37*
G36*
X26629Y-165860D02*
X26044Y-165976D01*
X25548Y-166307D01*
X25216Y-166804D01*
X25100Y-167389D01*
X25216Y-167974D01*
X25548Y-168470D01*
X26044Y-168802D01*
X26629Y-168918D01*
X27214Y-168802D01*
X27711Y-168470D01*
X28042Y-167974D01*
X28159Y-167389D01*
X28042Y-166804D01*
X27711Y-166307D01*
X27214Y-165976D01*
X26629Y-165860D01*
D02*
G37*
G36*
X30566D02*
X29981Y-165976D01*
X29485Y-166307D01*
X29153Y-166804D01*
X29037Y-167389D01*
X29153Y-167974D01*
X29485Y-168470D01*
X29981Y-168802D01*
X30566Y-168918D01*
X31151Y-168802D01*
X31648Y-168470D01*
X31979Y-167974D01*
X32096Y-167389D01*
X31979Y-166804D01*
X31648Y-166307D01*
X31151Y-165976D01*
X30566Y-165860D01*
D02*
G37*
G36*
X74360Y28616D02*
X73012D01*
Y21833D01*
X74833D01*
X75026Y21848D01*
X75233D01*
X75441Y21877D01*
X75633Y21892D01*
X75796Y21922D01*
X75826D01*
X75885Y21951D01*
X75974Y21981D01*
X76092Y22025D01*
X76226Y22084D01*
X76359Y22159D01*
X76492Y22248D01*
X76625Y22351D01*
X76640Y22366D01*
X76685Y22410D01*
X76744Y22484D01*
X76818Y22588D01*
X76892Y22721D01*
X76996Y22884D01*
X77070Y23092D01*
X77159Y23329D01*
Y23343D01*
X77173Y23358D01*
Y23403D01*
X77188Y23462D01*
X77218Y23521D01*
X77233Y23610D01*
X77277Y23832D01*
X77307Y24099D01*
X77351Y24410D01*
X77366Y24795D01*
X77381Y25210D01*
Y25224D01*
Y25269D01*
Y25328D01*
Y25402D01*
Y25506D01*
X77366Y25624D01*
X77351Y25876D01*
X77321Y26172D01*
X77292Y26483D01*
X77233Y26765D01*
X77159Y27031D01*
Y27046D01*
X77144Y27061D01*
X77114Y27135D01*
X77070Y27253D01*
X77011Y27401D01*
X76922Y27549D01*
X76818Y27712D01*
X76699Y27875D01*
X76566Y28023D01*
X76551Y28038D01*
X76507Y28083D01*
X76418Y28142D01*
X76314Y28216D01*
X76166Y28305D01*
X76003Y28379D01*
X75826Y28453D01*
X75618Y28512D01*
X75603D01*
X75529Y28527D01*
X75411Y28542D01*
X75248Y28571D01*
X75144D01*
X75011Y28586D01*
X74878D01*
X74730Y28601D01*
X74552D01*
X74360Y28616D01*
D02*
G37*
G36*
X173789Y-77071D02*
X173204Y-77187D01*
X172707Y-77519D01*
X172376Y-78015D01*
X172260Y-78600D01*
X172376Y-79185D01*
X172707Y-79681D01*
X173204Y-80013D01*
X173789Y-80129D01*
X174374Y-80013D01*
X174870Y-79681D01*
X175202Y-79185D01*
X175318Y-78600D01*
X175202Y-78015D01*
X174870Y-77519D01*
X174374Y-77187D01*
X173789Y-77071D01*
D02*
G37*
G36*
X247689Y-76471D02*
X247104Y-76587D01*
X246607Y-76919D01*
X246276Y-77415D01*
X246160Y-78000D01*
X246276Y-78585D01*
X246607Y-79081D01*
X247104Y-79413D01*
X247689Y-79529D01*
X248274Y-79413D01*
X248770Y-79081D01*
X249102Y-78585D01*
X249218Y-78000D01*
X249102Y-77415D01*
X248770Y-76919D01*
X248274Y-76587D01*
X247689Y-76471D01*
D02*
G37*
G36*
X142083Y-80776D02*
X141498Y-80893D01*
X141002Y-81224D01*
X140670Y-81720D01*
X140554Y-82306D01*
X140670Y-82891D01*
X141002Y-83387D01*
X141498Y-83719D01*
X142083Y-83835D01*
X142669Y-83719D01*
X143165Y-83387D01*
X143496Y-82891D01*
X143613Y-82306D01*
X143496Y-81720D01*
X143165Y-81224D01*
X142669Y-80893D01*
X142083Y-80776D01*
D02*
G37*
G36*
X176989Y-80271D02*
X176404Y-80387D01*
X175908Y-80719D01*
X175576Y-81215D01*
X175460Y-81800D01*
X175576Y-82385D01*
X175908Y-82881D01*
X176404Y-83213D01*
X176989Y-83329D01*
X177574Y-83213D01*
X178070Y-82881D01*
X178402Y-82385D01*
X178518Y-81800D01*
X178402Y-81215D01*
X178070Y-80719D01*
X177574Y-80387D01*
X176989Y-80271D01*
D02*
G37*
G36*
X32352Y-74430D02*
X31767Y-74547D01*
X31271Y-74878D01*
X31177Y-75019D01*
X30575D01*
X30481Y-74878D01*
X29985Y-74547D01*
X29400Y-74430D01*
X28815Y-74547D01*
X28319Y-74878D01*
X27987Y-75375D01*
X27871Y-75960D01*
X27987Y-76545D01*
X28319Y-77041D01*
X28815Y-77373D01*
X29400Y-77489D01*
X29985Y-77373D01*
X30481Y-77041D01*
X30575Y-76901D01*
X31177D01*
X31271Y-77041D01*
X31767Y-77373D01*
X32352Y-77489D01*
X32937Y-77373D01*
X33433Y-77041D01*
X33765Y-76545D01*
X33881Y-75960D01*
X33765Y-75375D01*
X33433Y-74878D01*
X32937Y-74547D01*
X32352Y-74430D01*
D02*
G37*
G36*
X118489Y-71771D02*
X117904Y-71887D01*
X117408Y-72219D01*
X117076Y-72715D01*
X116960Y-73300D01*
X117076Y-73885D01*
X117408Y-74381D01*
X117904Y-74713D01*
X118489Y-74829D01*
X119074Y-74713D01*
X119570Y-74381D01*
X119902Y-73885D01*
X120018Y-73300D01*
X119902Y-72715D01*
X119570Y-72219D01*
X119074Y-71887D01*
X118489Y-71771D01*
D02*
G37*
G36*
X111164Y-75371D02*
X110579Y-75487D01*
X110082Y-75819D01*
X109751Y-76315D01*
X109634Y-76900D01*
X109751Y-77485D01*
X110082Y-77981D01*
X110579Y-78313D01*
X111164Y-78429D01*
X111749Y-78313D01*
X112245Y-77981D01*
X112577Y-77485D01*
X112693Y-76900D01*
X112577Y-76315D01*
X112245Y-75819D01*
X111749Y-75487D01*
X111164Y-75371D01*
D02*
G37*
G36*
X247689Y-72471D02*
X247104Y-72587D01*
X246607Y-72919D01*
X246276Y-73415D01*
X246160Y-74000D01*
X246276Y-74585D01*
X246607Y-75081D01*
X247104Y-75413D01*
X247689Y-75529D01*
X248274Y-75413D01*
X248770Y-75081D01*
X249102Y-74585D01*
X249218Y-74000D01*
X249102Y-73415D01*
X248770Y-72919D01*
X248274Y-72587D01*
X247689Y-72471D01*
D02*
G37*
G36*
X240524Y-81436D02*
X239938Y-81552D01*
X239442Y-81884D01*
X239111Y-82380D01*
X238994Y-82965D01*
X239111Y-83551D01*
X239442Y-84047D01*
X239938Y-84378D01*
X240524Y-84495D01*
X241109Y-84378D01*
X241605Y-84047D01*
X241937Y-83551D01*
X242053Y-82965D01*
X241937Y-82380D01*
X241605Y-81884D01*
X241109Y-81552D01*
X240524Y-81436D01*
D02*
G37*
G36*
X159189Y-85571D02*
X158604Y-85687D01*
X158107Y-86019D01*
X157776Y-86515D01*
X157660Y-87100D01*
X157776Y-87685D01*
X158107Y-88181D01*
X158604Y-88513D01*
X159189Y-88629D01*
X159774Y-88513D01*
X160270Y-88181D01*
X160602Y-87685D01*
X160718Y-87100D01*
X160602Y-86515D01*
X160270Y-86019D01*
X159774Y-85687D01*
X159189Y-85571D01*
D02*
G37*
G36*
X179500Y-86871D02*
X178915Y-86987D01*
X178419Y-87319D01*
X178351Y-87420D01*
X177749D01*
X177681Y-87319D01*
X177185Y-86987D01*
X176600Y-86871D01*
X176015Y-86987D01*
X175519Y-87319D01*
X175187Y-87815D01*
X175071Y-88400D01*
X175187Y-88985D01*
X175519Y-89481D01*
X176015Y-89813D01*
X176600Y-89929D01*
X177185Y-89813D01*
X177681Y-89481D01*
X177749Y-89380D01*
X178351D01*
X178419Y-89481D01*
X178915Y-89813D01*
X179500Y-89929D01*
X180085Y-89813D01*
X180581Y-89481D01*
X180913Y-88985D01*
X181029Y-88400D01*
X180913Y-87815D01*
X180581Y-87319D01*
X180085Y-86987D01*
X179500Y-86871D01*
D02*
G37*
G36*
X111164Y-85696D02*
X110579Y-85812D01*
X110082Y-86144D01*
X109751Y-86640D01*
X109634Y-87225D01*
X109751Y-87810D01*
X110082Y-88307D01*
X110579Y-88638D01*
X111164Y-88755D01*
X111749Y-88638D01*
X112245Y-88307D01*
X112577Y-87810D01*
X112693Y-87225D01*
X112577Y-86640D01*
X112245Y-86144D01*
X111749Y-85812D01*
X111164Y-85696D01*
D02*
G37*
G36*
X115589Y-85571D02*
X115004Y-85687D01*
X114507Y-86019D01*
X114176Y-86515D01*
X114060Y-87100D01*
X114176Y-87685D01*
X114507Y-88181D01*
X115004Y-88513D01*
X115589Y-88629D01*
X116174Y-88513D01*
X116670Y-88181D01*
X117002Y-87685D01*
X117118Y-87100D01*
X117002Y-86515D01*
X116670Y-86019D01*
X116174Y-85687D01*
X115589Y-85571D01*
D02*
G37*
G36*
X37800Y-86671D02*
X37215Y-86787D01*
X36719Y-87119D01*
X36651Y-87220D01*
X36049D01*
X35981Y-87119D01*
X35485Y-86787D01*
X34900Y-86671D01*
X34315Y-86787D01*
X33819Y-87119D01*
X33487Y-87615D01*
X33371Y-88200D01*
X33487Y-88785D01*
X33819Y-89281D01*
X34315Y-89613D01*
X34900Y-89729D01*
X35485Y-89613D01*
X35981Y-89281D01*
X36049Y-89180D01*
X36651D01*
X36719Y-89281D01*
X37215Y-89613D01*
X37800Y-89729D01*
X38385Y-89613D01*
X38881Y-89281D01*
X39213Y-88785D01*
X39329Y-88200D01*
X39213Y-87615D01*
X38881Y-87119D01*
X38385Y-86787D01*
X37800Y-86671D01*
D02*
G37*
G36*
X191200Y-82271D02*
X190615Y-82387D01*
X190119Y-82719D01*
X189787Y-83215D01*
X189671Y-83800D01*
X189787Y-84385D01*
X190119Y-84881D01*
X190615Y-85213D01*
X191200Y-85329D01*
X191785Y-85213D01*
X192281Y-84881D01*
X192613Y-84385D01*
X192729Y-83800D01*
X192613Y-83215D01*
X192281Y-82719D01*
X191785Y-82387D01*
X191200Y-82271D01*
D02*
G37*
G36*
X198000Y-86871D02*
X197415Y-86987D01*
X196919Y-87319D01*
X196851Y-87420D01*
X196249D01*
X196181Y-87319D01*
X195685Y-86987D01*
X195100Y-86871D01*
X194515Y-86987D01*
X194019Y-87319D01*
X193687Y-87815D01*
X193571Y-88400D01*
X193687Y-88985D01*
X194019Y-89481D01*
X194515Y-89813D01*
X195100Y-89929D01*
X195685Y-89813D01*
X196181Y-89481D01*
X196249Y-89380D01*
X196851D01*
X196919Y-89481D01*
X197415Y-89813D01*
X198000Y-89929D01*
X198585Y-89813D01*
X199081Y-89481D01*
X199413Y-88985D01*
X199529Y-88400D01*
X199413Y-87815D01*
X199081Y-87319D01*
X198585Y-86987D01*
X198000Y-86871D01*
D02*
G37*
G36*
X56100Y-86671D02*
X55515Y-86787D01*
X55019Y-87119D01*
X54839Y-87388D01*
X54261D01*
X54081Y-87119D01*
X53585Y-86787D01*
X53000Y-86671D01*
X52415Y-86787D01*
X51919Y-87119D01*
X51587Y-87615D01*
X51471Y-88200D01*
X51587Y-88785D01*
X51919Y-89281D01*
X52415Y-89613D01*
X53000Y-89729D01*
X53585Y-89613D01*
X54081Y-89281D01*
X54261Y-89012D01*
X54839D01*
X55019Y-89281D01*
X55515Y-89613D01*
X56100Y-89729D01*
X56685Y-89613D01*
X57181Y-89281D01*
X57513Y-88785D01*
X57629Y-88200D01*
X57513Y-87615D01*
X57181Y-87119D01*
X56685Y-86787D01*
X56100Y-86671D01*
D02*
G37*
G36*
X50196Y-20644D02*
X49610Y-20761D01*
X49114Y-21092D01*
X48783Y-21588D01*
X48666Y-22174D01*
X48783Y-22759D01*
X49114Y-23255D01*
X49610Y-23586D01*
X50196Y-23703D01*
X50781Y-23586D01*
X51277Y-23255D01*
X51609Y-22759D01*
X51725Y-22174D01*
X51609Y-21588D01*
X51277Y-21092D01*
X50781Y-20761D01*
X50196Y-20644D01*
D02*
G37*
G36*
X112989Y-20471D02*
X112404Y-20587D01*
X111907Y-20919D01*
X111576Y-21415D01*
X111460Y-22000D01*
X111576Y-22585D01*
X111907Y-23081D01*
X112404Y-23413D01*
X112989Y-23529D01*
X113574Y-23413D01*
X114070Y-23081D01*
X114402Y-22585D01*
X114518Y-22000D01*
X114402Y-21415D01*
X114070Y-20919D01*
X113574Y-20587D01*
X112989Y-20471D01*
D02*
G37*
G36*
X142387Y-22538D02*
X141808Y-22654D01*
X141317Y-22982D01*
X140989Y-23473D01*
X140874Y-24052D01*
X140989Y-24631D01*
X141317Y-25122D01*
X141808Y-25450D01*
X142387Y-25565D01*
X142966Y-25450D01*
X143457Y-25122D01*
X143786Y-24631D01*
X143901Y-24052D01*
X143786Y-23473D01*
X143457Y-22982D01*
X142966Y-22654D01*
X142387Y-22538D01*
D02*
G37*
G36*
X46562Y-20644D02*
X45977Y-20761D01*
X45481Y-21092D01*
X45149Y-21588D01*
X45033Y-22174D01*
X45149Y-22759D01*
X45481Y-23255D01*
X45977Y-23586D01*
X46562Y-23703D01*
X47148Y-23586D01*
X47644Y-23255D01*
X47975Y-22759D01*
X48092Y-22174D01*
X47975Y-21588D01*
X47644Y-21092D01*
X47148Y-20761D01*
X46562Y-20644D01*
D02*
G37*
G36*
X182289Y-961D02*
X174489D01*
X173709Y-1116D01*
X173047Y-1558D01*
X172605Y-2220D01*
X172450Y-3000D01*
X172605Y-3780D01*
X173047Y-4442D01*
X173709Y-4884D01*
X174489Y-5039D01*
X181444D01*
X183390Y-6985D01*
Y-13195D01*
X182747Y-13838D01*
X182305Y-14500D01*
X182150Y-15280D01*
Y-43500D01*
X182305Y-44280D01*
X182747Y-44942D01*
X183409Y-45384D01*
X184189Y-45539D01*
X184969Y-45384D01*
X185631Y-44942D01*
X186073Y-44280D01*
X186228Y-43500D01*
Y-22829D01*
X186608Y-22684D01*
X186728Y-22660D01*
X187204Y-22978D01*
X187789Y-23094D01*
X188374Y-22978D01*
X188870Y-22646D01*
X189202Y-22150D01*
X189318Y-21565D01*
X189202Y-20979D01*
X188870Y-20483D01*
X188374Y-20152D01*
X187789Y-20035D01*
X187204Y-20152D01*
X186728Y-20470D01*
X186608Y-20446D01*
X186228Y-20301D01*
Y-16125D01*
X186871Y-15482D01*
X187313Y-14820D01*
X187468Y-14040D01*
Y-6140D01*
X187313Y-5360D01*
X186871Y-4698D01*
X183731Y-1558D01*
X183069Y-1116D01*
X182289Y-961D01*
D02*
G37*
G36*
X156618Y-16741D02*
X156033Y-16858D01*
X155537Y-17189D01*
X155206Y-17685D01*
X155089Y-18271D01*
X155206Y-18856D01*
X155537Y-19352D01*
X156033Y-19683D01*
X156618Y-19800D01*
X157204Y-19683D01*
X157700Y-19352D01*
X158031Y-18856D01*
X158148Y-18271D01*
X158031Y-17685D01*
X157700Y-17189D01*
X157204Y-16858D01*
X156618Y-16741D01*
D02*
G37*
G36*
X161189D02*
X160604Y-16858D01*
X160108Y-17189D01*
X159776Y-17685D01*
X159660Y-18271D01*
X159776Y-18856D01*
X160108Y-19352D01*
X160604Y-19683D01*
X161189Y-19800D01*
X161774Y-19683D01*
X162270Y-19352D01*
X162602Y-18856D01*
X162718Y-18271D01*
X162602Y-17685D01*
X162270Y-17189D01*
X161774Y-16858D01*
X161189Y-16741D01*
D02*
G37*
G36*
X191689Y-20035D02*
X191104Y-20152D01*
X190608Y-20483D01*
X190276Y-20979D01*
X190160Y-21565D01*
X190276Y-22150D01*
X190608Y-22646D01*
X191104Y-22978D01*
X191689Y-23094D01*
X192274Y-22978D01*
X192770Y-22646D01*
X193102Y-22150D01*
X193218Y-21565D01*
X193102Y-20979D01*
X192770Y-20483D01*
X192274Y-20152D01*
X191689Y-20035D01*
D02*
G37*
G36*
X233189Y-18171D02*
X232604Y-18287D01*
X232107Y-18619D01*
X231776Y-19115D01*
X231660Y-19700D01*
X231776Y-20285D01*
X232107Y-20782D01*
X232604Y-21113D01*
X233189Y-21229D01*
X233774Y-21113D01*
X234270Y-20782D01*
X234602Y-20285D01*
X234718Y-19700D01*
X234602Y-19115D01*
X234270Y-18619D01*
X233774Y-18287D01*
X233189Y-18171D01*
D02*
G37*
G36*
X201935Y-31207D02*
X201356Y-31322D01*
X200865Y-31650D01*
X200537Y-32141D01*
X200422Y-32721D01*
X200537Y-33300D01*
X200865Y-33791D01*
X201356Y-34119D01*
X201935Y-34234D01*
X202514Y-34119D01*
X203005Y-33791D01*
X203333Y-33300D01*
X203449Y-32721D01*
X203333Y-32141D01*
X203005Y-31650D01*
X202514Y-31322D01*
X201935Y-31207D01*
D02*
G37*
G36*
X205872D02*
X205293Y-31322D01*
X204802Y-31650D01*
X204474Y-32141D01*
X204359Y-32721D01*
X204474Y-33300D01*
X204802Y-33791D01*
X205293Y-34119D01*
X205872Y-34234D01*
X206451Y-34119D01*
X206942Y-33791D01*
X207270Y-33300D01*
X207385Y-32721D01*
X207270Y-32141D01*
X206942Y-31650D01*
X206451Y-31322D01*
X205872Y-31207D01*
D02*
G37*
G36*
X155792Y-33686D02*
X155213Y-33801D01*
X154722Y-34129D01*
X154394Y-34620D01*
X154279Y-35199D01*
X154291Y-35264D01*
X153866Y-35689D01*
X153692Y-35654D01*
X153113Y-35769D01*
X152804Y-35976D01*
X152686Y-35957D01*
X152291Y-35762D01*
X152202Y-35315D01*
X151870Y-34819D01*
X151374Y-34487D01*
X150789Y-34371D01*
X150204Y-34487D01*
X149707Y-34819D01*
X149376Y-35315D01*
X149334Y-35526D01*
X148824D01*
X148802Y-35415D01*
X148470Y-34919D01*
X147974Y-34587D01*
X147389Y-34471D01*
X146804Y-34587D01*
X146308Y-34919D01*
X145976Y-35415D01*
X145860Y-36000D01*
X145976Y-36585D01*
X146308Y-37082D01*
X146804Y-37413D01*
X147389Y-37529D01*
X147974Y-37413D01*
X148470Y-37082D01*
X148802Y-36585D01*
X148844Y-36374D01*
X149354D01*
X149376Y-36485D01*
X149707Y-36981D01*
X150204Y-37313D01*
X150789Y-37429D01*
X151374Y-37313D01*
X151694Y-37099D01*
X151800Y-37114D01*
X152203Y-37307D01*
X152208Y-37312D01*
X152294Y-37747D01*
X152622Y-38238D01*
X153113Y-38566D01*
X153692Y-38681D01*
X154030Y-39093D01*
X154030Y-39179D01*
X153692Y-39591D01*
X153113Y-39706D01*
X152622Y-40034D01*
X152294Y-40525D01*
X152179Y-41105D01*
X152294Y-41684D01*
X152622Y-42175D01*
X153113Y-42503D01*
X153692Y-42618D01*
X154030Y-43030D01*
X154030Y-43116D01*
X153692Y-43528D01*
X153113Y-43643D01*
X152622Y-43971D01*
X152294Y-44462D01*
X152179Y-45041D01*
X152294Y-45621D01*
X152622Y-46112D01*
X153113Y-46440D01*
X153692Y-46555D01*
X153867Y-46520D01*
X154292Y-46945D01*
X154279Y-47010D01*
X154394Y-47590D01*
X154722Y-48081D01*
X155213Y-48409D01*
X155792Y-48524D01*
X156371Y-48409D01*
X156862Y-48081D01*
X157190Y-47590D01*
X157305Y-47010D01*
X157190Y-46431D01*
X156862Y-45940D01*
X156371Y-45612D01*
X155792Y-45497D01*
X155455Y-45085D01*
X155455Y-44999D01*
X155792Y-44587D01*
X156371Y-44472D01*
X156862Y-44144D01*
X157190Y-43653D01*
X157305Y-43073D01*
X157190Y-42494D01*
X156862Y-42003D01*
X156371Y-41675D01*
X155792Y-41560D01*
X155455Y-41148D01*
X155455Y-41062D01*
X155792Y-40650D01*
X156371Y-40535D01*
X156862Y-40207D01*
X157190Y-39716D01*
X157305Y-39136D01*
X157190Y-38557D01*
X156862Y-38066D01*
X156371Y-37738D01*
X155792Y-37623D01*
X155455Y-37211D01*
X155455Y-37125D01*
X155792Y-36713D01*
X156371Y-36598D01*
X156862Y-36270D01*
X157190Y-35779D01*
X157305Y-35199D01*
X157190Y-34620D01*
X156862Y-34129D01*
X156371Y-33801D01*
X155792Y-33686D01*
D02*
G37*
G36*
X197998Y-31207D02*
X197419Y-31322D01*
X196928Y-31650D01*
X196600Y-32141D01*
X196485Y-32721D01*
X196600Y-33300D01*
X196928Y-33791D01*
X197419Y-34119D01*
X197998Y-34234D01*
X198577Y-34119D01*
X199068Y-33791D01*
X199396Y-33300D01*
X199511Y-32721D01*
X199396Y-32141D01*
X199068Y-31650D01*
X198577Y-31322D01*
X197998Y-31207D01*
D02*
G37*
G36*
X139497Y-27948D02*
X138918Y-28063D01*
X138427Y-28392D01*
X138099Y-28883D01*
X137984Y-29462D01*
X138099Y-30041D01*
X138427Y-30532D01*
X138918Y-30860D01*
X139497Y-30975D01*
X140076Y-30860D01*
X140524Y-31162D01*
X140484Y-31362D01*
X140593Y-31907D01*
X140517Y-32005D01*
X140203Y-32248D01*
X140076Y-32164D01*
X139497Y-32048D01*
X138918Y-32164D01*
X138427Y-32492D01*
X138099Y-32983D01*
X137984Y-33562D01*
X138007Y-33676D01*
X137997Y-34148D01*
X137418Y-34264D01*
X136927Y-34592D01*
X136599Y-35083D01*
X136484Y-35662D01*
X136599Y-36241D01*
X136927Y-36732D01*
X137418Y-37060D01*
X137997Y-37175D01*
X138576Y-37060D01*
X139067Y-36732D01*
X139395Y-36241D01*
X139511Y-35662D01*
X139488Y-35548D01*
X139497Y-35075D01*
X140076Y-34960D01*
X140568Y-34632D01*
X140895Y-34141D01*
X141011Y-33562D01*
X140902Y-33016D01*
X140978Y-32919D01*
X141291Y-32675D01*
X141418Y-32760D01*
X141997Y-32875D01*
X142577Y-32760D01*
X143068Y-32432D01*
X143395Y-31941D01*
X143511Y-31362D01*
X143395Y-30782D01*
X143068Y-30292D01*
X142577Y-29963D01*
X141997Y-29848D01*
X141418Y-29963D01*
X140971Y-29661D01*
X141011Y-29462D01*
X140895Y-28883D01*
X140568Y-28392D01*
X140076Y-28063D01*
X139497Y-27948D01*
D02*
G37*
G36*
X127789Y-25887D02*
X127210Y-26002D01*
X126719Y-26330D01*
X126391Y-26821D01*
X126276Y-27400D01*
X126391Y-27979D01*
X126719Y-28470D01*
X127210Y-28798D01*
X127789Y-28913D01*
X128368Y-28798D01*
X128859Y-28470D01*
X129187Y-27979D01*
X129302Y-27400D01*
X129187Y-26821D01*
X128859Y-26330D01*
X128368Y-26002D01*
X127789Y-25887D01*
D02*
G37*
G36*
X152789Y-24887D02*
X152210Y-25002D01*
X151719Y-25330D01*
X151391Y-25821D01*
X151276Y-26400D01*
X151391Y-26979D01*
X151719Y-27470D01*
X152210Y-27798D01*
X152789Y-27913D01*
X153368Y-27798D01*
X153859Y-27470D01*
X154187Y-26979D01*
X154302Y-26400D01*
X154187Y-25821D01*
X153859Y-25330D01*
X153368Y-25002D01*
X152789Y-24887D01*
D02*
G37*
G36*
X255789Y-27971D02*
X255204Y-28087D01*
X254708Y-28419D01*
X254376Y-28915D01*
X254260Y-29500D01*
X254376Y-30085D01*
X254708Y-30582D01*
X255204Y-30913D01*
X255789Y-31029D01*
X256374Y-30913D01*
X256870Y-30582D01*
X257202Y-30085D01*
X257318Y-29500D01*
X257202Y-28915D01*
X256870Y-28419D01*
X256374Y-28087D01*
X255789Y-27971D01*
D02*
G37*
G36*
X260089D02*
X259504Y-28087D01*
X259008Y-28419D01*
X258676Y-28915D01*
X258560Y-29500D01*
X258676Y-30085D01*
X259008Y-30582D01*
X259504Y-30913D01*
X260089Y-31029D01*
X260674Y-30913D01*
X261170Y-30582D01*
X261502Y-30085D01*
X261618Y-29500D01*
X261502Y-28915D01*
X261170Y-28419D01*
X260674Y-28087D01*
X260089Y-27971D01*
D02*
G37*
G36*
X92089Y-14571D02*
X91504Y-14687D01*
X91008Y-15019D01*
X90676Y-15515D01*
X90560Y-16100D01*
X90676Y-16685D01*
X91008Y-17181D01*
X91504Y-17513D01*
X92089Y-17629D01*
X92674Y-17513D01*
X93170Y-17181D01*
X93502Y-16685D01*
X93618Y-16100D01*
X93502Y-15515D01*
X93170Y-15019D01*
X92674Y-14687D01*
X92089Y-14571D01*
D02*
G37*
G36*
X215589Y3929D02*
X215004Y3813D01*
X214508Y3481D01*
X214176Y2985D01*
X214060Y2400D01*
X214176Y1815D01*
X214508Y1319D01*
X215004Y987D01*
X215589Y871D01*
X216174Y987D01*
X216670Y1319D01*
X217002Y1815D01*
X217118Y2400D01*
X217002Y2985D01*
X216670Y3481D01*
X216174Y3813D01*
X215589Y3929D01*
D02*
G37*
G36*
X193847Y4271D02*
X193262Y4155D01*
X192766Y3823D01*
X192434Y3327D01*
X192318Y2742D01*
X192434Y2156D01*
X192766Y1660D01*
X193262Y1329D01*
X193847Y1212D01*
X194432Y1329D01*
X194929Y1660D01*
X195260Y2156D01*
X195377Y2742D01*
X195260Y3327D01*
X194929Y3823D01*
X194432Y4155D01*
X193847Y4271D01*
D02*
G37*
G36*
X57481Y-663D02*
X56896Y-779D01*
X56400Y-1111D01*
X56068Y-1607D01*
X55952Y-2192D01*
X56068Y-2777D01*
X56400Y-3274D01*
X56896Y-3605D01*
X57481Y-3721D01*
X58066Y-3605D01*
X58562Y-3274D01*
X58894Y-2777D01*
X59010Y-2192D01*
X58894Y-1607D01*
X58562Y-1111D01*
X58066Y-779D01*
X57481Y-663D01*
D02*
G37*
G36*
X47827Y-71D02*
X47241Y-187D01*
X46745Y-519D01*
X46414Y-1015D01*
X46297Y-1600D01*
X46414Y-2185D01*
X46745Y-2681D01*
X47241Y-3013D01*
X47827Y-3129D01*
X48412Y-3013D01*
X48908Y-2681D01*
X49240Y-2185D01*
X49356Y-1600D01*
X49240Y-1015D01*
X48908Y-519D01*
X48412Y-187D01*
X47827Y-71D01*
D02*
G37*
G36*
X172144Y4274D02*
X171559Y4158D01*
X171063Y3826D01*
X170731Y3330D01*
X170615Y2745D01*
X170731Y2160D01*
X171063Y1663D01*
X171559Y1332D01*
X172144Y1216D01*
X172729Y1332D01*
X173225Y1663D01*
X173557Y2160D01*
X173673Y2745D01*
X173557Y3330D01*
X173225Y3826D01*
X172729Y4158D01*
X172144Y4274D01*
D02*
G37*
G36*
X217800Y8324D02*
X217215Y8207D01*
X216719Y7876D01*
X216387Y7380D01*
X216271Y6795D01*
X216387Y6209D01*
X216719Y5713D01*
X217215Y5381D01*
X217800Y5265D01*
X218385Y5381D01*
X218881Y5713D01*
X219213Y6209D01*
X219329Y6795D01*
X219213Y7380D01*
X218881Y7876D01*
X218385Y8207D01*
X217800Y8324D01*
D02*
G37*
G36*
X16189Y9892D02*
X15604Y9775D01*
X15108Y9444D01*
X14776Y8947D01*
X14660Y8362D01*
X14776Y7777D01*
X15108Y7281D01*
X15604Y6949D01*
X16189Y6833D01*
X16774Y6949D01*
X17270Y7281D01*
X17602Y7777D01*
X17718Y8362D01*
X17602Y8947D01*
X17270Y9444D01*
X16774Y9775D01*
X16189Y9892D01*
D02*
G37*
G36*
X47827Y4892D02*
X47241Y4775D01*
X46745Y4444D01*
X46414Y3948D01*
X46297Y3362D01*
X46414Y2777D01*
X46745Y2281D01*
X47241Y1949D01*
X47827Y1833D01*
X48412Y1949D01*
X48908Y2281D01*
X49240Y2777D01*
X49356Y3362D01*
X49240Y3948D01*
X48908Y4444D01*
X48412Y4775D01*
X47827Y4892D01*
D02*
G37*
G36*
X27189Y5029D02*
X26604Y4913D01*
X26107Y4581D01*
X25776Y4085D01*
X25660Y3500D01*
X25776Y2915D01*
X26107Y2419D01*
X26604Y2087D01*
X27189Y1971D01*
X27774Y2087D01*
X28270Y2419D01*
X28602Y2915D01*
X28718Y3500D01*
X28602Y4085D01*
X28270Y4581D01*
X27774Y4913D01*
X27189Y5029D01*
D02*
G37*
G36*
X164189Y-14471D02*
X163604Y-14587D01*
X163108Y-14919D01*
X162776Y-15415D01*
X162660Y-16000D01*
X162776Y-16585D01*
X163108Y-17082D01*
X163604Y-17413D01*
X164189Y-17529D01*
X164774Y-17413D01*
X165270Y-17082D01*
X165602Y-16585D01*
X165718Y-16000D01*
X165602Y-15415D01*
X165270Y-14919D01*
X164774Y-14587D01*
X164189Y-14471D01*
D02*
G37*
G36*
X119789Y-12471D02*
X119204Y-12587D01*
X118708Y-12919D01*
X118376Y-13415D01*
X118260Y-14000D01*
X118376Y-14585D01*
X118708Y-15081D01*
X119204Y-15413D01*
X119789Y-15529D01*
X120374Y-15413D01*
X120870Y-15081D01*
X121202Y-14585D01*
X121318Y-14000D01*
X121202Y-13415D01*
X120870Y-12919D01*
X120374Y-12587D01*
X119789Y-12471D01*
D02*
G37*
G36*
X96189Y-14571D02*
X95604Y-14687D01*
X95108Y-15019D01*
X94776Y-15515D01*
X94660Y-16100D01*
X94776Y-16685D01*
X95108Y-17181D01*
X95604Y-17513D01*
X96189Y-17629D01*
X96774Y-17513D01*
X97270Y-17181D01*
X97602Y-16685D01*
X97718Y-16100D01*
X97602Y-15515D01*
X97270Y-15019D01*
X96774Y-14687D01*
X96189Y-14571D01*
D02*
G37*
G36*
X74789Y-10971D02*
X74204Y-11087D01*
X73707Y-11419D01*
X73376Y-11915D01*
X73260Y-12500D01*
X73376Y-13085D01*
X73707Y-13581D01*
X74204Y-13913D01*
X74431Y-13958D01*
X74567Y-13985D01*
Y-14495D01*
X74415Y-14525D01*
X74104Y-14587D01*
X73607Y-14919D01*
X73276Y-15415D01*
X73160Y-16000D01*
X73276Y-16585D01*
X73607Y-17082D01*
X74104Y-17413D01*
X74689Y-17529D01*
X75274Y-17413D01*
X75770Y-17082D01*
X76102Y-16585D01*
X76218Y-16000D01*
X76102Y-15415D01*
X75770Y-14919D01*
X75274Y-14587D01*
X75047Y-14542D01*
X74911Y-14515D01*
Y-14005D01*
X75062Y-13975D01*
X75374Y-13913D01*
X75870Y-13581D01*
X76202Y-13085D01*
X76318Y-12500D01*
X76202Y-11915D01*
X75870Y-11419D01*
X75374Y-11087D01*
X74789Y-10971D01*
D02*
G37*
G36*
X166389D02*
X165804Y-11087D01*
X165307Y-11419D01*
X164976Y-11915D01*
X164860Y-12500D01*
X164976Y-13085D01*
X165307Y-13581D01*
X165804Y-13913D01*
X166389Y-14029D01*
X166974Y-13913D01*
X167470Y-13581D01*
X167802Y-13085D01*
X167918Y-12500D01*
X167802Y-11915D01*
X167470Y-11419D01*
X166974Y-11087D01*
X166389Y-10971D01*
D02*
G37*
G36*
X88489Y-1371D02*
X87904Y-1487D01*
X87407Y-1819D01*
X87076Y-2315D01*
X86960Y-2900D01*
X87076Y-3485D01*
X87407Y-3982D01*
X87904Y-4313D01*
X88489Y-4429D01*
X89074Y-4313D01*
X89570Y-3982D01*
X89902Y-3485D01*
X90018Y-2900D01*
X89902Y-2315D01*
X89570Y-1819D01*
X89074Y-1487D01*
X88489Y-1371D01*
D02*
G37*
G36*
X61418Y-671D02*
X60833Y-787D01*
X60337Y-1119D01*
X60005Y-1615D01*
X59889Y-2200D01*
X60005Y-2785D01*
X60337Y-3281D01*
X60833Y-3613D01*
X61418Y-3729D01*
X62003Y-3613D01*
X62499Y-3281D01*
X62831Y-2785D01*
X62947Y-2200D01*
X62831Y-1615D01*
X62499Y-1119D01*
X62003Y-787D01*
X61418Y-671D01*
D02*
G37*
G36*
X84380Y-9961D02*
X83794Y-10078D01*
X83298Y-10409D01*
X82967Y-10905D01*
X82850Y-11491D01*
X82967Y-12076D01*
X83298Y-12572D01*
X83794Y-12903D01*
X84380Y-13020D01*
X84965Y-12903D01*
X85461Y-12572D01*
X85792Y-12076D01*
X85909Y-11491D01*
X85792Y-10905D01*
X85461Y-10409D01*
X84965Y-10078D01*
X84380Y-9961D01*
D02*
G37*
G36*
X16189Y-5108D02*
X15604Y-5225D01*
X15108Y-5556D01*
X14776Y-6053D01*
X14660Y-6638D01*
X14776Y-7223D01*
X15108Y-7719D01*
X15604Y-8051D01*
X16189Y-8167D01*
X16774Y-8051D01*
X17270Y-7719D01*
X17602Y-7223D01*
X17718Y-6638D01*
X17602Y-6053D01*
X17270Y-5556D01*
X16774Y-5225D01*
X16189Y-5108D01*
D02*
G37*
G36*
X114389Y-56271D02*
X113804Y-56387D01*
X113307Y-56719D01*
X112976Y-57215D01*
X112860Y-57800D01*
X112976Y-58385D01*
X113307Y-58881D01*
X113804Y-59213D01*
X114389Y-59329D01*
X114974Y-59213D01*
X115470Y-58881D01*
X115802Y-58385D01*
X115918Y-57800D01*
X115802Y-57215D01*
X115470Y-56719D01*
X114974Y-56387D01*
X114389Y-56271D01*
D02*
G37*
G36*
X232589Y-55471D02*
X232004Y-55587D01*
X231507Y-55919D01*
X231176Y-56415D01*
X231060Y-57000D01*
X231176Y-57585D01*
X231507Y-58081D01*
X232004Y-58413D01*
X232589Y-58529D01*
X233174Y-58413D01*
X233670Y-58081D01*
X234002Y-57585D01*
X234118Y-57000D01*
X234002Y-56415D01*
X233670Y-55919D01*
X233174Y-55587D01*
X232589Y-55471D01*
D02*
G37*
G36*
X190137Y-58030D02*
X189558Y-58145D01*
X189067Y-58473D01*
X188739Y-58964D01*
X188624Y-59543D01*
X188739Y-60122D01*
X189067Y-60613D01*
X189558Y-60941D01*
X190137Y-61056D01*
X190716Y-60941D01*
X191207Y-60613D01*
X191535Y-60122D01*
X191650Y-59543D01*
X191535Y-58964D01*
X191207Y-58473D01*
X190716Y-58145D01*
X190137Y-58030D01*
D02*
G37*
G36*
X47886Y-59223D02*
X47307Y-59338D01*
X46816Y-59666D01*
X46488Y-60157D01*
X46386Y-60670D01*
X46291Y-60839D01*
X46227Y-60904D01*
X45915Y-60904D01*
X45463Y-60736D01*
X45347Y-60157D01*
X45019Y-59666D01*
X44528Y-59338D01*
X43949Y-59223D01*
X43370Y-59338D01*
X42879Y-59666D01*
X42551Y-60157D01*
X42436Y-60736D01*
X42551Y-61315D01*
X42879Y-61806D01*
X43370Y-62134D01*
X43949Y-62249D01*
X44060Y-62227D01*
X44414Y-62581D01*
X44410Y-62601D01*
X44525Y-63180D01*
X44853Y-63671D01*
X45344Y-63999D01*
X45923Y-64114D01*
X46502Y-63999D01*
X46993Y-63671D01*
X47321Y-63180D01*
X47423Y-62667D01*
X47518Y-62498D01*
X47583Y-62433D01*
X47894Y-62433D01*
X48347Y-62601D01*
X48462Y-63180D01*
X48790Y-63671D01*
X49281Y-63999D01*
X49860Y-64114D01*
X50439Y-63999D01*
X50930Y-63671D01*
X51258Y-63180D01*
X51373Y-62601D01*
X51258Y-62022D01*
X50930Y-61531D01*
X50439Y-61203D01*
X49860Y-61088D01*
X49749Y-61110D01*
X49395Y-60756D01*
X49400Y-60736D01*
X49284Y-60157D01*
X48956Y-59666D01*
X48465Y-59338D01*
X47886Y-59223D01*
D02*
G37*
G36*
X129992Y-54654D02*
X129413Y-54769D01*
X128922Y-55097D01*
X128594Y-55588D01*
X128479Y-56167D01*
X128594Y-56746D01*
X128922Y-57237D01*
X129413Y-57565D01*
X129992Y-57680D01*
X130571Y-57565D01*
X131062Y-57237D01*
X131390Y-56746D01*
X131505Y-56167D01*
X131390Y-55588D01*
X131062Y-55097D01*
X130571Y-54769D01*
X129992Y-54654D01*
D02*
G37*
G36*
X156073Y-53355D02*
X155488Y-53471D01*
X154992Y-53803D01*
X154660Y-54299D01*
X154544Y-54884D01*
X154660Y-55470D01*
X154992Y-55966D01*
X155488Y-56297D01*
X156073Y-56414D01*
X156659Y-56297D01*
X157155Y-55966D01*
X157486Y-55470D01*
X157603Y-54884D01*
X157486Y-54299D01*
X157155Y-53803D01*
X156659Y-53471D01*
X156073Y-53355D01*
D02*
G37*
G36*
X136476Y-54976D02*
X135897Y-55091D01*
X135406Y-55419D01*
X135078Y-55910D01*
X134963Y-56489D01*
X135078Y-57068D01*
X135406Y-57559D01*
X135897Y-57887D01*
X136476Y-58002D01*
X137055Y-57887D01*
X137546Y-57559D01*
X137874Y-57068D01*
X137989Y-56489D01*
X137874Y-55910D01*
X137546Y-55419D01*
X137055Y-55091D01*
X136476Y-54976D01*
D02*
G37*
G36*
X142389Y-53187D02*
X141810Y-53302D01*
X141319Y-53630D01*
X140991Y-54121D01*
X140876Y-54700D01*
X140991Y-55279D01*
X141319Y-55770D01*
X141810Y-56098D01*
X142389Y-56213D01*
X142451Y-56201D01*
X142903Y-56489D01*
X142921Y-56578D01*
X143018Y-57068D01*
X143346Y-57559D01*
X143837Y-57887D01*
X144416Y-58002D01*
X144996Y-57887D01*
X145487Y-57559D01*
X145815Y-57068D01*
X145930Y-56489D01*
X145815Y-55910D01*
X145487Y-55419D01*
X144996Y-55091D01*
X144416Y-54976D01*
X144355Y-54988D01*
X143902Y-54700D01*
X143885Y-54611D01*
X143787Y-54121D01*
X143459Y-53630D01*
X142968Y-53302D01*
X142389Y-53187D01*
D02*
G37*
G36*
X42189Y-42271D02*
X41604Y-42387D01*
X41107Y-42719D01*
X40776Y-43215D01*
X40660Y-43800D01*
X40776Y-44385D01*
X41107Y-44881D01*
X41456Y-45114D01*
X41473Y-45132D01*
X41597Y-45552D01*
X41594Y-45721D01*
X41527Y-45790D01*
X41507Y-45840D01*
X39479Y-47868D01*
X39258Y-48199D01*
X39180Y-48589D01*
Y-64023D01*
X39258Y-64413D01*
X39479Y-64744D01*
X44822Y-70086D01*
X45152Y-70307D01*
X45542Y-70385D01*
X101899D01*
X101948Y-70407D01*
X102103Y-70409D01*
X102379Y-70430D01*
X102487Y-70446D01*
X102586Y-70466D01*
X102673Y-70489D01*
X102693Y-70496D01*
X102700Y-70516D01*
X102723Y-70603D01*
X102743Y-70702D01*
X102759Y-70810D01*
X102780Y-71086D01*
X102782Y-71241D01*
X102804Y-71290D01*
Y-84837D01*
X102782Y-84887D01*
X102780Y-85041D01*
X102759Y-85318D01*
X102743Y-85425D01*
X102723Y-85525D01*
X102700Y-85611D01*
X102675Y-85684D01*
X102650Y-85742D01*
X102625Y-85788D01*
X102585Y-85846D01*
X102563Y-85948D01*
X102411Y-86177D01*
X102294Y-86762D01*
X102411Y-87348D01*
X102742Y-87844D01*
X103238Y-88175D01*
X103824Y-88292D01*
X104409Y-88175D01*
X104905Y-87844D01*
X105237Y-87348D01*
X105353Y-86762D01*
X105237Y-86177D01*
X105084Y-85948D01*
X105062Y-85846D01*
X105022Y-85788D01*
X104997Y-85742D01*
X104972Y-85684D01*
X104947Y-85611D01*
X104924Y-85525D01*
X104904Y-85425D01*
X104888Y-85318D01*
X104867Y-85041D01*
X104865Y-84887D01*
X104843Y-84837D01*
Y-71290D01*
X104865Y-71241D01*
X104867Y-71086D01*
X104888Y-70810D01*
X104904Y-70702D01*
X104924Y-70603D01*
X104947Y-70517D01*
X104972Y-70444D01*
X104997Y-70385D01*
X105022Y-70340D01*
X105062Y-70282D01*
X105084Y-70179D01*
X105237Y-69951D01*
X105353Y-69365D01*
X105237Y-68780D01*
X105084Y-68552D01*
X105062Y-68449D01*
X105022Y-68391D01*
X104997Y-68345D01*
X104972Y-68287D01*
X104947Y-68214D01*
X104924Y-68128D01*
X104904Y-68028D01*
X104888Y-67921D01*
X104867Y-67645D01*
X104865Y-67490D01*
X104843Y-67440D01*
Y-65088D01*
X106711Y-63220D01*
X115167D01*
X116507Y-64560D01*
X116527Y-64610D01*
X116634Y-64721D01*
X116815Y-64931D01*
X116880Y-65018D01*
X116936Y-65103D01*
X116981Y-65180D01*
X117014Y-65249D01*
X117038Y-65309D01*
X117052Y-65358D01*
X117065Y-65428D01*
X117122Y-65516D01*
X117176Y-65785D01*
X117508Y-66281D01*
X118004Y-66613D01*
X118589Y-66729D01*
X119174Y-66613D01*
X119403Y-66460D01*
X119505Y-66439D01*
X119564Y-66399D01*
X119609Y-66374D01*
X119668Y-66348D01*
X119740Y-66323D01*
X119826Y-66300D01*
X119883Y-66289D01*
X119949Y-66294D01*
X120033Y-66345D01*
X120039Y-66359D01*
X120010Y-66916D01*
X119708Y-67119D01*
X119376Y-67615D01*
X119260Y-68200D01*
X119376Y-68785D01*
X119708Y-69281D01*
X120204Y-69613D01*
X120789Y-69729D01*
X121374Y-69613D01*
X121870Y-69281D01*
X122202Y-68785D01*
X122318Y-68200D01*
X122202Y-67615D01*
X121870Y-67119D01*
X121374Y-66787D01*
X121035Y-66720D01*
X121084Y-66220D01*
X126667D01*
X128669Y-68222D01*
Y-77300D01*
X128747Y-77690D01*
X128968Y-78021D01*
X130904Y-79957D01*
X130924Y-80007D01*
X131031Y-80119D01*
X131212Y-80329D01*
X131277Y-80415D01*
X131333Y-80500D01*
X131378Y-80577D01*
X131412Y-80646D01*
X131435Y-80706D01*
X131449Y-80755D01*
X131462Y-80825D01*
X131520Y-80913D01*
X131573Y-81182D01*
X131905Y-81679D01*
X132401Y-82010D01*
X132986Y-82126D01*
X133571Y-82010D01*
X134068Y-81679D01*
X134399Y-81182D01*
X134516Y-80597D01*
X134853Y-80220D01*
X161414D01*
X161487Y-80585D01*
X161819Y-81081D01*
X162315Y-81413D01*
X162900Y-81529D01*
X163485Y-81413D01*
X163981Y-81081D01*
X164313Y-80585D01*
X164429Y-80000D01*
X164313Y-79415D01*
X163981Y-78919D01*
X163485Y-78587D01*
X162900Y-78471D01*
X162827Y-78485D01*
X162821Y-78479D01*
X162490Y-78258D01*
X162100Y-78180D01*
X134383D01*
X133993Y-78258D01*
X133662Y-78479D01*
X133095Y-79046D01*
X133095Y-79046D01*
X133035Y-79023D01*
X132966Y-78989D01*
X132889Y-78944D01*
X132804Y-78888D01*
X132718Y-78823D01*
X132507Y-78642D01*
X132396Y-78535D01*
X132346Y-78515D01*
X130709Y-76878D01*
Y-69304D01*
X131209Y-69159D01*
X131458Y-69532D01*
X131954Y-69863D01*
X132539Y-69980D01*
X133124Y-69863D01*
X133621Y-69532D01*
X133952Y-69035D01*
X134069Y-68450D01*
X133952Y-67865D01*
X133621Y-67369D01*
X133124Y-67037D01*
X132539Y-66921D01*
X131954Y-67037D01*
X131458Y-67369D01*
X131194Y-67764D01*
X131125Y-67769D01*
X130717Y-67703D01*
X130687Y-67691D01*
X130631Y-67410D01*
X130410Y-67079D01*
X127810Y-64479D01*
X127479Y-64258D01*
X127089Y-64180D01*
X120514D01*
X120464Y-64159D01*
X120310Y-64156D01*
X120033Y-64135D01*
X119926Y-64120D01*
X119826Y-64100D01*
X119740Y-64077D01*
X119668Y-64052D01*
X119609Y-64026D01*
X119564Y-64002D01*
X119505Y-63961D01*
X119403Y-63940D01*
X119174Y-63787D01*
X118905Y-63733D01*
X118817Y-63676D01*
X118747Y-63663D01*
X118698Y-63649D01*
X118638Y-63625D01*
X118569Y-63592D01*
X118492Y-63547D01*
X118407Y-63491D01*
X118321Y-63426D01*
X118110Y-63245D01*
X117999Y-63138D01*
X117949Y-63118D01*
X116310Y-61479D01*
X115979Y-61258D01*
X115589Y-61180D01*
X106289D01*
X105899Y-61258D01*
X105568Y-61479D01*
X103103Y-63944D01*
X102882Y-64275D01*
X102804Y-64665D01*
Y-67440D01*
X102782Y-67490D01*
X102780Y-67645D01*
X102759Y-67921D01*
X102743Y-68028D01*
X102723Y-68128D01*
X102700Y-68214D01*
X102693Y-68235D01*
X102673Y-68242D01*
X102586Y-68265D01*
X102487Y-68285D01*
X102379Y-68301D01*
X102103Y-68322D01*
X101948Y-68324D01*
X101899Y-68346D01*
X45965D01*
X41220Y-63600D01*
Y-49011D01*
X42949Y-47282D01*
X42999Y-47262D01*
X43110Y-47155D01*
X43320Y-46974D01*
X43407Y-46909D01*
X43492Y-46853D01*
X43569Y-46808D01*
X43638Y-46775D01*
X43698Y-46751D01*
X43747Y-46737D01*
X43817Y-46724D01*
X43905Y-46667D01*
X44174Y-46613D01*
X44670Y-46281D01*
X45002Y-45785D01*
X45118Y-45200D01*
X45002Y-44615D01*
X44670Y-44119D01*
X44174Y-43787D01*
X43697Y-43692D01*
X43602Y-43215D01*
X43270Y-42719D01*
X42774Y-42387D01*
X42189Y-42271D01*
D02*
G37*
G36*
X113489Y-64671D02*
X112904Y-64787D01*
X112408Y-65119D01*
X112076Y-65615D01*
X111960Y-66200D01*
X112076Y-66785D01*
X112408Y-67281D01*
X112904Y-67613D01*
X113489Y-67729D01*
X113937Y-67640D01*
X114267Y-67926D01*
X114333Y-68033D01*
X114260Y-68400D01*
X114376Y-68985D01*
X114708Y-69481D01*
X115204Y-69813D01*
X115789Y-69929D01*
X116374Y-69813D01*
X116870Y-69481D01*
X117202Y-68985D01*
X117318Y-68400D01*
X117202Y-67815D01*
X116870Y-67319D01*
X116374Y-66987D01*
X115789Y-66871D01*
X115341Y-66960D01*
X115011Y-66674D01*
X114945Y-66567D01*
X115018Y-66200D01*
X114902Y-65615D01*
X114570Y-65119D01*
X114074Y-64787D01*
X113489Y-64671D01*
D02*
G37*
G36*
X147389Y-66671D02*
X146804Y-66787D01*
X146308Y-67119D01*
X145976Y-67615D01*
X145860Y-68200D01*
X145976Y-68785D01*
X146308Y-69281D01*
X146804Y-69613D01*
X147389Y-69729D01*
X147974Y-69613D01*
X148173Y-69969D01*
X148176Y-69985D01*
X148507Y-70481D01*
X149004Y-70813D01*
X149589Y-70929D01*
X150174Y-70813D01*
X150670Y-70481D01*
X151002Y-69985D01*
X151118Y-69400D01*
X151002Y-68815D01*
X150670Y-68319D01*
X150174Y-67987D01*
X149589Y-67871D01*
X149004Y-67987D01*
X148805Y-67631D01*
X148802Y-67615D01*
X148470Y-67119D01*
X147974Y-66787D01*
X147389Y-66671D01*
D02*
G37*
G36*
X108154Y-67371D02*
X107569Y-67487D01*
X107073Y-67819D01*
X106741Y-68315D01*
X106625Y-68900D01*
X106741Y-69485D01*
X107073Y-69981D01*
X107569Y-70313D01*
X108154Y-70429D01*
X108740Y-70313D01*
X109236Y-69981D01*
X109567Y-69485D01*
X109684Y-68900D01*
X109567Y-68315D01*
X109236Y-67819D01*
X108740Y-67487D01*
X108154Y-67371D01*
D02*
G37*
G36*
X13942Y-60036D02*
X13209Y-60182D01*
X12588Y-60597D01*
X12173Y-61218D01*
X12027Y-61951D01*
X12173Y-62684D01*
X12588Y-63305D01*
X13209Y-63720D01*
X13942Y-63866D01*
X14675Y-63720D01*
X15296Y-63305D01*
X15711Y-62684D01*
X15857Y-61951D01*
X15711Y-61218D01*
X15296Y-60597D01*
X14675Y-60182D01*
X13942Y-60036D01*
D02*
G37*
G36*
X160059Y-60441D02*
X159474Y-60558D01*
X158978Y-60889D01*
X158647Y-61385D01*
X158530Y-61971D01*
X158647Y-62556D01*
X158978Y-63052D01*
X159474Y-63384D01*
X160059Y-63500D01*
X160645Y-63384D01*
X161141Y-63052D01*
X161472Y-62556D01*
X161589Y-61971D01*
X161472Y-61385D01*
X161141Y-60889D01*
X160645Y-60558D01*
X160059Y-60441D01*
D02*
G37*
G36*
X192092Y-60945D02*
X191513Y-61060D01*
X191022Y-61388D01*
X190694Y-61879D01*
X190579Y-62458D01*
X190694Y-63038D01*
X191022Y-63529D01*
X191513Y-63857D01*
X192092Y-63972D01*
X192671Y-63857D01*
X193162Y-63529D01*
X193490Y-63038D01*
X193605Y-62458D01*
X193490Y-61879D01*
X193162Y-61388D01*
X192671Y-61060D01*
X192092Y-60945D01*
D02*
G37*
G36*
X186200Y-58060D02*
X185621Y-58175D01*
X185130Y-58503D01*
X184802Y-58994D01*
X184687Y-59573D01*
X184802Y-60152D01*
X185130Y-60643D01*
X185621Y-60971D01*
X186200Y-61086D01*
X186634Y-61000D01*
X186939Y-61420D01*
X186693Y-61788D01*
X186578Y-62367D01*
X186693Y-62946D01*
X187021Y-63437D01*
X187512Y-63765D01*
X188091Y-63880D01*
X188670Y-63765D01*
X189161Y-63437D01*
X189489Y-62946D01*
X189604Y-62367D01*
X189489Y-61788D01*
X189161Y-61297D01*
X188670Y-60969D01*
X188091Y-60854D01*
X187657Y-60940D01*
X187352Y-60520D01*
X187598Y-60152D01*
X187713Y-59573D01*
X187598Y-58994D01*
X187270Y-58503D01*
X186779Y-58175D01*
X186200Y-58060D01*
D02*
G37*
G36*
X223588Y-40872D02*
X223003Y-40988D01*
X222507Y-41319D01*
X222175Y-41816D01*
X222059Y-42401D01*
X222175Y-42986D01*
X222507Y-43482D01*
X223003Y-43814D01*
X223588Y-43930D01*
X224173Y-43814D01*
X224670Y-43482D01*
X225001Y-42986D01*
X225117Y-42401D01*
X225001Y-41816D01*
X224670Y-41319D01*
X224173Y-40988D01*
X223588Y-40872D01*
D02*
G37*
G36*
X99189Y-40071D02*
X98604Y-40187D01*
X98107Y-40519D01*
X97776Y-41015D01*
X97660Y-41600D01*
X97776Y-42185D01*
X98107Y-42682D01*
X98604Y-43013D01*
X99189Y-43129D01*
X99774Y-43013D01*
X100270Y-42682D01*
X100602Y-42185D01*
X100718Y-41600D01*
X100602Y-41015D01*
X100270Y-40519D01*
X99774Y-40187D01*
X99189Y-40071D01*
D02*
G37*
G36*
X49895Y-41484D02*
X49316Y-41599D01*
X48825Y-41927D01*
X48497Y-42418D01*
X48382Y-42997D01*
X48497Y-43576D01*
X48825Y-44067D01*
X49316Y-44395D01*
X49895Y-44510D01*
X50474Y-44395D01*
X50965Y-44067D01*
X51293Y-43576D01*
X51408Y-42997D01*
X51293Y-42418D01*
X50965Y-41927D01*
X50474Y-41599D01*
X49895Y-41484D01*
D02*
G37*
G36*
X95089Y-42471D02*
X94504Y-42587D01*
X94007Y-42919D01*
X93676Y-43415D01*
X93560Y-44000D01*
X93575Y-44077D01*
X93150Y-44503D01*
X92989Y-44471D01*
X92404Y-44587D01*
X91908Y-44919D01*
X91576Y-45415D01*
X91460Y-46000D01*
X91576Y-46585D01*
X91908Y-47082D01*
X92404Y-47413D01*
X92989Y-47529D01*
X93108Y-47506D01*
X93560Y-47800D01*
X93633Y-48167D01*
X93567Y-48274D01*
X93237Y-48560D01*
X92789Y-48471D01*
X92204Y-48587D01*
X91707Y-48919D01*
X91376Y-49415D01*
X91260Y-50000D01*
X91376Y-50585D01*
X91707Y-51082D01*
X92204Y-51413D01*
X92789Y-51529D01*
X93374Y-51413D01*
X93870Y-51082D01*
X94202Y-50585D01*
X94318Y-50000D01*
X94245Y-49633D01*
X94311Y-49526D01*
X94641Y-49240D01*
X95089Y-49329D01*
X95674Y-49213D01*
X96170Y-48882D01*
X96502Y-48385D01*
X96618Y-47800D01*
X96502Y-47215D01*
X96170Y-46719D01*
X95674Y-46387D01*
X95089Y-46271D01*
X94900Y-45921D01*
X95089Y-45529D01*
X95674Y-45413D01*
X96170Y-45081D01*
X96502Y-44585D01*
X96618Y-44000D01*
X96502Y-43415D01*
X96170Y-42919D01*
X95674Y-42587D01*
X95089Y-42471D01*
D02*
G37*
G36*
X55717Y-39576D02*
X55137Y-39691D01*
X54646Y-40019D01*
X54318Y-40510D01*
X54203Y-41089D01*
X54212Y-41135D01*
X53859Y-41489D01*
X53832Y-41484D01*
X53253Y-41599D01*
X52762Y-41927D01*
X52434Y-42418D01*
X52319Y-42997D01*
X52434Y-43576D01*
X52762Y-44067D01*
X53253Y-44395D01*
X53832Y-44510D01*
X54411Y-44395D01*
X54902Y-44067D01*
X55230Y-43576D01*
X55345Y-42997D01*
X55336Y-42950D01*
X55690Y-42597D01*
X55717Y-42602D01*
X55836Y-42578D01*
X56207Y-42908D01*
X56318Y-43468D01*
X56646Y-43959D01*
X57137Y-44287D01*
X57717Y-44402D01*
X58296Y-44287D01*
X58787Y-43959D01*
X59115Y-43468D01*
X59206Y-43007D01*
X59230Y-42889D01*
X59689Y-42632D01*
X59753Y-42645D01*
X59887Y-42672D01*
X60108Y-42893D01*
X60206Y-43065D01*
X60308Y-43576D01*
X60636Y-44067D01*
X61127Y-44395D01*
X61706Y-44510D01*
X62285Y-44395D01*
X62776Y-44067D01*
X63104Y-43576D01*
X63219Y-42997D01*
X63657Y-42632D01*
X63664Y-42634D01*
X63825Y-42716D01*
X64102Y-42993D01*
X64095Y-43032D01*
X64210Y-43611D01*
X64538Y-44102D01*
X65029Y-44430D01*
X65608Y-44545D01*
X66187Y-44430D01*
X66678Y-44102D01*
X67006Y-43611D01*
X67121Y-43032D01*
X67006Y-42453D01*
X66678Y-41962D01*
X66187Y-41634D01*
X65666Y-41530D01*
X65505Y-41448D01*
X65295Y-41238D01*
X65226Y-41085D01*
X65120Y-40553D01*
X64792Y-40062D01*
X64301Y-39734D01*
X63722Y-39619D01*
X63143Y-39734D01*
X62652Y-40062D01*
X62324Y-40553D01*
X62208Y-41132D01*
X61771Y-41497D01*
X61707Y-41484D01*
X61573Y-41457D01*
X61351Y-41236D01*
X61253Y-41064D01*
X61151Y-40553D01*
X60824Y-40062D01*
X60333Y-39734D01*
X59753Y-39619D01*
X59174Y-39734D01*
X58683Y-40062D01*
X58355Y-40553D01*
X58264Y-41014D01*
X58240Y-41132D01*
X57781Y-41388D01*
X57717Y-41376D01*
X57597Y-41399D01*
X57226Y-41070D01*
X57115Y-40510D01*
X56787Y-40019D01*
X56296Y-39691D01*
X55717Y-39576D01*
D02*
G37*
G36*
X13942Y-37280D02*
X13209Y-37426D01*
X12588Y-37841D01*
X12173Y-38462D01*
X12027Y-39195D01*
X12173Y-39928D01*
X12588Y-40549D01*
X13209Y-40964D01*
X13942Y-41110D01*
X14675Y-40964D01*
X15296Y-40549D01*
X15711Y-39928D01*
X15857Y-39195D01*
X15711Y-38462D01*
X15296Y-37841D01*
X14675Y-37426D01*
X13942Y-37280D01*
D02*
G37*
G36*
X125192Y-35654D02*
X124612Y-35769D01*
X124121Y-36097D01*
X123793Y-36588D01*
X123678Y-37168D01*
X123684Y-37199D01*
X123284Y-37751D01*
X123104Y-37787D01*
X122608Y-38119D01*
X122276Y-38615D01*
X122160Y-39200D01*
X122276Y-39785D01*
X122608Y-40282D01*
X123104Y-40613D01*
X123689Y-40729D01*
X123842Y-40699D01*
X124279Y-41067D01*
X124394Y-41646D01*
X124722Y-42137D01*
X125213Y-42465D01*
X125792Y-42580D01*
X126371Y-42465D01*
X126862Y-42137D01*
X127190Y-41646D01*
X127305Y-41067D01*
X127190Y-40488D01*
X126862Y-39997D01*
X126371Y-39669D01*
X125792Y-39554D01*
X125652Y-39581D01*
X125232Y-39212D01*
X125210Y-39160D01*
X125128Y-38745D01*
X125192Y-38681D01*
X125771Y-38566D01*
X126262Y-38238D01*
X126590Y-37747D01*
X126705Y-37168D01*
X126590Y-36588D01*
X126262Y-36097D01*
X125771Y-35769D01*
X125192Y-35654D01*
D02*
G37*
G36*
X25889Y-39271D02*
X25304Y-39387D01*
X24807Y-39719D01*
X24476Y-40215D01*
X24360Y-40800D01*
X24476Y-41385D01*
X24807Y-41881D01*
X25304Y-42213D01*
X25889Y-42329D01*
X26474Y-42213D01*
X26970Y-41881D01*
X27302Y-41385D01*
X27418Y-40800D01*
X27302Y-40215D01*
X26970Y-39719D01*
X26474Y-39387D01*
X25889Y-39271D01*
D02*
G37*
G36*
X147792Y-49954D02*
X147213Y-50069D01*
X146722Y-50397D01*
X146394Y-50888D01*
X146279Y-51467D01*
X146394Y-52046D01*
X146722Y-52537D01*
X147213Y-52865D01*
X147792Y-52980D01*
X148371Y-52865D01*
X148862Y-52537D01*
X149190Y-52046D01*
X149305Y-51467D01*
X149190Y-50888D01*
X148862Y-50397D01*
X148371Y-50069D01*
X147792Y-49954D01*
D02*
G37*
G36*
X124689Y-46787D02*
X124110Y-46902D01*
X123619Y-47230D01*
X123291Y-47721D01*
X123176Y-48300D01*
X123291Y-48879D01*
X123619Y-49370D01*
X124110Y-49698D01*
X124689Y-49813D01*
X125268Y-49698D01*
X125759Y-49370D01*
X126087Y-48879D01*
X126202Y-48300D01*
X126087Y-47721D01*
X125759Y-47230D01*
X125268Y-46902D01*
X124689Y-46787D01*
D02*
G37*
G36*
X135589Y-46987D02*
X135010Y-47102D01*
X134519Y-47430D01*
X134191Y-47921D01*
X134076Y-48500D01*
X134191Y-49079D01*
X134519Y-49570D01*
X135010Y-49898D01*
X135589Y-50013D01*
X136168Y-49898D01*
X136659Y-49570D01*
X136987Y-49079D01*
X137102Y-48500D01*
X136987Y-47921D01*
X136659Y-47430D01*
X136168Y-47102D01*
X135589Y-46987D01*
D02*
G37*
G36*
X138445Y-49454D02*
X137866Y-49569D01*
X137375Y-49897D01*
X137047Y-50388D01*
X136932Y-50967D01*
X137047Y-51546D01*
X137375Y-52037D01*
X137866Y-52365D01*
X138445Y-52480D01*
X139024Y-52365D01*
X139515Y-52037D01*
X139843Y-51546D01*
X139958Y-50967D01*
X139843Y-50388D01*
X139515Y-49897D01*
X139024Y-49569D01*
X138445Y-49454D01*
D02*
G37*
G36*
X232889Y-41971D02*
X232304Y-42087D01*
X231807Y-42419D01*
X231476Y-42915D01*
X231360Y-43500D01*
X231476Y-44085D01*
X231807Y-44581D01*
X232304Y-44913D01*
X232889Y-45029D01*
X233474Y-44913D01*
X233970Y-44581D01*
X234302Y-44085D01*
X234418Y-43500D01*
X234302Y-42915D01*
X233970Y-42419D01*
X233474Y-42087D01*
X232889Y-41971D01*
D02*
G37*
G36*
X128489Y-47187D02*
X127910Y-47302D01*
X127419Y-47630D01*
X127091Y-48121D01*
X126976Y-48700D01*
X127091Y-49279D01*
X127419Y-49770D01*
X127910Y-50098D01*
X128489Y-50213D01*
X129068Y-50098D01*
X129203Y-50008D01*
X129727Y-50259D01*
X129791Y-50579D01*
X130119Y-51070D01*
X130610Y-51398D01*
X131189Y-51513D01*
X131391Y-51473D01*
X131835Y-51590D01*
X131923Y-51838D01*
X131991Y-52179D01*
X132319Y-52670D01*
X132810Y-52998D01*
X133389Y-53113D01*
X133968Y-52998D01*
X134459Y-52670D01*
X134787Y-52179D01*
X134902Y-51600D01*
X134787Y-51021D01*
X134459Y-50530D01*
X133968Y-50202D01*
X133389Y-50087D01*
X133187Y-50127D01*
X132743Y-50011D01*
X132655Y-49762D01*
X132587Y-49421D01*
X132259Y-48930D01*
X131768Y-48602D01*
X131189Y-48487D01*
X130610Y-48602D01*
X130475Y-48692D01*
X129951Y-48441D01*
X129887Y-48121D01*
X129559Y-47630D01*
X129068Y-47302D01*
X128489Y-47187D01*
D02*
G37*
G36*
X172200Y-44771D02*
X171615Y-44887D01*
X171119Y-45219D01*
X170787Y-45715D01*
X170671Y-46300D01*
X170787Y-46885D01*
X171119Y-47381D01*
X171615Y-47713D01*
X172200Y-47829D01*
X172785Y-47713D01*
X173281Y-47381D01*
X173613Y-46885D01*
X173729Y-46300D01*
X173613Y-45715D01*
X173281Y-45219D01*
X172785Y-44887D01*
X172200Y-44771D01*
D02*
G37*
%LPD*%
G36*
X104326Y-67670D02*
X104350Y-67980D01*
X104370Y-68121D01*
X104397Y-68251D01*
X104429Y-68372D01*
X104467Y-68483D01*
X104511Y-68584D01*
X104560Y-68674D01*
X104616Y-68755D01*
X103214D01*
Y-69975D01*
X104616D01*
X104560Y-70056D01*
X104511Y-70147D01*
X104467Y-70248D01*
X104429Y-70359D01*
X104397Y-70479D01*
X104370Y-70610D01*
X104350Y-70750D01*
X104326Y-71061D01*
X104324Y-71231D01*
X103324D01*
X103321Y-71061D01*
X103297Y-70750D01*
X103277Y-70610D01*
X103251Y-70479D01*
X103218Y-70359D01*
X103180Y-70248D01*
X103137Y-70147D01*
X103103Y-70086D01*
X103042Y-70052D01*
X102941Y-70009D01*
X102830Y-69971D01*
X102710Y-69938D01*
X102579Y-69912D01*
X102439Y-69892D01*
X102128Y-69868D01*
X101958Y-69865D01*
Y-68865D01*
X102128Y-68862D01*
X102439Y-68839D01*
X102579Y-68819D01*
X102710Y-68792D01*
X102830Y-68760D01*
X102941Y-68722D01*
X103042Y-68678D01*
X103103Y-68645D01*
X103137Y-68584D01*
X103180Y-68483D01*
X103218Y-68372D01*
X103251Y-68251D01*
X103277Y-68121D01*
X103297Y-67980D01*
X103321Y-67670D01*
X103324Y-67499D01*
X104324D01*
X104326Y-67670D01*
D02*
G37*
G36*
X43718Y-46192D02*
X43621Y-46210D01*
X43522Y-46239D01*
X43420Y-46279D01*
X43315Y-46330D01*
X43207Y-46393D01*
X43096Y-46467D01*
X42982Y-46551D01*
X42746Y-46755D01*
X42623Y-46873D01*
X41916Y-46166D01*
X42034Y-46044D01*
X42237Y-45807D01*
X42322Y-45693D01*
X42396Y-45582D01*
X42459Y-45474D01*
X42510Y-45369D01*
X42550Y-45267D01*
X42579Y-45167D01*
X42597Y-45071D01*
X43718Y-46192D01*
D02*
G37*
G36*
X104326Y-85066D02*
X104350Y-85377D01*
X104370Y-85518D01*
X104397Y-85648D01*
X104429Y-85769D01*
X104467Y-85880D01*
X104511Y-85980D01*
X104560Y-86071D01*
X104616Y-86152D01*
X103031D01*
X103087Y-86071D01*
X103137Y-85980D01*
X103180Y-85880D01*
X103218Y-85769D01*
X103251Y-85648D01*
X103277Y-85518D01*
X103297Y-85377D01*
X103321Y-85066D01*
X103324Y-84896D01*
X104324D01*
X104326Y-85066D01*
D02*
G37*
G36*
X117745Y-63645D02*
X117982Y-63849D01*
X118096Y-63933D01*
X118207Y-64007D01*
X118315Y-64070D01*
X118420Y-64121D01*
X118522Y-64161D01*
X118621Y-64190D01*
X118718Y-64208D01*
X117597Y-65329D01*
X117579Y-65232D01*
X117550Y-65133D01*
X117510Y-65031D01*
X117459Y-64926D01*
X117396Y-64818D01*
X117322Y-64707D01*
X117237Y-64593D01*
X117034Y-64357D01*
X116916Y-64234D01*
X117623Y-63527D01*
X117745Y-63645D01*
D02*
G37*
G36*
X119280Y-64463D02*
X119371Y-64513D01*
X119472Y-64557D01*
X119582Y-64595D01*
X119703Y-64627D01*
X119834Y-64653D01*
X119974Y-64674D01*
X120285Y-64697D01*
X120455Y-64700D01*
Y-65700D01*
X120285Y-65703D01*
X119974Y-65726D01*
X119834Y-65747D01*
X119703Y-65773D01*
X119582Y-65805D01*
X119472Y-65843D01*
X119371Y-65887D01*
X119280Y-65937D01*
X119199Y-65992D01*
Y-64408D01*
X119280Y-64463D01*
D02*
G37*
G36*
X132143Y-79043D02*
X132379Y-79246D01*
X132493Y-79330D01*
X132604Y-79404D01*
X132712Y-79467D01*
X132817Y-79518D01*
X132919Y-79558D01*
X133019Y-79588D01*
X133115Y-79606D01*
X131994Y-80726D01*
X131976Y-80630D01*
X131947Y-80530D01*
X131907Y-80428D01*
X131856Y-80323D01*
X131793Y-80215D01*
X131720Y-80104D01*
X131635Y-79990D01*
X131431Y-79754D01*
X131313Y-79631D01*
X132020Y-78924D01*
X132143Y-79043D01*
D02*
G37*
D31*
X162100Y-79200D02*
X162900Y-80000D01*
X45542Y-69365D02*
X103824D01*
X40200Y-64023D02*
X45542Y-69365D01*
X40200Y-64023D02*
Y-48589D01*
X43589Y-45200D01*
X134383Y-79200D02*
X162100D01*
X132986Y-80597D02*
X134383Y-79200D01*
X129689Y-77300D02*
X132986Y-80597D01*
X129689Y-77300D02*
Y-67800D01*
X127089Y-65200D02*
X129689Y-67800D01*
X118589Y-65200D02*
X127089D01*
X103824Y-86762D02*
Y-69365D01*
Y-64665D01*
X106289Y-62200D01*
X115589D01*
X118589Y-65200D01*
D34*
X184189Y-43500D02*
Y-15280D01*
X185429Y-14040D01*
Y-6140D01*
X182289Y-3000D02*
X185429Y-6140D01*
X174489Y-3000D02*
X182289D01*
D36*
X4349Y-133148D02*
D03*
Y-113463D02*
D03*
D37*
X220864Y-186706D02*
D03*
X169683D02*
D03*
X102753D02*
D03*
X51572D02*
D03*
D38*
X195273Y-167020D02*
D03*
X181494D02*
D03*
X209053D02*
D03*
X77163D02*
D03*
X63384D02*
D03*
X90943D02*
D03*
D39*
X13942Y-39195D02*
D03*
Y-61951D02*
D03*
D40*
X-428Y-33566D02*
D03*
X-429Y-67581D02*
D03*
D41*
X16028Y-67581D02*
D03*
X16028Y-33566D02*
D03*
D42*
X267717Y0D02*
D03*
X0Y-169323D02*
D03*
Y0D02*
D03*
X267717Y-169323D02*
D03*
D43*
X18400Y-93200D02*
D03*
X217800Y6795D02*
D03*
X18400Y-89500D02*
D03*
X29400Y-75960D02*
D03*
X32352D02*
D03*
X162900Y-80000D02*
D03*
X53000Y-88200D02*
D03*
X56100D02*
D03*
X37800D02*
D03*
X34900D02*
D03*
X198000Y-88400D02*
D03*
X195100D02*
D03*
X191200Y-83800D02*
D03*
X111500Y-13500D02*
D03*
X115500Y-14400D02*
D03*
X179000Y-24700D02*
D03*
X179500Y-41600D02*
D03*
X176400Y-29300D02*
D03*
X100600Y-34500D02*
D03*
X252078Y-117552D02*
D03*
X252879Y-89052D02*
D03*
X13079Y-85452D02*
D03*
X7079D02*
D03*
X1579D02*
D03*
X11979Y-143159D02*
D03*
X8379D02*
D03*
X4479D02*
D03*
X579D02*
D03*
X-3021D02*
D03*
X8379Y-103452D02*
D03*
X11979D02*
D03*
X4479D02*
D03*
X579D02*
D03*
X-3021D02*
D03*
X161189Y-18271D02*
D03*
X164189Y-16000D02*
D03*
X26279Y-3352D02*
D03*
X272779Y-81552D02*
D03*
X275479Y-48052D02*
D03*
X273679Y-57052D02*
D03*
X274379Y-22552D02*
D03*
X274179Y-15952D02*
D03*
X231379Y-14352D02*
D03*
X203679Y-24652D02*
D03*
X200479Y-22352D02*
D03*
X-2900Y-47400D02*
D03*
Y-50550D02*
D03*
Y-53700D02*
D03*
X-6000D02*
D03*
Y-50550D02*
D03*
Y-47400D02*
D03*
X78879Y-145205D02*
D03*
X81679D02*
D03*
X45964D02*
D03*
X43164D02*
D03*
X224817Y-126305D02*
D03*
Y-124206D02*
D03*
Y-128405D02*
D03*
Y-130506D02*
D03*
Y-132606D02*
D03*
Y-134705D02*
D03*
X220117Y-124206D02*
D03*
X222467D02*
D03*
Y-126305D02*
D03*
X220117D02*
D03*
Y-130506D02*
D03*
X222467D02*
D03*
X220117Y-128405D02*
D03*
Y-134705D02*
D03*
X222467D02*
D03*
Y-132606D02*
D03*
X220117D02*
D03*
X222467Y-128405D02*
D03*
X190099Y-126323D02*
D03*
Y-124223D02*
D03*
Y-128423D02*
D03*
Y-130523D02*
D03*
Y-132623D02*
D03*
Y-134723D02*
D03*
X185399Y-124223D02*
D03*
X187749D02*
D03*
Y-126323D02*
D03*
X185399D02*
D03*
Y-130523D02*
D03*
X187749D02*
D03*
X185399Y-128423D02*
D03*
Y-134723D02*
D03*
X187749D02*
D03*
Y-132623D02*
D03*
X185399D02*
D03*
X187749Y-128423D02*
D03*
X155540Y-126323D02*
D03*
Y-124223D02*
D03*
Y-128423D02*
D03*
Y-130523D02*
D03*
Y-132623D02*
D03*
Y-134723D02*
D03*
X150840Y-124223D02*
D03*
X153190D02*
D03*
Y-126323D02*
D03*
X150840D02*
D03*
Y-130523D02*
D03*
X153190D02*
D03*
X150840Y-128423D02*
D03*
Y-134723D02*
D03*
X153190D02*
D03*
Y-132623D02*
D03*
X150840D02*
D03*
X153190Y-128423D02*
D03*
X101267Y-126323D02*
D03*
Y-124223D02*
D03*
Y-128423D02*
D03*
Y-130523D02*
D03*
Y-132623D02*
D03*
Y-134723D02*
D03*
X96567Y-124223D02*
D03*
X98917D02*
D03*
Y-126323D02*
D03*
X96567D02*
D03*
Y-130523D02*
D03*
X98917D02*
D03*
X96567Y-128423D02*
D03*
Y-134723D02*
D03*
X98917D02*
D03*
Y-132623D02*
D03*
X96567D02*
D03*
X98917Y-128423D02*
D03*
X66227Y-126323D02*
D03*
Y-124223D02*
D03*
Y-128423D02*
D03*
Y-130523D02*
D03*
Y-132623D02*
D03*
Y-134723D02*
D03*
X61527Y-124223D02*
D03*
X63876D02*
D03*
Y-126323D02*
D03*
X61527D02*
D03*
Y-130523D02*
D03*
X63876D02*
D03*
X61527Y-128423D02*
D03*
Y-134723D02*
D03*
X63876D02*
D03*
Y-132623D02*
D03*
X61527D02*
D03*
X63876Y-128423D02*
D03*
X31186Y-126323D02*
D03*
Y-124223D02*
D03*
Y-128423D02*
D03*
Y-130523D02*
D03*
Y-132623D02*
D03*
Y-134723D02*
D03*
X26486Y-124223D02*
D03*
X28836D02*
D03*
Y-126323D02*
D03*
X26486D02*
D03*
Y-130523D02*
D03*
X28836D02*
D03*
X26486Y-128423D02*
D03*
Y-134723D02*
D03*
X28836D02*
D03*
Y-132623D02*
D03*
X26486D02*
D03*
X28836Y-128423D02*
D03*
X160617Y-106306D02*
D03*
X227070Y-101005D02*
D03*
X231070D02*
D03*
X235070D02*
D03*
X237170Y-103605D02*
D03*
X233170D02*
D03*
X229170D02*
D03*
X233170Y-108905D02*
D03*
X237170D02*
D03*
X235070Y-106306D02*
D03*
X227070D02*
D03*
X192070Y-101005D02*
D03*
X196070D02*
D03*
X200070D02*
D03*
X202170Y-103605D02*
D03*
X198170D02*
D03*
X194170D02*
D03*
Y-108905D02*
D03*
X198170D02*
D03*
X202170D02*
D03*
X200070Y-106306D02*
D03*
X192070D02*
D03*
X162765Y-103622D02*
D03*
X156617Y-101005D02*
D03*
X160617D02*
D03*
X164617D02*
D03*
X166717Y-103605D02*
D03*
X158717D02*
D03*
Y-108905D02*
D03*
X162717D02*
D03*
X166717D02*
D03*
X164617Y-106306D02*
D03*
X156617D02*
D03*
X196070D02*
D03*
X231070D02*
D03*
X229170Y-108905D02*
D03*
X104816D02*
D03*
X106717Y-106306D02*
D03*
X71716D02*
D03*
X32264D02*
D03*
X40264D02*
D03*
X42364Y-108905D02*
D03*
X38364D02*
D03*
X34364D02*
D03*
Y-103605D02*
D03*
X42364D02*
D03*
X40264Y-101005D02*
D03*
X36264D02*
D03*
X32264D02*
D03*
X38411Y-103622D02*
D03*
X67716Y-106306D02*
D03*
X75717D02*
D03*
X77816Y-108905D02*
D03*
X73817D02*
D03*
X69816D02*
D03*
Y-103605D02*
D03*
X73817D02*
D03*
X77816D02*
D03*
X75717Y-101005D02*
D03*
X71716D02*
D03*
X67716D02*
D03*
X102717Y-106306D02*
D03*
X110716D02*
D03*
X112817Y-108905D02*
D03*
X108817D02*
D03*
X104816Y-103605D02*
D03*
X108817D02*
D03*
X112817D02*
D03*
X110716Y-101005D02*
D03*
X106717D02*
D03*
X102717D02*
D03*
X36264Y-106306D02*
D03*
X166389Y-12500D02*
D03*
X84380Y-11491D02*
D03*
X61418Y-2200D02*
D03*
X57481Y-2192D02*
D03*
X47827Y-1600D02*
D03*
Y3362D02*
D03*
X202589Y-145205D02*
D03*
X147389Y-68200D02*
D03*
X149589Y-69400D02*
D03*
X252078Y-121989D02*
D03*
X27189Y3500D02*
D03*
X88489Y-2900D02*
D03*
X264589Y-89900D02*
D03*
X250689Y-154000D02*
D03*
X193847Y2742D02*
D03*
X118489Y-73300D02*
D03*
X160059Y-61971D02*
D03*
X232889Y-43500D02*
D03*
X232589Y-57000D02*
D03*
X132986Y-80597D02*
D03*
X43589Y-45200D02*
D03*
X42189Y-43800D02*
D03*
X118589Y-65200D02*
D03*
X120789Y-68200D02*
D03*
X103824Y-69365D02*
D03*
Y-86762D02*
D03*
X147389Y-36000D02*
D03*
X184189Y-43500D02*
D03*
X185429Y-14040D02*
D03*
X174489Y-3000D02*
D03*
X205189Y-145205D02*
D03*
X170189D02*
D03*
X167589D02*
D03*
X142083Y-82306D02*
D03*
X159189Y-87100D02*
D03*
X115589D02*
D03*
X172144Y2745D02*
D03*
X115789Y-68400D02*
D03*
X113489Y-66200D02*
D03*
X96189Y-16100D02*
D03*
X92089D02*
D03*
X112989Y-22000D02*
D03*
X25889Y-40800D02*
D03*
X18755Y-156766D02*
D03*
X234150Y-169262D02*
D03*
X255789Y-29500D02*
D03*
X260089D02*
D03*
X233189Y-19700D02*
D03*
X150789Y-35900D02*
D03*
X74689Y-16000D02*
D03*
X74789Y-12500D02*
D03*
X16189Y8362D02*
D03*
Y-6638D02*
D03*
X50196Y-22174D02*
D03*
X46562D02*
D03*
X99189Y-41600D02*
D03*
X95089Y-44000D02*
D03*
X92989Y-46000D02*
D03*
X95089Y-47800D02*
D03*
X92789Y-50000D02*
D03*
X187789Y-21565D02*
D03*
X191689D02*
D03*
X111164Y-76900D02*
D03*
Y-87225D02*
D03*
X215589Y2400D02*
D03*
X223588Y-42401D02*
D03*
X156073Y-54884D02*
D03*
X123689Y-39200D02*
D03*
X249903Y-167489D02*
D03*
X245966D02*
D03*
X242029D02*
D03*
X34503Y-167389D02*
D03*
X30566D02*
D03*
X26629D02*
D03*
X78417Y-47189D02*
D03*
X74476D02*
D03*
X70537D02*
D03*
X66597D02*
D03*
X62656D02*
D03*
X58716D02*
D03*
X78417Y-51439D02*
D03*
Y-55689D02*
D03*
X58716Y-51439D02*
D03*
X62656D02*
D03*
X66597D02*
D03*
X70537D02*
D03*
X74476D02*
D03*
X58716Y-55689D02*
D03*
X62656D02*
D03*
X66597D02*
D03*
X70537D02*
D03*
X74476D02*
D03*
X216877D02*
D03*
X212936D02*
D03*
X208997D02*
D03*
X205057D02*
D03*
X201116D02*
D03*
X216877Y-51439D02*
D03*
X212936D02*
D03*
X208997D02*
D03*
X205057D02*
D03*
X201116D02*
D03*
X220816Y-55689D02*
D03*
Y-51439D02*
D03*
X201116Y-47189D02*
D03*
X205057D02*
D03*
X208997D02*
D03*
X212936D02*
D03*
X216877D02*
D03*
X220816D02*
D03*
X156618Y-18271D02*
D03*
X114389Y-57800D02*
D03*
X132539Y-68450D02*
D03*
X247689Y-74000D02*
D03*
Y-78000D02*
D03*
X240524Y-82965D02*
D03*
X119789Y-14000D02*
D03*
X108154Y-68900D02*
D03*
X220389Y-13600D02*
D03*
X223589Y-17200D02*
D03*
X91289Y-76700D02*
D03*
X95389D02*
D03*
X99889D02*
D03*
X121189Y-80600D02*
D03*
X143989Y-88900D02*
D03*
X22692Y-156766D02*
D03*
X238087D02*
D03*
X-4011Y-85452D02*
D03*
X172200Y-46300D02*
D03*
X173789Y-78600D02*
D03*
X176989Y-81800D02*
D03*
X179500Y-88400D02*
D03*
X176600D02*
D03*
D44*
X47886Y-60736D02*
D03*
X49860Y-62601D02*
D03*
X43949Y-60736D02*
D03*
X45923Y-62601D02*
D03*
X152789Y-26400D02*
D03*
X192092Y-62458D02*
D03*
X188091Y-62367D02*
D03*
X132399Y-168720D02*
D03*
Y-173221D02*
D03*
X138899Y-168720D02*
D03*
Y-173221D02*
D03*
X274089Y-114689D02*
D03*
X267589D02*
D03*
X274089Y-109300D02*
D03*
X267589D02*
D03*
Y-99300D02*
D03*
X274089D02*
D03*
X267589Y-104689D02*
D03*
X274089D02*
D03*
X133389Y-51600D02*
D03*
X131189Y-50000D02*
D03*
X128489Y-48700D02*
D03*
X49895Y-42997D02*
D03*
X127789Y-27400D02*
D03*
X138445Y-50967D02*
D03*
X147792Y-51467D02*
D03*
X135589Y-48500D02*
D03*
X124689Y-48300D02*
D03*
X129992Y-56167D02*
D03*
X125792Y-41067D02*
D03*
X125192Y-37168D02*
D03*
X139497Y-33562D02*
D03*
X137997Y-35662D02*
D03*
X141997Y-31362D02*
D03*
X142387Y-24052D02*
D03*
X139497Y-29462D02*
D03*
X57717Y-42889D02*
D03*
X53832Y-42997D02*
D03*
X55717Y-41089D02*
D03*
X63722Y-41132D02*
D03*
X59753D02*
D03*
X144416Y-56489D02*
D03*
X136476D02*
D03*
X65608Y-43032D02*
D03*
X61706Y-42997D02*
D03*
X155792Y-47010D02*
D03*
X153692Y-45041D02*
D03*
X155792Y-43073D02*
D03*
X153692Y-41105D02*
D03*
X155792Y-39136D02*
D03*
X153692Y-37168D02*
D03*
X155792Y-35199D02*
D03*
X201935Y-32721D02*
D03*
X205872D02*
D03*
X197998D02*
D03*
X142389Y-54700D02*
D03*
X190137Y-59543D02*
D03*
X186200Y-59573D02*
D03*
M02*
