G04 Layer_Color=65535*
%FSLAX25Y25*%
%MOIN*%
G70*
G01*
G75*
%ADD31C,0.01000*%
%ADD32C,0.02000*%
%ADD63C,0.01968*%
%ADD64C,0.02362*%
%ADD65C,0.01181*%
%ADD66C,0.00394*%
%ADD67C,0.00492*%
%ADD68C,0.00787*%
%ADD69C,0.01300*%
G36*
X35466Y-152455D02*
X35499Y-152466D01*
X35527Y-152488D01*
X35532Y-152494D01*
X35549Y-152516D01*
X35560Y-152555D01*
X35566Y-152605D01*
Y-152694D01*
Y-152699D01*
Y-152716D01*
Y-152738D01*
X35560Y-152766D01*
Y-152771D01*
Y-152783D01*
X35555Y-152805D01*
X35543Y-152827D01*
Y-152832D01*
X35538Y-152844D01*
X35527Y-152866D01*
X35510Y-152894D01*
X35505Y-152899D01*
X35499Y-152916D01*
X35482Y-152944D01*
X35460Y-152977D01*
X34034Y-155202D01*
X35555D01*
X35571Y-155208D01*
X35593Y-155219D01*
X35610Y-155247D01*
X35616Y-155252D01*
X35621Y-155280D01*
X35627Y-155319D01*
X35632Y-155380D01*
Y-155385D01*
Y-155408D01*
Y-155430D01*
X35627Y-155458D01*
Y-155463D01*
Y-155474D01*
X35616Y-155513D01*
Y-155519D01*
X35610Y-155524D01*
X35588Y-155546D01*
X35577D01*
X35549Y-155552D01*
X33706D01*
X33684Y-155546D01*
X33651Y-155535D01*
X33618Y-155519D01*
X33612Y-155513D01*
X33601Y-155485D01*
X33584Y-155447D01*
X33579Y-155391D01*
Y-155302D01*
Y-155297D01*
Y-155286D01*
Y-155247D01*
Y-155241D01*
X33584Y-155230D01*
X33595Y-155191D01*
X33601Y-155186D01*
X33606Y-155169D01*
X33618Y-155147D01*
X33629Y-155125D01*
X33634Y-155119D01*
X33645Y-155097D01*
X33662Y-155069D01*
X33684Y-155036D01*
X35116Y-152794D01*
X33690D01*
X33662Y-152788D01*
X33651Y-152783D01*
X33634Y-152760D01*
Y-152755D01*
X33629Y-152744D01*
X33623Y-152727D01*
X33618Y-152705D01*
Y-152699D01*
Y-152683D01*
X33612Y-152661D01*
Y-152627D01*
Y-152622D01*
Y-152599D01*
Y-152577D01*
X33618Y-152550D01*
Y-152544D01*
X33623Y-152527D01*
X33634Y-152494D01*
Y-152488D01*
X33640Y-152483D01*
X33662Y-152461D01*
X33667D01*
X33673Y-152455D01*
X33701Y-152450D01*
X35438D01*
X35466Y-152455D01*
D02*
G37*
G36*
X250866Y-152555D02*
X250899Y-152566D01*
X250927Y-152588D01*
X250932Y-152594D01*
X250949Y-152616D01*
X250960Y-152655D01*
X250966Y-152705D01*
Y-152794D01*
Y-152799D01*
Y-152816D01*
Y-152838D01*
X250960Y-152866D01*
Y-152872D01*
Y-152883D01*
X250955Y-152905D01*
X250943Y-152927D01*
Y-152933D01*
X250938Y-152944D01*
X250927Y-152966D01*
X250910Y-152994D01*
X250905Y-152999D01*
X250899Y-153016D01*
X250882Y-153043D01*
X250860Y-153077D01*
X249434Y-155302D01*
X250955D01*
X250971Y-155308D01*
X250993Y-155319D01*
X251010Y-155347D01*
X251016Y-155352D01*
X251021Y-155380D01*
X251027Y-155419D01*
X251032Y-155480D01*
Y-155485D01*
Y-155508D01*
Y-155530D01*
X251027Y-155558D01*
Y-155563D01*
Y-155574D01*
X251016Y-155613D01*
Y-155619D01*
X251010Y-155624D01*
X250988Y-155647D01*
X250977D01*
X250949Y-155652D01*
X249106D01*
X249084Y-155647D01*
X249051Y-155635D01*
X249018Y-155619D01*
X249012Y-155613D01*
X249001Y-155585D01*
X248984Y-155547D01*
X248979Y-155491D01*
Y-155402D01*
Y-155397D01*
Y-155386D01*
Y-155347D01*
Y-155341D01*
X248984Y-155330D01*
X248995Y-155291D01*
X249001Y-155286D01*
X249007Y-155269D01*
X249018Y-155247D01*
X249029Y-155225D01*
X249034Y-155219D01*
X249045Y-155197D01*
X249062Y-155169D01*
X249084Y-155136D01*
X250516Y-152894D01*
X249090D01*
X249062Y-152888D01*
X249051Y-152883D01*
X249034Y-152860D01*
Y-152855D01*
X249029Y-152844D01*
X249023Y-152827D01*
X249018Y-152805D01*
Y-152799D01*
Y-152783D01*
X249012Y-152761D01*
Y-152727D01*
Y-152722D01*
Y-152699D01*
Y-152677D01*
X249018Y-152649D01*
Y-152644D01*
X249023Y-152627D01*
X249034Y-152594D01*
Y-152588D01*
X249040Y-152583D01*
X249062Y-152561D01*
X249067D01*
X249073Y-152555D01*
X249101Y-152550D01*
X250838D01*
X250866Y-152555D01*
D02*
G37*
G36*
X30595Y-152355D02*
X30667Y-152361D01*
X30745Y-152372D01*
X30817Y-152388D01*
X30889Y-152405D01*
X30895D01*
X30917Y-152416D01*
X30950Y-152427D01*
X30995Y-152444D01*
X31089Y-152494D01*
X31139Y-152527D01*
X31183Y-152560D01*
X31189Y-152566D01*
X31205Y-152577D01*
X31228Y-152599D01*
X31250Y-152627D01*
X31283Y-152666D01*
X31311Y-152710D01*
X31339Y-152755D01*
X31367Y-152810D01*
X31372Y-152816D01*
X31378Y-152838D01*
X31389Y-152866D01*
X31400Y-152905D01*
X31411Y-152954D01*
X31416Y-153010D01*
X31427Y-153071D01*
Y-153138D01*
Y-153143D01*
Y-153154D01*
Y-153176D01*
X31422Y-153204D01*
X31416Y-153271D01*
X31400Y-153349D01*
Y-153354D01*
X31394Y-153365D01*
X31389Y-153387D01*
X31378Y-153410D01*
X31355Y-153471D01*
X31317Y-153537D01*
Y-153543D01*
X31305Y-153548D01*
X31283Y-153587D01*
X31244Y-153637D01*
X31189Y-153687D01*
X31183D01*
X31178Y-153698D01*
X31161Y-153709D01*
X31139Y-153726D01*
X31083Y-153759D01*
X31011Y-153798D01*
X31017D01*
X31034Y-153804D01*
X31056Y-153809D01*
X31089Y-153815D01*
X31167Y-153842D01*
X31250Y-153887D01*
X31255D01*
X31267Y-153898D01*
X31289Y-153909D01*
X31317Y-153931D01*
X31378Y-153981D01*
X31439Y-154048D01*
X31444Y-154053D01*
X31455Y-154065D01*
X31466Y-154087D01*
X31489Y-154114D01*
X31505Y-154148D01*
X31527Y-154187D01*
X31572Y-154281D01*
Y-154287D01*
X31577Y-154303D01*
X31589Y-154331D01*
X31600Y-154364D01*
X31605Y-154409D01*
X31616Y-154453D01*
X31622Y-154564D01*
Y-154570D01*
Y-154592D01*
Y-154620D01*
X31616Y-154653D01*
X31611Y-154697D01*
X31605Y-154742D01*
X31583Y-154836D01*
Y-154841D01*
X31577Y-154858D01*
X31566Y-154880D01*
X31555Y-154908D01*
X31522Y-154980D01*
X31477Y-155058D01*
X31472Y-155063D01*
X31466Y-155075D01*
X31450Y-155091D01*
X31433Y-155119D01*
X31383Y-155175D01*
X31317Y-155230D01*
X31311Y-155236D01*
X31300Y-155241D01*
X31278Y-155258D01*
X31255Y-155274D01*
X31222Y-155291D01*
X31183Y-155313D01*
X31100Y-155352D01*
X31095D01*
X31078Y-155358D01*
X31056Y-155369D01*
X31022Y-155380D01*
X30989Y-155391D01*
X30945Y-155408D01*
X30845Y-155430D01*
X30839D01*
X30823Y-155435D01*
X30795D01*
X30756Y-155441D01*
X30712Y-155447D01*
X30656D01*
X30601Y-155452D01*
X29713D01*
X29690Y-155447D01*
X29657Y-155435D01*
X29618Y-155419D01*
X29613Y-155413D01*
X29596Y-155385D01*
X29579Y-155347D01*
X29574Y-155286D01*
Y-152522D01*
Y-152516D01*
Y-152505D01*
X29579Y-152472D01*
X29590Y-152427D01*
X29618Y-152388D01*
X29629Y-152383D01*
X29651Y-152366D01*
X29685Y-152355D01*
X29724Y-152350D01*
X30534D01*
X30595Y-152355D01*
D02*
G37*
G36*
X23212Y-152311D02*
X23262D01*
X23318Y-152316D01*
X23434Y-152339D01*
X23440D01*
X23462Y-152344D01*
X23490Y-152350D01*
X23529Y-152361D01*
X23573Y-152372D01*
X23618Y-152383D01*
X23712Y-152416D01*
X23717D01*
X23734Y-152422D01*
X23756Y-152433D01*
X23784Y-152444D01*
X23851Y-152472D01*
X23917Y-152505D01*
X23923D01*
X23928Y-152510D01*
X23962Y-152533D01*
X24001Y-152560D01*
X24028Y-152588D01*
X24034Y-152594D01*
X24045Y-152605D01*
X24061Y-152633D01*
X24073Y-152660D01*
X24078Y-152666D01*
X24084Y-152688D01*
X24089Y-152727D01*
Y-152777D01*
Y-152782D01*
Y-152805D01*
Y-152832D01*
X24084Y-152860D01*
Y-152866D01*
X24078Y-152877D01*
X24067Y-152916D01*
Y-152921D01*
X24061Y-152927D01*
X24039Y-152949D01*
X24034D01*
X24012Y-152954D01*
X24006D01*
X23989Y-152949D01*
X23962Y-152938D01*
X23917Y-152910D01*
X23912D01*
X23906Y-152905D01*
X23889Y-152893D01*
X23867Y-152882D01*
X23812Y-152849D01*
X23734Y-152810D01*
X23729D01*
X23712Y-152799D01*
X23690Y-152788D01*
X23656Y-152777D01*
X23618Y-152760D01*
X23573Y-152744D01*
X23518Y-152727D01*
X23462Y-152710D01*
X23457D01*
X23434Y-152705D01*
X23401Y-152694D01*
X23357Y-152683D01*
X23307Y-152677D01*
X23240Y-152666D01*
X23174Y-152660D01*
X23051D01*
X23001Y-152666D01*
X22940Y-152672D01*
X22868Y-152683D01*
X22791Y-152699D01*
X22707Y-152721D01*
X22630Y-152755D01*
X22618Y-152760D01*
X22596Y-152771D01*
X22558Y-152794D01*
X22513Y-152821D01*
X22458Y-152860D01*
X22402Y-152905D01*
X22341Y-152954D01*
X22286Y-153016D01*
X22280Y-153021D01*
X22263Y-153043D01*
X22236Y-153082D01*
X22208Y-153127D01*
X22174Y-153182D01*
X22136Y-153254D01*
X22102Y-153326D01*
X22069Y-153410D01*
X22063Y-153421D01*
X22058Y-153448D01*
X22047Y-153493D01*
X22036Y-153554D01*
X22019Y-153632D01*
X22008Y-153715D01*
X22003Y-153804D01*
X21997Y-153904D01*
Y-153909D01*
Y-153915D01*
Y-153931D01*
Y-153954D01*
X22003Y-154009D01*
X22008Y-154081D01*
X22014Y-154159D01*
X22030Y-154248D01*
X22047Y-154342D01*
X22075Y-154431D01*
X22080Y-154442D01*
X22091Y-154470D01*
X22108Y-154508D01*
X22136Y-154564D01*
X22169Y-154625D01*
X22208Y-154692D01*
X22252Y-154758D01*
X22302Y-154819D01*
X22308Y-154825D01*
X22330Y-154847D01*
X22358Y-154875D01*
X22402Y-154908D01*
X22452Y-154947D01*
X22513Y-154986D01*
X22580Y-155025D01*
X22652Y-155058D01*
X22663Y-155063D01*
X22691Y-155069D01*
X22729Y-155080D01*
X22785Y-155097D01*
X22852Y-155113D01*
X22929Y-155125D01*
X23013Y-155130D01*
X23101Y-155136D01*
X23157D01*
X23190Y-155130D01*
X23235D01*
X23284Y-155119D01*
X23395Y-155102D01*
X23401D01*
X23423Y-155097D01*
X23451Y-155086D01*
X23484Y-155075D01*
X23529Y-155063D01*
X23579Y-155041D01*
X23673Y-154997D01*
Y-154092D01*
X22940D01*
X22924Y-154087D01*
X22902Y-154076D01*
X22885Y-154053D01*
Y-154048D01*
X22879Y-154020D01*
X22874Y-153981D01*
X22868Y-153926D01*
Y-153920D01*
Y-153898D01*
Y-153876D01*
Y-153848D01*
Y-153842D01*
X22874Y-153831D01*
X22879Y-153815D01*
X22885Y-153798D01*
Y-153793D01*
X22891Y-153787D01*
X22907Y-153765D01*
X22913D01*
X22918Y-153759D01*
X22946Y-153754D01*
X23950D01*
X23984Y-153765D01*
X23989D01*
X24001Y-153770D01*
X24034Y-153798D01*
X24039Y-153804D01*
X24045Y-153809D01*
X24056Y-153826D01*
X24067Y-153848D01*
X24073Y-153854D01*
X24078Y-153870D01*
X24084Y-153893D01*
Y-153926D01*
Y-155108D01*
Y-155119D01*
Y-155147D01*
X24073Y-155180D01*
X24061Y-155219D01*
X24056Y-155225D01*
X24039Y-155247D01*
X24012Y-155269D01*
X23967Y-155297D01*
X23962D01*
X23956Y-155302D01*
X23939Y-155308D01*
X23923Y-155319D01*
X23862Y-155341D01*
X23790Y-155374D01*
X23784D01*
X23773Y-155380D01*
X23751Y-155385D01*
X23717Y-155396D01*
X23684Y-155408D01*
X23645Y-155419D01*
X23557Y-155441D01*
X23551D01*
X23534Y-155447D01*
X23512D01*
X23484Y-155452D01*
X23446Y-155458D01*
X23407Y-155469D01*
X23318Y-155480D01*
X23296D01*
X23273Y-155485D01*
X23246D01*
X23168Y-155491D01*
X23085Y-155496D01*
X23024D01*
X22990Y-155491D01*
X22957D01*
X22868Y-155480D01*
X22768Y-155469D01*
X22663Y-155452D01*
X22552Y-155424D01*
X22441Y-155385D01*
X22435D01*
X22430Y-155380D01*
X22397Y-155363D01*
X22341Y-155341D01*
X22274Y-155302D01*
X22202Y-155258D01*
X22119Y-155202D01*
X22041Y-155141D01*
X21964Y-155069D01*
X21952Y-155058D01*
X21930Y-155030D01*
X21897Y-154991D01*
X21853Y-154930D01*
X21803Y-154858D01*
X21753Y-154775D01*
X21708Y-154681D01*
X21664Y-154575D01*
Y-154570D01*
X21658Y-154564D01*
X21653Y-154547D01*
X21647Y-154525D01*
X21631Y-154464D01*
X21614Y-154386D01*
X21597Y-154292D01*
X21581Y-154181D01*
X21570Y-154059D01*
X21564Y-153931D01*
Y-153926D01*
Y-153915D01*
Y-153898D01*
Y-153870D01*
X21570Y-153837D01*
Y-153798D01*
X21581Y-153709D01*
X21592Y-153609D01*
X21608Y-153493D01*
X21636Y-153382D01*
X21675Y-153265D01*
Y-153260D01*
X21681Y-153254D01*
X21686Y-153238D01*
X21697Y-153215D01*
X21719Y-153160D01*
X21758Y-153088D01*
X21797Y-153010D01*
X21853Y-152921D01*
X21914Y-152838D01*
X21986Y-152755D01*
X21997Y-152744D01*
X22025Y-152721D01*
X22063Y-152683D01*
X22125Y-152633D01*
X22197Y-152577D01*
X22280Y-152522D01*
X22374Y-152472D01*
X22474Y-152422D01*
X22480D01*
X22485Y-152416D01*
X22502Y-152411D01*
X22524Y-152405D01*
X22580Y-152383D01*
X22657Y-152361D01*
X22752Y-152344D01*
X22857Y-152322D01*
X22974Y-152311D01*
X23101Y-152305D01*
X23168D01*
X23212Y-152311D01*
D02*
G37*
G36*
X27023Y-152339D02*
X27034D01*
X27051Y-152344D01*
X27079Y-152350D01*
X27101Y-152355D01*
X27106D01*
X27117Y-152361D01*
X27134Y-152366D01*
X27151Y-152383D01*
X27156D01*
X27162Y-152394D01*
X27178Y-152422D01*
X28222Y-155308D01*
X28227Y-155319D01*
X28233Y-155341D01*
X28238Y-155369D01*
Y-155396D01*
Y-155402D01*
Y-155413D01*
X28233Y-155430D01*
X28222Y-155447D01*
X28216D01*
X28211Y-155452D01*
X28188Y-155458D01*
X28161Y-155463D01*
X28128D01*
X28089Y-155469D01*
X27961D01*
X27922Y-155463D01*
X27917D01*
X27900Y-155458D01*
X27878D01*
X27856Y-155452D01*
X27850D01*
X27844Y-155447D01*
X27822Y-155435D01*
Y-155430D01*
X27817Y-155424D01*
X27800Y-155396D01*
X27534Y-154636D01*
X26241D01*
X25991Y-155385D01*
Y-155391D01*
X25985Y-155396D01*
X25969Y-155424D01*
X25963Y-155435D01*
X25935Y-155452D01*
X25930D01*
X25919Y-155458D01*
X25896D01*
X25869Y-155463D01*
X25841D01*
X25808Y-155469D01*
X25724D01*
X25686Y-155463D01*
X25647Y-155458D01*
X25641D01*
X25624Y-155452D01*
X25602Y-155447D01*
X25586Y-155441D01*
Y-155435D01*
X25580Y-155430D01*
X25574Y-155413D01*
X25569Y-155396D01*
Y-155391D01*
X25574Y-155374D01*
X25580Y-155347D01*
X25591Y-155308D01*
X26629Y-152422D01*
Y-152416D01*
X26634Y-152405D01*
X26651Y-152377D01*
X26657Y-152372D01*
X26662Y-152366D01*
X26696Y-152355D01*
X26701D01*
X26718Y-152350D01*
X26740Y-152344D01*
X26773Y-152339D01*
X26784D01*
X26807Y-152333D01*
X26984D01*
X27023Y-152339D01*
D02*
G37*
G36*
X235479Y-152438D02*
X235490D01*
X235523Y-152444D01*
X235545Y-152450D01*
X235557Y-152455D01*
X235562Y-152461D01*
X235573Y-152477D01*
X235579Y-152494D01*
Y-152505D01*
Y-152511D01*
X235573Y-152538D01*
X235568Y-152566D01*
X235562Y-152583D01*
X235557Y-152594D01*
X234546Y-155480D01*
X234535Y-155508D01*
X234530Y-155513D01*
Y-155519D01*
X234513Y-155535D01*
X234508Y-155541D01*
X234485Y-155546D01*
X234474Y-155552D01*
X234441D01*
X234430Y-155558D01*
X234424D01*
X234397Y-155563D01*
X234352D01*
X234324Y-155569D01*
X234213D01*
X234180Y-155563D01*
X234147D01*
X234114Y-155558D01*
X234091D01*
X234075Y-155552D01*
X234069D01*
X234047Y-155546D01*
X234030Y-155541D01*
X234025Y-155530D01*
X234019D01*
X233997Y-155502D01*
X233991Y-155491D01*
Y-155485D01*
X232981Y-152599D01*
X232970Y-152561D01*
X232959Y-152538D01*
Y-152522D01*
Y-152516D01*
Y-152494D01*
X232965Y-152477D01*
X232970Y-152472D01*
Y-152466D01*
X232987Y-152455D01*
X233009Y-152450D01*
X233026Y-152444D01*
X233031D01*
X233065Y-152438D01*
X233103Y-152433D01*
X233231D01*
X233259Y-152438D01*
X233264D01*
X233292Y-152444D01*
X233314Y-152450D01*
X233325Y-152455D01*
X233331D01*
X233353Y-152466D01*
X233364Y-152472D01*
Y-152477D01*
X233370Y-152505D01*
X233375Y-152516D01*
Y-152522D01*
X234241Y-155130D01*
X234247D01*
X235140Y-152516D01*
X235157Y-152488D01*
X235162Y-152477D01*
X235168Y-152466D01*
X235179Y-152461D01*
X235185Y-152455D01*
X235190D01*
X235207Y-152450D01*
X235229Y-152444D01*
X235246Y-152438D01*
X235251D01*
X235285Y-152433D01*
X235457D01*
X235479Y-152438D01*
D02*
G37*
G36*
X261560Y-124452D02*
X251707D01*
Y-98646D01*
X261560D01*
Y-124452D01*
D02*
G37*
G36*
X238612Y-152411D02*
X238662D01*
X238718Y-152416D01*
X238834Y-152438D01*
X238840D01*
X238862Y-152444D01*
X238890Y-152450D01*
X238929Y-152461D01*
X238973Y-152472D01*
X239018Y-152483D01*
X239112Y-152516D01*
X239117D01*
X239134Y-152522D01*
X239156Y-152533D01*
X239184Y-152544D01*
X239251Y-152572D01*
X239317Y-152605D01*
X239323D01*
X239328Y-152611D01*
X239362Y-152633D01*
X239401Y-152661D01*
X239428Y-152688D01*
X239434Y-152694D01*
X239445Y-152705D01*
X239461Y-152733D01*
X239473Y-152760D01*
X239478Y-152766D01*
X239484Y-152788D01*
X239489Y-152827D01*
Y-152877D01*
Y-152883D01*
Y-152905D01*
Y-152932D01*
X239484Y-152960D01*
Y-152966D01*
X239478Y-152977D01*
X239467Y-153016D01*
Y-153021D01*
X239461Y-153027D01*
X239439Y-153049D01*
X239434D01*
X239412Y-153054D01*
X239406D01*
X239389Y-153049D01*
X239362Y-153038D01*
X239317Y-153010D01*
X239312D01*
X239306Y-153005D01*
X239289Y-152994D01*
X239267Y-152982D01*
X239212Y-152949D01*
X239134Y-152910D01*
X239128D01*
X239112Y-152899D01*
X239090Y-152888D01*
X239056Y-152877D01*
X239018Y-152860D01*
X238973Y-152844D01*
X238918Y-152827D01*
X238862Y-152810D01*
X238857D01*
X238834Y-152805D01*
X238801Y-152794D01*
X238757Y-152783D01*
X238707Y-152777D01*
X238640Y-152766D01*
X238574Y-152760D01*
X238451D01*
X238402Y-152766D01*
X238340Y-152771D01*
X238268Y-152783D01*
X238191Y-152799D01*
X238107Y-152821D01*
X238030Y-152855D01*
X238018Y-152860D01*
X237996Y-152871D01*
X237958Y-152894D01*
X237913Y-152921D01*
X237858Y-152960D01*
X237802Y-153005D01*
X237741Y-153054D01*
X237685Y-153116D01*
X237680Y-153121D01*
X237663Y-153143D01*
X237636Y-153182D01*
X237608Y-153227D01*
X237575Y-153282D01*
X237536Y-153354D01*
X237502Y-153426D01*
X237469Y-153510D01*
X237463Y-153521D01*
X237458Y-153549D01*
X237447Y-153593D01*
X237436Y-153654D01*
X237419Y-153732D01*
X237408Y-153815D01*
X237403Y-153904D01*
X237397Y-154004D01*
Y-154009D01*
Y-154015D01*
Y-154031D01*
Y-154053D01*
X237403Y-154109D01*
X237408Y-154181D01*
X237414Y-154259D01*
X237430Y-154348D01*
X237447Y-154442D01*
X237475Y-154531D01*
X237480Y-154542D01*
X237491Y-154570D01*
X237508Y-154609D01*
X237536Y-154664D01*
X237569Y-154725D01*
X237608Y-154792D01*
X237652Y-154858D01*
X237702Y-154919D01*
X237708Y-154925D01*
X237730Y-154947D01*
X237758Y-154975D01*
X237802Y-155008D01*
X237852Y-155047D01*
X237913Y-155086D01*
X237980Y-155125D01*
X238052Y-155158D01*
X238063Y-155164D01*
X238091Y-155169D01*
X238129Y-155180D01*
X238185Y-155197D01*
X238252Y-155213D01*
X238329Y-155225D01*
X238413Y-155230D01*
X238501Y-155236D01*
X238557D01*
X238590Y-155230D01*
X238635D01*
X238685Y-155219D01*
X238795Y-155202D01*
X238801D01*
X238823Y-155197D01*
X238851Y-155186D01*
X238884Y-155175D01*
X238929Y-155164D01*
X238979Y-155141D01*
X239073Y-155097D01*
Y-154192D01*
X238340D01*
X238324Y-154187D01*
X238302Y-154176D01*
X238285Y-154153D01*
Y-154148D01*
X238279Y-154120D01*
X238274Y-154081D01*
X238268Y-154026D01*
Y-154020D01*
Y-153998D01*
Y-153976D01*
Y-153948D01*
Y-153943D01*
X238274Y-153931D01*
X238279Y-153915D01*
X238285Y-153898D01*
Y-153893D01*
X238291Y-153887D01*
X238307Y-153865D01*
X238313D01*
X238318Y-153859D01*
X238346Y-153854D01*
X239351D01*
X239384Y-153865D01*
X239389D01*
X239401Y-153870D01*
X239434Y-153898D01*
X239439Y-153904D01*
X239445Y-153909D01*
X239456Y-153926D01*
X239467Y-153948D01*
X239473Y-153954D01*
X239478Y-153970D01*
X239484Y-153992D01*
Y-154026D01*
Y-155208D01*
Y-155219D01*
Y-155247D01*
X239473Y-155280D01*
X239461Y-155319D01*
X239456Y-155324D01*
X239439Y-155347D01*
X239412Y-155369D01*
X239367Y-155397D01*
X239362D01*
X239356Y-155402D01*
X239339Y-155408D01*
X239323Y-155419D01*
X239262Y-155441D01*
X239190Y-155474D01*
X239184D01*
X239173Y-155480D01*
X239151Y-155485D01*
X239117Y-155497D01*
X239084Y-155508D01*
X239045Y-155519D01*
X238956Y-155541D01*
X238951D01*
X238934Y-155546D01*
X238912D01*
X238884Y-155552D01*
X238845Y-155558D01*
X238807Y-155569D01*
X238718Y-155580D01*
X238696D01*
X238673Y-155585D01*
X238646D01*
X238568Y-155591D01*
X238485Y-155596D01*
X238424D01*
X238390Y-155591D01*
X238357D01*
X238268Y-155580D01*
X238168Y-155569D01*
X238063Y-155552D01*
X237952Y-155524D01*
X237841Y-155485D01*
X237835D01*
X237830Y-155480D01*
X237796Y-155463D01*
X237741Y-155441D01*
X237674Y-155402D01*
X237602Y-155358D01*
X237519Y-155302D01*
X237441Y-155241D01*
X237364Y-155169D01*
X237352Y-155158D01*
X237330Y-155130D01*
X237297Y-155091D01*
X237253Y-155030D01*
X237203Y-154958D01*
X237153Y-154875D01*
X237108Y-154781D01*
X237064Y-154675D01*
Y-154670D01*
X237058Y-154664D01*
X237053Y-154647D01*
X237047Y-154625D01*
X237031Y-154564D01*
X237014Y-154486D01*
X236997Y-154392D01*
X236981Y-154281D01*
X236970Y-154159D01*
X236964Y-154031D01*
Y-154026D01*
Y-154015D01*
Y-153998D01*
Y-153970D01*
X236970Y-153937D01*
Y-153898D01*
X236981Y-153809D01*
X236992Y-153709D01*
X237008Y-153593D01*
X237036Y-153482D01*
X237075Y-153365D01*
Y-153360D01*
X237081Y-153354D01*
X237086Y-153338D01*
X237097Y-153315D01*
X237119Y-153260D01*
X237158Y-153188D01*
X237197Y-153110D01*
X237253Y-153021D01*
X237314Y-152938D01*
X237386Y-152855D01*
X237397Y-152844D01*
X237425Y-152821D01*
X237463Y-152783D01*
X237525Y-152733D01*
X237597Y-152677D01*
X237680Y-152622D01*
X237774Y-152572D01*
X237874Y-152522D01*
X237880D01*
X237885Y-152516D01*
X237902Y-152511D01*
X237924Y-152505D01*
X237980Y-152483D01*
X238057Y-152461D01*
X238152Y-152444D01*
X238257Y-152422D01*
X238374Y-152411D01*
X238501Y-152405D01*
X238568D01*
X238612Y-152411D01*
D02*
G37*
G36*
X245995Y-152455D02*
X246067Y-152461D01*
X246145Y-152472D01*
X246217Y-152488D01*
X246289Y-152505D01*
X246295D01*
X246317Y-152516D01*
X246350Y-152527D01*
X246395Y-152544D01*
X246489Y-152594D01*
X246539Y-152627D01*
X246583Y-152661D01*
X246589Y-152666D01*
X246605Y-152677D01*
X246628Y-152699D01*
X246650Y-152727D01*
X246683Y-152766D01*
X246711Y-152810D01*
X246739Y-152855D01*
X246766Y-152910D01*
X246772Y-152916D01*
X246778Y-152938D01*
X246789Y-152966D01*
X246800Y-153005D01*
X246811Y-153054D01*
X246816Y-153110D01*
X246828Y-153171D01*
Y-153238D01*
Y-153243D01*
Y-153254D01*
Y-153277D01*
X246822Y-153304D01*
X246816Y-153371D01*
X246800Y-153449D01*
Y-153454D01*
X246794Y-153465D01*
X246789Y-153487D01*
X246778Y-153510D01*
X246755Y-153571D01*
X246716Y-153637D01*
Y-153643D01*
X246705Y-153648D01*
X246683Y-153687D01*
X246644Y-153737D01*
X246589Y-153787D01*
X246583D01*
X246578Y-153798D01*
X246561Y-153809D01*
X246539Y-153826D01*
X246483Y-153859D01*
X246411Y-153898D01*
X246417D01*
X246433Y-153904D01*
X246456Y-153909D01*
X246489Y-153915D01*
X246567Y-153943D01*
X246650Y-153987D01*
X246656D01*
X246667Y-153998D01*
X246689Y-154009D01*
X246716Y-154031D01*
X246778Y-154081D01*
X246839Y-154148D01*
X246844Y-154153D01*
X246855Y-154165D01*
X246866Y-154187D01*
X246889Y-154215D01*
X246905Y-154248D01*
X246927Y-154287D01*
X246972Y-154381D01*
Y-154386D01*
X246977Y-154403D01*
X246989Y-154431D01*
X247000Y-154464D01*
X247005Y-154509D01*
X247016Y-154553D01*
X247022Y-154664D01*
Y-154670D01*
Y-154692D01*
Y-154719D01*
X247016Y-154753D01*
X247011Y-154797D01*
X247005Y-154842D01*
X246983Y-154936D01*
Y-154941D01*
X246977Y-154958D01*
X246966Y-154980D01*
X246955Y-155008D01*
X246922Y-155080D01*
X246878Y-155158D01*
X246872Y-155164D01*
X246866Y-155175D01*
X246850Y-155191D01*
X246833Y-155219D01*
X246783Y-155274D01*
X246716Y-155330D01*
X246711Y-155336D01*
X246700Y-155341D01*
X246678Y-155358D01*
X246656Y-155374D01*
X246622Y-155391D01*
X246583Y-155413D01*
X246500Y-155452D01*
X246495D01*
X246478Y-155458D01*
X246456Y-155469D01*
X246422Y-155480D01*
X246389Y-155491D01*
X246345Y-155508D01*
X246245Y-155530D01*
X246239D01*
X246223Y-155535D01*
X246195D01*
X246156Y-155541D01*
X246112Y-155546D01*
X246056D01*
X246001Y-155552D01*
X245113D01*
X245090Y-155546D01*
X245057Y-155535D01*
X245018Y-155519D01*
X245013Y-155513D01*
X244996Y-155485D01*
X244979Y-155447D01*
X244974Y-155385D01*
Y-152622D01*
Y-152616D01*
Y-152605D01*
X244979Y-152572D01*
X244990Y-152527D01*
X245018Y-152488D01*
X245029Y-152483D01*
X245052Y-152466D01*
X245085Y-152455D01*
X245124Y-152450D01*
X245934D01*
X245995Y-152455D01*
D02*
G37*
G36*
X242423Y-152438D02*
X242434D01*
X242451Y-152444D01*
X242478Y-152450D01*
X242501Y-152455D01*
X242506D01*
X242517Y-152461D01*
X242534Y-152466D01*
X242551Y-152483D01*
X242556D01*
X242562Y-152494D01*
X242578Y-152522D01*
X243622Y-155408D01*
X243627Y-155419D01*
X243633Y-155441D01*
X243638Y-155469D01*
Y-155497D01*
Y-155502D01*
Y-155513D01*
X243633Y-155530D01*
X243622Y-155546D01*
X243616D01*
X243611Y-155552D01*
X243588Y-155558D01*
X243561Y-155563D01*
X243528D01*
X243489Y-155569D01*
X243361D01*
X243322Y-155563D01*
X243317D01*
X243300Y-155558D01*
X243278D01*
X243255Y-155552D01*
X243250D01*
X243244Y-155546D01*
X243222Y-155535D01*
Y-155530D01*
X243217Y-155524D01*
X243200Y-155497D01*
X242934Y-154736D01*
X241640D01*
X241391Y-155485D01*
Y-155491D01*
X241385Y-155497D01*
X241369Y-155524D01*
X241363Y-155535D01*
X241335Y-155552D01*
X241330D01*
X241319Y-155558D01*
X241296D01*
X241269Y-155563D01*
X241241D01*
X241208Y-155569D01*
X241124D01*
X241086Y-155563D01*
X241047Y-155558D01*
X241041D01*
X241024Y-155552D01*
X241002Y-155546D01*
X240986Y-155541D01*
Y-155535D01*
X240980Y-155530D01*
X240974Y-155513D01*
X240969Y-155497D01*
Y-155491D01*
X240974Y-155474D01*
X240980Y-155447D01*
X240991Y-155408D01*
X242029Y-152522D01*
Y-152516D01*
X242035Y-152505D01*
X242051Y-152477D01*
X242057Y-152472D01*
X242062Y-152466D01*
X242096Y-152455D01*
X242101D01*
X242118Y-152450D01*
X242140Y-152444D01*
X242173Y-152438D01*
X242184D01*
X242207Y-152433D01*
X242384D01*
X242423Y-152438D01*
D02*
G37*
G36*
X20079Y-152339D02*
X20090D01*
X20123Y-152344D01*
X20145Y-152350D01*
X20156Y-152355D01*
X20162Y-152361D01*
X20173Y-152377D01*
X20179Y-152394D01*
Y-152405D01*
Y-152411D01*
X20173Y-152438D01*
X20168Y-152466D01*
X20162Y-152483D01*
X20156Y-152494D01*
X19146Y-155380D01*
X19135Y-155408D01*
X19130Y-155413D01*
Y-155419D01*
X19113Y-155435D01*
X19108Y-155441D01*
X19085Y-155447D01*
X19074Y-155452D01*
X19041D01*
X19030Y-155458D01*
X19024D01*
X18997Y-155463D01*
X18952D01*
X18924Y-155469D01*
X18813D01*
X18780Y-155463D01*
X18747D01*
X18713Y-155458D01*
X18691D01*
X18675Y-155452D01*
X18669D01*
X18647Y-155447D01*
X18630Y-155441D01*
X18625Y-155430D01*
X18619D01*
X18597Y-155402D01*
X18591Y-155391D01*
Y-155385D01*
X17581Y-152499D01*
X17570Y-152461D01*
X17559Y-152438D01*
Y-152422D01*
Y-152416D01*
Y-152394D01*
X17565Y-152377D01*
X17570Y-152372D01*
Y-152366D01*
X17587Y-152355D01*
X17609Y-152350D01*
X17626Y-152344D01*
X17631D01*
X17665Y-152339D01*
X17703Y-152333D01*
X17831D01*
X17859Y-152339D01*
X17864D01*
X17892Y-152344D01*
X17914Y-152350D01*
X17925Y-152355D01*
X17931D01*
X17953Y-152366D01*
X17964Y-152372D01*
Y-152377D01*
X17970Y-152405D01*
X17975Y-152416D01*
Y-152422D01*
X18841Y-155030D01*
X18847D01*
X19740Y-152416D01*
X19757Y-152388D01*
X19762Y-152377D01*
X19768Y-152366D01*
X19779Y-152361D01*
X19785Y-152355D01*
X19790D01*
X19807Y-152350D01*
X19829Y-152344D01*
X19846Y-152339D01*
X19851D01*
X19885Y-152333D01*
X20057D01*
X20079Y-152339D01*
D02*
G37*
G36*
X233869Y-816D02*
X233908D01*
X233952Y-822D01*
X234046Y-838D01*
X234052D01*
X234069Y-844D01*
X234091Y-850D01*
X234124Y-855D01*
X234196Y-877D01*
X234279Y-905D01*
X234285D01*
X234296Y-911D01*
X234318Y-922D01*
X234346Y-933D01*
X234407Y-961D01*
X234474Y-994D01*
X234479D01*
X234485Y-999D01*
X234518Y-1022D01*
X234557Y-1049D01*
X234590Y-1077D01*
X234596Y-1083D01*
X234607Y-1094D01*
X234624Y-1110D01*
X234629Y-1127D01*
X234635Y-1138D01*
X234646Y-1166D01*
Y-1171D01*
X234651Y-1183D01*
Y-1199D01*
X234657Y-1221D01*
Y-1227D01*
X234662Y-1238D01*
Y-1266D01*
Y-1294D01*
Y-1299D01*
Y-1321D01*
Y-1343D01*
X234657Y-1371D01*
Y-1377D01*
X234651Y-1393D01*
X234640Y-1432D01*
Y-1438D01*
X234635Y-1443D01*
X234618Y-1466D01*
X234612D01*
X234585Y-1471D01*
X234579D01*
X234562Y-1466D01*
X234529Y-1455D01*
X234490Y-1427D01*
X234479Y-1421D01*
X234446Y-1399D01*
X234402Y-1366D01*
X234335Y-1327D01*
X234329Y-1321D01*
X234318Y-1316D01*
X234296Y-1305D01*
X234268Y-1288D01*
X234235Y-1271D01*
X234196Y-1255D01*
X234102Y-1221D01*
X234096D01*
X234080Y-1216D01*
X234052Y-1205D01*
X234013Y-1194D01*
X233963Y-1188D01*
X233908Y-1177D01*
X233847Y-1171D01*
X233741D01*
X233702Y-1177D01*
X233652Y-1183D01*
X233591Y-1194D01*
X233530Y-1205D01*
X233464Y-1227D01*
X233397Y-1255D01*
X233391Y-1260D01*
X233369Y-1271D01*
X233336Y-1288D01*
X233297Y-1316D01*
X233253Y-1349D01*
X233203Y-1393D01*
X233158Y-1443D01*
X233108Y-1499D01*
X233103Y-1505D01*
X233086Y-1527D01*
X233064Y-1560D01*
X233042Y-1610D01*
X233009Y-1665D01*
X232975Y-1732D01*
X232947Y-1810D01*
X232920Y-1893D01*
Y-1904D01*
X232909Y-1932D01*
X232903Y-1982D01*
X232892Y-2043D01*
X232881Y-2121D01*
X232870Y-2209D01*
X232864Y-2309D01*
X232859Y-2420D01*
Y-2426D01*
Y-2431D01*
Y-2448D01*
Y-2470D01*
X232864Y-2526D01*
Y-2598D01*
X232875Y-2675D01*
X232886Y-2764D01*
X232897Y-2853D01*
X232920Y-2942D01*
X232925Y-2953D01*
X232931Y-2981D01*
X232947Y-3020D01*
X232970Y-3075D01*
X232992Y-3136D01*
X233025Y-3197D01*
X233064Y-3258D01*
X233103Y-3319D01*
X233108Y-3325D01*
X233125Y-3342D01*
X233153Y-3369D01*
X233186Y-3403D01*
X233230Y-3441D01*
X233280Y-3480D01*
X233336Y-3514D01*
X233397Y-3547D01*
X233403Y-3552D01*
X233430Y-3558D01*
X233464Y-3569D01*
X233514Y-3586D01*
X233569Y-3602D01*
X233636Y-3613D01*
X233708Y-3619D01*
X233791Y-3625D01*
X233858D01*
X233902Y-3619D01*
X233952Y-3613D01*
X234002Y-3608D01*
X234113Y-3580D01*
X234119D01*
X234135Y-3575D01*
X234163Y-3563D01*
X234196Y-3552D01*
X234268Y-3519D01*
X234346Y-3480D01*
X234352D01*
X234363Y-3469D01*
X234379Y-3458D01*
X234402Y-3447D01*
X234457Y-3414D01*
X234507Y-3380D01*
X234513D01*
X234518Y-3375D01*
X234546Y-3353D01*
X234579Y-3336D01*
X234607Y-3330D01*
X234618D01*
X234635Y-3342D01*
X234640D01*
X234646Y-3347D01*
X234651Y-3353D01*
X234657Y-3369D01*
Y-3375D01*
X234662Y-3380D01*
Y-3397D01*
X234668Y-3425D01*
Y-3430D01*
X234674Y-3447D01*
Y-3475D01*
Y-3514D01*
Y-3519D01*
Y-3536D01*
Y-3558D01*
X234668Y-3586D01*
Y-3591D01*
Y-3602D01*
X234657Y-3636D01*
X234651Y-3647D01*
X234640Y-3669D01*
Y-3675D01*
X234635Y-3680D01*
X234624Y-3697D01*
X234607Y-3713D01*
X234601Y-3719D01*
X234585Y-3730D01*
X234557Y-3752D01*
X234507Y-3785D01*
X234502D01*
X234496Y-3797D01*
X234479Y-3802D01*
X234457Y-3819D01*
X234396Y-3847D01*
X234318Y-3885D01*
X234313D01*
X234296Y-3891D01*
X234274Y-3902D01*
X234246Y-3913D01*
X234207Y-3924D01*
X234163Y-3935D01*
X234057Y-3958D01*
X234052D01*
X234030Y-3963D01*
X234002Y-3969D01*
X233963Y-3974D01*
X233913Y-3980D01*
X233858Y-3985D01*
X233736Y-3991D01*
X233686D01*
X233625Y-3985D01*
X233552Y-3980D01*
X233469Y-3969D01*
X233375Y-3946D01*
X233280Y-3924D01*
X233186Y-3891D01*
X233175Y-3885D01*
X233147Y-3874D01*
X233103Y-3847D01*
X233047Y-3819D01*
X232981Y-3774D01*
X232914Y-3725D01*
X232842Y-3663D01*
X232775Y-3597D01*
X232770Y-3586D01*
X232748Y-3563D01*
X232714Y-3519D01*
X232676Y-3458D01*
X232637Y-3391D01*
X232592Y-3308D01*
X232548Y-3214D01*
X232509Y-3108D01*
Y-3103D01*
X232504Y-3097D01*
Y-3081D01*
X232498Y-3059D01*
X232487Y-3031D01*
X232481Y-2997D01*
X232465Y-2914D01*
X232448Y-2820D01*
X232437Y-2703D01*
X232426Y-2581D01*
X232420Y-2442D01*
Y-2437D01*
Y-2426D01*
Y-2404D01*
Y-2376D01*
X232426Y-2342D01*
Y-2304D01*
X232431Y-2215D01*
X232442Y-2109D01*
X232459Y-1993D01*
X232481Y-1876D01*
X232515Y-1760D01*
Y-1754D01*
X232520Y-1749D01*
X232526Y-1732D01*
X232531Y-1710D01*
X232553Y-1654D01*
X232587Y-1582D01*
X232626Y-1499D01*
X232676Y-1416D01*
X232731Y-1327D01*
X232792Y-1244D01*
X232803Y-1233D01*
X232825Y-1210D01*
X232864Y-1171D01*
X232914Y-1122D01*
X232981Y-1072D01*
X233053Y-1016D01*
X233136Y-966D01*
X233225Y-922D01*
X233230D01*
X233236Y-916D01*
X233269Y-905D01*
X233319Y-888D01*
X233391Y-866D01*
X233475Y-844D01*
X233569Y-827D01*
X233675Y-816D01*
X233786Y-811D01*
X233836D01*
X233869Y-816D01*
D02*
G37*
G36*
X236488D02*
X236527D01*
X236572Y-822D01*
X236666Y-838D01*
X236671D01*
X236688Y-844D01*
X236710Y-850D01*
X236744Y-855D01*
X236816Y-877D01*
X236899Y-905D01*
X236905D01*
X236916Y-911D01*
X236938Y-922D01*
X236966Y-933D01*
X237027Y-961D01*
X237093Y-994D01*
X237099D01*
X237104Y-999D01*
X237138Y-1022D01*
X237177Y-1049D01*
X237210Y-1077D01*
X237215Y-1083D01*
X237227Y-1094D01*
X237243Y-1110D01*
X237249Y-1127D01*
X237254Y-1138D01*
X237265Y-1166D01*
Y-1171D01*
X237271Y-1183D01*
Y-1199D01*
X237277Y-1221D01*
Y-1227D01*
X237282Y-1238D01*
Y-1266D01*
Y-1294D01*
Y-1299D01*
Y-1321D01*
Y-1343D01*
X237277Y-1371D01*
Y-1377D01*
X237271Y-1393D01*
X237260Y-1432D01*
Y-1438D01*
X237254Y-1443D01*
X237238Y-1466D01*
X237232D01*
X237204Y-1471D01*
X237199D01*
X237182Y-1466D01*
X237149Y-1455D01*
X237110Y-1427D01*
X237099Y-1421D01*
X237066Y-1399D01*
X237021Y-1366D01*
X236955Y-1327D01*
X236949Y-1321D01*
X236938Y-1316D01*
X236916Y-1305D01*
X236888Y-1288D01*
X236855Y-1271D01*
X236816Y-1255D01*
X236721Y-1221D01*
X236716D01*
X236699Y-1216D01*
X236671Y-1205D01*
X236633Y-1194D01*
X236583Y-1188D01*
X236527Y-1177D01*
X236466Y-1171D01*
X236361D01*
X236322Y-1177D01*
X236272Y-1183D01*
X236211Y-1194D01*
X236150Y-1205D01*
X236083Y-1227D01*
X236017Y-1255D01*
X236011Y-1260D01*
X235989Y-1271D01*
X235956Y-1288D01*
X235917Y-1316D01*
X235872Y-1349D01*
X235822Y-1393D01*
X235778Y-1443D01*
X235728Y-1499D01*
X235722Y-1505D01*
X235706Y-1527D01*
X235684Y-1560D01*
X235661Y-1610D01*
X235628Y-1665D01*
X235595Y-1732D01*
X235567Y-1810D01*
X235539Y-1893D01*
Y-1904D01*
X235528Y-1932D01*
X235523Y-1982D01*
X235512Y-2043D01*
X235501Y-2121D01*
X235489Y-2209D01*
X235484Y-2309D01*
X235478Y-2420D01*
Y-2426D01*
Y-2431D01*
Y-2448D01*
Y-2470D01*
X235484Y-2526D01*
Y-2598D01*
X235495Y-2675D01*
X235506Y-2764D01*
X235517Y-2853D01*
X235539Y-2942D01*
X235545Y-2953D01*
X235550Y-2981D01*
X235567Y-3020D01*
X235589Y-3075D01*
X235612Y-3136D01*
X235645Y-3197D01*
X235684Y-3258D01*
X235722Y-3319D01*
X235728Y-3325D01*
X235745Y-3342D01*
X235772Y-3369D01*
X235806Y-3403D01*
X235850Y-3441D01*
X235900Y-3480D01*
X235956Y-3514D01*
X236017Y-3547D01*
X236022Y-3552D01*
X236050Y-3558D01*
X236083Y-3569D01*
X236133Y-3586D01*
X236189Y-3602D01*
X236255Y-3613D01*
X236327Y-3619D01*
X236411Y-3625D01*
X236477D01*
X236522Y-3619D01*
X236572Y-3613D01*
X236622Y-3608D01*
X236733Y-3580D01*
X236738D01*
X236755Y-3575D01*
X236783Y-3563D01*
X236816Y-3552D01*
X236888Y-3519D01*
X236966Y-3480D01*
X236971D01*
X236982Y-3469D01*
X236999Y-3458D01*
X237021Y-3447D01*
X237077Y-3414D01*
X237127Y-3380D01*
X237132D01*
X237138Y-3375D01*
X237165Y-3353D01*
X237199Y-3336D01*
X237227Y-3330D01*
X237238D01*
X237254Y-3342D01*
X237260D01*
X237265Y-3347D01*
X237271Y-3353D01*
X237277Y-3369D01*
Y-3375D01*
X237282Y-3380D01*
Y-3397D01*
X237288Y-3425D01*
Y-3430D01*
X237293Y-3447D01*
Y-3475D01*
Y-3514D01*
Y-3519D01*
Y-3536D01*
Y-3558D01*
X237288Y-3586D01*
Y-3591D01*
Y-3602D01*
X237277Y-3636D01*
X237271Y-3647D01*
X237260Y-3669D01*
Y-3675D01*
X237254Y-3680D01*
X237243Y-3697D01*
X237227Y-3713D01*
X237221Y-3719D01*
X237204Y-3730D01*
X237177Y-3752D01*
X237127Y-3785D01*
X237121D01*
X237116Y-3797D01*
X237099Y-3802D01*
X237077Y-3819D01*
X237016Y-3847D01*
X236938Y-3885D01*
X236932D01*
X236916Y-3891D01*
X236894Y-3902D01*
X236866Y-3913D01*
X236827Y-3924D01*
X236783Y-3935D01*
X236677Y-3958D01*
X236671D01*
X236649Y-3963D01*
X236622Y-3969D01*
X236583Y-3974D01*
X236533Y-3980D01*
X236477Y-3985D01*
X236355Y-3991D01*
X236305D01*
X236244Y-3985D01*
X236172Y-3980D01*
X236089Y-3969D01*
X235994Y-3946D01*
X235900Y-3924D01*
X235806Y-3891D01*
X235795Y-3885D01*
X235767Y-3874D01*
X235722Y-3847D01*
X235667Y-3819D01*
X235600Y-3774D01*
X235534Y-3725D01*
X235462Y-3663D01*
X235395Y-3597D01*
X235389Y-3586D01*
X235367Y-3563D01*
X235334Y-3519D01*
X235295Y-3458D01*
X235256Y-3391D01*
X235212Y-3308D01*
X235168Y-3214D01*
X235129Y-3108D01*
Y-3103D01*
X235123Y-3097D01*
Y-3081D01*
X235118Y-3059D01*
X235106Y-3031D01*
X235101Y-2997D01*
X235084Y-2914D01*
X235068Y-2820D01*
X235056Y-2703D01*
X235045Y-2581D01*
X235040Y-2442D01*
Y-2437D01*
Y-2426D01*
Y-2404D01*
Y-2376D01*
X235045Y-2342D01*
Y-2304D01*
X235051Y-2215D01*
X235062Y-2109D01*
X235079Y-1993D01*
X235101Y-1876D01*
X235134Y-1760D01*
Y-1754D01*
X235140Y-1749D01*
X235145Y-1732D01*
X235151Y-1710D01*
X235173Y-1654D01*
X235206Y-1582D01*
X235245Y-1499D01*
X235295Y-1416D01*
X235351Y-1327D01*
X235412Y-1244D01*
X235423Y-1233D01*
X235445Y-1210D01*
X235484Y-1171D01*
X235534Y-1122D01*
X235600Y-1072D01*
X235672Y-1016D01*
X235756Y-966D01*
X235845Y-922D01*
X235850D01*
X235856Y-916D01*
X235889Y-905D01*
X235939Y-888D01*
X236011Y-866D01*
X236094Y-844D01*
X236189Y-827D01*
X236294Y-816D01*
X236405Y-811D01*
X236455D01*
X236488Y-816D01*
D02*
G37*
G36*
X231993Y-838D02*
X232026Y-844D01*
X232032D01*
X232048Y-850D01*
X232071Y-855D01*
X232087Y-866D01*
Y-872D01*
X232093Y-877D01*
X232098Y-894D01*
Y-916D01*
Y-922D01*
Y-938D01*
X232087Y-961D01*
X232076Y-999D01*
X231066Y-3885D01*
Y-3891D01*
X231061Y-3902D01*
X231038Y-3930D01*
X231033D01*
X231027Y-3941D01*
X231011Y-3946D01*
X230988Y-3952D01*
X230983D01*
X230966Y-3958D01*
X230944D01*
X230911Y-3963D01*
X230877D01*
X230844Y-3969D01*
X230733D01*
X230705Y-3963D01*
X230661D01*
X230633Y-3958D01*
X230628D01*
X230616Y-3952D01*
X230583D01*
X230572Y-3946D01*
X230550Y-3941D01*
X230544Y-3935D01*
X230528Y-3919D01*
Y-3913D01*
X230522Y-3908D01*
X230511Y-3880D01*
X229501Y-994D01*
X229495Y-983D01*
X229490Y-966D01*
X229484Y-938D01*
X229479Y-911D01*
Y-905D01*
Y-894D01*
X229484Y-877D01*
X229495Y-861D01*
X229501Y-855D01*
X229512Y-850D01*
X229534Y-844D01*
X229568Y-838D01*
X229579D01*
X229601Y-833D01*
X229773D01*
X229806Y-838D01*
X229812D01*
X229828Y-844D01*
X229851Y-850D01*
X229867Y-855D01*
X229873D01*
X229878Y-861D01*
X229889Y-866D01*
X229895Y-877D01*
X229901Y-888D01*
X229917Y-916D01*
X230811Y-3530D01*
X230816D01*
X231682Y-922D01*
Y-916D01*
X231688Y-905D01*
X231693Y-877D01*
Y-872D01*
X231704Y-866D01*
X231727Y-855D01*
X231732D01*
X231743Y-850D01*
X231765Y-844D01*
X231793Y-838D01*
X231799D01*
X231826Y-833D01*
X231954D01*
X231993Y-838D01*
D02*
G37*
G36*
X241888D02*
X241894D01*
X241899Y-844D01*
X241916Y-872D01*
Y-877D01*
X241921Y-888D01*
X241927Y-905D01*
X241933Y-927D01*
Y-933D01*
X241938Y-950D01*
X241944Y-977D01*
Y-1010D01*
Y-1016D01*
Y-1022D01*
X241938Y-1060D01*
X241933Y-1099D01*
X241916Y-1144D01*
X241910Y-1149D01*
X241899Y-1166D01*
X241883Y-1183D01*
X241855Y-1188D01*
X240750D01*
Y-2065D01*
X240756D01*
X240761Y-2059D01*
X240778D01*
X240800Y-2054D01*
X240850Y-2048D01*
X240945D01*
X240967Y-2043D01*
X241150D01*
X241200Y-2048D01*
X241261D01*
X241328Y-2059D01*
X241405Y-2071D01*
X241483Y-2087D01*
X241555Y-2109D01*
X241566D01*
X241588Y-2121D01*
X241622Y-2137D01*
X241666Y-2154D01*
X241722Y-2182D01*
X241772Y-2209D01*
X241827Y-2248D01*
X241877Y-2287D01*
X241883Y-2293D01*
X241899Y-2309D01*
X241921Y-2331D01*
X241949Y-2365D01*
X241983Y-2409D01*
X242016Y-2454D01*
X242043Y-2509D01*
X242071Y-2570D01*
X242077Y-2576D01*
X242082Y-2598D01*
X242093Y-2631D01*
X242105Y-2675D01*
X242116Y-2731D01*
X242127Y-2792D01*
X242138Y-2864D01*
Y-2936D01*
Y-2947D01*
Y-2981D01*
X242132Y-3025D01*
X242127Y-3086D01*
X242116Y-3153D01*
X242099Y-3230D01*
X242077Y-3303D01*
X242049Y-3380D01*
X242043Y-3391D01*
X242032Y-3414D01*
X242016Y-3447D01*
X241988Y-3491D01*
X241955Y-3547D01*
X241916Y-3602D01*
X241866Y-3658D01*
X241810Y-3708D01*
X241805Y-3713D01*
X241783Y-3730D01*
X241749Y-3752D01*
X241710Y-3780D01*
X241655Y-3813D01*
X241594Y-3847D01*
X241522Y-3880D01*
X241444Y-3908D01*
X241433D01*
X241405Y-3919D01*
X241366Y-3930D01*
X241305Y-3941D01*
X241239Y-3952D01*
X241161Y-3963D01*
X241072Y-3969D01*
X240978Y-3974D01*
X240928D01*
X240889Y-3969D01*
X240845D01*
X240800Y-3963D01*
X240700Y-3952D01*
X240695D01*
X240678Y-3946D01*
X240656Y-3941D01*
X240623Y-3935D01*
X240551Y-3919D01*
X240473Y-3902D01*
X240467D01*
X240456Y-3897D01*
X240440Y-3891D01*
X240417Y-3885D01*
X240362Y-3869D01*
X240306Y-3847D01*
X240295Y-3841D01*
X240273Y-3830D01*
X240245Y-3813D01*
X240223Y-3802D01*
Y-3797D01*
X240212Y-3791D01*
X240201Y-3774D01*
Y-3769D01*
X240195Y-3763D01*
X240184Y-3736D01*
Y-3730D01*
Y-3719D01*
X240179Y-3686D01*
Y-3680D01*
Y-3663D01*
Y-3641D01*
Y-3608D01*
Y-3602D01*
Y-3586D01*
Y-3563D01*
Y-3536D01*
Y-3530D01*
X240184Y-3519D01*
Y-3503D01*
X240190Y-3486D01*
Y-3480D01*
X240195Y-3475D01*
X240212Y-3452D01*
X240218D01*
X240223Y-3447D01*
X240245Y-3441D01*
X240251D01*
X240262Y-3447D01*
X240284Y-3452D01*
X240318Y-3475D01*
X240329Y-3480D01*
X240351Y-3491D01*
X240395Y-3514D01*
X240451Y-3541D01*
X240456D01*
X240467Y-3547D01*
X240484Y-3552D01*
X240512Y-3563D01*
X240540Y-3575D01*
X240578Y-3586D01*
X240662Y-3608D01*
X240667D01*
X240684Y-3613D01*
X240711Y-3619D01*
X240745D01*
X240789Y-3625D01*
X240845Y-3630D01*
X240900Y-3636D01*
X241017D01*
X241061Y-3630D01*
X241106D01*
X241156Y-3619D01*
X241255Y-3602D01*
X241261D01*
X241278Y-3597D01*
X241305Y-3586D01*
X241339Y-3575D01*
X241411Y-3536D01*
X241489Y-3480D01*
X241494Y-3475D01*
X241505Y-3464D01*
X241522Y-3447D01*
X241544Y-3425D01*
X241572Y-3391D01*
X241594Y-3358D01*
X241644Y-3275D01*
Y-3269D01*
X241655Y-3253D01*
X241661Y-3225D01*
X241672Y-3192D01*
X241683Y-3147D01*
X241688Y-3097D01*
X241699Y-3036D01*
Y-2975D01*
Y-2970D01*
Y-2947D01*
Y-2920D01*
X241694Y-2886D01*
X241677Y-2803D01*
X241650Y-2714D01*
Y-2709D01*
X241644Y-2692D01*
X241633Y-2675D01*
X241616Y-2648D01*
X241572Y-2587D01*
X241505Y-2526D01*
X241500Y-2520D01*
X241489Y-2515D01*
X241466Y-2498D01*
X241439Y-2481D01*
X241405Y-2465D01*
X241361Y-2442D01*
X241317Y-2426D01*
X241261Y-2409D01*
X241255D01*
X241233Y-2404D01*
X241206Y-2398D01*
X241161Y-2387D01*
X241111Y-2381D01*
X241050Y-2376D01*
X240978Y-2370D01*
X240823D01*
X240739Y-2376D01*
X240656Y-2387D01*
X240639D01*
X240617Y-2393D01*
X240595D01*
X240528Y-2398D01*
X240462Y-2404D01*
X240451D01*
X240423Y-2398D01*
X240395Y-2387D01*
X240367Y-2370D01*
X240362Y-2365D01*
X240356Y-2342D01*
X240345Y-2304D01*
X240340Y-2248D01*
Y-988D01*
Y-983D01*
Y-977D01*
X240345Y-944D01*
X240356Y-900D01*
X240373Y-866D01*
X240378Y-861D01*
X240401Y-844D01*
X240434Y-833D01*
X240478Y-827D01*
X241860D01*
X241888Y-838D01*
D02*
G37*
G36*
X245018Y-816D02*
X245052Y-822D01*
X245057D01*
X245074Y-827D01*
X245096Y-833D01*
X245113Y-844D01*
Y-850D01*
X245118Y-855D01*
X245124Y-872D01*
Y-894D01*
Y-900D01*
Y-916D01*
X245113Y-938D01*
X245102Y-977D01*
X244092Y-3863D01*
Y-3869D01*
X244086Y-3880D01*
X244064Y-3908D01*
X244058D01*
X244053Y-3919D01*
X244036Y-3924D01*
X244014Y-3930D01*
X244008D01*
X243992Y-3935D01*
X243969D01*
X243936Y-3941D01*
X243903D01*
X243869Y-3946D01*
X243759D01*
X243731Y-3941D01*
X243686D01*
X243659Y-3935D01*
X243653D01*
X243642Y-3930D01*
X243609D01*
X243598Y-3924D01*
X243575Y-3919D01*
X243570Y-3913D01*
X243553Y-3897D01*
Y-3891D01*
X243548Y-3885D01*
X243536Y-3858D01*
X242526Y-972D01*
X242521Y-961D01*
X242515Y-944D01*
X242510Y-916D01*
X242504Y-888D01*
Y-883D01*
Y-872D01*
X242510Y-855D01*
X242521Y-838D01*
X242526Y-833D01*
X242537Y-827D01*
X242560Y-822D01*
X242593Y-816D01*
X242604D01*
X242626Y-811D01*
X242798D01*
X242832Y-816D01*
X242837D01*
X242854Y-822D01*
X242876Y-827D01*
X242893Y-833D01*
X242898D01*
X242904Y-838D01*
X242915Y-844D01*
X242920Y-855D01*
X242926Y-866D01*
X242943Y-894D01*
X243836Y-3508D01*
X243842D01*
X244707Y-900D01*
Y-894D01*
X244713Y-883D01*
X244719Y-855D01*
Y-850D01*
X244730Y-844D01*
X244752Y-833D01*
X244758D01*
X244769Y-827D01*
X244791Y-822D01*
X244818Y-816D01*
X244824D01*
X244852Y-811D01*
X244980D01*
X245018Y-816D01*
D02*
G37*
G36*
X227324D02*
X227363D01*
X227408Y-822D01*
X227502Y-838D01*
X227508D01*
X227524Y-844D01*
X227546Y-850D01*
X227580Y-855D01*
X227652Y-877D01*
X227735Y-905D01*
X227741D01*
X227752Y-911D01*
X227774Y-922D01*
X227802Y-933D01*
X227863Y-961D01*
X227929Y-994D01*
X227935D01*
X227941Y-999D01*
X227974Y-1022D01*
X228013Y-1049D01*
X228046Y-1077D01*
X228051Y-1083D01*
X228063Y-1094D01*
X228079Y-1110D01*
X228085Y-1127D01*
X228090Y-1138D01*
X228101Y-1166D01*
Y-1171D01*
X228107Y-1183D01*
Y-1199D01*
X228113Y-1221D01*
Y-1227D01*
X228118Y-1238D01*
Y-1266D01*
Y-1294D01*
Y-1299D01*
Y-1321D01*
Y-1343D01*
X228113Y-1371D01*
Y-1377D01*
X228107Y-1393D01*
X228096Y-1432D01*
Y-1438D01*
X228090Y-1443D01*
X228074Y-1466D01*
X228068D01*
X228040Y-1471D01*
X228035D01*
X228018Y-1466D01*
X227985Y-1455D01*
X227946Y-1427D01*
X227935Y-1421D01*
X227902Y-1399D01*
X227857Y-1366D01*
X227791Y-1327D01*
X227785Y-1321D01*
X227774Y-1316D01*
X227752Y-1305D01*
X227724Y-1288D01*
X227691Y-1271D01*
X227652Y-1255D01*
X227557Y-1221D01*
X227552D01*
X227535Y-1216D01*
X227508Y-1205D01*
X227469Y-1194D01*
X227419Y-1188D01*
X227363Y-1177D01*
X227302Y-1171D01*
X227197D01*
X227158Y-1177D01*
X227108Y-1183D01*
X227047Y-1194D01*
X226986Y-1205D01*
X226919Y-1227D01*
X226853Y-1255D01*
X226847Y-1260D01*
X226825Y-1271D01*
X226792Y-1288D01*
X226753Y-1316D01*
X226708Y-1349D01*
X226658Y-1393D01*
X226614Y-1443D01*
X226564Y-1499D01*
X226558Y-1505D01*
X226542Y-1527D01*
X226520Y-1560D01*
X226498Y-1610D01*
X226464Y-1665D01*
X226431Y-1732D01*
X226403Y-1810D01*
X226375Y-1893D01*
Y-1904D01*
X226364Y-1932D01*
X226359Y-1982D01*
X226348Y-2043D01*
X226337Y-2121D01*
X226325Y-2209D01*
X226320Y-2309D01*
X226314Y-2420D01*
Y-2426D01*
Y-2431D01*
Y-2448D01*
Y-2470D01*
X226320Y-2526D01*
Y-2598D01*
X226331Y-2675D01*
X226342Y-2764D01*
X226353Y-2853D01*
X226375Y-2942D01*
X226381Y-2953D01*
X226386Y-2981D01*
X226403Y-3020D01*
X226425Y-3075D01*
X226448Y-3136D01*
X226481Y-3197D01*
X226520Y-3258D01*
X226558Y-3319D01*
X226564Y-3325D01*
X226581Y-3342D01*
X226608Y-3369D01*
X226642Y-3403D01*
X226686Y-3441D01*
X226736Y-3480D01*
X226792Y-3514D01*
X226853Y-3547D01*
X226858Y-3552D01*
X226886Y-3558D01*
X226919Y-3569D01*
X226969Y-3586D01*
X227025Y-3602D01*
X227091Y-3613D01*
X227164Y-3619D01*
X227247Y-3625D01*
X227313D01*
X227358Y-3619D01*
X227408Y-3613D01*
X227458Y-3608D01*
X227569Y-3580D01*
X227574D01*
X227591Y-3575D01*
X227619Y-3563D01*
X227652Y-3552D01*
X227724Y-3519D01*
X227802Y-3480D01*
X227807D01*
X227818Y-3469D01*
X227835Y-3458D01*
X227857Y-3447D01*
X227913Y-3414D01*
X227963Y-3380D01*
X227968D01*
X227974Y-3375D01*
X228001Y-3353D01*
X228035Y-3336D01*
X228063Y-3330D01*
X228074D01*
X228090Y-3342D01*
X228096D01*
X228101Y-3347D01*
X228107Y-3353D01*
X228113Y-3369D01*
Y-3375D01*
X228118Y-3380D01*
Y-3397D01*
X228124Y-3425D01*
Y-3430D01*
X228129Y-3447D01*
Y-3475D01*
Y-3514D01*
Y-3519D01*
Y-3536D01*
Y-3558D01*
X228124Y-3586D01*
Y-3591D01*
Y-3602D01*
X228113Y-3636D01*
X228107Y-3647D01*
X228096Y-3669D01*
Y-3675D01*
X228090Y-3680D01*
X228079Y-3697D01*
X228063Y-3713D01*
X228057Y-3719D01*
X228040Y-3730D01*
X228013Y-3752D01*
X227963Y-3785D01*
X227957D01*
X227952Y-3797D01*
X227935Y-3802D01*
X227913Y-3819D01*
X227852Y-3847D01*
X227774Y-3885D01*
X227768D01*
X227752Y-3891D01*
X227730Y-3902D01*
X227702Y-3913D01*
X227663Y-3924D01*
X227619Y-3935D01*
X227513Y-3958D01*
X227508D01*
X227485Y-3963D01*
X227458Y-3969D01*
X227419Y-3974D01*
X227369Y-3980D01*
X227313Y-3985D01*
X227191Y-3991D01*
X227141D01*
X227080Y-3985D01*
X227008Y-3980D01*
X226925Y-3969D01*
X226831Y-3946D01*
X226736Y-3924D01*
X226642Y-3891D01*
X226631Y-3885D01*
X226603Y-3874D01*
X226558Y-3847D01*
X226503Y-3819D01*
X226436Y-3774D01*
X226370Y-3725D01*
X226298Y-3663D01*
X226231Y-3597D01*
X226225Y-3586D01*
X226203Y-3563D01*
X226170Y-3519D01*
X226131Y-3458D01*
X226092Y-3391D01*
X226048Y-3308D01*
X226004Y-3214D01*
X225965Y-3108D01*
Y-3103D01*
X225959Y-3097D01*
Y-3081D01*
X225954Y-3059D01*
X225942Y-3031D01*
X225937Y-2997D01*
X225920Y-2914D01*
X225904Y-2820D01*
X225892Y-2703D01*
X225881Y-2581D01*
X225876Y-2442D01*
Y-2437D01*
Y-2426D01*
Y-2404D01*
Y-2376D01*
X225881Y-2342D01*
Y-2304D01*
X225887Y-2215D01*
X225898Y-2109D01*
X225915Y-1993D01*
X225937Y-1876D01*
X225970Y-1760D01*
Y-1754D01*
X225976Y-1749D01*
X225981Y-1732D01*
X225987Y-1710D01*
X226009Y-1654D01*
X226042Y-1582D01*
X226081Y-1499D01*
X226131Y-1416D01*
X226187Y-1327D01*
X226248Y-1244D01*
X226259Y-1233D01*
X226281Y-1210D01*
X226320Y-1171D01*
X226370Y-1122D01*
X226436Y-1072D01*
X226509Y-1016D01*
X226592Y-966D01*
X226681Y-922D01*
X226686D01*
X226692Y-916D01*
X226725Y-905D01*
X226775Y-888D01*
X226847Y-866D01*
X226930Y-844D01*
X227025Y-827D01*
X227130Y-816D01*
X227241Y-811D01*
X227291D01*
X227324Y-816D01*
D02*
G37*
G36*
X217052Y2623D02*
X193379D01*
Y7853D01*
X217052D01*
Y2623D01*
D02*
G37*
G36*
X224705Y-816D02*
X224744D01*
X224788Y-822D01*
X224882Y-838D01*
X224888D01*
X224905Y-844D01*
X224927Y-850D01*
X224960Y-855D01*
X225032Y-877D01*
X225115Y-905D01*
X225121D01*
X225132Y-911D01*
X225154Y-922D01*
X225182Y-933D01*
X225243Y-961D01*
X225310Y-994D01*
X225315D01*
X225321Y-999D01*
X225354Y-1022D01*
X225393Y-1049D01*
X225426Y-1077D01*
X225432Y-1083D01*
X225443Y-1094D01*
X225460Y-1110D01*
X225465Y-1127D01*
X225471Y-1138D01*
X225482Y-1166D01*
Y-1171D01*
X225487Y-1183D01*
Y-1199D01*
X225493Y-1221D01*
Y-1227D01*
X225499Y-1238D01*
Y-1266D01*
Y-1294D01*
Y-1299D01*
Y-1321D01*
Y-1343D01*
X225493Y-1371D01*
Y-1377D01*
X225487Y-1393D01*
X225476Y-1432D01*
Y-1438D01*
X225471Y-1443D01*
X225454Y-1466D01*
X225448D01*
X225421Y-1471D01*
X225415D01*
X225399Y-1466D01*
X225365Y-1455D01*
X225326Y-1427D01*
X225315Y-1421D01*
X225282Y-1399D01*
X225238Y-1366D01*
X225171Y-1327D01*
X225166Y-1321D01*
X225154Y-1316D01*
X225132Y-1305D01*
X225104Y-1288D01*
X225071Y-1271D01*
X225032Y-1255D01*
X224938Y-1221D01*
X224932D01*
X224916Y-1216D01*
X224888Y-1205D01*
X224849Y-1194D01*
X224799Y-1188D01*
X224744Y-1177D01*
X224683Y-1171D01*
X224577D01*
X224538Y-1177D01*
X224488Y-1183D01*
X224427Y-1194D01*
X224366Y-1205D01*
X224300Y-1227D01*
X224233Y-1255D01*
X224227Y-1260D01*
X224205Y-1271D01*
X224172Y-1288D01*
X224133Y-1316D01*
X224089Y-1349D01*
X224039Y-1393D01*
X223994Y-1443D01*
X223944Y-1499D01*
X223939Y-1505D01*
X223922Y-1527D01*
X223900Y-1560D01*
X223878Y-1610D01*
X223845Y-1665D01*
X223811Y-1732D01*
X223783Y-1810D01*
X223756Y-1893D01*
Y-1904D01*
X223745Y-1932D01*
X223739Y-1982D01*
X223728Y-2043D01*
X223717Y-2121D01*
X223706Y-2209D01*
X223700Y-2309D01*
X223695Y-2420D01*
Y-2426D01*
Y-2431D01*
Y-2448D01*
Y-2470D01*
X223700Y-2526D01*
Y-2598D01*
X223711Y-2675D01*
X223723Y-2764D01*
X223734Y-2853D01*
X223756Y-2942D01*
X223761Y-2953D01*
X223767Y-2981D01*
X223783Y-3020D01*
X223806Y-3075D01*
X223828Y-3136D01*
X223861Y-3197D01*
X223900Y-3258D01*
X223939Y-3319D01*
X223944Y-3325D01*
X223961Y-3342D01*
X223989Y-3369D01*
X224022Y-3403D01*
X224067Y-3441D01*
X224116Y-3480D01*
X224172Y-3514D01*
X224233Y-3547D01*
X224239Y-3552D01*
X224266Y-3558D01*
X224300Y-3569D01*
X224350Y-3586D01*
X224405Y-3602D01*
X224472Y-3613D01*
X224544Y-3619D01*
X224627Y-3625D01*
X224694D01*
X224738Y-3619D01*
X224788Y-3613D01*
X224838Y-3608D01*
X224949Y-3580D01*
X224955D01*
X224971Y-3575D01*
X224999Y-3563D01*
X225032Y-3552D01*
X225104Y-3519D01*
X225182Y-3480D01*
X225188D01*
X225199Y-3469D01*
X225215Y-3458D01*
X225238Y-3447D01*
X225293Y-3414D01*
X225343Y-3380D01*
X225349D01*
X225354Y-3375D01*
X225382Y-3353D01*
X225415Y-3336D01*
X225443Y-3330D01*
X225454D01*
X225471Y-3342D01*
X225476D01*
X225482Y-3347D01*
X225487Y-3353D01*
X225493Y-3369D01*
Y-3375D01*
X225499Y-3380D01*
Y-3397D01*
X225504Y-3425D01*
Y-3430D01*
X225510Y-3447D01*
Y-3475D01*
Y-3514D01*
Y-3519D01*
Y-3536D01*
Y-3558D01*
X225504Y-3586D01*
Y-3591D01*
Y-3602D01*
X225493Y-3636D01*
X225487Y-3647D01*
X225476Y-3669D01*
Y-3675D01*
X225471Y-3680D01*
X225460Y-3697D01*
X225443Y-3713D01*
X225437Y-3719D01*
X225421Y-3730D01*
X225393Y-3752D01*
X225343Y-3785D01*
X225338D01*
X225332Y-3797D01*
X225315Y-3802D01*
X225293Y-3819D01*
X225232Y-3847D01*
X225154Y-3885D01*
X225149D01*
X225132Y-3891D01*
X225110Y-3902D01*
X225082Y-3913D01*
X225043Y-3924D01*
X224999Y-3935D01*
X224893Y-3958D01*
X224888D01*
X224866Y-3963D01*
X224838Y-3969D01*
X224799Y-3974D01*
X224749Y-3980D01*
X224694Y-3985D01*
X224572Y-3991D01*
X224522D01*
X224461Y-3985D01*
X224389Y-3980D01*
X224305Y-3969D01*
X224211Y-3946D01*
X224116Y-3924D01*
X224022Y-3891D01*
X224011Y-3885D01*
X223983Y-3874D01*
X223939Y-3847D01*
X223883Y-3819D01*
X223817Y-3774D01*
X223750Y-3725D01*
X223678Y-3663D01*
X223611Y-3597D01*
X223606Y-3586D01*
X223584Y-3563D01*
X223550Y-3519D01*
X223512Y-3458D01*
X223473Y-3391D01*
X223428Y-3308D01*
X223384Y-3214D01*
X223345Y-3108D01*
Y-3103D01*
X223340Y-3097D01*
Y-3081D01*
X223334Y-3059D01*
X223323Y-3031D01*
X223317Y-2997D01*
X223301Y-2914D01*
X223284Y-2820D01*
X223273Y-2703D01*
X223262Y-2581D01*
X223256Y-2442D01*
Y-2437D01*
Y-2426D01*
Y-2404D01*
Y-2376D01*
X223262Y-2342D01*
Y-2304D01*
X223267Y-2215D01*
X223278Y-2109D01*
X223295Y-1993D01*
X223317Y-1876D01*
X223351Y-1760D01*
Y-1754D01*
X223356Y-1749D01*
X223362Y-1732D01*
X223367Y-1710D01*
X223390Y-1654D01*
X223423Y-1582D01*
X223462Y-1499D01*
X223512Y-1416D01*
X223567Y-1327D01*
X223628Y-1244D01*
X223639Y-1233D01*
X223661Y-1210D01*
X223700Y-1171D01*
X223750Y-1122D01*
X223817Y-1072D01*
X223889Y-1016D01*
X223972Y-966D01*
X224061Y-922D01*
X224067D01*
X224072Y-916D01*
X224105Y-905D01*
X224155Y-888D01*
X224227Y-866D01*
X224311Y-844D01*
X224405Y-827D01*
X224511Y-816D01*
X224622Y-811D01*
X224672D01*
X224705Y-816D01*
D02*
G37*
G36*
X218933Y-838D02*
X218944D01*
X218961Y-844D01*
X218988Y-850D01*
X219010Y-855D01*
X219016D01*
X219027Y-861D01*
X219044Y-866D01*
X219060Y-883D01*
X219066D01*
X219072Y-894D01*
X219088Y-922D01*
X220132Y-3808D01*
X220137Y-3819D01*
X220143Y-3841D01*
X220148Y-3869D01*
Y-3897D01*
Y-3902D01*
Y-3913D01*
X220143Y-3930D01*
X220132Y-3946D01*
X220126D01*
X220121Y-3952D01*
X220098Y-3958D01*
X220071Y-3963D01*
X220037D01*
X219998Y-3969D01*
X219871D01*
X219832Y-3963D01*
X219826D01*
X219810Y-3958D01*
X219788D01*
X219765Y-3952D01*
X219760D01*
X219754Y-3946D01*
X219732Y-3935D01*
Y-3930D01*
X219726Y-3924D01*
X219710Y-3897D01*
X219443Y-3136D01*
X218150D01*
X217900Y-3885D01*
Y-3891D01*
X217895Y-3897D01*
X217878Y-3924D01*
X217873Y-3935D01*
X217845Y-3952D01*
X217840D01*
X217828Y-3958D01*
X217806D01*
X217778Y-3963D01*
X217751D01*
X217717Y-3969D01*
X217634D01*
X217595Y-3963D01*
X217556Y-3958D01*
X217551D01*
X217534Y-3952D01*
X217512Y-3946D01*
X217495Y-3941D01*
Y-3935D01*
X217490Y-3930D01*
X217484Y-3913D01*
X217479Y-3897D01*
Y-3891D01*
X217484Y-3874D01*
X217490Y-3847D01*
X217501Y-3808D01*
X218539Y-922D01*
Y-916D01*
X218544Y-905D01*
X218561Y-877D01*
X218566Y-872D01*
X218572Y-866D01*
X218605Y-855D01*
X218611D01*
X218628Y-850D01*
X218650Y-844D01*
X218683Y-838D01*
X218694D01*
X218716Y-833D01*
X218894D01*
X218933Y-838D01*
D02*
G37*
G36*
X222829D02*
X222862Y-844D01*
X222868D01*
X222884Y-850D01*
X222907Y-855D01*
X222923Y-866D01*
Y-872D01*
X222929Y-877D01*
X222934Y-894D01*
Y-916D01*
Y-922D01*
Y-938D01*
X222923Y-961D01*
X222912Y-999D01*
X221902Y-3885D01*
Y-3891D01*
X221897Y-3902D01*
X221874Y-3930D01*
X221869D01*
X221863Y-3941D01*
X221847Y-3946D01*
X221824Y-3952D01*
X221819D01*
X221802Y-3958D01*
X221780D01*
X221747Y-3963D01*
X221713D01*
X221680Y-3969D01*
X221569D01*
X221541Y-3963D01*
X221497D01*
X221469Y-3958D01*
X221464D01*
X221452Y-3952D01*
X221419D01*
X221408Y-3946D01*
X221386Y-3941D01*
X221380Y-3935D01*
X221364Y-3919D01*
Y-3913D01*
X221358Y-3908D01*
X221347Y-3880D01*
X220337Y-994D01*
X220331Y-983D01*
X220326Y-966D01*
X220320Y-938D01*
X220315Y-911D01*
Y-905D01*
Y-894D01*
X220320Y-877D01*
X220331Y-861D01*
X220337Y-855D01*
X220348Y-850D01*
X220370Y-844D01*
X220404Y-838D01*
X220415D01*
X220437Y-833D01*
X220609D01*
X220642Y-838D01*
X220648D01*
X220664Y-844D01*
X220687Y-850D01*
X220703Y-855D01*
X220709D01*
X220714Y-861D01*
X220725Y-866D01*
X220731Y-877D01*
X220737Y-888D01*
X220753Y-916D01*
X221647Y-3530D01*
X221652D01*
X222518Y-922D01*
Y-916D01*
X222524Y-905D01*
X222529Y-877D01*
Y-872D01*
X222540Y-866D01*
X222563Y-855D01*
X222568D01*
X222579Y-850D01*
X222601Y-844D01*
X222629Y-838D01*
X222635D01*
X222662Y-833D01*
X222790D01*
X222829Y-838D01*
D02*
G37*
G36*
X21311Y-14652D02*
X20541D01*
Y-13882D01*
X21311D01*
Y-14652D01*
D02*
G37*
G36*
X18077Y-9864D02*
X18144Y-9872D01*
X18210Y-9879D01*
X18292Y-9894D01*
X18380Y-9909D01*
X18565Y-9960D01*
X18758Y-10034D01*
X18861Y-10079D01*
X18958Y-10131D01*
X19046Y-10197D01*
X19135Y-10271D01*
X19142Y-10279D01*
X19157Y-10293D01*
X19180Y-10316D01*
X19209Y-10345D01*
X19239Y-10382D01*
X19283Y-10434D01*
X19320Y-10493D01*
X19365Y-10552D01*
X19446Y-10700D01*
X19520Y-10871D01*
X19549Y-10967D01*
X19572Y-11070D01*
X19587Y-11174D01*
X19594Y-11285D01*
Y-11292D01*
Y-11300D01*
Y-11322D01*
Y-11352D01*
X19579Y-11433D01*
X19564Y-11537D01*
X19542Y-11655D01*
X19498Y-11788D01*
X19446Y-11929D01*
X19372Y-12069D01*
Y-12077D01*
X19365Y-12084D01*
X19350Y-12106D01*
X19328Y-12136D01*
X19305Y-12173D01*
X19276Y-12217D01*
X19187Y-12321D01*
X19135Y-12388D01*
X19076Y-12454D01*
X19009Y-12536D01*
X18935Y-12610D01*
X18854Y-12698D01*
X18765Y-12787D01*
X18669Y-12883D01*
X18558Y-12980D01*
X18551Y-12987D01*
X18528Y-13002D01*
X18499Y-13031D01*
X18454Y-13068D01*
X18395Y-13120D01*
X18321Y-13179D01*
X18240Y-13246D01*
X18144Y-13327D01*
X18040Y-13409D01*
X17921Y-13498D01*
X17796Y-13594D01*
X17662Y-13697D01*
X17515Y-13808D01*
X17359Y-13927D01*
X17189Y-14045D01*
X17019Y-14164D01*
X19609D01*
Y-14652D01*
X16279D01*
Y-14164D01*
X16286Y-14156D01*
X16301Y-14149D01*
X16330Y-14127D01*
X16367Y-14097D01*
X16412Y-14067D01*
X16464Y-14023D01*
X16523Y-13979D01*
X16590Y-13927D01*
X16745Y-13808D01*
X16923Y-13675D01*
X17108Y-13527D01*
X17307Y-13372D01*
X17714Y-13046D01*
X17914Y-12883D01*
X18099Y-12721D01*
X18269Y-12580D01*
X18417Y-12439D01*
X18476Y-12380D01*
X18536Y-12321D01*
X18587Y-12269D01*
X18624Y-12225D01*
X18632Y-12217D01*
X18639Y-12203D01*
X18662Y-12180D01*
X18684Y-12143D01*
X18713Y-12099D01*
X18743Y-12047D01*
X18817Y-11929D01*
X18891Y-11788D01*
X18950Y-11625D01*
X18994Y-11463D01*
X19002Y-11374D01*
X19009Y-11285D01*
Y-11278D01*
Y-11263D01*
Y-11241D01*
X19002Y-11211D01*
X18994Y-11137D01*
X18972Y-11033D01*
X18928Y-10930D01*
X18869Y-10811D01*
X18795Y-10693D01*
X18743Y-10641D01*
X18684Y-10589D01*
X18669Y-10575D01*
X18624Y-10545D01*
X18558Y-10508D01*
X18476Y-10456D01*
X18365Y-10404D01*
X18240Y-10367D01*
X18099Y-10338D01*
X17951Y-10323D01*
X17907D01*
X17877Y-10330D01*
X17796Y-10338D01*
X17692Y-10360D01*
X17574Y-10397D01*
X17448Y-10449D01*
X17315Y-10523D01*
X17189Y-10619D01*
X17174Y-10634D01*
X17137Y-10671D01*
X17085Y-10737D01*
X17019Y-10826D01*
X16960Y-10937D01*
X16900Y-11070D01*
X16856Y-11226D01*
X16826Y-11403D01*
X16279Y-11241D01*
Y-11233D01*
X16286Y-11226D01*
X16294Y-11181D01*
X16316Y-11115D01*
X16353Y-11026D01*
X16397Y-10922D01*
X16456Y-10804D01*
X16530Y-10678D01*
X16619Y-10545D01*
X16723Y-10419D01*
X16841Y-10293D01*
X16974Y-10175D01*
X17130Y-10071D01*
X17307Y-9983D01*
X17500Y-9916D01*
X17722Y-9872D01*
X17833Y-9864D01*
X17958Y-9857D01*
X18025D01*
X18077Y-9864D01*
D02*
G37*
G36*
X99874Y-3447D02*
X47479D01*
Y7853D01*
X99874D01*
Y-3447D01*
D02*
G37*
G36*
X32699Y-13068D02*
X33461D01*
Y-13535D01*
X32699D01*
Y-14652D01*
X32137D01*
Y-13535D01*
X29813D01*
Y-13142D01*
X31952Y-9857D01*
X32699D01*
Y-13068D01*
D02*
G37*
G36*
X28067Y-12106D02*
X29584Y-14652D01*
X28918D01*
X27727Y-12661D01*
X26491Y-14652D01*
X25951D01*
X27453Y-12217D01*
X26113Y-9953D01*
X26772D01*
X27801Y-11677D01*
X28851Y-9953D01*
X29392D01*
X28067Y-12106D01*
D02*
G37*
G36*
X25196Y-10449D02*
X22894D01*
X22798Y-11981D01*
X22806Y-11973D01*
X22820Y-11958D01*
X22850Y-11936D01*
X22887Y-11899D01*
X22939Y-11862D01*
X22998Y-11818D01*
X23065Y-11766D01*
X23138Y-11722D01*
X23301Y-11625D01*
X23501Y-11544D01*
X23605Y-11507D01*
X23708Y-11485D01*
X23819Y-11470D01*
X23938Y-11463D01*
X24004D01*
X24049Y-11470D01*
X24108Y-11477D01*
X24174Y-11485D01*
X24249Y-11500D01*
X24330Y-11522D01*
X24508Y-11574D01*
X24604Y-11611D01*
X24700Y-11662D01*
X24796Y-11714D01*
X24892Y-11773D01*
X24988Y-11847D01*
X25077Y-11929D01*
X25085Y-11936D01*
X25100Y-11951D01*
X25122Y-11973D01*
X25151Y-12010D01*
X25188Y-12055D01*
X25233Y-12114D01*
X25270Y-12173D01*
X25321Y-12247D01*
X25366Y-12328D01*
X25403Y-12417D01*
X25447Y-12513D01*
X25484Y-12617D01*
X25514Y-12728D01*
X25536Y-12846D01*
X25551Y-12965D01*
X25558Y-13098D01*
Y-13105D01*
Y-13128D01*
Y-13165D01*
X25551Y-13216D01*
X25543Y-13283D01*
X25529Y-13350D01*
X25514Y-13431D01*
X25492Y-13520D01*
X25462Y-13609D01*
X25433Y-13705D01*
X25388Y-13808D01*
X25336Y-13905D01*
X25277Y-14008D01*
X25203Y-14104D01*
X25129Y-14201D01*
X25033Y-14289D01*
X25025Y-14297D01*
X25011Y-14312D01*
X24981Y-14334D01*
X24944Y-14363D01*
X24892Y-14393D01*
X24833Y-14437D01*
X24759Y-14474D01*
X24678Y-14519D01*
X24589Y-14563D01*
X24493Y-14600D01*
X24389Y-14645D01*
X24278Y-14674D01*
X24160Y-14704D01*
X24034Y-14726D01*
X23901Y-14741D01*
X23760Y-14748D01*
X23701D01*
X23664Y-14741D01*
X23612D01*
X23546Y-14733D01*
X23479Y-14719D01*
X23405Y-14711D01*
X23242Y-14674D01*
X23065Y-14615D01*
X22887Y-14541D01*
X22709Y-14437D01*
X22702Y-14430D01*
X22687Y-14423D01*
X22665Y-14408D01*
X22635Y-14378D01*
X22554Y-14312D01*
X22465Y-14223D01*
X22362Y-14104D01*
X22265Y-13971D01*
X22176Y-13816D01*
X22140Y-13727D01*
X22110Y-13638D01*
X22606Y-13461D01*
X22613Y-13468D01*
X22621Y-13498D01*
X22643Y-13535D01*
X22665Y-13586D01*
X22702Y-13653D01*
X22746Y-13720D01*
X22798Y-13794D01*
X22865Y-13868D01*
X22939Y-13949D01*
X23020Y-14023D01*
X23116Y-14090D01*
X23227Y-14156D01*
X23338Y-14208D01*
X23471Y-14245D01*
X23612Y-14275D01*
X23767Y-14282D01*
X23819D01*
X23856Y-14275D01*
X23908D01*
X23960Y-14267D01*
X24086Y-14238D01*
X24226Y-14201D01*
X24374Y-14141D01*
X24522Y-14060D01*
X24589Y-14008D01*
X24656Y-13949D01*
X24663Y-13942D01*
X24670Y-13934D01*
X24707Y-13890D01*
X24759Y-13816D01*
X24826Y-13720D01*
X24885Y-13594D01*
X24937Y-13446D01*
X24974Y-13283D01*
X24988Y-13194D01*
Y-13098D01*
Y-13091D01*
Y-13076D01*
Y-13046D01*
X24981Y-13009D01*
Y-12965D01*
X24974Y-12913D01*
X24951Y-12787D01*
X24907Y-12654D01*
X24848Y-12513D01*
X24774Y-12380D01*
X24722Y-12314D01*
X24663Y-12254D01*
Y-12247D01*
X24648Y-12240D01*
X24604Y-12203D01*
X24537Y-12158D01*
X24441Y-12099D01*
X24330Y-12040D01*
X24197Y-11995D01*
X24041Y-11958D01*
X23878Y-11944D01*
X23849D01*
X23812Y-11951D01*
X23767D01*
X23708Y-11966D01*
X23642Y-11981D01*
X23575Y-11995D01*
X23494Y-12025D01*
X23405Y-12055D01*
X23316Y-12099D01*
X23227Y-12151D01*
X23138Y-12217D01*
X23042Y-12291D01*
X22953Y-12373D01*
X22865Y-12476D01*
X22783Y-12587D01*
X22317Y-12491D01*
X22465Y-9953D01*
X25247D01*
X25196Y-10449D01*
D02*
G37*
%LPC*%
G36*
X30551Y-154020D02*
X29985D01*
Y-155113D01*
X30634D01*
X30667Y-155108D01*
X30745Y-155097D01*
X30828Y-155080D01*
X30834D01*
X30845Y-155075D01*
X30867Y-155063D01*
X30889Y-155058D01*
X30950Y-155025D01*
X31011Y-154986D01*
X31017Y-154980D01*
X31028Y-154975D01*
X31061Y-154941D01*
X31100Y-154886D01*
X31139Y-154819D01*
Y-154814D01*
X31144Y-154803D01*
X31156Y-154780D01*
X31167Y-154753D01*
X31172Y-154719D01*
X31183Y-154681D01*
X31189Y-154592D01*
Y-154586D01*
Y-154570D01*
Y-154542D01*
X31183Y-154508D01*
X31172Y-154431D01*
X31144Y-154348D01*
Y-154342D01*
X31139Y-154331D01*
X31128Y-154309D01*
X31111Y-154287D01*
X31072Y-154226D01*
X31011Y-154170D01*
X31006Y-154164D01*
X30995Y-154159D01*
X30978Y-154142D01*
X30956Y-154131D01*
X30922Y-154109D01*
X30889Y-154092D01*
X30800Y-154059D01*
X30795D01*
X30778Y-154053D01*
X30750Y-154048D01*
X30712Y-154037D01*
X30667Y-154031D01*
X30612Y-154026D01*
X30551Y-154020D01*
D02*
G37*
G36*
X30473Y-152688D02*
X29985D01*
Y-153693D01*
X30512D01*
X30551Y-153687D01*
X30634Y-153676D01*
X30673Y-153665D01*
X30712Y-153654D01*
X30717D01*
X30728Y-153648D01*
X30745Y-153637D01*
X30773Y-153621D01*
X30823Y-153587D01*
X30878Y-153543D01*
X30884Y-153537D01*
X30889Y-153532D01*
X30900Y-153515D01*
X30917Y-153493D01*
X30945Y-153443D01*
X30972Y-153376D01*
Y-153371D01*
X30978Y-153360D01*
X30983Y-153343D01*
X30989Y-153315D01*
X31000Y-153254D01*
X31006Y-153182D01*
Y-153176D01*
Y-153160D01*
Y-153138D01*
X31000Y-153110D01*
X30995Y-153043D01*
X30972Y-152977D01*
Y-152971D01*
X30967Y-152960D01*
X30961Y-152943D01*
X30950Y-152921D01*
X30917Y-152871D01*
X30872Y-152821D01*
X30867Y-152816D01*
X30861Y-152810D01*
X30845Y-152799D01*
X30828Y-152788D01*
X30767Y-152755D01*
X30695Y-152727D01*
X30689D01*
X30678Y-152721D01*
X30650Y-152716D01*
X30623Y-152705D01*
X30578Y-152699D01*
X30534Y-152694D01*
X30473Y-152688D01*
D02*
G37*
G36*
X26884Y-152760D02*
X26879D01*
X26346Y-154309D01*
X27428D01*
X26884Y-152760D01*
D02*
G37*
G36*
X259407Y-107162D02*
X259377D01*
X259326Y-107172D01*
X259275Y-107202D01*
X259234Y-107223D01*
X259214Y-107233D01*
X256577Y-108770D01*
X254063Y-107294D01*
X253992Y-107264D01*
X253951Y-107243D01*
X253920Y-107233D01*
X253870D01*
X253839Y-107243D01*
X253829Y-107253D01*
X253819Y-107264D01*
X253798Y-107304D01*
X253788Y-107335D01*
X253778Y-107375D01*
Y-107386D01*
X253768Y-107457D01*
X253758Y-107528D01*
Y-107589D01*
Y-107599D01*
Y-107610D01*
Y-107691D01*
Y-107752D01*
X253768Y-107803D01*
Y-107813D01*
X253778Y-107864D01*
X253788Y-107895D01*
X253798Y-107915D01*
Y-107925D01*
X253819Y-107976D01*
X253829Y-107986D01*
X253839Y-107996D01*
X253880Y-108027D01*
X253890Y-108037D01*
X253900D01*
X256028Y-109249D01*
X253900Y-110470D01*
X253849Y-110511D01*
X253839Y-110521D01*
X253819Y-110541D01*
X253808Y-110562D01*
X253798Y-110582D01*
Y-110592D01*
X253788Y-110633D01*
X253778Y-110674D01*
X253768Y-110714D01*
Y-110725D01*
X253758Y-110796D01*
Y-110857D01*
Y-110918D01*
Y-110928D01*
Y-110938D01*
Y-111040D01*
Y-111122D01*
X253768Y-111162D01*
Y-111183D01*
X253778Y-111234D01*
X253798Y-111274D01*
X253808Y-111295D01*
X253819Y-111305D01*
X253849Y-111325D01*
X253910D01*
X253951Y-111305D01*
X254002Y-111285D01*
X254043Y-111264D01*
X254063Y-111254D01*
X256598Y-109768D01*
X259214Y-111325D01*
X259285Y-111366D01*
X259336Y-111386D01*
X259367Y-111397D01*
X259407D01*
X259438Y-111386D01*
X259448Y-111376D01*
X259458D01*
X259469Y-111336D01*
X259479Y-111295D01*
X259489Y-111264D01*
Y-111254D01*
X259499Y-111183D01*
X259509Y-111111D01*
Y-111050D01*
Y-111040D01*
Y-111030D01*
Y-110938D01*
X259499Y-110877D01*
Y-110827D01*
Y-110816D01*
X259489Y-110765D01*
Y-110725D01*
X259479Y-110704D01*
Y-110694D01*
X259469Y-110664D01*
X259458Y-110643D01*
X259448Y-110623D01*
X259397Y-110582D01*
X259387Y-110572D01*
X259377D01*
X257107Y-109289D01*
X259377Y-108017D01*
X259428Y-107996D01*
X259438Y-107986D01*
X259448D01*
X259469Y-107935D01*
X259479Y-107925D01*
Y-107915D01*
X259489Y-107874D01*
Y-107834D01*
X259499Y-107793D01*
Y-107783D01*
X259509Y-107711D01*
Y-107640D01*
Y-107589D01*
Y-107579D01*
Y-107569D01*
Y-107467D01*
X259499Y-107386D01*
X259489Y-107345D01*
Y-107325D01*
X259479Y-107264D01*
X259469Y-107223D01*
X259458Y-107202D01*
Y-107192D01*
X259428Y-107172D01*
X259407Y-107162D01*
D02*
G37*
G36*
X256791Y-100646D02*
X256374D01*
X256140Y-100667D01*
X255926Y-100677D01*
X255743Y-100697D01*
X255590Y-100718D01*
X255529Y-100728D01*
X255478D01*
X255437Y-100738D01*
X255407Y-100748D01*
X255386D01*
X255193Y-100789D01*
X255010Y-100840D01*
X254857Y-100891D01*
X254725Y-100942D01*
X254613Y-100993D01*
X254531Y-101023D01*
X254490Y-101054D01*
X254470Y-101064D01*
X254338Y-101155D01*
X254226Y-101247D01*
X254124Y-101349D01*
X254043Y-101441D01*
X253981Y-101522D01*
X253941Y-101593D01*
X253910Y-101634D01*
X253900Y-101654D01*
X253839Y-101797D01*
X253788Y-101950D01*
X253758Y-102102D01*
X253727Y-102245D01*
X253717Y-102377D01*
X253707Y-102479D01*
Y-102520D01*
Y-102550D01*
Y-102560D01*
Y-102570D01*
X253717Y-102774D01*
X253737Y-102957D01*
X253778Y-103120D01*
X253808Y-103252D01*
X253849Y-103365D01*
X253890Y-103446D01*
X253910Y-103497D01*
X253920Y-103517D01*
X254012Y-103660D01*
X254104Y-103782D01*
X254205Y-103884D01*
X254307Y-103975D01*
X254399Y-104047D01*
X254470Y-104108D01*
X254511Y-104138D01*
X254531Y-104148D01*
X254684Y-104230D01*
X254837Y-104301D01*
X254989Y-104362D01*
X255142Y-104403D01*
X255264Y-104444D01*
X255366Y-104464D01*
X255407Y-104474D01*
X255437D01*
X255447Y-104484D01*
X255458D01*
X255661Y-104515D01*
X255875Y-104545D01*
X256068Y-104566D01*
X256252Y-104576D01*
X256415D01*
X256486Y-104586D01*
X256903D01*
X257137Y-104576D01*
X257351Y-104556D01*
X257534Y-104535D01*
X257687Y-104525D01*
X257748Y-104515D01*
X257799Y-104505D01*
X257850D01*
X257880Y-104495D01*
X257901D01*
X258094Y-104454D01*
X258267Y-104403D01*
X258430Y-104352D01*
X258562Y-104301D01*
X258664Y-104250D01*
X258746Y-104220D01*
X258797Y-104189D01*
X258817Y-104179D01*
X258949Y-104087D01*
X259061Y-103996D01*
X259153Y-103894D01*
X259234Y-103802D01*
X259296Y-103721D01*
X259336Y-103650D01*
X259367Y-103609D01*
X259377Y-103588D01*
X259438Y-103446D01*
X259479Y-103293D01*
X259519Y-103141D01*
X259540Y-102998D01*
X259550Y-102876D01*
X259560Y-102774D01*
Y-102733D01*
Y-102703D01*
Y-102693D01*
Y-102682D01*
X259550Y-102479D01*
X259530Y-102296D01*
X259499Y-102133D01*
X259458Y-101990D01*
X259418Y-101878D01*
X259387Y-101797D01*
X259367Y-101746D01*
X259357Y-101725D01*
X259265Y-101583D01*
X259173Y-101461D01*
X259071Y-101359D01*
X258980Y-101267D01*
X258888Y-101196D01*
X258817Y-101145D01*
X258776Y-101115D01*
X258756Y-101105D01*
X258603Y-101023D01*
X258440Y-100952D01*
X258288Y-100891D01*
X258135Y-100840D01*
X258013Y-100799D01*
X257911Y-100779D01*
X257870Y-100769D01*
X257840Y-100758D01*
X257819D01*
X257616Y-100718D01*
X257402Y-100697D01*
X257209Y-100677D01*
X257025Y-100657D01*
X256862D01*
X256791Y-100646D01*
D02*
G37*
G36*
X257473Y-112364D02*
X253900D01*
X253859Y-112374D01*
X253849Y-112384D01*
X253829Y-112404D01*
X253819Y-112425D01*
X253808Y-112445D01*
Y-112455D01*
X253798Y-112486D01*
X253788Y-112527D01*
X253778Y-112557D01*
Y-112567D01*
X253768Y-112628D01*
X253758Y-112679D01*
Y-112720D01*
Y-112740D01*
Y-112812D01*
X253768Y-112873D01*
X253778Y-112913D01*
Y-112924D01*
X253788Y-112974D01*
X253798Y-113015D01*
X253808Y-113036D01*
Y-113046D01*
X253829Y-113086D01*
X253839Y-113107D01*
X253849D01*
X253880Y-113117D01*
X257514D01*
X257646Y-113137D01*
X257758Y-113147D01*
X257860Y-113168D01*
X257942Y-113188D01*
X258003Y-113198D01*
X258043Y-113219D01*
X258053D01*
X258155Y-113259D01*
X258247Y-113300D01*
X258328Y-113341D01*
X258400Y-113392D01*
X258451Y-113433D01*
X258501Y-113463D01*
X258522Y-113483D01*
X258532Y-113494D01*
X258654Y-113636D01*
X258746Y-113768D01*
X258776Y-113830D01*
X258797Y-113881D01*
X258817Y-113911D01*
Y-113921D01*
X258868Y-114125D01*
X258888Y-114216D01*
X258898Y-114308D01*
Y-114390D01*
X258909Y-114451D01*
Y-114501D01*
Y-114512D01*
X258898Y-114736D01*
X258878Y-114837D01*
X258858Y-114919D01*
X258848Y-114990D01*
X258827Y-115041D01*
X258817Y-115082D01*
Y-115092D01*
X258725Y-115265D01*
X258675Y-115346D01*
X258634Y-115408D01*
X258593Y-115458D01*
X258552Y-115499D01*
X258532Y-115519D01*
X258522Y-115530D01*
X258359Y-115652D01*
X258206Y-115733D01*
X258135Y-115764D01*
X258084Y-115784D01*
X258043Y-115805D01*
X258033D01*
X257799Y-115855D01*
X257687Y-115876D01*
X257575Y-115886D01*
X257483D01*
X257412Y-115896D01*
X253900D01*
X253859Y-115906D01*
X253849Y-115917D01*
X253819Y-115957D01*
X253808Y-115967D01*
Y-115978D01*
X253798Y-116018D01*
X253788Y-116049D01*
X253778Y-116089D01*
Y-116100D01*
X253768Y-116161D01*
X253758Y-116212D01*
Y-116252D01*
Y-116273D01*
Y-116354D01*
X253768Y-116415D01*
X253778Y-116456D01*
Y-116466D01*
X253788Y-116507D01*
X253798Y-116548D01*
X253808Y-116568D01*
Y-116578D01*
X253829Y-116619D01*
X253839Y-116639D01*
X253849D01*
X253880Y-116649D01*
X257433D01*
X257626Y-116639D01*
X257799Y-116629D01*
X257962Y-116609D01*
X258094Y-116578D01*
X258206Y-116548D01*
X258288Y-116527D01*
X258339Y-116517D01*
X258359Y-116507D01*
X258501Y-116446D01*
X258634Y-116375D01*
X258746Y-116303D01*
X258848Y-116232D01*
X258919Y-116171D01*
X258980Y-116120D01*
X259021Y-116089D01*
X259031Y-116079D01*
X259122Y-115967D01*
X259204Y-115855D01*
X259275Y-115754D01*
X259326Y-115642D01*
X259367Y-115550D01*
X259407Y-115479D01*
X259418Y-115438D01*
X259428Y-115418D01*
X259469Y-115265D01*
X259499Y-115122D01*
X259530Y-114980D01*
X259540Y-114848D01*
X259550Y-114736D01*
X259560Y-114644D01*
Y-114583D01*
Y-114562D01*
X259550Y-114369D01*
X259540Y-114196D01*
X259519Y-114043D01*
X259489Y-113911D01*
X259458Y-113799D01*
X259438Y-113718D01*
X259428Y-113667D01*
X259418Y-113646D01*
X259357Y-113504D01*
X259296Y-113361D01*
X259224Y-113249D01*
X259153Y-113147D01*
X259092Y-113066D01*
X259041Y-113005D01*
X259010Y-112964D01*
X259000Y-112954D01*
X258888Y-112852D01*
X258776Y-112761D01*
X258654Y-112689D01*
X258542Y-112628D01*
X258451Y-112577D01*
X258379Y-112547D01*
X258328Y-112527D01*
X258308Y-112516D01*
X258155Y-112465D01*
X257992Y-112425D01*
X257840Y-112404D01*
X257687Y-112384D01*
X257565Y-112374D01*
X257473Y-112364D01*
D02*
G37*
G36*
X259407Y-117555D02*
X259326D01*
X259275Y-117566D01*
X259234Y-117576D01*
X259214Y-117586D01*
X253920Y-119500D01*
X253870Y-119530D01*
X253849Y-119541D01*
Y-119551D01*
X253819Y-119581D01*
X253808Y-119612D01*
X253798Y-119632D01*
Y-119642D01*
X253788Y-119683D01*
X253778Y-119734D01*
X253768Y-119764D01*
Y-119785D01*
X253758Y-119856D01*
Y-119938D01*
Y-119999D01*
Y-120009D01*
Y-120019D01*
Y-120111D01*
Y-120182D01*
X253768Y-120223D01*
Y-120243D01*
X253778Y-120304D01*
X253788Y-120345D01*
X253798Y-120375D01*
Y-120386D01*
X253819Y-120447D01*
X253829Y-120457D01*
X253839Y-120467D01*
X253890Y-120498D01*
X253910Y-120508D01*
X253920D01*
X259214Y-122411D01*
X259285Y-122432D01*
X259336Y-122442D01*
X259367Y-122452D01*
X259377D01*
X259407Y-122442D01*
X259438Y-122432D01*
X259448Y-122422D01*
X259458D01*
X259469Y-122391D01*
X259479Y-122350D01*
X259489Y-122320D01*
Y-122310D01*
X259499Y-122238D01*
X259509Y-122167D01*
Y-122116D01*
Y-122106D01*
Y-122096D01*
Y-122014D01*
X259499Y-121953D01*
Y-121913D01*
Y-121902D01*
X259489Y-121851D01*
Y-121811D01*
X259479Y-121790D01*
Y-121780D01*
X259448Y-121729D01*
X259428Y-121719D01*
X259377Y-121688D01*
X259367Y-121678D01*
X259357D01*
X257982Y-121220D01*
Y-118848D01*
X259377Y-118360D01*
X259428Y-118329D01*
X259438Y-118319D01*
X259448D01*
X259469Y-118278D01*
X259479Y-118268D01*
Y-118258D01*
X259489Y-118217D01*
Y-118176D01*
X259499Y-118146D01*
Y-118136D01*
X259509Y-118064D01*
Y-117993D01*
Y-117942D01*
Y-117932D01*
Y-117922D01*
Y-117830D01*
X259499Y-117759D01*
Y-117708D01*
Y-117698D01*
X259489Y-117647D01*
X259479Y-117606D01*
X259469Y-117596D01*
Y-117586D01*
X259438Y-117566D01*
X259407Y-117555D01*
D02*
G37*
%LPD*%
G36*
X257015Y-101430D02*
X257178D01*
X257239Y-101441D01*
X257290D01*
X257494Y-101461D01*
X257585Y-101471D01*
X257667Y-101491D01*
X257738Y-101502D01*
X257789Y-101512D01*
X257819Y-101522D01*
X257830D01*
X258013Y-101563D01*
X258084Y-101593D01*
X258155Y-101614D01*
X258206Y-101634D01*
X258247Y-101644D01*
X258278Y-101664D01*
X258288D01*
X258430Y-101736D01*
X258542Y-101797D01*
X258583Y-101827D01*
X258613Y-101858D01*
X258634Y-101868D01*
X258644Y-101878D01*
X258736Y-101980D01*
X258807Y-102092D01*
X258837Y-102133D01*
X258848Y-102173D01*
X258868Y-102194D01*
Y-102204D01*
X258909Y-102347D01*
X258929Y-102489D01*
X258939Y-102550D01*
Y-102601D01*
Y-102632D01*
Y-102642D01*
X258929Y-102754D01*
X258919Y-102856D01*
X258898Y-102947D01*
X258878Y-103029D01*
X258858Y-103090D01*
X258837Y-103141D01*
X258817Y-103171D01*
Y-103181D01*
X258766Y-103263D01*
X258695Y-103324D01*
X258562Y-103446D01*
X258501Y-103487D01*
X258451Y-103517D01*
X258420Y-103538D01*
X258410Y-103548D01*
X258298Y-103599D01*
X258176Y-103639D01*
X258053Y-103670D01*
X257942Y-103700D01*
X257840Y-103721D01*
X257758Y-103741D01*
X257707Y-103751D01*
X257687D01*
X257514Y-103772D01*
X257331Y-103782D01*
X257148Y-103802D01*
X256974D01*
X256822Y-103812D01*
X256425D01*
X256262Y-103802D01*
X256109D01*
X255977Y-103792D01*
X255865Y-103782D01*
X255783D01*
X255732Y-103772D01*
X255712D01*
X255559Y-103751D01*
X255427Y-103721D01*
X255295Y-103690D01*
X255193Y-103660D01*
X255112Y-103629D01*
X255040Y-103609D01*
X254999Y-103599D01*
X254989Y-103588D01*
X254877Y-103538D01*
X254786Y-103477D01*
X254704Y-103415D01*
X254633Y-103354D01*
X254582Y-103303D01*
X254541Y-103263D01*
X254521Y-103232D01*
X254511Y-103222D01*
X254450Y-103130D01*
X254409Y-103029D01*
X254368Y-102927D01*
X254348Y-102825D01*
X254338Y-102743D01*
X254328Y-102672D01*
Y-102632D01*
Y-102611D01*
X254338Y-102459D01*
X254358Y-102347D01*
X254368Y-102296D01*
X254379Y-102265D01*
X254389Y-102245D01*
Y-102234D01*
X254440Y-102112D01*
X254490Y-102021D01*
X254521Y-101980D01*
X254541Y-101950D01*
X254552Y-101939D01*
X254562Y-101929D01*
X254664Y-101838D01*
X254765Y-101766D01*
X254806Y-101746D01*
X254847Y-101725D01*
X254867Y-101705D01*
X254877D01*
X255020Y-101634D01*
X255173Y-101593D01*
X255234Y-101573D01*
X255285Y-101563D01*
X255315Y-101552D01*
X255325D01*
X255529Y-101512D01*
X255621Y-101491D01*
X255712Y-101481D01*
X255794Y-101471D01*
X255855D01*
X255906Y-101461D01*
X255916D01*
X256180Y-101441D01*
X256303Y-101430D01*
X256425Y-101420D01*
X256903D01*
X257015Y-101430D01*
D02*
G37*
G36*
X257382Y-121027D02*
X254541Y-120050D01*
Y-120039D01*
X257382Y-119042D01*
Y-121027D01*
D02*
G37*
%LPC*%
G36*
X245873Y-152788D02*
X245385D01*
Y-153793D01*
X245912D01*
X245951Y-153787D01*
X246034Y-153776D01*
X246073Y-153765D01*
X246112Y-153754D01*
X246117D01*
X246128Y-153748D01*
X246145Y-153737D01*
X246173Y-153720D01*
X246223Y-153687D01*
X246278Y-153643D01*
X246284Y-153637D01*
X246289Y-153632D01*
X246300Y-153615D01*
X246317Y-153593D01*
X246345Y-153543D01*
X246372Y-153476D01*
Y-153471D01*
X246378Y-153460D01*
X246384Y-153443D01*
X246389Y-153415D01*
X246400Y-153354D01*
X246406Y-153282D01*
Y-153277D01*
Y-153260D01*
Y-153238D01*
X246400Y-153210D01*
X246395Y-153143D01*
X246372Y-153077D01*
Y-153071D01*
X246367Y-153060D01*
X246361Y-153043D01*
X246350Y-153021D01*
X246317Y-152971D01*
X246272Y-152921D01*
X246267Y-152916D01*
X246261Y-152910D01*
X246245Y-152899D01*
X246228Y-152888D01*
X246167Y-152855D01*
X246095Y-152827D01*
X246089D01*
X246078Y-152821D01*
X246051Y-152816D01*
X246023Y-152805D01*
X245978Y-152799D01*
X245934Y-152794D01*
X245873Y-152788D01*
D02*
G37*
G36*
X245951Y-154120D02*
X245385D01*
Y-155213D01*
X246034D01*
X246067Y-155208D01*
X246145Y-155197D01*
X246228Y-155180D01*
X246234D01*
X246245Y-155175D01*
X246267Y-155164D01*
X246289Y-155158D01*
X246350Y-155125D01*
X246411Y-155086D01*
X246417Y-155080D01*
X246428Y-155075D01*
X246461Y-155041D01*
X246500Y-154986D01*
X246539Y-154919D01*
Y-154914D01*
X246545Y-154903D01*
X246556Y-154880D01*
X246567Y-154853D01*
X246572Y-154819D01*
X246583Y-154781D01*
X246589Y-154692D01*
Y-154686D01*
Y-154670D01*
Y-154642D01*
X246583Y-154609D01*
X246572Y-154531D01*
X246545Y-154448D01*
Y-154442D01*
X246539Y-154431D01*
X246528Y-154409D01*
X246511Y-154386D01*
X246472Y-154325D01*
X246411Y-154270D01*
X246406Y-154264D01*
X246395Y-154259D01*
X246378Y-154242D01*
X246356Y-154231D01*
X246322Y-154209D01*
X246289Y-154192D01*
X246200Y-154159D01*
X246195D01*
X246178Y-154153D01*
X246150Y-154148D01*
X246112Y-154137D01*
X246067Y-154131D01*
X246012Y-154126D01*
X245951Y-154120D01*
D02*
G37*
G36*
X242284Y-152860D02*
X242279D01*
X241746Y-154409D01*
X242828D01*
X242284Y-152860D01*
D02*
G37*
G36*
X196626Y6769D02*
X194456D01*
X194434Y6764D01*
X194429Y6758D01*
X194423D01*
X194401Y6736D01*
X194395Y6731D01*
Y6725D01*
X194390Y6692D01*
X194384Y6675D01*
Y6670D01*
X194379Y6642D01*
Y6620D01*
Y6597D01*
Y6592D01*
Y6559D01*
X194384Y6531D01*
Y6514D01*
Y6509D01*
X194390Y6486D01*
Y6470D01*
X194395Y6459D01*
Y6453D01*
X194412Y6431D01*
X194423Y6425D01*
X194445Y6420D01*
X195333D01*
Y3723D01*
X195339Y3700D01*
Y3695D01*
Y3689D01*
X195361Y3678D01*
X195367Y3673D01*
X195372D01*
X195417Y3667D01*
X195433Y3661D01*
X195439D01*
X195472Y3656D01*
X195505Y3650D01*
X195578D01*
X195605Y3656D01*
X195627Y3661D01*
X195633D01*
X195661Y3667D01*
X195677D01*
X195688Y3673D01*
X195694D01*
X195711Y3678D01*
X195722Y3684D01*
X195733Y3689D01*
X195744Y3711D01*
Y3723D01*
Y6420D01*
X196615D01*
X196638Y6425D01*
X196649D01*
X196671Y6442D01*
X196676Y6453D01*
X196687Y6492D01*
X196693Y6503D01*
Y6509D01*
X196699Y6536D01*
Y6564D01*
Y6586D01*
Y6592D01*
Y6625D01*
Y6647D01*
X196693Y6664D01*
Y6670D01*
X196687Y6692D01*
X196682Y6708D01*
X196676Y6719D01*
Y6725D01*
X196660Y6753D01*
X196654Y6758D01*
X196649D01*
X196626Y6769D01*
D02*
G37*
G36*
X205151D02*
X204424D01*
X204380Y6764D01*
X204346Y6747D01*
X204324Y6731D01*
X204313Y6725D01*
X204286Y6686D01*
X204269Y6642D01*
X204263Y6609D01*
Y6597D01*
Y6592D01*
Y3723D01*
X204269Y3700D01*
Y3695D01*
Y3689D01*
X204291Y3678D01*
X204297Y3673D01*
X204302D01*
X204346Y3667D01*
X204363Y3661D01*
X204369D01*
X204402Y3656D01*
X204435Y3650D01*
X204507D01*
X204535Y3656D01*
X204557Y3661D01*
X204563D01*
X204591Y3667D01*
X204607D01*
X204619Y3673D01*
X204624D01*
X204641Y3678D01*
X204652Y3684D01*
X204663Y3689D01*
X204674Y3711D01*
Y3723D01*
Y4844D01*
X205024D01*
X205129Y4849D01*
X205223Y4855D01*
X205307Y4866D01*
X205379Y4877D01*
X205440Y4888D01*
X205479Y4899D01*
X205506Y4910D01*
X205518D01*
X205595Y4938D01*
X205662Y4971D01*
X205723Y5005D01*
X205773Y5038D01*
X205817Y5071D01*
X205845Y5093D01*
X205867Y5110D01*
X205873Y5116D01*
X205923Y5165D01*
X205967Y5221D01*
X206006Y5277D01*
X206039Y5327D01*
X206062Y5371D01*
X206078Y5404D01*
X206089Y5432D01*
X206095Y5438D01*
X206122Y5510D01*
X206139Y5582D01*
X206156Y5654D01*
X206161Y5720D01*
X206167Y5776D01*
X206172Y5820D01*
Y5848D01*
Y5859D01*
X206167Y5981D01*
X206156Y6037D01*
X206150Y6081D01*
X206139Y6120D01*
X206128Y6148D01*
X206122Y6170D01*
Y6176D01*
X206078Y6276D01*
X206056Y6320D01*
X206034Y6359D01*
X206012Y6386D01*
X205995Y6414D01*
X205984Y6425D01*
X205978Y6431D01*
X205906Y6509D01*
X205834Y6570D01*
X205801Y6592D01*
X205778Y6609D01*
X205762Y6614D01*
X205756Y6620D01*
X205662Y6670D01*
X205617Y6686D01*
X205579Y6697D01*
X205551Y6708D01*
X205523Y6714D01*
X205506Y6719D01*
X205501D01*
X205412Y6736D01*
X205373Y6742D01*
X205340Y6747D01*
X205318Y6753D01*
X205296Y6758D01*
X205279D01*
X205212Y6764D01*
X205151Y6769D01*
D02*
G37*
G36*
X201821Y6536D02*
X201682D01*
X201660Y6531D01*
X201655D01*
X201633Y6525D01*
X201616Y6520D01*
X201605Y6514D01*
X201599D01*
X201577Y6498D01*
X201566Y6492D01*
Y6486D01*
X201560Y6470D01*
Y6464D01*
Y6459D01*
Y5948D01*
X201255D01*
X201233Y5943D01*
X201227Y5937D01*
X201222D01*
X201200Y5915D01*
X201194Y5909D01*
Y5904D01*
X201189Y5887D01*
Y5870D01*
X201183Y5859D01*
Y5854D01*
X201178Y5832D01*
Y5809D01*
Y5787D01*
Y5782D01*
X201183Y5726D01*
X201189Y5687D01*
X201194Y5660D01*
Y5654D01*
X201211Y5637D01*
X201233Y5626D01*
X201250Y5621D01*
X201560D01*
Y4355D01*
Y4289D01*
X201566Y4228D01*
X201571Y4172D01*
X201577Y4128D01*
X201583Y4089D01*
X201588Y4056D01*
X201594Y4039D01*
Y4033D01*
X201627Y3939D01*
X201644Y3900D01*
X201660Y3867D01*
X201677Y3839D01*
X201694Y3817D01*
X201699Y3806D01*
X201705Y3800D01*
X201766Y3745D01*
X201832Y3700D01*
X201860Y3684D01*
X201882Y3678D01*
X201893Y3667D01*
X201899D01*
X201993Y3645D01*
X202043Y3639D01*
X202088Y3634D01*
X202127Y3628D01*
X202226D01*
X202265Y3634D01*
X202288Y3639D01*
X202299D01*
X202337Y3645D01*
X202371Y3650D01*
X202393Y3656D01*
X202398D01*
X202432Y3667D01*
X202460Y3673D01*
X202482Y3678D01*
X202487D01*
X202515Y3689D01*
X202532Y3700D01*
X202537Y3711D01*
X202543D01*
X202559Y3728D01*
X202571Y3750D01*
X202576Y3767D01*
Y3773D01*
X202582Y3811D01*
X202587Y3845D01*
Y3872D01*
Y3884D01*
Y3911D01*
Y3939D01*
X202582Y3950D01*
Y3956D01*
X202576Y3989D01*
X202571Y3994D01*
Y4000D01*
X202559Y4017D01*
X202554Y4022D01*
X202537Y4033D01*
X202532D01*
X202498Y4028D01*
X202487Y4022D01*
X202482D01*
X202448Y4006D01*
X202432Y4000D01*
X202426Y3994D01*
X202398Y3989D01*
X202376Y3978D01*
X202354Y3972D01*
X202348D01*
X202315Y3967D01*
X202254D01*
X202193Y3972D01*
X202143Y3983D01*
X202104Y4000D01*
X202071Y4022D01*
X202043Y4044D01*
X202027Y4061D01*
X202021Y4072D01*
X202015Y4078D01*
X201993Y4128D01*
X201982Y4178D01*
X201960Y4289D01*
Y4339D01*
X201955Y4377D01*
Y4405D01*
Y4416D01*
Y5621D01*
X202504D01*
X202532Y5626D01*
X202548Y5637D01*
X202559Y5648D01*
X202565Y5654D01*
X202576Y5693D01*
X202587Y5732D01*
Y5765D01*
Y5776D01*
Y5782D01*
Y5809D01*
Y5837D01*
X202582Y5848D01*
Y5854D01*
X202576Y5876D01*
X202571Y5893D01*
X202565Y5898D01*
Y5904D01*
X202548Y5931D01*
X202543Y5937D01*
X202537D01*
X202515Y5948D01*
X201955D01*
Y6459D01*
X201949Y6481D01*
X201943Y6486D01*
X201921Y6509D01*
X201916Y6514D01*
X201910D01*
X201893Y6520D01*
X201871Y6525D01*
X201855Y6531D01*
X201849D01*
X201821Y6536D01*
D02*
G37*
G36*
X213410D02*
X213271D01*
X213249Y6531D01*
X213243D01*
X213221Y6525D01*
X213204Y6520D01*
X213193Y6514D01*
X213188D01*
X213165Y6498D01*
X213154Y6492D01*
Y6486D01*
X213149Y6470D01*
Y6464D01*
Y6459D01*
Y5948D01*
X212844D01*
X212821Y5943D01*
X212816Y5937D01*
X212810D01*
X212788Y5915D01*
X212783Y5909D01*
Y5904D01*
X212777Y5887D01*
Y5870D01*
X212771Y5859D01*
Y5854D01*
X212766Y5832D01*
Y5809D01*
Y5787D01*
Y5782D01*
X212771Y5726D01*
X212777Y5687D01*
X212783Y5660D01*
Y5654D01*
X212799Y5637D01*
X212821Y5626D01*
X212838Y5621D01*
X213149D01*
Y4355D01*
Y4289D01*
X213154Y4228D01*
X213160Y4172D01*
X213165Y4128D01*
X213171Y4089D01*
X213177Y4056D01*
X213182Y4039D01*
Y4033D01*
X213215Y3939D01*
X213232Y3900D01*
X213249Y3867D01*
X213265Y3839D01*
X213282Y3817D01*
X213288Y3806D01*
X213293Y3800D01*
X213354Y3745D01*
X213421Y3700D01*
X213449Y3684D01*
X213471Y3678D01*
X213482Y3667D01*
X213487D01*
X213582Y3645D01*
X213632Y3639D01*
X213676Y3634D01*
X213715Y3628D01*
X213815D01*
X213854Y3634D01*
X213876Y3639D01*
X213887D01*
X213926Y3645D01*
X213959Y3650D01*
X213981Y3656D01*
X213987D01*
X214020Y3667D01*
X214048Y3673D01*
X214070Y3678D01*
X214076D01*
X214103Y3689D01*
X214120Y3700D01*
X214126Y3711D01*
X214131D01*
X214148Y3728D01*
X214159Y3750D01*
X214164Y3767D01*
Y3773D01*
X214170Y3811D01*
X214176Y3845D01*
Y3872D01*
Y3884D01*
Y3911D01*
Y3939D01*
X214170Y3950D01*
Y3956D01*
X214164Y3989D01*
X214159Y3994D01*
Y4000D01*
X214148Y4017D01*
X214142Y4022D01*
X214126Y4033D01*
X214120D01*
X214087Y4028D01*
X214076Y4022D01*
X214070D01*
X214037Y4006D01*
X214020Y4000D01*
X214015Y3994D01*
X213987Y3989D01*
X213965Y3978D01*
X213943Y3972D01*
X213937D01*
X213904Y3967D01*
X213843D01*
X213781Y3972D01*
X213732Y3983D01*
X213693Y4000D01*
X213659Y4022D01*
X213632Y4044D01*
X213615Y4061D01*
X213610Y4072D01*
X213604Y4078D01*
X213582Y4128D01*
X213571Y4178D01*
X213548Y4289D01*
Y4339D01*
X213543Y4377D01*
Y4405D01*
Y4416D01*
Y5621D01*
X214092D01*
X214120Y5626D01*
X214137Y5637D01*
X214148Y5648D01*
X214153Y5654D01*
X214164Y5693D01*
X214176Y5732D01*
Y5765D01*
Y5776D01*
Y5782D01*
Y5809D01*
Y5837D01*
X214170Y5848D01*
Y5854D01*
X214164Y5876D01*
X214159Y5893D01*
X214153Y5898D01*
Y5904D01*
X214137Y5931D01*
X214131Y5937D01*
X214126D01*
X214103Y5948D01*
X213543D01*
Y6459D01*
X213537Y6481D01*
X213532Y6486D01*
X213510Y6509D01*
X213504Y6514D01*
X213498D01*
X213482Y6520D01*
X213460Y6525D01*
X213443Y6531D01*
X213437D01*
X213410Y6536D01*
D02*
G37*
G36*
X215413Y5993D02*
X215291D01*
X215225Y5981D01*
X215163Y5976D01*
X215113Y5965D01*
X215069Y5954D01*
X215041Y5948D01*
X215019Y5937D01*
X215014D01*
X214914Y5893D01*
X214875Y5870D01*
X214836Y5848D01*
X214808Y5832D01*
X214786Y5815D01*
X214775Y5804D01*
X214769Y5798D01*
X214708Y5732D01*
X214664Y5665D01*
X214647Y5637D01*
X214636Y5615D01*
X214625Y5598D01*
Y5593D01*
X214597Y5504D01*
X214586Y5426D01*
X214581Y5393D01*
Y5371D01*
Y5354D01*
Y5349D01*
X214586Y5249D01*
X214597Y5204D01*
X214603Y5171D01*
X214614Y5138D01*
X214620Y5116D01*
X214625Y5105D01*
Y5099D01*
X214664Y5027D01*
X214703Y4971D01*
X214720Y4949D01*
X214736Y4938D01*
X214742Y4927D01*
X214747Y4921D01*
X214808Y4871D01*
X214864Y4832D01*
X214886Y4821D01*
X214903Y4810D01*
X214914Y4799D01*
X214919D01*
X214991Y4766D01*
X215058Y4733D01*
X215080Y4721D01*
X215102Y4710D01*
X215113Y4705D01*
X215119D01*
X215197Y4677D01*
X215258Y4649D01*
X215286Y4644D01*
X215302Y4633D01*
X215313Y4627D01*
X215319D01*
X215386Y4599D01*
X215441Y4572D01*
X215463Y4561D01*
X215480Y4555D01*
X215485Y4544D01*
X215491D01*
X215541Y4511D01*
X215580Y4472D01*
X215608Y4444D01*
X215613Y4439D01*
Y4433D01*
X215641Y4383D01*
X215657Y4333D01*
X215663Y4316D01*
Y4300D01*
Y4289D01*
Y4283D01*
X215657Y4222D01*
X215646Y4172D01*
X215635Y4139D01*
X215630Y4133D01*
Y4128D01*
X215602Y4083D01*
X215569Y4050D01*
X215546Y4022D01*
X215541Y4017D01*
X215535D01*
X215485Y3989D01*
X215441Y3972D01*
X215408Y3961D01*
X215397Y3956D01*
X215391D01*
X215330Y3945D01*
X215275Y3939D01*
X215213D01*
X215119Y3945D01*
X215075Y3950D01*
X215041Y3956D01*
X215008D01*
X214986Y3961D01*
X214975Y3967D01*
X214969D01*
X214897Y3994D01*
X214842Y4017D01*
X214819Y4028D01*
X214808Y4033D01*
X214797Y4039D01*
X214792D01*
X214742Y4067D01*
X214703Y4089D01*
X214675Y4106D01*
X214664Y4111D01*
X214631Y4133D01*
X214609Y4139D01*
X214597Y4144D01*
X214592D01*
X214570Y4139D01*
X214564Y4133D01*
X214559D01*
X214553Y4128D01*
X214542Y4117D01*
X214536Y4111D01*
Y4106D01*
X214531Y4089D01*
Y4072D01*
X214525Y4061D01*
Y4056D01*
Y4028D01*
Y4006D01*
Y3983D01*
Y3978D01*
Y3928D01*
X214531Y3895D01*
X214536Y3867D01*
Y3861D01*
X214547Y3833D01*
X214559Y3811D01*
X214564Y3800D01*
X214570Y3795D01*
X214592Y3778D01*
X214620Y3761D01*
X214642Y3745D01*
X214653Y3739D01*
X214703Y3717D01*
X214747Y3700D01*
X214786Y3689D01*
X214792Y3684D01*
X214797D01*
X214864Y3667D01*
X214919Y3656D01*
X214947Y3650D01*
X214964D01*
X214975Y3645D01*
X214980D01*
X215058Y3634D01*
X215130Y3628D01*
X215158Y3623D01*
X215269D01*
X215335Y3628D01*
X215397Y3639D01*
X215446Y3645D01*
X215485Y3656D01*
X215519Y3661D01*
X215541Y3667D01*
X215546D01*
X215602Y3684D01*
X215652Y3706D01*
X215702Y3728D01*
X215741Y3750D01*
X215768Y3773D01*
X215791Y3784D01*
X215807Y3795D01*
X215813Y3800D01*
X215885Y3872D01*
X215940Y3945D01*
X215957Y3972D01*
X215974Y3994D01*
X215985Y4011D01*
Y4017D01*
X216007Y4067D01*
X216024Y4117D01*
X216035Y4166D01*
X216046Y4211D01*
Y4250D01*
X216052Y4283D01*
Y4305D01*
Y4311D01*
X216046Y4405D01*
X216035Y4450D01*
X216029Y4483D01*
X216018Y4511D01*
X216007Y4533D01*
X216002Y4544D01*
Y4549D01*
X215963Y4622D01*
X215924Y4677D01*
X215907Y4694D01*
X215891Y4710D01*
X215885Y4716D01*
X215879Y4721D01*
X215818Y4772D01*
X215763Y4810D01*
X215735Y4821D01*
X215719Y4832D01*
X215707Y4844D01*
X215702D01*
X215630Y4882D01*
X215563Y4910D01*
X215541Y4921D01*
X215519Y4932D01*
X215508Y4938D01*
X215502D01*
X215430Y4966D01*
X215363Y4993D01*
X215341Y4999D01*
X215319Y5010D01*
X215308Y5016D01*
X215302D01*
X215230Y5043D01*
X215175Y5071D01*
X215152Y5082D01*
X215141Y5093D01*
X215130Y5099D01*
X215125D01*
X215075Y5138D01*
X215036Y5171D01*
X215014Y5199D01*
X215002Y5210D01*
X214975Y5265D01*
X214964Y5315D01*
X214958Y5338D01*
Y5354D01*
Y5365D01*
Y5371D01*
X214964Y5421D01*
X214969Y5460D01*
X214975Y5482D01*
X214980Y5493D01*
X215002Y5532D01*
X215025Y5565D01*
X215047Y5587D01*
X215053Y5593D01*
X215091Y5621D01*
X215136Y5643D01*
X215169Y5654D01*
X215175Y5660D01*
X215180D01*
X215241Y5676D01*
X215297Y5682D01*
X215324Y5687D01*
X215358D01*
X215435Y5682D01*
X215502Y5676D01*
X215524Y5671D01*
X215541Y5665D01*
X215552Y5660D01*
X215558D01*
X215619Y5637D01*
X215669Y5621D01*
X215696Y5604D01*
X215707Y5598D01*
X215752Y5576D01*
X215785Y5560D01*
X215807Y5548D01*
X215813Y5543D01*
X215841Y5532D01*
X215857Y5526D01*
X215868Y5521D01*
X215874D01*
X215896Y5526D01*
X215902D01*
X215913Y5543D01*
X215918Y5554D01*
X215929Y5582D01*
X215935Y5593D01*
Y5598D01*
X215940Y5626D01*
Y5648D01*
Y5671D01*
Y5676D01*
Y5698D01*
Y5720D01*
X215935Y5732D01*
Y5737D01*
X215929Y5771D01*
X215924Y5776D01*
Y5782D01*
X215918Y5804D01*
X215913Y5815D01*
X215907Y5826D01*
X215896Y5837D01*
X215885Y5848D01*
X215879D01*
X215857Y5865D01*
X215835Y5876D01*
X215818Y5887D01*
X215807Y5893D01*
X215768Y5909D01*
X215730Y5926D01*
X215696Y5931D01*
X215691Y5937D01*
X215685D01*
X215635Y5954D01*
X215585Y5965D01*
X215563Y5970D01*
X215546Y5976D01*
X215530D01*
X215469Y5987D01*
X215413Y5993D01*
D02*
G37*
G36*
X211595D02*
X211556D01*
X211489Y5987D01*
X211423Y5976D01*
X211362Y5959D01*
X211306Y5943D01*
X211256Y5926D01*
X211223Y5909D01*
X211201Y5898D01*
X211190Y5893D01*
X211123Y5854D01*
X211056Y5809D01*
X210995Y5759D01*
X210946Y5709D01*
X210895Y5665D01*
X210862Y5632D01*
X210840Y5610D01*
X210829Y5598D01*
Y5881D01*
X210823Y5909D01*
X210818Y5915D01*
X210812Y5926D01*
X210801Y5931D01*
X210796Y5937D01*
X210790D01*
X210773Y5943D01*
X210757Y5948D01*
X210740Y5954D01*
X210735D01*
X210707Y5959D01*
X210585D01*
X210568Y5954D01*
X210562D01*
X210540Y5948D01*
X210524Y5943D01*
X210513Y5937D01*
X210507D01*
X210496Y5931D01*
X210485Y5920D01*
X210479Y5915D01*
X210474Y5893D01*
Y5887D01*
Y5881D01*
Y3723D01*
X210479Y3700D01*
Y3689D01*
X210502Y3673D01*
X210507Y3667D01*
X210513D01*
X210551Y3661D01*
X210562Y3656D01*
X210568D01*
X210601Y3650D01*
X210707D01*
X210740Y3656D01*
X210762D01*
X210790Y3661D01*
X210807D01*
X210818Y3667D01*
X210823D01*
X210851Y3684D01*
X210857Y3689D01*
X210868Y3711D01*
Y3717D01*
Y3723D01*
Y5232D01*
X210929Y5304D01*
X210984Y5365D01*
X211034Y5415D01*
X211084Y5460D01*
X211123Y5493D01*
X211151Y5521D01*
X211173Y5532D01*
X211179Y5537D01*
X211234Y5576D01*
X211290Y5604D01*
X211339Y5621D01*
X211384Y5637D01*
X211423Y5643D01*
X211451Y5648D01*
X211478D01*
X211556Y5643D01*
X211623Y5626D01*
X211645Y5621D01*
X211661Y5610D01*
X211672Y5604D01*
X211678D01*
X211739Y5565D01*
X211784Y5526D01*
X211811Y5493D01*
X211822Y5482D01*
Y5476D01*
X211861Y5415D01*
X211883Y5349D01*
X211894Y5321D01*
X211900Y5304D01*
X211906Y5288D01*
Y5282D01*
X211917Y5238D01*
X211928Y5188D01*
X211933Y5093D01*
X211939Y5054D01*
Y5021D01*
Y4993D01*
Y4988D01*
Y3723D01*
X211945Y3700D01*
Y3689D01*
X211967Y3673D01*
X211972Y3667D01*
X211978D01*
X212017Y3661D01*
X212028Y3656D01*
X212033D01*
X212067Y3650D01*
X212172D01*
X212205Y3656D01*
X212228D01*
X212255Y3661D01*
X212272D01*
X212283Y3667D01*
X212289D01*
X212316Y3684D01*
X212322Y3689D01*
X212333Y3711D01*
Y3717D01*
Y3723D01*
Y5038D01*
Y5121D01*
X212327Y5199D01*
X212322Y5265D01*
X212311Y5321D01*
X212305Y5371D01*
X212294Y5404D01*
X212289Y5426D01*
Y5432D01*
X212272Y5493D01*
X212250Y5548D01*
X212228Y5598D01*
X212205Y5637D01*
X212189Y5671D01*
X212172Y5698D01*
X212161Y5715D01*
X212155Y5720D01*
X212122Y5765D01*
X212083Y5804D01*
X212039Y5837D01*
X212005Y5865D01*
X211967Y5887D01*
X211945Y5904D01*
X211922Y5909D01*
X211917Y5915D01*
X211861Y5943D01*
X211800Y5959D01*
X211739Y5976D01*
X211684Y5981D01*
X211634Y5987D01*
X211595Y5993D01*
D02*
G37*
G36*
X209608Y5959D02*
X209469D01*
X209447Y5954D01*
X209441D01*
X209419Y5948D01*
X209403Y5943D01*
X209391Y5937D01*
X209386D01*
X209364Y5920D01*
X209353Y5915D01*
Y5909D01*
X209347Y5893D01*
Y5887D01*
Y5881D01*
Y3723D01*
X209353Y3700D01*
Y3689D01*
X209375Y3673D01*
X209380Y3667D01*
X209386D01*
X209425Y3661D01*
X209436Y3656D01*
X209441D01*
X209475Y3650D01*
X209580D01*
X209613Y3656D01*
X209636D01*
X209663Y3661D01*
X209680D01*
X209691Y3667D01*
X209697D01*
X209724Y3684D01*
X209730Y3689D01*
X209741Y3711D01*
Y3717D01*
Y3723D01*
Y5881D01*
X209736Y5904D01*
X209730Y5909D01*
X209708Y5931D01*
X209702Y5937D01*
X209697D01*
X209680Y5943D01*
X209658Y5948D01*
X209641Y5954D01*
X209636D01*
X209608Y5959D01*
D02*
G37*
G36*
X200262Y5993D02*
X200140D01*
X200073Y5981D01*
X200012Y5976D01*
X199962Y5965D01*
X199918Y5954D01*
X199890Y5948D01*
X199868Y5937D01*
X199862D01*
X199762Y5893D01*
X199723Y5870D01*
X199685Y5848D01*
X199657Y5832D01*
X199635Y5815D01*
X199624Y5804D01*
X199618Y5798D01*
X199557Y5732D01*
X199513Y5665D01*
X199496Y5637D01*
X199485Y5615D01*
X199474Y5598D01*
Y5593D01*
X199446Y5504D01*
X199435Y5426D01*
X199429Y5393D01*
Y5371D01*
Y5354D01*
Y5349D01*
X199435Y5249D01*
X199446Y5204D01*
X199451Y5171D01*
X199462Y5138D01*
X199468Y5116D01*
X199474Y5105D01*
Y5099D01*
X199513Y5027D01*
X199551Y4971D01*
X199568Y4949D01*
X199585Y4938D01*
X199590Y4927D01*
X199596Y4921D01*
X199657Y4871D01*
X199712Y4832D01*
X199734Y4821D01*
X199751Y4810D01*
X199762Y4799D01*
X199768D01*
X199840Y4766D01*
X199907Y4733D01*
X199929Y4721D01*
X199951Y4710D01*
X199962Y4705D01*
X199968D01*
X200045Y4677D01*
X200106Y4649D01*
X200134Y4644D01*
X200151Y4633D01*
X200162Y4627D01*
X200167D01*
X200234Y4599D01*
X200290Y4572D01*
X200312Y4561D01*
X200328Y4555D01*
X200334Y4544D01*
X200339D01*
X200389Y4511D01*
X200428Y4472D01*
X200456Y4444D01*
X200462Y4439D01*
Y4433D01*
X200489Y4383D01*
X200506Y4333D01*
X200512Y4316D01*
Y4300D01*
Y4289D01*
Y4283D01*
X200506Y4222D01*
X200495Y4172D01*
X200484Y4139D01*
X200478Y4133D01*
Y4128D01*
X200450Y4083D01*
X200417Y4050D01*
X200395Y4022D01*
X200389Y4017D01*
X200384D01*
X200334Y3989D01*
X200290Y3972D01*
X200256Y3961D01*
X200245Y3956D01*
X200239D01*
X200179Y3945D01*
X200123Y3939D01*
X200062D01*
X199968Y3945D01*
X199923Y3950D01*
X199890Y3956D01*
X199857D01*
X199834Y3961D01*
X199823Y3967D01*
X199818D01*
X199746Y3994D01*
X199690Y4017D01*
X199668Y4028D01*
X199657Y4033D01*
X199646Y4039D01*
X199640D01*
X199590Y4067D01*
X199551Y4089D01*
X199524Y4106D01*
X199513Y4111D01*
X199479Y4133D01*
X199457Y4139D01*
X199446Y4144D01*
X199440D01*
X199418Y4139D01*
X199413Y4133D01*
X199407D01*
X199401Y4128D01*
X199390Y4117D01*
X199385Y4111D01*
Y4106D01*
X199379Y4089D01*
Y4072D01*
X199374Y4061D01*
Y4056D01*
Y4028D01*
Y4006D01*
Y3983D01*
Y3978D01*
Y3928D01*
X199379Y3895D01*
X199385Y3867D01*
Y3861D01*
X199396Y3833D01*
X199407Y3811D01*
X199413Y3800D01*
X199418Y3795D01*
X199440Y3778D01*
X199468Y3761D01*
X199490Y3745D01*
X199501Y3739D01*
X199551Y3717D01*
X199596Y3700D01*
X199635Y3689D01*
X199640Y3684D01*
X199646D01*
X199712Y3667D01*
X199768Y3656D01*
X199795Y3650D01*
X199812D01*
X199823Y3645D01*
X199829D01*
X199907Y3634D01*
X199979Y3628D01*
X200006Y3623D01*
X200117D01*
X200184Y3628D01*
X200245Y3639D01*
X200295Y3645D01*
X200334Y3656D01*
X200367Y3661D01*
X200389Y3667D01*
X200395D01*
X200450Y3684D01*
X200500Y3706D01*
X200550Y3728D01*
X200589Y3750D01*
X200617Y3773D01*
X200639Y3784D01*
X200656Y3795D01*
X200661Y3800D01*
X200733Y3872D01*
X200789Y3945D01*
X200806Y3972D01*
X200822Y3994D01*
X200833Y4011D01*
Y4017D01*
X200856Y4067D01*
X200872Y4117D01*
X200883Y4166D01*
X200894Y4211D01*
Y4250D01*
X200900Y4283D01*
Y4305D01*
Y4311D01*
X200894Y4405D01*
X200883Y4450D01*
X200878Y4483D01*
X200867Y4511D01*
X200856Y4533D01*
X200850Y4544D01*
Y4549D01*
X200811Y4622D01*
X200772Y4677D01*
X200756Y4694D01*
X200739Y4710D01*
X200733Y4716D01*
X200728Y4721D01*
X200667Y4772D01*
X200611Y4810D01*
X200584Y4821D01*
X200567Y4832D01*
X200556Y4844D01*
X200550D01*
X200478Y4882D01*
X200412Y4910D01*
X200389Y4921D01*
X200367Y4932D01*
X200356Y4938D01*
X200350D01*
X200278Y4966D01*
X200212Y4993D01*
X200190Y4999D01*
X200167Y5010D01*
X200156Y5016D01*
X200151D01*
X200079Y5043D01*
X200023Y5071D01*
X200001Y5082D01*
X199990Y5093D01*
X199979Y5099D01*
X199973D01*
X199923Y5138D01*
X199884Y5171D01*
X199862Y5199D01*
X199851Y5210D01*
X199823Y5265D01*
X199812Y5315D01*
X199807Y5338D01*
Y5354D01*
Y5365D01*
Y5371D01*
X199812Y5421D01*
X199818Y5460D01*
X199823Y5482D01*
X199829Y5493D01*
X199851Y5532D01*
X199873Y5565D01*
X199895Y5587D01*
X199901Y5593D01*
X199940Y5621D01*
X199984Y5643D01*
X200017Y5654D01*
X200023Y5660D01*
X200029D01*
X200090Y5676D01*
X200145Y5682D01*
X200173Y5687D01*
X200206D01*
X200284Y5682D01*
X200350Y5676D01*
X200373Y5671D01*
X200389Y5665D01*
X200400Y5660D01*
X200406D01*
X200467Y5637D01*
X200517Y5621D01*
X200545Y5604D01*
X200556Y5598D01*
X200600Y5576D01*
X200634Y5560D01*
X200656Y5548D01*
X200661Y5543D01*
X200689Y5532D01*
X200706Y5526D01*
X200717Y5521D01*
X200722D01*
X200745Y5526D01*
X200750D01*
X200761Y5543D01*
X200767Y5554D01*
X200778Y5582D01*
X200783Y5593D01*
Y5598D01*
X200789Y5626D01*
Y5648D01*
Y5671D01*
Y5676D01*
Y5698D01*
Y5720D01*
X200783Y5732D01*
Y5737D01*
X200778Y5771D01*
X200772Y5776D01*
Y5782D01*
X200767Y5804D01*
X200761Y5815D01*
X200756Y5826D01*
X200745Y5837D01*
X200733Y5848D01*
X200728D01*
X200706Y5865D01*
X200683Y5876D01*
X200667Y5887D01*
X200656Y5893D01*
X200617Y5909D01*
X200578Y5926D01*
X200545Y5931D01*
X200539Y5937D01*
X200534D01*
X200484Y5954D01*
X200434Y5965D01*
X200412Y5970D01*
X200395Y5976D01*
X200378D01*
X200317Y5987D01*
X200262Y5993D01*
D02*
G37*
G36*
X198036D02*
X197992D01*
X197903Y5987D01*
X197825Y5981D01*
X197748Y5965D01*
X197687Y5954D01*
X197631Y5937D01*
X197592Y5920D01*
X197570Y5915D01*
X197559Y5909D01*
X197492Y5876D01*
X197426Y5837D01*
X197370Y5798D01*
X197326Y5759D01*
X197287Y5726D01*
X197254Y5698D01*
X197237Y5676D01*
X197231Y5671D01*
X197187Y5610D01*
X197143Y5548D01*
X197109Y5482D01*
X197082Y5426D01*
X197054Y5371D01*
X197037Y5332D01*
X197032Y5304D01*
X197026Y5293D01*
X197004Y5210D01*
X196987Y5121D01*
X196976Y5038D01*
X196971Y4960D01*
X196965Y4894D01*
X196959Y4838D01*
Y4805D01*
Y4799D01*
Y4794D01*
X196965Y4688D01*
X196971Y4588D01*
X196982Y4499D01*
X196993Y4427D01*
X197004Y4361D01*
X197015Y4316D01*
X197026Y4289D01*
Y4278D01*
X197054Y4200D01*
X197087Y4128D01*
X197120Y4067D01*
X197154Y4011D01*
X197187Y3972D01*
X197209Y3939D01*
X197226Y3917D01*
X197231Y3911D01*
X197287Y3861D01*
X197342Y3817D01*
X197398Y3778D01*
X197453Y3750D01*
X197498Y3728D01*
X197537Y3706D01*
X197559Y3700D01*
X197570Y3695D01*
X197648Y3673D01*
X197725Y3656D01*
X197803Y3639D01*
X197881Y3634D01*
X197942Y3628D01*
X197992Y3623D01*
X198036D01*
X198147Y3628D01*
X198197D01*
X198241Y3634D01*
X198275Y3639D01*
X198303D01*
X198319Y3645D01*
X198325D01*
X198419Y3661D01*
X198463Y3673D01*
X198497Y3678D01*
X198525Y3684D01*
X198547Y3689D01*
X198558Y3695D01*
X198563D01*
X198636Y3717D01*
X198691Y3734D01*
X198708Y3739D01*
X198724Y3745D01*
X198730Y3750D01*
X198735D01*
X198774Y3773D01*
X198802Y3784D01*
X198813Y3795D01*
X198824Y3811D01*
X198830Y3817D01*
X198841Y3839D01*
X198846Y3850D01*
X198852Y3884D01*
Y3889D01*
Y3895D01*
X198858Y3933D01*
Y3945D01*
Y3950D01*
Y3978D01*
Y4006D01*
X198852Y4017D01*
Y4022D01*
X198846Y4056D01*
X198841Y4061D01*
Y4067D01*
X198830Y4089D01*
X198824Y4094D01*
X198819D01*
X198802Y4106D01*
X198791D01*
X198763Y4100D01*
X198735Y4094D01*
X198713Y4083D01*
X198708Y4078D01*
X198702D01*
X198658Y4061D01*
X198608Y4044D01*
X198574Y4028D01*
X198563Y4022D01*
X198558D01*
X198486Y4000D01*
X198419Y3983D01*
X198391Y3978D01*
X198369Y3972D01*
X198353Y3967D01*
X198347D01*
X198258Y3956D01*
X198169Y3950D01*
X198131Y3945D01*
X198003D01*
X197942Y3950D01*
X197886Y3961D01*
X197836Y3972D01*
X197798Y3978D01*
X197764Y3989D01*
X197748Y3994D01*
X197742D01*
X197653Y4044D01*
X197614Y4067D01*
X197587Y4094D01*
X197559Y4117D01*
X197542Y4133D01*
X197531Y4144D01*
X197526Y4150D01*
X197470Y4233D01*
X197431Y4316D01*
X197420Y4350D01*
X197409Y4377D01*
X197404Y4394D01*
Y4400D01*
X197387Y4511D01*
X197376Y4566D01*
Y4616D01*
X197370Y4660D01*
Y4694D01*
Y4721D01*
Y4727D01*
X198791D01*
X198835Y4733D01*
X198869Y4749D01*
X198891Y4760D01*
X198896Y4766D01*
X198924Y4805D01*
X198941Y4849D01*
X198946Y4882D01*
Y4894D01*
Y4899D01*
Y4971D01*
Y5049D01*
X198935Y5121D01*
X198930Y5188D01*
X198919Y5249D01*
X198907Y5299D01*
X198902Y5332D01*
X198891Y5360D01*
Y5365D01*
X198869Y5432D01*
X198841Y5493D01*
X198813Y5548D01*
X198785Y5593D01*
X198758Y5632D01*
X198735Y5665D01*
X198724Y5682D01*
X198719Y5687D01*
X198674Y5737D01*
X198625Y5782D01*
X198574Y5820D01*
X198530Y5848D01*
X198491Y5876D01*
X198458Y5893D01*
X198430Y5904D01*
X198425Y5909D01*
X198353Y5937D01*
X198280Y5959D01*
X198208Y5970D01*
X198142Y5981D01*
X198081Y5987D01*
X198036Y5993D01*
D02*
G37*
G36*
X207749D02*
X207704D01*
X207604Y5987D01*
X207510Y5981D01*
X207432Y5965D01*
X207360Y5948D01*
X207299Y5931D01*
X207260Y5920D01*
X207232Y5909D01*
X207221Y5904D01*
X207149Y5870D01*
X207083Y5826D01*
X207022Y5787D01*
X206972Y5748D01*
X206933Y5709D01*
X206905Y5682D01*
X206883Y5660D01*
X206877Y5654D01*
X206827Y5593D01*
X206788Y5526D01*
X206750Y5460D01*
X206722Y5404D01*
X206700Y5349D01*
X206683Y5310D01*
X206678Y5282D01*
X206672Y5271D01*
X206650Y5188D01*
X206633Y5099D01*
X206622Y5021D01*
X206616Y4944D01*
X206611Y4877D01*
X206605Y4827D01*
Y4794D01*
Y4788D01*
Y4783D01*
X206611Y4683D01*
X206616Y4594D01*
X206628Y4511D01*
X206639Y4439D01*
X206650Y4377D01*
X206655Y4333D01*
X206666Y4305D01*
Y4294D01*
X206694Y4216D01*
X206728Y4144D01*
X206755Y4083D01*
X206788Y4028D01*
X206816Y3989D01*
X206838Y3956D01*
X206855Y3933D01*
X206861Y3928D01*
X206916Y3878D01*
X206972Y3828D01*
X207027Y3789D01*
X207077Y3756D01*
X207121Y3734D01*
X207160Y3717D01*
X207183Y3706D01*
X207194Y3700D01*
X207271Y3673D01*
X207349Y3656D01*
X207427Y3639D01*
X207505Y3634D01*
X207565Y3628D01*
X207615Y3623D01*
X207660D01*
X207760Y3628D01*
X207849Y3639D01*
X207932Y3650D01*
X207998Y3667D01*
X208060Y3684D01*
X208098Y3700D01*
X208126Y3706D01*
X208137Y3711D01*
X208215Y3750D01*
X208281Y3789D01*
X208337Y3828D01*
X208387Y3872D01*
X208426Y3906D01*
X208459Y3933D01*
X208476Y3956D01*
X208481Y3961D01*
X208531Y4022D01*
X208576Y4089D01*
X208609Y4155D01*
X208637Y4211D01*
X208664Y4266D01*
X208681Y4305D01*
X208687Y4333D01*
X208692Y4344D01*
X208714Y4427D01*
X208737Y4516D01*
X208748Y4594D01*
X208753Y4672D01*
X208759Y4733D01*
X208764Y4783D01*
Y4816D01*
Y4821D01*
Y4827D01*
Y4927D01*
X208753Y5016D01*
X208742Y5099D01*
X208731Y5171D01*
X208720Y5232D01*
X208709Y5277D01*
X208703Y5304D01*
X208698Y5315D01*
X208670Y5393D01*
X208637Y5465D01*
X208603Y5526D01*
X208576Y5582D01*
X208542Y5621D01*
X208520Y5654D01*
X208504Y5676D01*
X208498Y5682D01*
X208448Y5737D01*
X208393Y5782D01*
X208337Y5820D01*
X208281Y5854D01*
X208237Y5876D01*
X208198Y5893D01*
X208176Y5904D01*
X208165Y5909D01*
X208087Y5937D01*
X208010Y5959D01*
X207932Y5970D01*
X207860Y5981D01*
X207799Y5987D01*
X207749Y5993D01*
D02*
G37*
G36*
X209586Y6853D02*
X209491D01*
X209453Y6842D01*
X209419Y6836D01*
X209391Y6825D01*
X209369Y6814D01*
X209358Y6808D01*
X209347Y6797D01*
X209330Y6775D01*
X209319Y6747D01*
X209303Y6686D01*
Y6653D01*
X209297Y6631D01*
Y6614D01*
Y6609D01*
Y6559D01*
X209303Y6520D01*
X209314Y6486D01*
X209325Y6464D01*
X209330Y6442D01*
X209342Y6431D01*
X209347Y6420D01*
X209369Y6403D01*
X209397Y6392D01*
X209458Y6381D01*
X209491Y6375D01*
X209586D01*
X209625Y6381D01*
X209663Y6392D01*
X209686Y6403D01*
X209708Y6409D01*
X209719Y6420D01*
X209730Y6425D01*
X209747Y6448D01*
X209763Y6475D01*
X209780Y6536D01*
X209786Y6570D01*
Y6592D01*
Y6609D01*
Y6614D01*
Y6664D01*
X209774Y6703D01*
X209769Y6736D01*
X209758Y6758D01*
X209747Y6781D01*
X209741Y6792D01*
X209730Y6803D01*
X209708Y6819D01*
X209680Y6831D01*
X209619Y6847D01*
X209586Y6853D01*
D02*
G37*
%LPD*%
G36*
X205135Y6425D02*
X205207Y6420D01*
X205235Y6414D01*
X205257D01*
X205268Y6409D01*
X205273D01*
X205357Y6392D01*
X205423Y6364D01*
X205451Y6353D01*
X205473Y6342D01*
X205484Y6337D01*
X205490Y6331D01*
X205529Y6303D01*
X205562Y6276D01*
X205617Y6214D01*
X205640Y6187D01*
X205656Y6165D01*
X205662Y6148D01*
X205667Y6142D01*
X205690Y6092D01*
X205712Y6037D01*
X205723Y5987D01*
X205729Y5937D01*
X205734Y5893D01*
X205740Y5859D01*
Y5837D01*
Y5826D01*
X205734Y5726D01*
X205729Y5682D01*
X205717Y5643D01*
X205712Y5610D01*
X205701Y5587D01*
X205695Y5571D01*
Y5565D01*
X205656Y5482D01*
X205612Y5421D01*
X205595Y5393D01*
X205579Y5376D01*
X205568Y5365D01*
X205562Y5360D01*
X205495Y5304D01*
X205429Y5260D01*
X205401Y5249D01*
X205379Y5238D01*
X205362Y5227D01*
X205357D01*
X205307Y5210D01*
X205257Y5199D01*
X205207Y5193D01*
X205157Y5188D01*
X205112Y5182D01*
X204674D01*
Y6431D01*
X205057D01*
X205135Y6425D01*
D02*
G37*
G36*
X198075Y5676D02*
X198164Y5654D01*
X198236Y5626D01*
X198297Y5593D01*
X198341Y5560D01*
X198375Y5532D01*
X198397Y5510D01*
X198403Y5504D01*
X198452Y5432D01*
X198486Y5354D01*
X198513Y5271D01*
X198530Y5193D01*
X198541Y5121D01*
X198547Y5066D01*
Y5043D01*
Y5032D01*
Y5021D01*
Y5016D01*
X197370D01*
X197376Y5110D01*
X197381Y5149D01*
X197392Y5188D01*
X197398Y5221D01*
X197404Y5243D01*
X197409Y5260D01*
Y5265D01*
X197448Y5349D01*
X197465Y5387D01*
X197487Y5415D01*
X197498Y5443D01*
X197514Y5460D01*
X197520Y5471D01*
X197526Y5476D01*
X197587Y5537D01*
X197648Y5587D01*
X197675Y5604D01*
X197698Y5615D01*
X197709Y5626D01*
X197714D01*
X197803Y5660D01*
X197886Y5676D01*
X197920Y5682D01*
X197975D01*
X198075Y5676D01*
D02*
G37*
G36*
X207760Y5654D02*
X207821Y5648D01*
X207876Y5637D01*
X207921Y5626D01*
X207960Y5610D01*
X207987Y5598D01*
X208004Y5593D01*
X208010Y5587D01*
X208054Y5560D01*
X208093Y5532D01*
X208132Y5499D01*
X208159Y5471D01*
X208182Y5443D01*
X208198Y5426D01*
X208204Y5410D01*
X208209Y5404D01*
X208259Y5315D01*
X208293Y5227D01*
X208304Y5188D01*
X208315Y5160D01*
X208320Y5138D01*
Y5132D01*
X208343Y5016D01*
X208348Y4960D01*
Y4910D01*
X208354Y4866D01*
Y4827D01*
Y4805D01*
Y4799D01*
X208348Y4666D01*
X208343Y4611D01*
X208337Y4561D01*
X208326Y4516D01*
X208320Y4483D01*
X208315Y4461D01*
Y4455D01*
X208298Y4400D01*
X208281Y4350D01*
X208259Y4305D01*
X208237Y4266D01*
X208220Y4233D01*
X208204Y4211D01*
X208198Y4194D01*
X208193Y4189D01*
X208126Y4117D01*
X208054Y4061D01*
X208026Y4044D01*
X208004Y4028D01*
X207987Y4022D01*
X207982Y4017D01*
X207932Y3994D01*
X207882Y3983D01*
X207832Y3972D01*
X207782Y3961D01*
X207738D01*
X207704Y3956D01*
X207677D01*
X207610Y3961D01*
X207549Y3967D01*
X207493Y3978D01*
X207449Y3989D01*
X207410Y4000D01*
X207382Y4011D01*
X207366Y4022D01*
X207360D01*
X207277Y4078D01*
X207238Y4111D01*
X207210Y4139D01*
X207188Y4166D01*
X207172Y4189D01*
X207160Y4200D01*
X207155Y4205D01*
X207105Y4300D01*
X207072Y4383D01*
X207061Y4422D01*
X207049Y4450D01*
X207044Y4472D01*
Y4477D01*
X207027Y4594D01*
X207022Y4649D01*
Y4705D01*
X207016Y4744D01*
Y4783D01*
Y4805D01*
Y4810D01*
Y4877D01*
X207022Y4938D01*
X207027Y4999D01*
X207038Y5049D01*
X207044Y5088D01*
X207049Y5121D01*
X207055Y5143D01*
Y5149D01*
X207072Y5204D01*
X207088Y5254D01*
X207110Y5304D01*
X207133Y5343D01*
X207149Y5371D01*
X207166Y5393D01*
X207172Y5410D01*
X207177Y5415D01*
X207244Y5493D01*
X207310Y5548D01*
X207338Y5565D01*
X207360Y5582D01*
X207377Y5593D01*
X207382D01*
X207432Y5615D01*
X207482Y5632D01*
X207538Y5643D01*
X207582Y5654D01*
X207627D01*
X207660Y5660D01*
X207688D01*
X207760Y5654D01*
D02*
G37*
%LPC*%
G36*
X218794Y-1260D02*
X218789D01*
X218256Y-2809D01*
X219338D01*
X218794Y-1260D01*
D02*
G37*
G36*
X65022Y5819D02*
X64911D01*
X64644Y5808D01*
X64388Y5775D01*
X64155Y5731D01*
X63933Y5664D01*
X63722Y5586D01*
X63533Y5497D01*
X63366Y5408D01*
X63211Y5308D01*
X63066Y5208D01*
X62944Y5119D01*
X62844Y5031D01*
X62755Y4953D01*
X62688Y4897D01*
X62644Y4842D01*
X62611Y4808D01*
X62600Y4797D01*
X62455Y4597D01*
X62322Y4397D01*
X62211Y4175D01*
X62111Y3964D01*
X62033Y3742D01*
X61966Y3520D01*
X61911Y3309D01*
X61866Y3109D01*
X61822Y2920D01*
X61800Y2742D01*
X61778Y2586D01*
X61766Y2453D01*
Y2342D01*
X61755Y2253D01*
Y2209D01*
Y2186D01*
X61766Y1875D01*
X61789Y1575D01*
X61833Y1309D01*
X61889Y1042D01*
X61955Y809D01*
X62033Y587D01*
X62111Y387D01*
X62189Y209D01*
X62266Y42D01*
X62344Y-91D01*
X62422Y-213D01*
X62489Y-313D01*
X62544Y-391D01*
X62589Y-447D01*
X62611Y-480D01*
X62622Y-491D01*
X62788Y-658D01*
X62977Y-802D01*
X63155Y-936D01*
X63344Y-1047D01*
X63544Y-1135D01*
X63733Y-1213D01*
X63911Y-1280D01*
X64088Y-1324D01*
X64255Y-1369D01*
X64411Y-1391D01*
X64544Y-1413D01*
X64666Y-1435D01*
X64766D01*
X64833Y-1446D01*
X64899D01*
X65110Y-1435D01*
X65311Y-1413D01*
X65499Y-1391D01*
X65688Y-1347D01*
X65855Y-1291D01*
X66010Y-1235D01*
X66166Y-1180D01*
X66299Y-1113D01*
X66422Y-1058D01*
X66522Y-1002D01*
X66610Y-947D01*
X66688Y-891D01*
X66755Y-847D01*
X66799Y-824D01*
X66821Y-802D01*
X66833Y-791D01*
X66977Y-658D01*
X67099Y-524D01*
X67210Y-369D01*
X67310Y-213D01*
X67399Y-58D01*
X67477Y109D01*
X67599Y420D01*
X67644Y564D01*
X67688Y698D01*
X67721Y820D01*
X67744Y920D01*
X67755Y1009D01*
X67766Y1075D01*
X67777Y1120D01*
Y1131D01*
X66177Y1231D01*
X66122Y998D01*
X66055Y787D01*
X65977Y609D01*
X65888Y464D01*
X65788Y331D01*
X65677Y220D01*
X65566Y131D01*
X65466Y64D01*
X65355Y9D01*
X65255Y-36D01*
X65166Y-58D01*
X65088Y-80D01*
X65022Y-91D01*
X64966Y-102D01*
X64922D01*
X64699Y-80D01*
X64499Y-24D01*
X64333Y42D01*
X64188Y131D01*
X64077Y220D01*
X63999Y287D01*
X63955Y342D01*
X63933Y364D01*
X63877Y464D01*
X63822Y575D01*
X63777Y709D01*
X63733Y842D01*
X63677Y1142D01*
X63633Y1442D01*
X63622Y1586D01*
X63611Y1720D01*
X63599Y1842D01*
Y1953D01*
X63588Y2042D01*
Y2109D01*
Y2153D01*
Y2164D01*
Y2375D01*
X63599Y2575D01*
X63622Y2753D01*
X63644Y2931D01*
X63677Y3086D01*
X63711Y3231D01*
X63788Y3497D01*
X63888Y3720D01*
X63999Y3909D01*
X64111Y4064D01*
X64233Y4186D01*
X64355Y4286D01*
X64466Y4353D01*
X64577Y4408D01*
X64677Y4442D01*
X64755Y4464D01*
X64822Y4475D01*
X64877D01*
X65077Y4464D01*
X65255Y4408D01*
X65399Y4342D01*
X65533Y4242D01*
X65644Y4131D01*
X65744Y3997D01*
X65821Y3864D01*
X65877Y3731D01*
X65933Y3586D01*
X65966Y3453D01*
X65999Y3320D01*
X66022Y3209D01*
X66033Y3109D01*
X66044Y3042D01*
Y2998D01*
Y2975D01*
X67777Y3075D01*
X67744Y3320D01*
X67688Y3564D01*
X67633Y3775D01*
X67566Y3986D01*
X67477Y4175D01*
X67388Y4353D01*
X67299Y4508D01*
X67188Y4664D01*
X67088Y4797D01*
X66966Y4931D01*
X66733Y5153D01*
X66477Y5331D01*
X66221Y5475D01*
X65977Y5586D01*
X65733Y5675D01*
X65510Y5731D01*
X65311Y5775D01*
X65144Y5797D01*
X65077Y5808D01*
X65022Y5819D01*
D02*
G37*
G36*
X83375Y5853D02*
X81831D01*
Y4308D01*
X83375D01*
Y5853D01*
D02*
G37*
G36*
X97663Y3997D02*
X97585D01*
X97441Y3986D01*
X97307Y3953D01*
X97185Y3897D01*
X97074Y3831D01*
X96974Y3742D01*
X96885Y3653D01*
X96729Y3453D01*
X96618Y3253D01*
X96574Y3164D01*
X96541Y3075D01*
X96507Y3009D01*
X96485Y2953D01*
X96474Y2920D01*
Y3886D01*
X95063D01*
Y-1335D01*
X96552D01*
Y787D01*
X96563Y1009D01*
X96574Y1209D01*
X96596Y1386D01*
X96630Y1520D01*
X96663Y1642D01*
X96685Y1720D01*
X96696Y1775D01*
X96707Y1787D01*
X96774Y1920D01*
X96841Y2031D01*
X96918Y2120D01*
X96985Y2186D01*
X97041Y2242D01*
X97085Y2275D01*
X97118Y2297D01*
X97129Y2309D01*
X97241Y2364D01*
X97363Y2397D01*
X97485Y2431D01*
X97607Y2442D01*
X97707Y2453D01*
X97796Y2464D01*
X97874D01*
Y3975D01*
X97763Y3986D01*
X97663Y3997D01*
D02*
G37*
G36*
X80753D02*
X80676D01*
X80531Y3986D01*
X80398Y3953D01*
X80276Y3897D01*
X80164Y3831D01*
X80064Y3742D01*
X79976Y3653D01*
X79820Y3453D01*
X79709Y3253D01*
X79665Y3164D01*
X79631Y3075D01*
X79598Y3009D01*
X79576Y2953D01*
X79565Y2920D01*
Y3886D01*
X78154D01*
Y-1335D01*
X79642D01*
Y787D01*
X79654Y1009D01*
X79665Y1209D01*
X79687Y1386D01*
X79720Y1520D01*
X79754Y1642D01*
X79776Y1720D01*
X79787Y1775D01*
X79798Y1787D01*
X79865Y1920D01*
X79931Y2031D01*
X80009Y2120D01*
X80076Y2186D01*
X80131Y2242D01*
X80176Y2275D01*
X80209Y2297D01*
X80220Y2309D01*
X80331Y2364D01*
X80453Y2397D01*
X80576Y2431D01*
X80698Y2442D01*
X80798Y2453D01*
X80887Y2464D01*
X80964D01*
Y3975D01*
X80853Y3986D01*
X80753Y3997D01*
D02*
G37*
G36*
X91741Y3986D02*
X91641D01*
X91441Y3975D01*
X91241Y3953D01*
X91052Y3920D01*
X90886Y3864D01*
X90719Y3808D01*
X90563Y3742D01*
X90430Y3675D01*
X90308Y3608D01*
X90197Y3531D01*
X90097Y3464D01*
X90008Y3397D01*
X89941Y3342D01*
X89886Y3286D01*
X89841Y3253D01*
X89819Y3231D01*
X89808Y3220D01*
X89686Y3075D01*
X89575Y2909D01*
X89486Y2753D01*
X89408Y2586D01*
X89341Y2409D01*
X89275Y2242D01*
X89197Y1931D01*
X89164Y1775D01*
X89141Y1642D01*
X89130Y1520D01*
X89119Y1420D01*
X89108Y1331D01*
Y1264D01*
Y1220D01*
Y1209D01*
X89119Y909D01*
X89164Y631D01*
X89219Y387D01*
X89286Y175D01*
X89341Y9D01*
X89375Y-58D01*
X89397Y-113D01*
X89419Y-158D01*
X89441Y-202D01*
X89452Y-213D01*
Y-224D01*
X89597Y-435D01*
X89741Y-624D01*
X89897Y-780D01*
X90041Y-902D01*
X90163Y-1002D01*
X90263Y-1080D01*
X90330Y-1124D01*
X90341Y-1135D01*
X90352D01*
X90575Y-1235D01*
X90797Y-1313D01*
X91019Y-1369D01*
X91230Y-1402D01*
X91408Y-1424D01*
X91486Y-1435D01*
X91552Y-1446D01*
X91686D01*
X92008Y-1424D01*
X92297Y-1369D01*
X92574Y-1280D01*
X92808Y-1169D01*
X93030Y-1024D01*
X93219Y-880D01*
X93397Y-713D01*
X93541Y-547D01*
X93674Y-380D01*
X93785Y-213D01*
X93874Y-69D01*
X93941Y75D01*
X93997Y187D01*
X94030Y276D01*
X94052Y331D01*
X94063Y353D01*
X92663Y464D01*
X92630Y320D01*
X92574Y198D01*
X92519Y87D01*
X92452Y-13D01*
X92374Y-91D01*
X92297Y-158D01*
X92219Y-213D01*
X92141Y-258D01*
X91986Y-313D01*
X91852Y-347D01*
X91808D01*
X91763Y-358D01*
X91730D01*
X91586Y-347D01*
X91441Y-313D01*
X91330Y-269D01*
X91219Y-213D01*
X91141Y-169D01*
X91075Y-124D01*
X91030Y-91D01*
X91019Y-80D01*
X90919Y42D01*
X90852Y175D01*
X90797Y320D01*
X90763Y453D01*
X90741Y575D01*
X90730Y675D01*
Y742D01*
Y753D01*
Y764D01*
Y842D01*
Y920D01*
Y987D01*
Y998D01*
Y1009D01*
X94096D01*
X94085Y1287D01*
X94063Y1553D01*
X94030Y1798D01*
X93985Y2020D01*
X93930Y2220D01*
X93863Y2409D01*
X93808Y2575D01*
X93741Y2731D01*
X93663Y2853D01*
X93608Y2964D01*
X93541Y3064D01*
X93485Y3142D01*
X93441Y3197D01*
X93408Y3242D01*
X93385Y3264D01*
X93374Y3275D01*
X93241Y3397D01*
X93097Y3509D01*
X92941Y3608D01*
X92797Y3686D01*
X92652Y3753D01*
X92508Y3808D01*
X92241Y3897D01*
X92108Y3931D01*
X91997Y3953D01*
X91897Y3964D01*
X91808Y3975D01*
X91741Y3986D01*
D02*
G37*
G36*
X73743Y5719D02*
X71377D01*
Y-1335D01*
X73799D01*
X74087Y-1324D01*
X74354Y-1291D01*
X74610Y-1247D01*
X74843Y-1180D01*
X75065Y-1102D01*
X75265Y-1013D01*
X75443Y-924D01*
X75609Y-824D01*
X75765Y-735D01*
X75887Y-647D01*
X75998Y-558D01*
X76087Y-480D01*
X76165Y-413D01*
X76209Y-369D01*
X76243Y-335D01*
X76254Y-324D01*
X76409Y-124D01*
X76554Y75D01*
X76676Y287D01*
X76776Y498D01*
X76865Y709D01*
X76932Y920D01*
X76998Y1131D01*
X77043Y1320D01*
X77076Y1509D01*
X77109Y1675D01*
X77131Y1820D01*
X77143Y1953D01*
Y2064D01*
X77154Y2142D01*
Y2186D01*
Y2209D01*
Y2431D01*
X77131Y2642D01*
X77109Y2842D01*
X77076Y3031D01*
X77031Y3197D01*
X76987Y3364D01*
X76943Y3520D01*
X76898Y3653D01*
X76854Y3775D01*
X76809Y3886D01*
X76765Y3975D01*
X76720Y4053D01*
X76687Y4120D01*
X76665Y4164D01*
X76654Y4186D01*
X76643Y4197D01*
X76443Y4475D01*
X76243Y4708D01*
X76054Y4908D01*
X75876Y5075D01*
X75721Y5197D01*
X75598Y5286D01*
X75554Y5319D01*
X75521Y5331D01*
X75498Y5353D01*
X75487D01*
X75354Y5419D01*
X75221Y5475D01*
X74910Y5564D01*
X74587Y5630D01*
X74265Y5675D01*
X74110Y5686D01*
X73976Y5697D01*
X73843Y5708D01*
X73743Y5719D01*
D02*
G37*
G36*
X54489D02*
X49479D01*
Y-1335D01*
X51190D01*
Y1420D01*
X53800D01*
Y2742D01*
X51190D01*
Y4320D01*
X54489D01*
Y5719D01*
D02*
G37*
G36*
X58100Y5819D02*
X58033D01*
X57767Y5808D01*
X57522Y5775D01*
X57289Y5719D01*
X57067Y5664D01*
X56867Y5575D01*
X56689Y5497D01*
X56511Y5397D01*
X56367Y5308D01*
X56234Y5208D01*
X56111Y5108D01*
X56011Y5031D01*
X55934Y4953D01*
X55867Y4886D01*
X55822Y4831D01*
X55800Y4797D01*
X55789Y4786D01*
X55656Y4586D01*
X55534Y4375D01*
X55423Y4164D01*
X55334Y3953D01*
X55256Y3731D01*
X55189Y3520D01*
X55145Y3309D01*
X55100Y3109D01*
X55067Y2920D01*
X55045Y2753D01*
X55023Y2598D01*
X55011Y2464D01*
X55000Y2353D01*
Y2275D01*
Y2231D01*
Y2209D01*
X55011Y1931D01*
X55034Y1664D01*
X55067Y1409D01*
X55123Y1164D01*
X55178Y931D01*
X55245Y720D01*
X55323Y520D01*
X55389Y342D01*
X55467Y187D01*
X55534Y42D01*
X55600Y-91D01*
X55656Y-191D01*
X55711Y-269D01*
X55745Y-335D01*
X55767Y-369D01*
X55778Y-380D01*
X55934Y-569D01*
X56100Y-735D01*
X56267Y-869D01*
X56456Y-991D01*
X56634Y-1102D01*
X56811Y-1191D01*
X57000Y-1258D01*
X57167Y-1313D01*
X57333Y-1358D01*
X57489Y-1391D01*
X57622Y-1413D01*
X57745Y-1424D01*
X57845Y-1435D01*
X57911Y-1446D01*
X57978D01*
X58245Y-1435D01*
X58500Y-1402D01*
X58745Y-1347D01*
X58956Y-1280D01*
X59167Y-1202D01*
X59344Y-1113D01*
X59522Y-1024D01*
X59667Y-924D01*
X59800Y-824D01*
X59922Y-735D01*
X60022Y-647D01*
X60100Y-569D01*
X60167Y-502D01*
X60211Y-447D01*
X60233Y-413D01*
X60244Y-402D01*
X60378Y-202D01*
X60500Y9D01*
X60600Y231D01*
X60700Y453D01*
X60767Y664D01*
X60833Y887D01*
X60889Y1087D01*
X60922Y1287D01*
X60955Y1475D01*
X60978Y1642D01*
X61000Y1798D01*
X61011Y1931D01*
X61022Y2042D01*
Y2120D01*
Y2164D01*
Y2186D01*
X61011Y2453D01*
X60989Y2709D01*
X60955Y2953D01*
X60900Y3186D01*
X60844Y3397D01*
X60789Y3608D01*
X60711Y3808D01*
X60644Y3986D01*
X60578Y4142D01*
X60511Y4286D01*
X60444Y4408D01*
X60389Y4519D01*
X60333Y4597D01*
X60300Y4664D01*
X60278Y4697D01*
X60267Y4708D01*
X60122Y4908D01*
X59955Y5075D01*
X59778Y5220D01*
X59600Y5353D01*
X59411Y5464D01*
X59233Y5553D01*
X59044Y5619D01*
X58867Y5686D01*
X58700Y5731D01*
X58544Y5764D01*
X58400Y5786D01*
X58278Y5797D01*
X58178Y5808D01*
X58100Y5819D01*
D02*
G37*
G36*
X88741Y3886D02*
X87608D01*
X86564Y575D01*
X85553Y3886D01*
X83964D01*
X85742Y-1335D01*
X86953D01*
X88741Y3886D01*
D02*
G37*
G36*
X83375D02*
X81831D01*
Y-1335D01*
X83375D01*
Y3886D01*
D02*
G37*
%LPD*%
G36*
X91841Y2964D02*
X91963Y2931D01*
X92086Y2875D01*
X92175Y2809D01*
X92263Y2731D01*
X92330Y2631D01*
X92397Y2542D01*
X92441Y2442D01*
X92519Y2242D01*
X92541Y2153D01*
X92563Y2064D01*
X92574Y1998D01*
X92585Y1942D01*
Y1909D01*
Y1898D01*
X90730D01*
X90752Y2086D01*
X90797Y2253D01*
X90852Y2397D01*
X90919Y2520D01*
X90997Y2631D01*
X91086Y2709D01*
X91163Y2786D01*
X91252Y2842D01*
X91341Y2886D01*
X91419Y2920D01*
X91563Y2964D01*
X91619D01*
X91663Y2975D01*
X91697D01*
X91841Y2964D01*
D02*
G37*
G36*
X73876Y4408D02*
X74043Y4386D01*
X74199Y4353D01*
X74332Y4308D01*
X74432Y4264D01*
X74510Y4231D01*
X74565Y4208D01*
X74576Y4197D01*
X74709Y4097D01*
X74832Y3986D01*
X74943Y3853D01*
X75032Y3731D01*
X75098Y3620D01*
X75154Y3520D01*
X75187Y3453D01*
X75198Y3442D01*
Y3431D01*
X75287Y3220D01*
X75343Y3020D01*
X75387Y2820D01*
X75421Y2631D01*
X75443Y2475D01*
X75454Y2353D01*
Y2309D01*
Y2275D01*
Y2253D01*
Y2242D01*
X75432Y1909D01*
X75387Y1609D01*
X75309Y1342D01*
X75232Y1109D01*
X75187Y1009D01*
X75154Y920D01*
X75109Y842D01*
X75076Y776D01*
X75054Y720D01*
X75032Y687D01*
X75010Y664D01*
Y653D01*
X74921Y531D01*
X74832Y431D01*
X74721Y342D01*
X74621Y264D01*
X74510Y209D01*
X74398Y153D01*
X74176Y75D01*
X73987Y20D01*
X73899Y9D01*
X73821Y-2D01*
X73765Y-13D01*
X72999D01*
Y4420D01*
X73687D01*
X73876Y4408D01*
D02*
G37*
G36*
X58133Y4464D02*
X58245Y4453D01*
X58345Y4420D01*
X58444Y4375D01*
X58611Y4264D01*
X58756Y4120D01*
X58878Y3942D01*
X58978Y3753D01*
X59067Y3542D01*
X59133Y3331D01*
X59178Y3109D01*
X59222Y2909D01*
X59255Y2709D01*
X59267Y2531D01*
X59278Y2386D01*
X59289Y2275D01*
Y2231D01*
Y2198D01*
Y2186D01*
Y2175D01*
Y1964D01*
X59278Y1775D01*
X59255Y1598D01*
X59233Y1420D01*
X59211Y1264D01*
X59178Y1120D01*
X59089Y864D01*
X59000Y642D01*
X58889Y453D01*
X58778Y309D01*
X58656Y187D01*
X58533Y87D01*
X58422Y20D01*
X58311Y-36D01*
X58222Y-69D01*
X58144Y-91D01*
X58078Y-102D01*
X58022D01*
X57900Y-91D01*
X57800Y-80D01*
X57689Y-47D01*
X57600Y-2D01*
X57422Y109D01*
X57278Y253D01*
X57156Y431D01*
X57045Y620D01*
X56967Y831D01*
X56900Y1042D01*
X56845Y1253D01*
X56800Y1464D01*
X56778Y1653D01*
X56756Y1831D01*
X56745Y1975D01*
X56734Y2086D01*
Y2131D01*
Y2164D01*
Y2175D01*
Y2186D01*
Y2397D01*
X56745Y2586D01*
X56767Y2775D01*
X56789Y2942D01*
X56822Y3097D01*
X56856Y3253D01*
X56933Y3509D01*
X57033Y3731D01*
X57145Y3920D01*
X57256Y4064D01*
X57378Y4186D01*
X57500Y4286D01*
X57611Y4353D01*
X57722Y4408D01*
X57822Y4442D01*
X57900Y4464D01*
X57967Y4475D01*
X58022D01*
X58133Y4464D01*
D02*
G37*
%LPC*%
G36*
X32144Y-10330D02*
X32137Y-10345D01*
X32122Y-10375D01*
X32092Y-10427D01*
X32056Y-10486D01*
X32019Y-10560D01*
X31974Y-10634D01*
X31930Y-10708D01*
X31885Y-10774D01*
X30420Y-13068D01*
X32137D01*
Y-10848D01*
Y-10841D01*
Y-10804D01*
Y-10760D01*
Y-10693D01*
Y-10619D01*
Y-10530D01*
X32144Y-10434D01*
Y-10330D01*
D02*
G37*
%LPD*%
D31*
X235593Y-48484D02*
G03*
X235593Y-54484I0J-3000D01*
G01*
X93361Y-48484D02*
G03*
X93361Y-54484I0J-3000D01*
G01*
X14629Y-164605D02*
G03*
X14629Y-164605I-500J0D01*
G01*
X230024D02*
G03*
X230024Y-164605I-500J0D01*
G01*
X7379Y-8152D02*
X10479D01*
X7379Y-11252D02*
Y-8152D01*
X15879Y-16652D02*
X34279D01*
X7379Y-8152D02*
X15879Y-16652D01*
X235593Y-58085D02*
X235593Y-58084D01*
X235593Y-61884D02*
Y-58085D01*
X235593Y-58084D02*
Y-54484D01*
Y-48484D02*
Y-42184D01*
X184293Y-61884D02*
Y-42184D01*
X184293Y-61884D02*
X235593D01*
X184293Y-42184D02*
X235593D01*
X93361Y-58085D02*
X93361Y-58084D01*
X93361Y-61884D02*
Y-58085D01*
X93361Y-58084D02*
Y-54484D01*
Y-48484D02*
Y-42184D01*
X42061Y-61884D02*
Y-42184D01*
X42061Y-61884D02*
X93361D01*
X42061Y-42184D02*
X93361D01*
X3870Y-68573D02*
X11336D01*
X-10920Y-32573D02*
X-4727D01*
X-10920Y-68573D02*
Y-32573D01*
Y-68573D02*
X-4727D01*
X3870Y-32573D02*
X11336D01*
X16905Y-180420D02*
X36353D01*
X36594Y-162420D02*
X41503D01*
X11629Y-172337D02*
Y-162420D01*
X16664D01*
X41629Y-172106D02*
Y-162420D01*
X232300Y-180420D02*
X251748D01*
X251990Y-162420D02*
X256898D01*
X227024Y-172337D02*
Y-162420D01*
X232059D01*
X257024Y-172106D02*
Y-162420D01*
X266889Y-56800D02*
X268489Y-60800D01*
X266889Y-56800D02*
X270089D01*
X268489Y-60800D02*
X270089Y-56800D01*
X266489Y-60800D02*
X270489D01*
X268489Y-61800D02*
Y-55800D01*
D32*
X255129Y-46020D02*
G03*
X255129Y-46020I-100J0D01*
G01*
D63*
X209877Y-117853D02*
G03*
X209867Y-117853I-5J490D01*
G01*
X244516D02*
G03*
X244506Y-117853I-5J490D01*
G01*
X153950Y-118908D02*
G03*
X153960Y-118908I5J-490D01*
G01*
X188589Y-118890D02*
G03*
X188599Y-118890I5J-490D01*
G01*
X223227D02*
G03*
X223237Y-118890I5J-490D01*
G01*
X50885Y-117853D02*
G03*
X50875Y-117853I-5J490D01*
G01*
X85926D02*
G03*
X85915Y-117853I-5J490D01*
G01*
X120966D02*
G03*
X120956Y-117853I-5J490D01*
G01*
X29597Y-118908D02*
G03*
X29607Y-118908I5J-490D01*
G01*
X64637D02*
G03*
X64647Y-118908I5J-490D01*
G01*
X99677D02*
G03*
X99687Y-118908I5J-490D01*
G01*
X175239Y-117853D02*
G03*
X175229Y-117853I-5J490D01*
G01*
D64*
X127519Y-27130D02*
G03*
X127519Y-27150I-1181J-10D01*
G01*
D65*
X116789Y-22801D02*
G03*
X116789Y-22810I-591J-5D01*
G01*
D66*
X33299Y-27420D02*
Y-26221D01*
X35099Y-27420D02*
Y-26221D01*
X201929Y-78725D02*
Y-77525D01*
X203729Y-78725D02*
Y-77525D01*
X215954Y-78725D02*
Y-77525D01*
X217754Y-78725D02*
Y-77525D01*
X187904Y-78725D02*
Y-77525D01*
X189704Y-78725D02*
Y-77525D01*
X189022Y-27500D02*
Y-26300D01*
X187222Y-27500D02*
Y-26300D01*
X192756Y-27500D02*
Y-26300D01*
X190956Y-27500D02*
Y-26300D01*
X192579Y-78725D02*
Y-77525D01*
X194379Y-78725D02*
Y-77525D01*
X206604Y-78725D02*
Y-77525D01*
X208404Y-78725D02*
Y-77525D01*
X220629Y-78725D02*
Y-77525D01*
X222429Y-78725D02*
Y-77525D01*
X225989Y-27420D02*
Y-26221D01*
X224189Y-27420D02*
Y-26221D01*
X228789Y-27420D02*
Y-26221D01*
X230589Y-27420D02*
Y-26221D01*
X170817Y-89589D02*
X172017D01*
X170817Y-91389D02*
X172017D01*
X234089Y-27420D02*
Y-26221D01*
X232289Y-27420D02*
Y-26221D01*
X241589Y-28100D02*
X242789D01*
X241589Y-29900D02*
X242789D01*
X161629Y-89589D02*
X162829D01*
X161629Y-91389D02*
X162829D01*
X241689Y-22500D02*
X242889D01*
X241689Y-20700D02*
X242889D01*
X60640Y-78725D02*
Y-77525D01*
X62440Y-78725D02*
Y-77525D01*
X73789Y-78725D02*
Y-77525D01*
X75589Y-78725D02*
Y-77525D01*
X46967Y-78725D02*
Y-77525D01*
X48767Y-78725D02*
Y-77525D01*
X47462Y-27420D02*
Y-26221D01*
X45663Y-27420D02*
Y-26221D01*
X51096Y-27420D02*
Y-26221D01*
X49296Y-27420D02*
Y-26221D01*
X52089Y-78725D02*
Y-77525D01*
X53889Y-78725D02*
Y-77525D01*
X65198Y-78725D02*
Y-77525D01*
X66998Y-78725D02*
Y-77525D01*
X78871Y-78725D02*
Y-77525D01*
X80671Y-78725D02*
Y-77525D01*
X84229Y-27489D02*
Y-26289D01*
X82429Y-27489D02*
Y-26289D01*
X104616Y-91389D02*
X105816D01*
X104616Y-89589D02*
X105816D01*
X112729Y-91389D02*
X113929D01*
X112729Y-89589D02*
X113929D01*
X29429Y-27420D02*
Y-26221D01*
X31229Y-27420D02*
Y-26221D01*
X134489Y-10300D02*
X135689D01*
X134489Y-8500D02*
X135689D01*
X133886Y-75689D02*
Y-74489D01*
X132086Y-75689D02*
Y-74489D01*
X107189Y-22900D02*
X108389D01*
X107189Y-21100D02*
X108389D01*
X141183Y-75689D02*
Y-74489D01*
X142983Y-75689D02*
Y-74489D01*
X183029Y-78725D02*
X184729D01*
X183029Y-77525D02*
X184729D01*
X178789Y-78725D02*
X180489D01*
X178789Y-77525D02*
X180489D01*
X183489Y-26300D02*
X185189D01*
X183489Y-27500D02*
X185189D01*
X105389Y-49650D02*
Y-47950D01*
X106589Y-49650D02*
Y-47950D01*
X105389Y-45000D02*
Y-43300D01*
X106589Y-45000D02*
Y-43300D01*
X194789Y-27500D02*
X196489D01*
X194789Y-26300D02*
X196489D01*
X197354Y-78725D02*
X199054D01*
X197354Y-77525D02*
X199054D01*
X208517Y-27420D02*
X210216D01*
X208517Y-26221D02*
X210216D01*
X213216Y-26221D02*
X214916D01*
X213216Y-27420D02*
X214916D01*
X211379Y-78725D02*
X213079D01*
X211379Y-77525D02*
X213079D01*
X225404Y-78725D02*
X227104D01*
X225404Y-77525D02*
X227104D01*
X229889Y-77525D02*
X231589D01*
X229889Y-78725D02*
X231589D01*
X145732Y-74489D02*
X147432D01*
X145732Y-75689D02*
X147432D01*
X242089Y-79000D02*
Y-77300D01*
X243289Y-79000D02*
Y-77300D01*
X243289Y-74800D02*
Y-73100D01*
X242089Y-74800D02*
Y-73100D01*
X241689Y-18900D02*
Y-17200D01*
X242889Y-18900D02*
Y-17200D01*
X242824Y-26200D02*
Y-24500D01*
X241624Y-26200D02*
Y-24500D01*
X42510Y-78725D02*
X44210D01*
X42510Y-77525D02*
X44210D01*
X37952Y-78725D02*
X39652D01*
X37952Y-77525D02*
X39652D01*
X42029Y-26221D02*
X43729D01*
X42029Y-27420D02*
X43729D01*
X105389Y-54300D02*
Y-52600D01*
X106589Y-54300D02*
Y-52600D01*
X105389Y-58950D02*
Y-57250D01*
X106589Y-58950D02*
Y-57250D01*
X53029Y-27420D02*
X54729D01*
X53029Y-26221D02*
X54729D01*
X56183Y-78725D02*
X57883D01*
X56183Y-77525D02*
X57883D01*
X66517Y-27489D02*
X68217D01*
X66517Y-26289D02*
X68217D01*
X71216D02*
X72917D01*
X71216Y-27489D02*
X72917D01*
X69089Y-78800D02*
X70789D01*
X69089Y-77600D02*
X70789D01*
X83529Y-78725D02*
X85229D01*
X83529Y-77525D02*
X85229D01*
X127538Y-74489D02*
X129237D01*
X127538Y-75689D02*
X129237D01*
X150889Y-75700D02*
X152589D01*
X150889Y-74500D02*
X152589D01*
X170317Y-19489D02*
Y-17789D01*
X169116Y-19489D02*
Y-17789D01*
X107189Y-19000D02*
Y-17300D01*
X108389Y-19000D02*
Y-17300D01*
X136735Y-75689D02*
X138435D01*
X136735Y-74489D02*
X138435D01*
X105389Y-63600D02*
Y-61900D01*
X106589Y-63600D02*
Y-61900D01*
X170317Y-23289D02*
Y-21589D01*
X169116Y-23289D02*
Y-21589D01*
X123089Y-75689D02*
X124789D01*
X123089Y-74489D02*
X124789D01*
X154929Y-75689D02*
X156629D01*
X154929Y-74489D02*
X156629D01*
X115389Y-19900D02*
Y-18200D01*
X116589Y-19900D02*
Y-18200D01*
D67*
X103957Y-28290D02*
X109075D01*
X103957Y-40888D02*
X109075D01*
D68*
X122697Y-23388D02*
X156161D01*
X122697Y-56853D02*
Y-23388D01*
Y-56853D02*
X156161D01*
Y-23388D01*
D69*
X261929Y-44021D02*
Y-38021D01*
X255029Y-44021D02*
Y-38021D01*
M02*
