G04 Layer_Color=2752767*
%FSLAX25Y25*%
%MOIN*%
G70*
G01*
G75*
%ADD10C,0.00394*%
%ADD11C,0.00200*%
%ADD12C,0.00267*%
D10*
X102753Y-194580D02*
G03*
X110628Y-186706I0J7874D01*
G01*
X43698D02*
G03*
X51572Y-194580I7874J0D01*
G01*
X267717Y-181134D02*
G03*
X279528Y-169323I0J11811D01*
G01*
Y0D02*
G03*
X267717Y11811I-11811J0D01*
G01*
X-11811Y-169323D02*
G03*
X0Y-181134I11811J0D01*
G01*
Y11811D02*
G03*
X-11811Y0I0J-11811D01*
G01*
X161809Y-186706D02*
G03*
X169683Y-194580I7874J0D01*
G01*
X220864D02*
G03*
X228738Y-186706I0J7874D01*
G01*
X110628Y-181134D02*
X157481D01*
X110628Y-186706D02*
Y-181134D01*
X43698Y-186706D02*
Y-181134D01*
X51572Y-194580D02*
X102753D01*
X157481Y-181135D02*
X161809D01*
X259928Y-181134D02*
X267717D01*
X279528Y-169323D02*
Y0D01*
X0Y11811D02*
X267717D01*
X228738Y-181135D02*
X259927D01*
X0Y-181134D02*
X43698D01*
X-11811Y-169323D02*
Y0D01*
X161809Y-186706D02*
Y-181134D01*
X169683Y-194580D02*
X220864D01*
X228738Y-186706D02*
Y-181134D01*
D11*
X3549Y-133948D02*
Y-132348D01*
X5149D01*
Y-133948D01*
X3549D01*
Y-114263D02*
Y-112663D01*
X5149D01*
Y-114263D01*
X3549D01*
X195273Y-167821D02*
X194473Y-166220D01*
X196073D01*
X195273Y-167821D01*
X181494D02*
X180694Y-166220D01*
X182294D01*
X181494Y-167821D01*
X209053D02*
X208253Y-166220D01*
X209853D01*
X209053Y-167821D01*
X77163D02*
X76363Y-166220D01*
X77963D01*
X77163Y-167821D01*
X63384D02*
X62584Y-166220D01*
X64183D01*
X63384Y-167821D01*
X90943D02*
X90143Y-166220D01*
X91742D01*
X90943Y-167821D01*
X13942Y-39995D02*
X14342Y-39595D01*
X14742D01*
X14342Y-39195D01*
X14742Y-38795D01*
X14342D01*
X13942Y-38395D01*
X13542Y-38795D01*
X13142D01*
X13542Y-39195D01*
X13142Y-39595D01*
X13542D01*
X13942Y-39995D01*
Y-62751D02*
X14342Y-62351D01*
X14742D01*
X14342Y-61951D01*
X14742Y-61551D01*
X14342D01*
X13942Y-61151D01*
X13542Y-61551D01*
X13142D01*
X13542Y-61951D01*
X13142Y-62351D01*
X13542D01*
X13942Y-62751D01*
X-1228Y-34365D02*
X-828Y-33565D01*
X-1228Y-32765D01*
X-428Y-33165D01*
X372Y-32765D01*
X-28Y-33565D01*
X372Y-34365D01*
X-428Y-33965D01*
X-1228Y-34365D01*
Y-68381D02*
X-828Y-67581D01*
X-1228Y-66781D01*
X-428Y-67181D01*
X372Y-66781D01*
X-28Y-67581D01*
X372Y-68381D01*
X-428Y-67981D01*
X-1228Y-68381D01*
X15628Y-67981D02*
Y-68381D01*
X16428D01*
Y-67981D01*
X16828D01*
Y-67181D01*
X16428D01*
Y-66781D01*
X15628D01*
Y-67181D01*
X15228D01*
Y-67981D01*
X15628D01*
Y-33965D02*
Y-34365D01*
X16428D01*
Y-33965D01*
X16828D01*
Y-33165D01*
X16428D01*
Y-32765D01*
X15628D01*
Y-33165D01*
X15228D01*
Y-33965D01*
X15628D01*
X266916Y-800D02*
X267317D01*
X267717Y-400D01*
X268116Y-800D01*
X268516D01*
Y-400D01*
X268116Y0D01*
X268516Y400D01*
Y800D01*
X268116D01*
X267717Y400D01*
X267317Y800D01*
X266916D01*
Y400D01*
X267317Y0D01*
X266916Y-400D01*
Y-800D01*
X-800Y-170123D02*
X-400D01*
X0Y-169723D01*
X400Y-170123D01*
X800D01*
Y-169723D01*
X400Y-169323D01*
X800Y-168923D01*
Y-168523D01*
X400D01*
X0Y-168923D01*
X-400Y-168523D01*
X-800D01*
Y-168923D01*
X-400Y-169323D01*
X-800Y-169723D01*
Y-170123D01*
Y-800D02*
X-400D01*
X0Y-400D01*
X400Y-800D01*
X800D01*
Y-400D01*
X400Y0D01*
X800Y400D01*
Y800D01*
X400D01*
X0Y400D01*
X-400Y800D01*
X-800D01*
Y400D01*
X-400Y0D01*
X-800Y-400D01*
Y-800D01*
X266916Y-170123D02*
X267317D01*
X267717Y-169723D01*
X268116Y-170123D01*
X268516D01*
Y-169723D01*
X268116Y-169323D01*
X268516Y-168923D01*
Y-168523D01*
X268116D01*
X267717Y-168923D01*
X267317Y-168523D01*
X266916D01*
Y-168923D01*
X267317Y-169323D01*
X266916Y-169723D01*
Y-170123D01*
X17600Y-93200D02*
X18400Y-92400D01*
X19200Y-93200D01*
X18400Y-94000D01*
X17600Y-93200D01*
X217000Y6795D02*
X217800Y7594D01*
X218600Y6795D01*
X217800Y5994D01*
X217000Y6795D01*
X17600Y-89500D02*
X18400Y-88700D01*
X19200Y-89500D01*
X18400Y-90300D01*
X17600Y-89500D01*
X28600Y-75960D02*
X29400Y-75160D01*
X30200Y-75960D01*
X29400Y-76760D01*
X28600Y-75960D01*
X31552D02*
X32352Y-75160D01*
X33152Y-75960D01*
X32352Y-76760D01*
X31552Y-75960D01*
X162100Y-80000D02*
X162900Y-79200D01*
X163700Y-80000D01*
X162900Y-80800D01*
X162100Y-80000D01*
X52200Y-88200D02*
X53000Y-87400D01*
X53800Y-88200D01*
X53000Y-89000D01*
X52200Y-88200D01*
X55300D02*
X56100Y-87400D01*
X56900Y-88200D01*
X56100Y-89000D01*
X55300Y-88200D01*
X37000D02*
X37800Y-87400D01*
X38600Y-88200D01*
X37800Y-89000D01*
X37000Y-88200D01*
X34100D02*
X34900Y-87400D01*
X35700Y-88200D01*
X34900Y-89000D01*
X34100Y-88200D01*
X197200Y-88400D02*
X198000Y-87600D01*
X198800Y-88400D01*
X198000Y-89200D01*
X197200Y-88400D01*
X194300D02*
X195100Y-87600D01*
X195900Y-88400D01*
X195100Y-89200D01*
X194300Y-88400D01*
X190400Y-83800D02*
X191200Y-83000D01*
X192000Y-83800D01*
X191200Y-84600D01*
X190400Y-83800D01*
X110700Y-13500D02*
X111500Y-12700D01*
X112300Y-13500D01*
X111500Y-14300D01*
X110700Y-13500D01*
X114700Y-14400D02*
X115500Y-13600D01*
X116300Y-14400D01*
X115500Y-15200D01*
X114700Y-14400D01*
X178200Y-24700D02*
X179000Y-23900D01*
X179800Y-24700D01*
X179000Y-25500D01*
X178200Y-24700D01*
X178700Y-41600D02*
X179500Y-40800D01*
X180300Y-41600D01*
X179500Y-42400D01*
X178700Y-41600D01*
X175600Y-29300D02*
X176400Y-28500D01*
X177200Y-29300D01*
X176400Y-30100D01*
X175600Y-29300D01*
X99800Y-34500D02*
X100600Y-33700D01*
X101400Y-34500D01*
X100600Y-35300D01*
X99800Y-34500D01*
X251278Y-117552D02*
X252078Y-116752D01*
X252878Y-117552D01*
X252078Y-118352D01*
X251278Y-117552D01*
X252079Y-89052D02*
X252879Y-88252D01*
X253679Y-89052D01*
X252879Y-89852D01*
X252079Y-89052D01*
X12279Y-85452D02*
X13079Y-84652D01*
X13879Y-85452D01*
X13079Y-86252D01*
X12279Y-85452D01*
X6279D02*
X7079Y-84652D01*
X7879Y-85452D01*
X7079Y-86252D01*
X6279Y-85452D01*
X779D02*
X1579Y-84652D01*
X2379Y-85452D01*
X1579Y-86252D01*
X779Y-85452D01*
X11179Y-143159D02*
X11979Y-142359D01*
X12779Y-143159D01*
X11979Y-143959D01*
X11179Y-143159D01*
X7579D02*
X8379Y-142359D01*
X9179Y-143159D01*
X8379Y-143959D01*
X7579Y-143159D01*
X3679D02*
X4479Y-142359D01*
X5279Y-143159D01*
X4479Y-143959D01*
X3679Y-143159D01*
X-221D02*
X579Y-142359D01*
X1379Y-143159D01*
X579Y-143959D01*
X-221Y-143159D01*
X-3821D02*
X-3021Y-142359D01*
X-2221Y-143159D01*
X-3021Y-143959D01*
X-3821Y-143159D01*
X7579Y-103452D02*
X8379Y-102652D01*
X9179Y-103452D01*
X8379Y-104252D01*
X7579Y-103452D01*
X11179D02*
X11979Y-102652D01*
X12779Y-103452D01*
X11979Y-104252D01*
X11179Y-103452D01*
X3679D02*
X4479Y-102652D01*
X5279Y-103452D01*
X4479Y-104252D01*
X3679Y-103452D01*
X-221D02*
X579Y-102652D01*
X1379Y-103452D01*
X579Y-104252D01*
X-221Y-103452D01*
X-3821D02*
X-3021Y-102652D01*
X-2221Y-103452D01*
X-3021Y-104252D01*
X-3821Y-103452D01*
X160389Y-18271D02*
X161189Y-17470D01*
X161989Y-18271D01*
X161189Y-19071D01*
X160389Y-18271D01*
X163389Y-16000D02*
X164189Y-15200D01*
X164989Y-16000D01*
X164189Y-16800D01*
X163389Y-16000D01*
X25479Y-3352D02*
X26279Y-2552D01*
X27079Y-3352D01*
X26279Y-4152D01*
X25479Y-3352D01*
X271979Y-81552D02*
X272779Y-80752D01*
X273579Y-81552D01*
X272779Y-82352D01*
X271979Y-81552D01*
X274679Y-48052D02*
X275479Y-47252D01*
X276279Y-48052D01*
X275479Y-48852D01*
X274679Y-48052D01*
X272879Y-57052D02*
X273679Y-56252D01*
X274479Y-57052D01*
X273679Y-57852D01*
X272879Y-57052D01*
X273579Y-22552D02*
X274379Y-21752D01*
X275179Y-22552D01*
X274379Y-23352D01*
X273579Y-22552D01*
X273379Y-15952D02*
X274179Y-15152D01*
X274979Y-15952D01*
X274179Y-16752D01*
X273379Y-15952D01*
X230579Y-14352D02*
X231379Y-13552D01*
X232179Y-14352D01*
X231379Y-15152D01*
X230579Y-14352D01*
X202879Y-24652D02*
X203679Y-23852D01*
X204479Y-24652D01*
X203679Y-25452D01*
X202879Y-24652D01*
X199679Y-22352D02*
X200479Y-21552D01*
X201279Y-22352D01*
X200479Y-23152D01*
X199679Y-22352D01*
X-3700Y-47400D02*
X-2900Y-46600D01*
X-2100Y-47400D01*
X-2900Y-48200D01*
X-3700Y-47400D01*
Y-50550D02*
X-2900Y-49750D01*
X-2100Y-50550D01*
X-2900Y-51350D01*
X-3700Y-50550D01*
Y-53700D02*
X-2900Y-52900D01*
X-2100Y-53700D01*
X-2900Y-54500D01*
X-3700Y-53700D01*
X-6800D02*
X-6000Y-52900D01*
X-5200Y-53700D01*
X-6000Y-54500D01*
X-6800Y-53700D01*
Y-50550D02*
X-6000Y-49750D01*
X-5200Y-50550D01*
X-6000Y-51350D01*
X-6800Y-50550D01*
Y-47400D02*
X-6000Y-46600D01*
X-5200Y-47400D01*
X-6000Y-48200D01*
X-6800Y-47400D01*
X78079Y-145205D02*
X78879Y-144405D01*
X79679Y-145205D01*
X78879Y-146005D01*
X78079Y-145205D01*
X80879D02*
X81679Y-144405D01*
X82479Y-145205D01*
X81679Y-146005D01*
X80879Y-145205D01*
X45164D02*
X45964Y-144405D01*
X46764Y-145205D01*
X45964Y-146005D01*
X45164Y-145205D01*
X42364D02*
X43164Y-144405D01*
X43964Y-145205D01*
X43164Y-146005D01*
X42364Y-145205D01*
X224017Y-126305D02*
X224817Y-125505D01*
X225617Y-126305D01*
X224817Y-127105D01*
X224017Y-126305D01*
Y-124206D02*
X224817Y-123406D01*
X225617Y-124206D01*
X224817Y-125005D01*
X224017Y-124206D01*
Y-128405D02*
X224817Y-127605D01*
X225617Y-128405D01*
X224817Y-129206D01*
X224017Y-128405D01*
Y-130506D02*
X224817Y-129706D01*
X225617Y-130506D01*
X224817Y-131306D01*
X224017Y-130506D01*
Y-132606D02*
X224817Y-131806D01*
X225617Y-132606D01*
X224817Y-133405D01*
X224017Y-132606D01*
Y-134705D02*
X224817Y-133905D01*
X225617Y-134705D01*
X224817Y-135505D01*
X224017Y-134705D01*
X219317Y-124206D02*
X220117Y-123406D01*
X220917Y-124206D01*
X220117Y-125005D01*
X219317Y-124206D01*
X221667D02*
X222467Y-123406D01*
X223267Y-124206D01*
X222467Y-125005D01*
X221667Y-124206D01*
Y-126305D02*
X222467Y-125505D01*
X223267Y-126305D01*
X222467Y-127105D01*
X221667Y-126305D01*
X219317D02*
X220117Y-125505D01*
X220917Y-126305D01*
X220117Y-127105D01*
X219317Y-126305D01*
Y-130506D02*
X220117Y-129706D01*
X220917Y-130506D01*
X220117Y-131306D01*
X219317Y-130506D01*
X221667D02*
X222467Y-129706D01*
X223267Y-130506D01*
X222467Y-131306D01*
X221667Y-130506D01*
X219317Y-128405D02*
X220117Y-127605D01*
X220917Y-128405D01*
X220117Y-129206D01*
X219317Y-128405D01*
Y-134705D02*
X220117Y-133905D01*
X220917Y-134705D01*
X220117Y-135505D01*
X219317Y-134705D01*
X221667D02*
X222467Y-133905D01*
X223267Y-134705D01*
X222467Y-135505D01*
X221667Y-134705D01*
Y-132606D02*
X222467Y-131806D01*
X223267Y-132606D01*
X222467Y-133405D01*
X221667Y-132606D01*
X219317D02*
X220117Y-131806D01*
X220917Y-132606D01*
X220117Y-133405D01*
X219317Y-132606D01*
X221667Y-128405D02*
X222467Y-127605D01*
X223267Y-128405D01*
X222467Y-129206D01*
X221667Y-128405D01*
X189299Y-126323D02*
X190099Y-125523D01*
X190899Y-126323D01*
X190099Y-127123D01*
X189299Y-126323D01*
Y-124223D02*
X190099Y-123423D01*
X190899Y-124223D01*
X190099Y-125023D01*
X189299Y-124223D01*
Y-128423D02*
X190099Y-127623D01*
X190899Y-128423D01*
X190099Y-129223D01*
X189299Y-128423D01*
Y-130523D02*
X190099Y-129723D01*
X190899Y-130523D01*
X190099Y-131323D01*
X189299Y-130523D01*
Y-132623D02*
X190099Y-131823D01*
X190899Y-132623D01*
X190099Y-133423D01*
X189299Y-132623D01*
Y-134723D02*
X190099Y-133923D01*
X190899Y-134723D01*
X190099Y-135523D01*
X189299Y-134723D01*
X184599Y-124223D02*
X185399Y-123423D01*
X186199Y-124223D01*
X185399Y-125023D01*
X184599Y-124223D01*
X186949D02*
X187749Y-123423D01*
X188549Y-124223D01*
X187749Y-125023D01*
X186949Y-124223D01*
Y-126323D02*
X187749Y-125523D01*
X188549Y-126323D01*
X187749Y-127123D01*
X186949Y-126323D01*
X184599D02*
X185399Y-125523D01*
X186199Y-126323D01*
X185399Y-127123D01*
X184599Y-126323D01*
Y-130523D02*
X185399Y-129723D01*
X186199Y-130523D01*
X185399Y-131323D01*
X184599Y-130523D01*
X186949D02*
X187749Y-129723D01*
X188549Y-130523D01*
X187749Y-131323D01*
X186949Y-130523D01*
X184599Y-128423D02*
X185399Y-127623D01*
X186199Y-128423D01*
X185399Y-129223D01*
X184599Y-128423D01*
Y-134723D02*
X185399Y-133923D01*
X186199Y-134723D01*
X185399Y-135523D01*
X184599Y-134723D01*
X186949D02*
X187749Y-133923D01*
X188549Y-134723D01*
X187749Y-135523D01*
X186949Y-134723D01*
Y-132623D02*
X187749Y-131823D01*
X188549Y-132623D01*
X187749Y-133423D01*
X186949Y-132623D01*
X184599D02*
X185399Y-131823D01*
X186199Y-132623D01*
X185399Y-133423D01*
X184599Y-132623D01*
X186949Y-128423D02*
X187749Y-127623D01*
X188549Y-128423D01*
X187749Y-129223D01*
X186949Y-128423D01*
X154740Y-126323D02*
X155540Y-125523D01*
X156340Y-126323D01*
X155540Y-127123D01*
X154740Y-126323D01*
Y-124223D02*
X155540Y-123423D01*
X156340Y-124223D01*
X155540Y-125023D01*
X154740Y-124223D01*
Y-128423D02*
X155540Y-127623D01*
X156340Y-128423D01*
X155540Y-129223D01*
X154740Y-128423D01*
Y-130523D02*
X155540Y-129723D01*
X156340Y-130523D01*
X155540Y-131323D01*
X154740Y-130523D01*
Y-132623D02*
X155540Y-131823D01*
X156340Y-132623D01*
X155540Y-133423D01*
X154740Y-132623D01*
Y-134723D02*
X155540Y-133923D01*
X156340Y-134723D01*
X155540Y-135523D01*
X154740Y-134723D01*
X150040Y-124223D02*
X150840Y-123423D01*
X151640Y-124223D01*
X150840Y-125023D01*
X150040Y-124223D01*
X152390D02*
X153190Y-123423D01*
X153990Y-124223D01*
X153190Y-125023D01*
X152390Y-124223D01*
Y-126323D02*
X153190Y-125523D01*
X153990Y-126323D01*
X153190Y-127123D01*
X152390Y-126323D01*
X150040D02*
X150840Y-125523D01*
X151640Y-126323D01*
X150840Y-127123D01*
X150040Y-126323D01*
Y-130523D02*
X150840Y-129723D01*
X151640Y-130523D01*
X150840Y-131323D01*
X150040Y-130523D01*
X152390D02*
X153190Y-129723D01*
X153990Y-130523D01*
X153190Y-131323D01*
X152390Y-130523D01*
X150040Y-128423D02*
X150840Y-127623D01*
X151640Y-128423D01*
X150840Y-129223D01*
X150040Y-128423D01*
Y-134723D02*
X150840Y-133923D01*
X151640Y-134723D01*
X150840Y-135523D01*
X150040Y-134723D01*
X152390D02*
X153190Y-133923D01*
X153990Y-134723D01*
X153190Y-135523D01*
X152390Y-134723D01*
Y-132623D02*
X153190Y-131823D01*
X153990Y-132623D01*
X153190Y-133423D01*
X152390Y-132623D01*
X150040D02*
X150840Y-131823D01*
X151640Y-132623D01*
X150840Y-133423D01*
X150040Y-132623D01*
X152390Y-128423D02*
X153190Y-127623D01*
X153990Y-128423D01*
X153190Y-129223D01*
X152390Y-128423D01*
X100467Y-126323D02*
X101267Y-125523D01*
X102067Y-126323D01*
X101267Y-127123D01*
X100467Y-126323D01*
Y-124223D02*
X101267Y-123423D01*
X102067Y-124223D01*
X101267Y-125023D01*
X100467Y-124223D01*
Y-128423D02*
X101267Y-127623D01*
X102067Y-128423D01*
X101267Y-129223D01*
X100467Y-128423D01*
Y-130523D02*
X101267Y-129723D01*
X102067Y-130523D01*
X101267Y-131323D01*
X100467Y-130523D01*
Y-132623D02*
X101267Y-131823D01*
X102067Y-132623D01*
X101267Y-133423D01*
X100467Y-132623D01*
Y-134723D02*
X101267Y-133923D01*
X102067Y-134723D01*
X101267Y-135523D01*
X100467Y-134723D01*
X95767Y-124223D02*
X96567Y-123423D01*
X97367Y-124223D01*
X96567Y-125023D01*
X95767Y-124223D01*
X98117D02*
X98917Y-123423D01*
X99717Y-124223D01*
X98917Y-125023D01*
X98117Y-124223D01*
Y-126323D02*
X98917Y-125523D01*
X99717Y-126323D01*
X98917Y-127123D01*
X98117Y-126323D01*
X95767D02*
X96567Y-125523D01*
X97367Y-126323D01*
X96567Y-127123D01*
X95767Y-126323D01*
Y-130523D02*
X96567Y-129723D01*
X97367Y-130523D01*
X96567Y-131323D01*
X95767Y-130523D01*
X98117D02*
X98917Y-129723D01*
X99717Y-130523D01*
X98917Y-131323D01*
X98117Y-130523D01*
X95767Y-128423D02*
X96567Y-127623D01*
X97367Y-128423D01*
X96567Y-129223D01*
X95767Y-128423D01*
Y-134723D02*
X96567Y-133923D01*
X97367Y-134723D01*
X96567Y-135523D01*
X95767Y-134723D01*
X98117D02*
X98917Y-133923D01*
X99717Y-134723D01*
X98917Y-135523D01*
X98117Y-134723D01*
Y-132623D02*
X98917Y-131823D01*
X99717Y-132623D01*
X98917Y-133423D01*
X98117Y-132623D01*
X95767D02*
X96567Y-131823D01*
X97367Y-132623D01*
X96567Y-133423D01*
X95767Y-132623D01*
X98117Y-128423D02*
X98917Y-127623D01*
X99717Y-128423D01*
X98917Y-129223D01*
X98117Y-128423D01*
X65426Y-126323D02*
X66227Y-125523D01*
X67027Y-126323D01*
X66227Y-127123D01*
X65426Y-126323D01*
Y-124223D02*
X66227Y-123423D01*
X67027Y-124223D01*
X66227Y-125023D01*
X65426Y-124223D01*
Y-128423D02*
X66227Y-127623D01*
X67027Y-128423D01*
X66227Y-129223D01*
X65426Y-128423D01*
Y-130523D02*
X66227Y-129723D01*
X67027Y-130523D01*
X66227Y-131323D01*
X65426Y-130523D01*
Y-132623D02*
X66227Y-131823D01*
X67027Y-132623D01*
X66227Y-133423D01*
X65426Y-132623D01*
Y-134723D02*
X66227Y-133923D01*
X67027Y-134723D01*
X66227Y-135523D01*
X65426Y-134723D01*
X60726Y-124223D02*
X61527Y-123423D01*
X62327Y-124223D01*
X61527Y-125023D01*
X60726Y-124223D01*
X63077D02*
X63876Y-123423D01*
X64676Y-124223D01*
X63876Y-125023D01*
X63077Y-124223D01*
Y-126323D02*
X63876Y-125523D01*
X64676Y-126323D01*
X63876Y-127123D01*
X63077Y-126323D01*
X60726D02*
X61527Y-125523D01*
X62327Y-126323D01*
X61527Y-127123D01*
X60726Y-126323D01*
Y-130523D02*
X61527Y-129723D01*
X62327Y-130523D01*
X61527Y-131323D01*
X60726Y-130523D01*
X63077D02*
X63876Y-129723D01*
X64676Y-130523D01*
X63876Y-131323D01*
X63077Y-130523D01*
X60726Y-128423D02*
X61527Y-127623D01*
X62327Y-128423D01*
X61527Y-129223D01*
X60726Y-128423D01*
Y-134723D02*
X61527Y-133923D01*
X62327Y-134723D01*
X61527Y-135523D01*
X60726Y-134723D01*
X63077D02*
X63876Y-133923D01*
X64676Y-134723D01*
X63876Y-135523D01*
X63077Y-134723D01*
Y-132623D02*
X63876Y-131823D01*
X64676Y-132623D01*
X63876Y-133423D01*
X63077Y-132623D01*
X60726D02*
X61527Y-131823D01*
X62327Y-132623D01*
X61527Y-133423D01*
X60726Y-132623D01*
X63077Y-128423D02*
X63876Y-127623D01*
X64676Y-128423D01*
X63876Y-129223D01*
X63077Y-128423D01*
X30386Y-126323D02*
X31186Y-125523D01*
X31986Y-126323D01*
X31186Y-127123D01*
X30386Y-126323D01*
Y-124223D02*
X31186Y-123423D01*
X31986Y-124223D01*
X31186Y-125023D01*
X30386Y-124223D01*
Y-128423D02*
X31186Y-127623D01*
X31986Y-128423D01*
X31186Y-129223D01*
X30386Y-128423D01*
Y-130523D02*
X31186Y-129723D01*
X31986Y-130523D01*
X31186Y-131323D01*
X30386Y-130523D01*
Y-132623D02*
X31186Y-131823D01*
X31986Y-132623D01*
X31186Y-133423D01*
X30386Y-132623D01*
Y-134723D02*
X31186Y-133923D01*
X31986Y-134723D01*
X31186Y-135523D01*
X30386Y-134723D01*
X25686Y-124223D02*
X26486Y-123423D01*
X27286Y-124223D01*
X26486Y-125023D01*
X25686Y-124223D01*
X28036D02*
X28836Y-123423D01*
X29636Y-124223D01*
X28836Y-125023D01*
X28036Y-124223D01*
Y-126323D02*
X28836Y-125523D01*
X29636Y-126323D01*
X28836Y-127123D01*
X28036Y-126323D01*
X25686D02*
X26486Y-125523D01*
X27286Y-126323D01*
X26486Y-127123D01*
X25686Y-126323D01*
Y-130523D02*
X26486Y-129723D01*
X27286Y-130523D01*
X26486Y-131323D01*
X25686Y-130523D01*
X28036D02*
X28836Y-129723D01*
X29636Y-130523D01*
X28836Y-131323D01*
X28036Y-130523D01*
X25686Y-128423D02*
X26486Y-127623D01*
X27286Y-128423D01*
X26486Y-129223D01*
X25686Y-128423D01*
Y-134723D02*
X26486Y-133923D01*
X27286Y-134723D01*
X26486Y-135523D01*
X25686Y-134723D01*
X28036D02*
X28836Y-133923D01*
X29636Y-134723D01*
X28836Y-135523D01*
X28036Y-134723D01*
Y-132623D02*
X28836Y-131823D01*
X29636Y-132623D01*
X28836Y-133423D01*
X28036Y-132623D01*
X25686D02*
X26486Y-131823D01*
X27286Y-132623D01*
X26486Y-133423D01*
X25686Y-132623D01*
X28036Y-128423D02*
X28836Y-127623D01*
X29636Y-128423D01*
X28836Y-129223D01*
X28036Y-128423D01*
X159817Y-106306D02*
X160617Y-105506D01*
X161417Y-106306D01*
X160617Y-107106D01*
X159817Y-106306D01*
X226270Y-101005D02*
X227070Y-100206D01*
X227870Y-101005D01*
X227070Y-101805D01*
X226270Y-101005D01*
X230270D02*
X231070Y-100206D01*
X231870Y-101005D01*
X231070Y-101805D01*
X230270Y-101005D01*
X234270D02*
X235070Y-100206D01*
X235870Y-101005D01*
X235070Y-101805D01*
X234270Y-101005D01*
X236370Y-103605D02*
X237170Y-102805D01*
X237970Y-103605D01*
X237170Y-104405D01*
X236370Y-103605D01*
X232370D02*
X233170Y-102805D01*
X233970Y-103605D01*
X233170Y-104405D01*
X232370Y-103605D01*
X228370D02*
X229170Y-102805D01*
X229970Y-103605D01*
X229170Y-104405D01*
X228370Y-103605D01*
X232370Y-108905D02*
X233170Y-108106D01*
X233970Y-108905D01*
X233170Y-109705D01*
X232370Y-108905D01*
X236370D02*
X237170Y-108106D01*
X237970Y-108905D01*
X237170Y-109705D01*
X236370Y-108905D01*
X234270Y-106306D02*
X235070Y-105506D01*
X235870Y-106306D01*
X235070Y-107106D01*
X234270Y-106306D01*
X226270D02*
X227070Y-105506D01*
X227870Y-106306D01*
X227070Y-107106D01*
X226270Y-106306D01*
X191270Y-101005D02*
X192070Y-100206D01*
X192870Y-101005D01*
X192070Y-101805D01*
X191270Y-101005D01*
X195270D02*
X196070Y-100206D01*
X196870Y-101005D01*
X196070Y-101805D01*
X195270Y-101005D01*
X199270D02*
X200070Y-100206D01*
X200870Y-101005D01*
X200070Y-101805D01*
X199270Y-101005D01*
X201370Y-103605D02*
X202170Y-102805D01*
X202970Y-103605D01*
X202170Y-104405D01*
X201370Y-103605D01*
X197370D02*
X198170Y-102805D01*
X198970Y-103605D01*
X198170Y-104405D01*
X197370Y-103605D01*
X193370D02*
X194170Y-102805D01*
X194970Y-103605D01*
X194170Y-104405D01*
X193370Y-103605D01*
Y-108905D02*
X194170Y-108106D01*
X194970Y-108905D01*
X194170Y-109705D01*
X193370Y-108905D01*
X197370D02*
X198170Y-108106D01*
X198970Y-108905D01*
X198170Y-109705D01*
X197370Y-108905D01*
X201370D02*
X202170Y-108106D01*
X202970Y-108905D01*
X202170Y-109705D01*
X201370Y-108905D01*
X199270Y-106306D02*
X200070Y-105506D01*
X200870Y-106306D01*
X200070Y-107106D01*
X199270Y-106306D01*
X191270D02*
X192070Y-105506D01*
X192870Y-106306D01*
X192070Y-107106D01*
X191270Y-106306D01*
X161965Y-103622D02*
X162765Y-102822D01*
X163565Y-103622D01*
X162765Y-104422D01*
X161965Y-103622D01*
X155817Y-101005D02*
X156617Y-100206D01*
X157417Y-101005D01*
X156617Y-101805D01*
X155817Y-101005D01*
X159817D02*
X160617Y-100206D01*
X161417Y-101005D01*
X160617Y-101805D01*
X159817Y-101005D01*
X163817D02*
X164617Y-100206D01*
X165417Y-101005D01*
X164617Y-101805D01*
X163817Y-101005D01*
X165917Y-103605D02*
X166717Y-102805D01*
X167517Y-103605D01*
X166717Y-104405D01*
X165917Y-103605D01*
X157917D02*
X158717Y-102805D01*
X159517Y-103605D01*
X158717Y-104405D01*
X157917Y-103605D01*
Y-108905D02*
X158717Y-108106D01*
X159517Y-108905D01*
X158717Y-109705D01*
X157917Y-108905D01*
X161917D02*
X162717Y-108106D01*
X163517Y-108905D01*
X162717Y-109705D01*
X161917Y-108905D01*
X165917D02*
X166717Y-108106D01*
X167517Y-108905D01*
X166717Y-109705D01*
X165917Y-108905D01*
X163817Y-106306D02*
X164617Y-105506D01*
X165417Y-106306D01*
X164617Y-107106D01*
X163817Y-106306D01*
X155817D02*
X156617Y-105506D01*
X157417Y-106306D01*
X156617Y-107106D01*
X155817Y-106306D01*
X195270D02*
X196070Y-105506D01*
X196870Y-106306D01*
X196070Y-107106D01*
X195270Y-106306D01*
X230270D02*
X231070Y-105506D01*
X231870Y-106306D01*
X231070Y-107106D01*
X230270Y-106306D01*
X228370Y-108905D02*
X229170Y-108106D01*
X229970Y-108905D01*
X229170Y-109705D01*
X228370Y-108905D01*
X104016D02*
X104816Y-108106D01*
X105616Y-108905D01*
X104816Y-109705D01*
X104016Y-108905D01*
X105917Y-106306D02*
X106717Y-105506D01*
X107517Y-106306D01*
X106717Y-107106D01*
X105917Y-106306D01*
X70916D02*
X71716Y-105506D01*
X72517Y-106306D01*
X71716Y-107106D01*
X70916Y-106306D01*
X31464D02*
X32264Y-105506D01*
X33064Y-106306D01*
X32264Y-107106D01*
X31464Y-106306D01*
X39464D02*
X40264Y-105506D01*
X41064Y-106306D01*
X40264Y-107106D01*
X39464Y-106306D01*
X41564Y-108905D02*
X42364Y-108106D01*
X43164Y-108905D01*
X42364Y-109705D01*
X41564Y-108905D01*
X37564D02*
X38364Y-108106D01*
X39164Y-108905D01*
X38364Y-109705D01*
X37564Y-108905D01*
X33564D02*
X34364Y-108106D01*
X35164Y-108905D01*
X34364Y-109705D01*
X33564Y-108905D01*
Y-103605D02*
X34364Y-102805D01*
X35164Y-103605D01*
X34364Y-104405D01*
X33564Y-103605D01*
X41564D02*
X42364Y-102805D01*
X43164Y-103605D01*
X42364Y-104405D01*
X41564Y-103605D01*
X39464Y-101005D02*
X40264Y-100206D01*
X41064Y-101005D01*
X40264Y-101805D01*
X39464Y-101005D01*
X35464D02*
X36264Y-100206D01*
X37064Y-101005D01*
X36264Y-101805D01*
X35464Y-101005D01*
X31464D02*
X32264Y-100206D01*
X33064Y-101005D01*
X32264Y-101805D01*
X31464Y-101005D01*
X37611Y-103622D02*
X38411Y-102822D01*
X39211Y-103622D01*
X38411Y-104422D01*
X37611Y-103622D01*
X66917Y-106306D02*
X67716Y-105506D01*
X68516Y-106306D01*
X67716Y-107106D01*
X66917Y-106306D01*
X74916D02*
X75717Y-105506D01*
X76516Y-106306D01*
X75717Y-107106D01*
X74916Y-106306D01*
X77017Y-108905D02*
X77816Y-108106D01*
X78616Y-108905D01*
X77816Y-109705D01*
X77017Y-108905D01*
X73017D02*
X73817Y-108106D01*
X74616Y-108905D01*
X73817Y-109705D01*
X73017Y-108905D01*
X69016D02*
X69816Y-108106D01*
X70617Y-108905D01*
X69816Y-109705D01*
X69016Y-108905D01*
Y-103605D02*
X69816Y-102805D01*
X70617Y-103605D01*
X69816Y-104405D01*
X69016Y-103605D01*
X73017D02*
X73817Y-102805D01*
X74616Y-103605D01*
X73817Y-104405D01*
X73017Y-103605D01*
X77017D02*
X77816Y-102805D01*
X78616Y-103605D01*
X77816Y-104405D01*
X77017Y-103605D01*
X74916Y-101005D02*
X75717Y-100206D01*
X76516Y-101005D01*
X75717Y-101805D01*
X74916Y-101005D01*
X70916D02*
X71716Y-100206D01*
X72517Y-101005D01*
X71716Y-101805D01*
X70916Y-101005D01*
X66917D02*
X67716Y-100206D01*
X68516Y-101005D01*
X67716Y-101805D01*
X66917Y-101005D01*
X101917Y-106306D02*
X102717Y-105506D01*
X103516Y-106306D01*
X102717Y-107106D01*
X101917Y-106306D01*
X109916D02*
X110716Y-105506D01*
X111516Y-106306D01*
X110716Y-107106D01*
X109916Y-106306D01*
X112016Y-108905D02*
X112817Y-108106D01*
X113617Y-108905D01*
X112817Y-109705D01*
X112016Y-108905D01*
X108017D02*
X108817Y-108106D01*
X109616Y-108905D01*
X108817Y-109705D01*
X108017Y-108905D01*
X104016Y-103605D02*
X104816Y-102805D01*
X105616Y-103605D01*
X104816Y-104405D01*
X104016Y-103605D01*
X108017D02*
X108817Y-102805D01*
X109616Y-103605D01*
X108817Y-104405D01*
X108017Y-103605D01*
X112016D02*
X112817Y-102805D01*
X113617Y-103605D01*
X112817Y-104405D01*
X112016Y-103605D01*
X109916Y-101005D02*
X110716Y-100206D01*
X111516Y-101005D01*
X110716Y-101805D01*
X109916Y-101005D01*
X105917D02*
X106717Y-100206D01*
X107517Y-101005D01*
X106717Y-101805D01*
X105917Y-101005D01*
X101917D02*
X102717Y-100206D01*
X103516Y-101005D01*
X102717Y-101805D01*
X101917Y-101005D01*
X35464Y-106306D02*
X36264Y-105506D01*
X37064Y-106306D01*
X36264Y-107106D01*
X35464Y-106306D01*
X47086Y-61536D02*
Y-59936D01*
X48686D01*
Y-61536D01*
X47086D01*
X47486Y-61136D02*
Y-60336D01*
X48286D01*
Y-61136D01*
X47486D01*
X49060Y-63401D02*
Y-61801D01*
X50660D01*
Y-63401D01*
X49060D01*
X49460Y-63001D02*
Y-62201D01*
X50260D01*
Y-63001D01*
X49460D01*
X43149Y-61536D02*
Y-59936D01*
X44749D01*
Y-61536D01*
X43149D01*
X43549Y-61136D02*
Y-60336D01*
X44349D01*
Y-61136D01*
X43549D01*
X45123Y-63401D02*
Y-61801D01*
X46723D01*
Y-63401D01*
X45123D01*
X45523Y-63001D02*
Y-62201D01*
X46323D01*
Y-63001D01*
X45523D01*
X165589Y-12500D02*
X166389Y-11700D01*
X167189Y-12500D01*
X166389Y-13300D01*
X165589Y-12500D01*
X83579Y-11491D02*
X84380Y-10691D01*
X85180Y-11491D01*
X84380Y-12291D01*
X83579Y-11491D01*
X60618Y-2200D02*
X61418Y-1400D01*
X62218Y-2200D01*
X61418Y-3000D01*
X60618Y-2200D01*
X56681Y-2192D02*
X57481Y-1392D01*
X58281Y-2192D01*
X57481Y-2992D01*
X56681Y-2192D01*
X47027Y-1600D02*
X47827Y-800D01*
X48627Y-1600D01*
X47827Y-2400D01*
X47027Y-1600D01*
Y3362D02*
X47827Y4162D01*
X48627Y3362D01*
X47827Y2562D01*
X47027Y3362D01*
X201789Y-145205D02*
X202589Y-144405D01*
X203389Y-145205D01*
X202589Y-146005D01*
X201789Y-145205D01*
X146589Y-68200D02*
X147389Y-67400D01*
X148189Y-68200D01*
X147389Y-69000D01*
X146589Y-68200D01*
X148789Y-69400D02*
X149589Y-68600D01*
X150389Y-69400D01*
X149589Y-70200D01*
X148789Y-69400D01*
X251278Y-121989D02*
X252078Y-121189D01*
X252878Y-121989D01*
X252078Y-122789D01*
X251278Y-121989D01*
X26389Y3500D02*
X27189Y4300D01*
X27989Y3500D01*
X27189Y2700D01*
X26389Y3500D01*
X87689Y-2900D02*
X88489Y-2100D01*
X89289Y-2900D01*
X88489Y-3700D01*
X87689Y-2900D01*
X263789Y-89900D02*
X264589Y-89100D01*
X265389Y-89900D01*
X264589Y-90700D01*
X263789Y-89900D01*
X249889Y-154000D02*
X250689Y-153200D01*
X251489Y-154000D01*
X250689Y-154800D01*
X249889Y-154000D01*
X193047Y2742D02*
X193847Y3542D01*
X194647Y2742D01*
X193847Y1942D01*
X193047Y2742D01*
X117689Y-73300D02*
X118489Y-72500D01*
X119289Y-73300D01*
X118489Y-74100D01*
X117689Y-73300D01*
X159259Y-61971D02*
X160059Y-61171D01*
X160859Y-61971D01*
X160059Y-62770D01*
X159259Y-61971D01*
X232089Y-43500D02*
X232889Y-42700D01*
X233689Y-43500D01*
X232889Y-44300D01*
X232089Y-43500D01*
X231789Y-57000D02*
X232589Y-56200D01*
X233389Y-57000D01*
X232589Y-57800D01*
X231789Y-57000D01*
X132186Y-80597D02*
X132986Y-79797D01*
X133786Y-80597D01*
X132986Y-81397D01*
X132186Y-80597D01*
X42789Y-45200D02*
X43589Y-44400D01*
X44389Y-45200D01*
X43589Y-46000D01*
X42789Y-45200D01*
X41389Y-43800D02*
X42189Y-43000D01*
X42989Y-43800D01*
X42189Y-44600D01*
X41389Y-43800D01*
X117789Y-65200D02*
X118589Y-64400D01*
X119389Y-65200D01*
X118589Y-66000D01*
X117789Y-65200D01*
X119989Y-68200D02*
X120789Y-67400D01*
X121589Y-68200D01*
X120789Y-69000D01*
X119989Y-68200D01*
X103024Y-69365D02*
X103824Y-68565D01*
X104624Y-69365D01*
X103824Y-70165D01*
X103024Y-69365D01*
Y-86762D02*
X103824Y-85962D01*
X104624Y-86762D01*
X103824Y-87562D01*
X103024Y-86762D01*
X146589Y-36000D02*
X147389Y-35200D01*
X148189Y-36000D01*
X147389Y-36800D01*
X146589Y-36000D01*
X151989Y-27200D02*
Y-25600D01*
X153589D01*
Y-27200D01*
X151989D01*
X152389Y-26800D02*
Y-26000D01*
X153189D01*
Y-26800D01*
X152389D01*
X183389Y-43500D02*
X184189Y-42700D01*
X184989Y-43500D01*
X184189Y-44300D01*
X183389Y-43500D01*
X184629Y-14040D02*
X185429Y-13240D01*
X186229Y-14040D01*
X185429Y-14840D01*
X184629Y-14040D01*
X173689Y-3000D02*
X174489Y-2200D01*
X175289Y-3000D01*
X174489Y-3800D01*
X173689Y-3000D01*
X191292Y-63258D02*
Y-61659D01*
X192892D01*
Y-63258D01*
X191292D01*
X191692Y-62858D02*
Y-62059D01*
X192492D01*
Y-62858D01*
X191692D01*
X187291Y-63167D02*
Y-61567D01*
X188891D01*
Y-63167D01*
X187291D01*
X187691Y-62767D02*
Y-61967D01*
X188491D01*
Y-62767D01*
X187691D01*
X204389Y-145205D02*
X205189Y-144405D01*
X205989Y-145205D01*
X205189Y-146005D01*
X204389Y-145205D01*
X169389D02*
X170189Y-144405D01*
X170989Y-145205D01*
X170189Y-146005D01*
X169389Y-145205D01*
X166789D02*
X167589Y-144405D01*
X168389Y-145205D01*
X167589Y-146005D01*
X166789Y-145205D01*
X131599Y-169520D02*
Y-167920D01*
X133199D01*
Y-169520D01*
X131599D01*
X131999Y-169121D02*
Y-168321D01*
X132799D01*
Y-169121D01*
X131999D01*
X131599Y-174021D02*
Y-172421D01*
X133199D01*
Y-174021D01*
X131599D01*
X131999Y-173620D02*
Y-172820D01*
X132799D01*
Y-173620D01*
X131999D01*
X138099Y-169520D02*
Y-167920D01*
X139699D01*
Y-169520D01*
X138099D01*
X138499Y-169121D02*
Y-168321D01*
X139299D01*
Y-169121D01*
X138499D01*
X138099Y-174021D02*
Y-172421D01*
X139699D01*
Y-174021D01*
X138099D01*
X138499Y-173620D02*
Y-172820D01*
X139299D01*
Y-173620D01*
X138499D01*
X273289Y-115489D02*
Y-113889D01*
X274889D01*
Y-115489D01*
X273289D01*
X273689Y-115089D02*
Y-114289D01*
X274489D01*
Y-115089D01*
X273689D01*
X266789Y-115489D02*
Y-113889D01*
X268389D01*
Y-115489D01*
X266789D01*
X267189Y-115089D02*
Y-114289D01*
X267989D01*
Y-115089D01*
X267189D01*
X273289Y-110100D02*
Y-108500D01*
X274889D01*
Y-110100D01*
X273289D01*
X273689Y-109700D02*
Y-108900D01*
X274489D01*
Y-109700D01*
X273689D01*
X266789Y-110100D02*
Y-108500D01*
X268389D01*
Y-110100D01*
X266789D01*
X267189Y-109700D02*
Y-108900D01*
X267989D01*
Y-109700D01*
X267189D01*
X266789Y-100100D02*
Y-98500D01*
X268389D01*
Y-100100D01*
X266789D01*
X267189Y-99700D02*
Y-98900D01*
X267989D01*
Y-99700D01*
X267189D01*
X273289Y-100100D02*
Y-98500D01*
X274889D01*
Y-100100D01*
X273289D01*
X273689Y-99700D02*
Y-98900D01*
X274489D01*
Y-99700D01*
X273689D01*
X266789Y-105489D02*
Y-103889D01*
X268389D01*
Y-105489D01*
X266789D01*
X267189Y-105089D02*
Y-104289D01*
X267989D01*
Y-105089D01*
X267189D01*
X273289Y-105489D02*
Y-103889D01*
X274889D01*
Y-105489D01*
X273289D01*
X273689Y-105089D02*
Y-104289D01*
X274489D01*
Y-105089D01*
X273689D01*
X132589Y-52400D02*
Y-50800D01*
X134189D01*
Y-52400D01*
X132589D01*
X132989Y-52000D02*
Y-51200D01*
X133789D01*
Y-52000D01*
X132989D01*
X130389Y-50800D02*
Y-49200D01*
X131989D01*
Y-50800D01*
X130389D01*
X130789Y-50400D02*
Y-49600D01*
X131589D01*
Y-50400D01*
X130789D01*
X127689Y-49500D02*
Y-47900D01*
X129289D01*
Y-49500D01*
X127689D01*
X128089Y-49100D02*
Y-48300D01*
X128889D01*
Y-49100D01*
X128089D01*
X141283Y-82306D02*
X142083Y-81506D01*
X142883Y-82306D01*
X142083Y-83106D01*
X141283Y-82306D01*
X158389Y-87100D02*
X159189Y-86300D01*
X159989Y-87100D01*
X159189Y-87900D01*
X158389Y-87100D01*
X114789D02*
X115589Y-86300D01*
X116389Y-87100D01*
X115589Y-87900D01*
X114789Y-87100D01*
X49095Y-43797D02*
Y-42197D01*
X50695D01*
Y-43797D01*
X49095D01*
X49495Y-43397D02*
Y-42597D01*
X50295D01*
Y-43397D01*
X49495D01*
X171344Y2745D02*
X172144Y3545D01*
X172944Y2745D01*
X172144Y1945D01*
X171344Y2745D01*
X114989Y-68400D02*
X115789Y-67600D01*
X116589Y-68400D01*
X115789Y-69200D01*
X114989Y-68400D01*
X112689Y-66200D02*
X113489Y-65400D01*
X114289Y-66200D01*
X113489Y-67000D01*
X112689Y-66200D01*
X95389Y-16100D02*
X96189Y-15300D01*
X96989Y-16100D01*
X96189Y-16900D01*
X95389Y-16100D01*
X91289D02*
X92089Y-15300D01*
X92889Y-16100D01*
X92089Y-16900D01*
X91289Y-16100D01*
X112189Y-22000D02*
X112989Y-21200D01*
X113789Y-22000D01*
X112989Y-22800D01*
X112189Y-22000D01*
X25089Y-40800D02*
X25889Y-40000D01*
X26689Y-40800D01*
X25889Y-41600D01*
X25089Y-40800D01*
X17955Y-156766D02*
X18755Y-155966D01*
X19555Y-156766D01*
X18755Y-157566D01*
X17955Y-156766D01*
X233350Y-169262D02*
X234150Y-168462D01*
X234950Y-169262D01*
X234150Y-170062D01*
X233350Y-169262D01*
X254989Y-29500D02*
X255789Y-28700D01*
X256589Y-29500D01*
X255789Y-30300D01*
X254989Y-29500D01*
X259289D02*
X260089Y-28700D01*
X260889Y-29500D01*
X260089Y-30300D01*
X259289Y-29500D01*
X232389Y-19700D02*
X233189Y-18900D01*
X233989Y-19700D01*
X233189Y-20500D01*
X232389Y-19700D01*
X149989Y-35900D02*
X150789Y-35100D01*
X151589Y-35900D01*
X150789Y-36700D01*
X149989Y-35900D01*
X73889Y-16000D02*
X74689Y-15200D01*
X75489Y-16000D01*
X74689Y-16800D01*
X73889Y-16000D01*
X73989Y-12500D02*
X74789Y-11700D01*
X75589Y-12500D01*
X74789Y-13300D01*
X73989Y-12500D01*
X15389Y8362D02*
X16189Y9162D01*
X16989Y8362D01*
X16189Y7562D01*
X15389Y8362D01*
Y-6638D02*
X16189Y-5838D01*
X16989Y-6638D01*
X16189Y-7438D01*
X15389Y-6638D01*
X126989Y-28200D02*
Y-26600D01*
X128589D01*
Y-28200D01*
X126989D01*
X127389Y-27800D02*
Y-27000D01*
X128189D01*
Y-27800D01*
X127389D01*
X49396Y-22174D02*
X50196Y-21373D01*
X50996Y-22174D01*
X50196Y-22974D01*
X49396Y-22174D01*
X45763D02*
X46562Y-21373D01*
X47363Y-22174D01*
X46562Y-22974D01*
X45763Y-22174D01*
X98389Y-41600D02*
X99189Y-40800D01*
X99989Y-41600D01*
X99189Y-42400D01*
X98389Y-41600D01*
X94289Y-44000D02*
X95089Y-43200D01*
X95889Y-44000D01*
X95089Y-44800D01*
X94289Y-44000D01*
X92189Y-46000D02*
X92989Y-45200D01*
X93789Y-46000D01*
X92989Y-46800D01*
X92189Y-46000D01*
X94289Y-47800D02*
X95089Y-47000D01*
X95889Y-47800D01*
X95089Y-48600D01*
X94289Y-47800D01*
X91989Y-50000D02*
X92789Y-49200D01*
X93589Y-50000D01*
X92789Y-50800D01*
X91989Y-50000D01*
X186989Y-21565D02*
X187789Y-20765D01*
X188589Y-21565D01*
X187789Y-22365D01*
X186989Y-21565D01*
X190889D02*
X191689Y-20765D01*
X192489Y-21565D01*
X191689Y-22365D01*
X190889Y-21565D01*
X137645Y-51767D02*
Y-50167D01*
X139245D01*
Y-51767D01*
X137645D01*
X138045Y-51367D02*
Y-50567D01*
X138845D01*
Y-51367D01*
X138045D01*
X146992Y-52267D02*
Y-50667D01*
X148592D01*
Y-52267D01*
X146992D01*
X147392Y-51867D02*
Y-51067D01*
X148192D01*
Y-51867D01*
X147392D01*
X110364Y-76900D02*
X111164Y-76100D01*
X111964Y-76900D01*
X111164Y-77700D01*
X110364Y-76900D01*
Y-87225D02*
X111164Y-86425D01*
X111964Y-87225D01*
X111164Y-88025D01*
X110364Y-87225D01*
X214789Y2400D02*
X215589Y3200D01*
X216389Y2400D01*
X215589Y1600D01*
X214789Y2400D01*
X222788Y-42401D02*
X223588Y-41601D01*
X224388Y-42401D01*
X223588Y-43201D01*
X222788Y-42401D01*
X155273Y-54884D02*
X156073Y-54084D01*
X156873Y-54884D01*
X156073Y-55685D01*
X155273Y-54884D01*
X134789Y-49300D02*
Y-47700D01*
X136389D01*
Y-49300D01*
X134789D01*
X135189Y-48900D02*
Y-48100D01*
X135989D01*
Y-48900D01*
X135189D01*
X123889Y-49100D02*
Y-47500D01*
X125489D01*
Y-49100D01*
X123889D01*
X124289Y-48700D02*
Y-47900D01*
X125089D01*
Y-48700D01*
X124289D01*
X122889Y-39200D02*
X123689Y-38400D01*
X124489Y-39200D01*
X123689Y-40000D01*
X122889Y-39200D01*
X129192Y-56967D02*
Y-55367D01*
X130792D01*
Y-56967D01*
X129192D01*
X129592Y-56567D02*
Y-55767D01*
X130392D01*
Y-56567D01*
X129592D01*
X124992Y-41867D02*
Y-40267D01*
X126592D01*
Y-41867D01*
X124992D01*
X125392Y-41467D02*
Y-40667D01*
X126192D01*
Y-41467D01*
X125392D01*
X124392Y-37968D02*
Y-36367D01*
X125992D01*
Y-37968D01*
X124392D01*
X124792Y-37567D02*
Y-36768D01*
X125592D01*
Y-37567D01*
X124792D01*
X138697Y-34362D02*
Y-32762D01*
X140297D01*
Y-34362D01*
X138697D01*
X139097Y-33962D02*
Y-33162D01*
X139897D01*
Y-33962D01*
X139097D01*
X137197Y-36462D02*
Y-34862D01*
X138797D01*
Y-36462D01*
X137197D01*
X137597Y-36062D02*
Y-35262D01*
X138397D01*
Y-36062D01*
X137597D01*
X141197Y-32162D02*
Y-30562D01*
X142797D01*
Y-32162D01*
X141197D01*
X141597Y-31762D02*
Y-30962D01*
X142397D01*
Y-31762D01*
X141597D01*
X141587Y-24852D02*
Y-23252D01*
X143187D01*
Y-24852D01*
X141587D01*
X141987Y-24452D02*
Y-23652D01*
X142787D01*
Y-24452D01*
X141987D01*
X138697Y-30262D02*
Y-28662D01*
X140297D01*
Y-30262D01*
X138697D01*
X139097Y-29862D02*
Y-29062D01*
X139897D01*
Y-29862D01*
X139097D01*
X56916Y-43689D02*
Y-42089D01*
X58517D01*
Y-43689D01*
X56916D01*
X57316Y-43289D02*
Y-42489D01*
X58117D01*
Y-43289D01*
X57316D01*
X53032Y-43797D02*
Y-42197D01*
X54632D01*
Y-43797D01*
X53032D01*
X53432Y-43397D02*
Y-42597D01*
X54232D01*
Y-43397D01*
X53432D01*
X54917Y-41889D02*
Y-40289D01*
X56516D01*
Y-41889D01*
X54917D01*
X55317Y-41489D02*
Y-40689D01*
X56116D01*
Y-41489D01*
X55317D01*
X62922Y-41932D02*
Y-40332D01*
X64522D01*
Y-41932D01*
X62922D01*
X63322Y-41532D02*
Y-40732D01*
X64122D01*
Y-41532D01*
X63322D01*
X58953Y-41932D02*
Y-40332D01*
X60553D01*
Y-41932D01*
X58953D01*
X59353Y-41532D02*
Y-40732D01*
X60153D01*
Y-41532D01*
X59353D01*
X143616Y-57289D02*
Y-55689D01*
X145217D01*
Y-57289D01*
X143616D01*
X144017Y-56889D02*
Y-56089D01*
X144817D01*
Y-56889D01*
X144017D01*
X135676Y-57289D02*
Y-55689D01*
X137276D01*
Y-57289D01*
X135676D01*
X136076Y-56889D02*
Y-56089D01*
X136876D01*
Y-56889D01*
X136076D01*
X64808Y-43832D02*
Y-42232D01*
X66408D01*
Y-43832D01*
X64808D01*
X65208Y-43432D02*
Y-42632D01*
X66008D01*
Y-43432D01*
X65208D01*
X60906Y-43797D02*
Y-42197D01*
X62506D01*
Y-43797D01*
X60906D01*
X61306Y-43397D02*
Y-42597D01*
X62106D01*
Y-43397D01*
X61306D01*
X154992Y-47811D02*
Y-46211D01*
X156592D01*
Y-47811D01*
X154992D01*
X155392Y-47411D02*
Y-46611D01*
X156192D01*
Y-47411D01*
X155392D01*
X152892Y-45842D02*
Y-44241D01*
X154492D01*
Y-45842D01*
X152892D01*
X153292Y-45441D02*
Y-44642D01*
X154092D01*
Y-45441D01*
X153292D01*
X154992Y-43874D02*
Y-42274D01*
X156592D01*
Y-43874D01*
X154992D01*
X155392Y-43474D02*
Y-42674D01*
X156192D01*
Y-43474D01*
X155392D01*
X152892Y-41905D02*
Y-40304D01*
X154492D01*
Y-41905D01*
X152892D01*
X153292Y-41504D02*
Y-40705D01*
X154092D01*
Y-41504D01*
X153292D01*
X154992Y-39937D02*
Y-38337D01*
X156592D01*
Y-39937D01*
X154992D01*
X155392Y-39536D02*
Y-38737D01*
X156192D01*
Y-39536D01*
X155392D01*
X152892Y-37968D02*
Y-36367D01*
X154492D01*
Y-37968D01*
X152892D01*
X153292Y-37567D02*
Y-36768D01*
X154092D01*
Y-37567D01*
X153292D01*
X154992Y-36000D02*
Y-34400D01*
X156592D01*
Y-36000D01*
X154992D01*
X155392Y-35599D02*
Y-34800D01*
X156192D01*
Y-35599D01*
X155392D01*
X201135Y-33520D02*
Y-31920D01*
X202735D01*
Y-33520D01*
X201135D01*
X201535Y-33121D02*
Y-32320D01*
X202335D01*
Y-33121D01*
X201535D01*
X205072Y-33520D02*
Y-31920D01*
X206672D01*
Y-33520D01*
X205072D01*
X205472Y-33121D02*
Y-32320D01*
X206272D01*
Y-33121D01*
X205472D01*
X197198Y-33520D02*
Y-31920D01*
X198798D01*
Y-33520D01*
X197198D01*
X197598Y-33121D02*
Y-32320D01*
X198398D01*
Y-33121D01*
X197598D01*
X249103Y-167489D02*
X249903Y-166689D01*
X250703Y-167489D01*
X249903Y-168289D01*
X249103Y-167489D01*
X245166D02*
X245966Y-166689D01*
X246766Y-167489D01*
X245966Y-168289D01*
X245166Y-167489D01*
X241229D02*
X242029Y-166689D01*
X242829Y-167489D01*
X242029Y-168289D01*
X241229Y-167489D01*
X33703Y-167389D02*
X34503Y-166589D01*
X35303Y-167389D01*
X34503Y-168189D01*
X33703Y-167389D01*
X29766D02*
X30566Y-166589D01*
X31366Y-167389D01*
X30566Y-168189D01*
X29766Y-167389D01*
X25829D02*
X26629Y-166589D01*
X27429Y-167389D01*
X26629Y-168189D01*
X25829Y-167389D01*
X77617Y-47189D02*
X78417Y-46389D01*
X79216Y-47189D01*
X78417Y-47989D01*
X77617Y-47189D01*
X73677D02*
X74476Y-46389D01*
X75276Y-47189D01*
X74476Y-47989D01*
X73677Y-47189D01*
X69736D02*
X70537Y-46389D01*
X71337Y-47189D01*
X70537Y-47989D01*
X69736Y-47189D01*
X65797D02*
X66597Y-46389D01*
X67396Y-47189D01*
X66597Y-47989D01*
X65797Y-47189D01*
X61857D02*
X62656Y-46389D01*
X63456Y-47189D01*
X62656Y-47989D01*
X61857Y-47189D01*
X57916D02*
X58716Y-46389D01*
X59517Y-47189D01*
X58716Y-47989D01*
X57916Y-47189D01*
X77617Y-51439D02*
X78417Y-50639D01*
X79216Y-51439D01*
X78417Y-52239D01*
X77617Y-51439D01*
Y-55689D02*
X78417Y-54889D01*
X79216Y-55689D01*
X78417Y-56489D01*
X77617Y-55689D01*
X57916Y-51439D02*
X58716Y-50639D01*
X59517Y-51439D01*
X58716Y-52239D01*
X57916Y-51439D01*
X61857D02*
X62656Y-50639D01*
X63456Y-51439D01*
X62656Y-52239D01*
X61857Y-51439D01*
X65797D02*
X66597Y-50639D01*
X67396Y-51439D01*
X66597Y-52239D01*
X65797Y-51439D01*
X69736D02*
X70537Y-50639D01*
X71337Y-51439D01*
X70537Y-52239D01*
X69736Y-51439D01*
X73677D02*
X74476Y-50639D01*
X75276Y-51439D01*
X74476Y-52239D01*
X73677Y-51439D01*
X57916Y-55689D02*
X58716Y-54889D01*
X59517Y-55689D01*
X58716Y-56489D01*
X57916Y-55689D01*
X61857D02*
X62656Y-54889D01*
X63456Y-55689D01*
X62656Y-56489D01*
X61857Y-55689D01*
X65797D02*
X66597Y-54889D01*
X67396Y-55689D01*
X66597Y-56489D01*
X65797Y-55689D01*
X69736D02*
X70537Y-54889D01*
X71337Y-55689D01*
X70537Y-56489D01*
X69736Y-55689D01*
X73677D02*
X74476Y-54889D01*
X75276Y-55689D01*
X74476Y-56489D01*
X73677Y-55689D01*
X216076D02*
X216877Y-54889D01*
X217676Y-55689D01*
X216877Y-56489D01*
X216076Y-55689D01*
X212137D02*
X212936Y-54889D01*
X213737Y-55689D01*
X212936Y-56489D01*
X212137Y-55689D01*
X208196D02*
X208997Y-54889D01*
X209797Y-55689D01*
X208997Y-56489D01*
X208196Y-55689D01*
X204257D02*
X205057Y-54889D01*
X205856Y-55689D01*
X205057Y-56489D01*
X204257Y-55689D01*
X200317D02*
X201116Y-54889D01*
X201917Y-55689D01*
X201116Y-56489D01*
X200317Y-55689D01*
X216076Y-51439D02*
X216877Y-50639D01*
X217676Y-51439D01*
X216877Y-52239D01*
X216076Y-51439D01*
X212137D02*
X212936Y-50639D01*
X213737Y-51439D01*
X212936Y-52239D01*
X212137Y-51439D01*
X208196D02*
X208997Y-50639D01*
X209797Y-51439D01*
X208997Y-52239D01*
X208196Y-51439D01*
X204257D02*
X205057Y-50639D01*
X205856Y-51439D01*
X205057Y-52239D01*
X204257Y-51439D01*
X200317D02*
X201116Y-50639D01*
X201917Y-51439D01*
X201116Y-52239D01*
X200317Y-51439D01*
X220017Y-55689D02*
X220816Y-54889D01*
X221617Y-55689D01*
X220816Y-56489D01*
X220017Y-55689D01*
Y-51439D02*
X220816Y-50639D01*
X221617Y-51439D01*
X220816Y-52239D01*
X220017Y-51439D01*
X200317Y-47189D02*
X201116Y-46389D01*
X201917Y-47189D01*
X201116Y-47989D01*
X200317Y-47189D01*
X204257D02*
X205057Y-46389D01*
X205856Y-47189D01*
X205057Y-47989D01*
X204257Y-47189D01*
X208196D02*
X208997Y-46389D01*
X209797Y-47189D01*
X208997Y-47989D01*
X208196Y-47189D01*
X212137D02*
X212936Y-46389D01*
X213737Y-47189D01*
X212936Y-47989D01*
X212137Y-47189D01*
X216076D02*
X216877Y-46389D01*
X217676Y-47189D01*
X216877Y-47989D01*
X216076Y-47189D01*
X220017D02*
X220816Y-46389D01*
X221617Y-47189D01*
X220816Y-47989D01*
X220017Y-47189D01*
X155818Y-18271D02*
X156618Y-17470D01*
X157419Y-18271D01*
X156618Y-19071D01*
X155818Y-18271D01*
X113589Y-57800D02*
X114389Y-57000D01*
X115189Y-57800D01*
X114389Y-58600D01*
X113589Y-57800D01*
X131739Y-68450D02*
X132539Y-67650D01*
X133339Y-68450D01*
X132539Y-69250D01*
X131739Y-68450D01*
X246889Y-74000D02*
X247689Y-73200D01*
X248489Y-74000D01*
X247689Y-74800D01*
X246889Y-74000D01*
Y-78000D02*
X247689Y-77200D01*
X248489Y-78000D01*
X247689Y-78800D01*
X246889Y-78000D01*
X239724Y-82965D02*
X240524Y-82165D01*
X241324Y-82965D01*
X240524Y-83765D01*
X239724Y-82965D01*
X118989Y-14000D02*
X119789Y-13200D01*
X120589Y-14000D01*
X119789Y-14800D01*
X118989Y-14000D01*
X107354Y-68900D02*
X108154Y-68100D01*
X108954Y-68900D01*
X108154Y-69700D01*
X107354Y-68900D01*
X219589Y-13600D02*
X220389Y-12800D01*
X221189Y-13600D01*
X220389Y-14400D01*
X219589Y-13600D01*
X222789Y-17200D02*
X223589Y-16400D01*
X224389Y-17200D01*
X223589Y-18000D01*
X222789Y-17200D01*
X90489Y-76700D02*
X91289Y-75900D01*
X92089Y-76700D01*
X91289Y-77500D01*
X90489Y-76700D01*
X94589D02*
X95389Y-75900D01*
X96189Y-76700D01*
X95389Y-77500D01*
X94589Y-76700D01*
X99089D02*
X99889Y-75900D01*
X100689Y-76700D01*
X99889Y-77500D01*
X99089Y-76700D01*
X120389Y-80600D02*
X121189Y-79800D01*
X121989Y-80600D01*
X121189Y-81400D01*
X120389Y-80600D01*
X143189Y-88900D02*
X143989Y-88100D01*
X144789Y-88900D01*
X143989Y-89700D01*
X143189Y-88900D01*
X141589Y-55500D02*
Y-53900D01*
X143189D01*
Y-55500D01*
X141589D01*
X141989Y-55100D02*
Y-54300D01*
X142789D01*
Y-55100D01*
X141989D01*
X21892Y-156766D02*
X22692Y-155966D01*
X23492Y-156766D01*
X22692Y-157566D01*
X21892Y-156766D01*
X237287D02*
X238087Y-155966D01*
X238887Y-156766D01*
X238087Y-157566D01*
X237287Y-156766D01*
X-4811Y-85452D02*
X-4011Y-84652D01*
X-3211Y-85452D01*
X-4011Y-86252D01*
X-4811Y-85452D01*
X189337Y-60343D02*
Y-58743D01*
X190937D01*
Y-60343D01*
X189337D01*
X189737Y-59943D02*
Y-59143D01*
X190537D01*
Y-59943D01*
X189737D01*
X185400Y-60373D02*
Y-58773D01*
X187000D01*
Y-60373D01*
X185400D01*
X185800Y-59973D02*
Y-59173D01*
X186600D01*
Y-59973D01*
X185800D01*
X171400Y-46300D02*
X172200Y-45500D01*
X173000Y-46300D01*
X172200Y-47100D01*
X171400Y-46300D01*
X172989Y-78600D02*
X173789Y-77800D01*
X174589Y-78600D01*
X173789Y-79400D01*
X172989Y-78600D01*
X176189Y-81800D02*
X176989Y-81000D01*
X177789Y-81800D01*
X176989Y-82600D01*
X176189Y-81800D01*
X178700Y-88400D02*
X179500Y-87600D01*
X180300Y-88400D01*
X179500Y-89200D01*
X178700Y-88400D01*
X175800D02*
X176600Y-87600D01*
X177400Y-88400D01*
X176600Y-89200D01*
X175800Y-88400D01*
D12*
X221664Y-186706D02*
G03*
X221664Y-186706I-800J0D01*
G01*
X170483D02*
G03*
X170483Y-186706I-800J0D01*
G01*
X103553D02*
G03*
X103553Y-186706I-800J0D01*
G01*
X52372D02*
G03*
X52372Y-186706I-800J0D01*
G01*
M02*
