G04 Layer_Color=128*
%FSLAX25Y25*%
%MOIN*%
G70*
G01*
G75*
G04:AMPARAMS|DCode=10|XSize=23.62mil|YSize=25.59mil|CornerRadius=2.95mil|HoleSize=0mil|Usage=FLASHONLY|Rotation=270.000|XOffset=0mil|YOffset=0mil|HoleType=Round|Shape=RoundedRectangle|*
%AMROUNDEDRECTD10*
21,1,0.02362,0.01968,0,0,270.0*
21,1,0.01772,0.02559,0,0,270.0*
1,1,0.00591,-0.00984,-0.00886*
1,1,0.00591,-0.00984,0.00886*
1,1,0.00591,0.00984,0.00886*
1,1,0.00591,0.00984,-0.00886*
%
%ADD10ROUNDEDRECTD10*%
%ADD22C,0.05905*%
G04:AMPARAMS|DCode=23|XSize=23.62mil|YSize=25.59mil|CornerRadius=2.95mil|HoleSize=0mil|Usage=FLASHONLY|Rotation=180.000|XOffset=0mil|YOffset=0mil|HoleType=Round|Shape=RoundedRectangle|*
%AMROUNDEDRECTD23*
21,1,0.02362,0.01968,0,0,180.0*
21,1,0.01772,0.02559,0,0,180.0*
1,1,0.00591,-0.00886,0.00984*
1,1,0.00591,0.00886,0.00984*
1,1,0.00591,0.00886,-0.00984*
1,1,0.00591,-0.00886,-0.00984*
%
%ADD23ROUNDEDRECTD23*%
%ADD24R,0.04724X0.07087*%
%ADD25R,0.02362X0.06102*%
G04:AMPARAMS|DCode=26|XSize=59.05mil|YSize=137.8mil|CornerRadius=7.38mil|HoleSize=0mil|Usage=FLASHONLY|Rotation=90.000|XOffset=0mil|YOffset=0mil|HoleType=Round|Shape=RoundedRectangle|*
%AMROUNDEDRECTD26*
21,1,0.05905,0.12303,0,0,90.0*
21,1,0.04429,0.13780,0,0,90.0*
1,1,0.01476,0.06152,0.02215*
1,1,0.01476,0.06152,-0.02215*
1,1,0.01476,-0.06152,-0.02215*
1,1,0.01476,-0.06152,0.02215*
%
%ADD26ROUNDEDRECTD26*%
%ADD45R,0.07874X0.13780*%
%ADD46O,0.05976X0.02362*%
%ADD47O,0.05976X0.02362*%
%ADD48R,0.02362X0.03937*%
%ADD49R,0.10630X0.04724*%
%ADD50R,0.07874X0.04724*%
%ADD51R,0.04724X0.07874*%
%ADD52R,0.07087X0.04724*%
%ADD53R,0.06102X0.02362*%
%ADD54O,0.03150X0.07874*%
%ADD55O,0.07874X0.03150*%
%ADD56R,0.03661X0.03858*%
%ADD57R,0.03937X0.03937*%
%ADD58R,0.05787X0.04567*%
%ADD59R,0.07480X0.04724*%
%ADD60C,0.04724*%
%ADD61R,0.10236X0.01575*%
D10*
X249917Y-170155D02*
D03*
Y-174486D02*
D03*
X245973Y-170155D02*
D03*
Y-174486D02*
D03*
X242029Y-170155D02*
D03*
Y-174486D02*
D03*
X34529Y-170155D02*
D03*
Y-174486D02*
D03*
X30617Y-170155D02*
D03*
Y-174486D02*
D03*
X26616Y-170155D02*
D03*
Y-174486D02*
D03*
X171489Y-5865D02*
D03*
Y-1535D02*
D03*
X249129Y-15251D02*
D03*
Y-10921D02*
D03*
X249062Y-5786D02*
D03*
Y-1455D02*
D03*
X254929Y-163255D02*
D03*
Y-167586D02*
D03*
X39029Y-163255D02*
D03*
Y-167586D02*
D03*
X253196Y-5786D02*
D03*
Y-1455D02*
D03*
X176329Y-1586D02*
D03*
Y2745D02*
D03*
X176329Y-5655D02*
D03*
Y-9986D02*
D03*
X196716Y-1589D02*
D03*
Y2742D02*
D03*
X196689Y-5335D02*
D03*
Y-9665D02*
D03*
D22*
X261000Y-14611D02*
D03*
D23*
X240454Y-42500D02*
D03*
X236124D02*
D03*
X240454Y-46600D02*
D03*
X236124D02*
D03*
X236124Y-54800D02*
D03*
X240454D02*
D03*
X236124Y-58900D02*
D03*
X240454D02*
D03*
X236124Y-63000D02*
D03*
X240454D02*
D03*
X235924Y-38300D02*
D03*
X240254D02*
D03*
X236124Y-50700D02*
D03*
X240454D02*
D03*
X177335Y-85400D02*
D03*
X181665D02*
D03*
X195535D02*
D03*
X199865D02*
D03*
X35735D02*
D03*
X40065D02*
D03*
X53835D02*
D03*
X58165D02*
D03*
X30224Y-12900D02*
D03*
X34554D02*
D03*
X1844Y-18852D02*
D03*
X-2487D02*
D03*
X182135Y-77800D02*
D03*
X186465D02*
D03*
X191735D02*
D03*
X196065D02*
D03*
X40135D02*
D03*
X44465D02*
D03*
X50135D02*
D03*
X54465D02*
D03*
X131924Y-83800D02*
D03*
X136254D02*
D03*
X253294Y2880D02*
D03*
X248964D02*
D03*
X215635Y-64900D02*
D03*
X219965D02*
D03*
X241965Y-19700D02*
D03*
X237635D02*
D03*
X215635Y-69900D02*
D03*
X219965D02*
D03*
D24*
X66536Y7222D02*
D03*
X52363D02*
D03*
X75324Y7035D02*
D03*
X101309D02*
D03*
X111363D02*
D03*
X137347D02*
D03*
X162516Y7222D02*
D03*
X148343D02*
D03*
D25*
X57481Y-8034D02*
D03*
X61418D02*
D03*
X96191Y-7335D02*
D03*
X92254D02*
D03*
X88317D02*
D03*
X84380D02*
D03*
X80443D02*
D03*
X132229D02*
D03*
X128292D02*
D03*
X124355D02*
D03*
X120418D02*
D03*
X116481D02*
D03*
X153461Y-8034D02*
D03*
X157398D02*
D03*
D26*
X271017Y-121989D02*
D03*
Y-111989D02*
D03*
Y-101989D02*
D03*
D45*
X70180Y-129589D02*
D03*
X90653D02*
D03*
X178853D02*
D03*
X158380D02*
D03*
X193380D02*
D03*
X213853D02*
D03*
X34480D02*
D03*
X54953D02*
D03*
D46*
X21742Y-6638D02*
D03*
Y-1638D02*
D03*
Y3362D02*
D03*
Y8362D02*
D03*
D47*
X43316Y-6638D02*
D03*
Y-1638D02*
D03*
Y3362D02*
D03*
Y8362D02*
D03*
D48*
X189169Y-8932D02*
D03*
X185429D02*
D03*
X181689D02*
D03*
Y2091D02*
D03*
X189169D02*
D03*
X211169Y-8932D02*
D03*
X207429D02*
D03*
X203689D02*
D03*
Y2091D02*
D03*
X211169D02*
D03*
X236160Y-2988D02*
D03*
X239900D02*
D03*
X243640D02*
D03*
Y-14012D02*
D03*
X236160D02*
D03*
D49*
X94379Y-81753D02*
D03*
Y-94352D02*
D03*
X226929Y-9620D02*
D03*
Y2978D02*
D03*
D50*
X33016Y-59747D02*
D03*
Y-42031D02*
D03*
D51*
X125431Y-75300D02*
D03*
X143147D02*
D03*
D52*
X-7591Y-63544D02*
D03*
Y-37560D02*
D03*
D53*
X6779Y-42678D02*
D03*
Y-46615D02*
D03*
Y-50552D02*
D03*
Y-54489D02*
D03*
Y-58426D02*
D03*
D54*
X255439Y-104006D02*
D03*
X260164D02*
D03*
D55*
X270989Y-94624D02*
D03*
Y-89900D02*
D03*
D56*
X7347Y-19052D02*
D03*
X13410D02*
D03*
D57*
X235205Y3080D02*
D03*
X244654D02*
D03*
D58*
X34400Y-106992D02*
D03*
Y-114000D02*
D03*
X245289Y-106992D02*
D03*
Y-114000D02*
D03*
D59*
X51289Y-103501D02*
D03*
Y-116099D02*
D03*
X70937Y-103501D02*
D03*
Y-116099D02*
D03*
X90585Y-103501D02*
D03*
Y-116099D02*
D03*
X110233Y-103501D02*
D03*
Y-116099D02*
D03*
X129882Y-103501D02*
D03*
Y-116099D02*
D03*
X149564Y-103126D02*
D03*
Y-115725D02*
D03*
X169246Y-103126D02*
D03*
Y-115725D02*
D03*
X188929Y-103126D02*
D03*
Y-115725D02*
D03*
X208611Y-103126D02*
D03*
Y-115725D02*
D03*
X228294Y-103126D02*
D03*
Y-115725D02*
D03*
D60*
X266489Y-71600D02*
D03*
X273389D02*
D03*
D61*
X256789Y-35221D02*
D03*
Y-37976D02*
D03*
Y-40732D02*
D03*
Y-43488D02*
D03*
Y-46244D02*
D03*
Y-49000D02*
D03*
Y-51756D02*
D03*
Y-54512D02*
D03*
Y-57268D02*
D03*
Y-60024D02*
D03*
Y-62779D02*
D03*
Y-65535D02*
D03*
Y-68291D02*
D03*
M02*
