M48
;Layer_Color=9474304
;FILE_FORMAT=2:5
INCH,TZ
;TYPE=PLATED
T1F00S00C0.01181
T2F00S00C0.01200
T4F00S00C0.03937
T5F00S00C0.06693
T6F00S00C0.07087
T7F00S00C0.10236
;TYPE=NON_PLATED
T8F00S00C0.02756
%
T01
X132399Y-173221
Y-168720
X138899
Y-173221
X136476Y-56489
X129992Y-56167
X131189Y-50000
X133389Y-51600
X135589Y-48500
X138445Y-50967
X142389Y-54700
X144416Y-56489
X147792Y-51467
X153692Y-45041
Y-41105
Y-37168
X155792Y-35199
Y-39136
Y-43073
Y-47010
X152789Y-26400
X142387Y-24052
X141997Y-31362
X139497Y-29462
Y-33562
X137997Y-35662
X127789Y-27400
X128489Y-48700
X186200Y-59573
X190137Y-59543
X188091Y-62367
X192092Y-62458
X197998Y-32721
X201935
X205872
X267589Y-99300
Y-104689
Y-109300
Y-114689
X274089
Y-109300
Y-104689
Y-99300
X124689Y-48300
X125792Y-41067
X125192Y-37168
X63722Y-41132
X65608Y-43032
X61706Y-42997
X59753Y-41132
X57717Y-42889
X55717Y-41089
X53832Y-42997
X49895
X49860Y-62601
X47886Y-60736
X45923Y-62601
X43949Y-60736
T02
X234150Y-169262
X242029Y-167489
X245966
X249903
X250689Y-154000
X238087Y-156766
X224817Y-134705
Y-132606
Y-130506
Y-128405
Y-126305
Y-124206
X222467
Y-126305
Y-128405
Y-130506
Y-132606
Y-134705
X220117
Y-132606
Y-130506
Y-128405
Y-126305
Y-124206
X229170Y-108905
X233170
X237170
X235070Y-106306
X231070
X227070
X229170Y-103605
X233170
X237170
X235070Y-101005
X231070
X227070
X200070
X196070
X192070
X194170Y-103605
X198170
X202170
X200070Y-106306
X196070
X192070
X194170Y-108905
X198170
X202170
X198000Y-88400
X195100
X191200Y-83800
X176989Y-81800
X173789Y-78600
X162900Y-80000
X159189Y-87100
X160617Y-101005
X156617
X158717Y-103605
X162765Y-103622
X166717Y-103605
X164617Y-101005
Y-106306
X160617
X156617
X158717Y-108905
X162717
X166717
X155540Y-124223
Y-126323
Y-128423
Y-130523
Y-132623
Y-134723
X153190
Y-132623
Y-130523
Y-128423
Y-126323
Y-124223
X150840
Y-126323
Y-128423
Y-130523
Y-132623
Y-134723
X167589Y-145205
X170189
X185399Y-134723
Y-132623
Y-130523
Y-128423
Y-126323
Y-124223
X187749
Y-126323
Y-128423
Y-130523
Y-132623
Y-134723
X190099
Y-132623
Y-130523
Y-128423
Y-126323
Y-124223
X202589Y-145205
X205189
X252078Y-121989
Y-117552
X252879Y-89052
X264589Y-89900
X272779Y-81552
X273679Y-57052
X275479Y-48052
X274379Y-22552
X274179Y-15952
X260089Y-29500
X255789
X233189Y-19700
X231379Y-14352
X223589Y-17200
X220389Y-13600
X203679Y-24652
X200479Y-22352
X191689Y-21565
X187789
X185429Y-14040
X179000Y-24700
X176400Y-29300
X179500Y-41600
X184189Y-43500
X172200Y-46300
X156073Y-54884
X160059Y-61971
X149589Y-69400
X147389Y-68200
X132539Y-68450
X132986Y-80597
X142083Y-82306
X143989Y-88900
X176600Y-88400
X179500
X201116Y-55689
X205057
X208997
X212936
X216877
X220816
Y-51439
X216877
X212936
X208997
X205057
X201116
Y-47189
X205057
X208997
X212936
X216877
X220816
X223588Y-42401
X232889Y-43500
X232589Y-57000
X247689Y-74000
Y-78000
X240524Y-82965
X150789Y-35900
X147389Y-36000
X156618Y-18271
X161189
X164189Y-16000
X166389Y-12500
X119789Y-14000
X115500Y-14400
X111500Y-13500
X112989Y-22000
X96189Y-16100
X92089
X74689Y-16000
X74789Y-12500
X50196Y-22174
X46562
X43589Y-45200
X42189Y-43800
X25889Y-40800
X-2900Y-47400
X-6000
Y-50550
X-2900
Y-53700
X-6000
X-4011Y-85452
X1579
X7079
X13079
X18400Y-89500
Y-93200
X11979Y-103452
X8379
X4479
X579
X-3021
X34364Y-103605
X38411Y-103622
X42364Y-103605
X40264Y-101005
X36264
X32264
Y-106306
X36264
X40264
X38364Y-108905
X42364
X34364
X31186Y-124223
Y-126323
Y-128423
Y-130523
Y-132623
Y-134723
X28836
Y-132623
Y-130523
Y-128423
Y-126323
Y-124223
X26486
Y-126323
Y-128423
Y-130523
Y-132623
Y-134723
X11979Y-143159
X8379
X4479
X579
X-3021
X18755Y-156766
X22692
X26629Y-167389
X30566
X34503
X43164Y-145205
X45964
X61527Y-134723
Y-132623
Y-130523
Y-128423
Y-126323
Y-124223
X63876
Y-126323
Y-128423
Y-130523
Y-132623
Y-134723
X66227
Y-132623
Y-130523
Y-128423
Y-126323
Y-124223
X69816Y-108905
X73817
X77816
X75717Y-106306
X71716
X67716
X69816Y-103605
X73817
X77816
X75717Y-101005
X71716
X67716
X56100Y-88200
X53000
X37800
X34900
X32352Y-75960
X29400
X58716Y-55689
X62656
X66597
X70537
X74476
X78417
Y-51439
X74476
X70537
X66597
X62656
X58716
Y-47189
X62656
X66597
X70537
X74476
X78417
X92989Y-46000
X95089Y-47800
Y-44000
X99189Y-41600
X100600Y-34500
X92789Y-50000
X91289Y-76700
X95389
X99889
X103824Y-69365
X108154Y-68900
X113489Y-66200
X115789Y-68400
X120789Y-68200
X118589Y-65200
X118489Y-73300
X121189Y-80600
X115589Y-87100
X111164Y-87225
X103824Y-86762
X102717Y-101005
X106717
X110716
X108817Y-103605
X104816
X106717Y-106306
X102717
X104816Y-108905
X108817
X112817
X110716Y-106306
X112817Y-103605
X111164Y-76900
X114389Y-57800
X123689Y-39200
X101267Y-124223
Y-126323
Y-128423
Y-130523
Y-132623
Y-134723
X98917
Y-132623
Y-130523
Y-128423
Y-126323
Y-124223
X96567
Y-126323
Y-128423
Y-130523
Y-132623
Y-134723
X81679Y-145205
X78879
X84380Y-11491
X88489Y-2900
X61418Y-2200
X57481Y-2192
X47827Y-1600
Y3362
X27189Y3500
X26279Y-3352
X16189Y-6638
Y8362
X172144Y2745
X174489Y-3000
X193847Y2742
X215589Y2400
X217800Y6795
T04
X51572Y-186706
X102753
X169683
X220864
T05
X181494Y-167020
X195273
X209053
X90943
X77163
X63384
T06
X4349Y-133148
Y-113463
T07
X0Y-169323
X267717
X0Y0
X267717
T08
X13942Y-61951
Y-39195
M30
